<?xml version="1.0" encoding="utf-8"?>
<!-- Generator: Adobe Illustrator 24.3.0, SVG Export Plug-In . SVG Version: 6.00 Build 0)  -->
<svg version="1.1" id="Layer_1" xmlns="http://www.w3.org/2000/svg" xmlns:xlink="http://www.w3.org/1999/xlink" x="0px" y="0px"
	 viewBox="0 0 298.5 339.9" style="enable-background:new 0 0 298.5 339.9;" xml:space="preserve">
<style type="text/css">
	.st0{fill:#343333;}
	.st1{fill:url(#SVGID_1_);}
	.st2{fill:#2E2E2E;}
	.st3{fill:#C85E19;}
	.st4{fill:#4A4749;}
	.st5{fill:#242323;}
	.st6{fill:#2B71B7;}
	.st7{fill:#1B3F7D;}
	.st8{fill:#1F2B50;}
	.st9{fill:url(#SVGID_2_);}
	.st10{fill:#666666;}
	.st11{fill:#D1D1D1;}
	.st12{fill:url(#SVGID_3_);}
	.st13{fill:#EC6D1C;}
	.st14{fill:#FBBF09;}
	.st15{fill:url(#SVGID_4_);}
	.st16{fill:url(#SVGID_5_);}
	.st17{fill:#4F3516;}
	.st18{fill:#6C2D0D;}
	.st19{fill:#FAD053;}
	.st20{fill:#D6993F;}
	.st21{fill:#F0BB37;}
	.st22{fill:url(#SVGID_6_);}
	.st23{fill:#394042;}
	.st24{fill:#1E2326;}
	.st25{fill:#B7B157;}
	.st26{fill:#8D4F1E;}
	.st27{fill:url(#SVGID_7_);}
	.st28{fill:#C1C1C1;}
	.st29{fill:#ACABAB;}
	.st30{fill:#9D9B9A;}
	.st31{fill:url(#SVGID_8_);}
	.st32{fill:#7C7528;}
	.st33{fill:#E7BFA7;}
	.st34{fill:#948E39;}
	.st35{fill:#F2D0BA;}
	.st36{fill:#A97443;}
	.st37{fill:#403115;}
	.st38{fill:#FFFFFF;}
	.st39{fill:#4A2A13;}
	.st40{fill:#AE7454;}
	.st41{fill:#EA675D;}
	.st42{fill:#F09296;}
	.st43{fill:#FAC949;}
	.st44{fill:#CE962D;}
	.st45{fill:url(#SVGID_9_);}
	.st46{fill:#A7CE8B;}
	.st47{fill:#78B83A;}
	.st48{fill:#3EA03C;}
	.st49{fill:#007645;}
	.st50{fill:#00693E;}
	.st51{fill:#017333;}
	.st52{opacity:0.3;fill:#72B536;enable-background:new    ;}
	.st53{opacity:0.5;fill:#017333;enable-background:new    ;}
	.st54{fill:#8C5B20;}
	.st55{fill:#696968;}
	.st56{fill:#454545;}
	.st57{fill:#2B2B2B;}
	.st58{fill:#959594;}
</style>
<g>
	<g id="Layer_2_1_">
		<g id="Layer_1-2">
			<path class="st0" d="M135.1,229.8c-1.6-1-3.5-1.5-5.4-1.5c0.9,1,1.3,2.3,1.4,3.6c1.3,0.2,2.9,0.8,3.3,2.9
				c0.8,4,0.2,19.1,0.2,19.1l3-1v-15.8C137.7,237.1,137.9,231.8,135.1,229.8z"/>
			<rect x="133.7" y="244.4" width="5.6" height="20.5"/>
			<g>
				
					<radialGradient id="SVGID_1_" cx="133.6674" cy="104.1724" r="4.3708" gradientTransform="matrix(1 0 0 -1 0 341.3228)" gradientUnits="userSpaceOnUse">
					<stop  offset="0" style="stop-color:#FFFFFF"/>
					<stop  offset="1" style="stop-color:#FFFFFF"/>
				</radialGradient>
				<path class="st1" d="M131.8,231.3c0,0,3,0.7,3.3,4.7c0,0,0.1,7,0.2,7.1s0.3-7.6,0.3-7.6C135.7,233.2,134,231.4,131.8,231.3z"/>
			</g>
			<polygon class="st2" points="275.2,302.5 288.8,304.6 288.8,310.3 276,311.4 			"/>
			<path class="st2" d="M292.7,301.6c-3.2,0-5.8,2.6-5.8,5.8s2.6,5.8,5.8,5.8s5.8-2.6,5.8-5.8c0,0,0,0,0,0
				C298.5,304.2,295.9,301.6,292.7,301.6z M292.7,311.7c-2.3,0-4.2-1.9-4.2-4.2c0-2.3,1.9-4.2,4.2-4.2c2.3,0,4.2,1.9,4.2,4.2l0,0
				C296.9,309.8,295,311.7,292.7,311.7z"/>
			<path class="st3" d="M240.2,237.3c0,0,3.5-1.2,3.8,3s-3.9,15.8-3.9,15.8s-1.2,5.7-9.3,7.5s-16.5,3-16.5,0s-0.3-6,7.8-6.3
				s11.4-0.3,11.4-0.3S233.9,238,240.2,237.3z"/>
			<path d="M235.4,258.9l3.5-13.5c0.4-0.4,1.9-1.4,4.9-1.4h25c1.2,0.3,4.1,1.5,4.6,3.1c0.4,1.5,0,9.7-0.5,16.6
				c0.4,0.4,0.8,0.7,1.1,1.1s0.8,0.9,1.1,1.3c0.4-5.3,1.3-17.3,0.6-19.7c-1-3.4-4.6-4.7-6.5-4.8H269h-25.3c-4.8,0-6.5,1.4-6.9,2.4
				l-0.2,0.2l-4.1,15.8l0.3,0.1C233.7,259.6,234.5,259.2,235.4,258.9z"/>
			
				<rect x="254.5" y="232.1" transform="matrix(2.582806e-02 -0.9997 0.9997 2.582806e-02 -2.5134 500.2383)" width="1.8" height="38.5"/>
			<path d="M264.5,259.1h0.5l0.4-16.2l-1.8-0.1l-0.4,15.9C263.6,258.9,264.1,259,264.5,259.1z"/>
			<path d="M249.1,256.8l0.3-13.9l-1.8-0.1l-0.4,13.9C247.9,256.8,248.5,256.8,249.1,256.8z"/>
			<polygon points="215.4,236.2 199.4,245.5 198.7,248.1 216.1,237.7 			"/>
			<path d="M219.9,233.2c-2.4-3.9-4.9-6.1-5.5-5s0.8,5.2,3.2,9s4.9,6.1,5.5,5S222.2,237.1,219.9,233.2z M221.4,240.3
				c-0.4,0.7-2.1-1-3.7-3.7s-2.7-5.5-2.4-6.1s2,1,3.7,3.7S221.8,239.6,221.4,240.3z"/>
			<path d="M215.3,231.5c0,0,2.1-0.2,5.7,9.1l-6-2.1l-0.8-1.6L215.3,231.5z"/>
			<polygon points="218.1,235.6 220,234.5 220.4,235.9 218.3,236.3 			"/>
			<polygon class="st4" points="185.6,238.5 200.2,230.2 213.7,250.8 198.4,264 185.7,244.9 			"/>
			<polygon class="st0" points="185.6,238.5 199.5,231.9 211.8,250.7 198.4,264 185.7,244.9 			"/>
			<path class="st5" d="M188.9,237l-3.4,1.6l0.1,6.4l12.8,19l4.3-4.3C198.1,252.1,193.3,244.7,188.9,237z"/>
			<path class="st6" d="M128.4,251.9c0,0-8,4.8-8.4,11.2s3.2,24,9.2,27.9l47.5,11.2h99.9l-0.1-26.9l6.4-9.8c0,0-26.1-18.4-54.7-5.2
				c-26.9,12.4-25.2,31.5-26.7,36.7h-8.8l-2.4-24l10-9.1l-15.1-25.8L128.4,251.9z"/>
			<path class="st7" d="M277.3,275.3c-10.2-12.3-25.5-17.3-41.1-12.5c-10.9,3.4-20.3,11.8-25.3,22c-2.2,4.5-3.7,9.3-4.5,14.2h-22.8
				c-1.2-6.2-3.5-12-8.3-16.5c-6.3-6-15.1-9.6-23.9-8.7c-7.9,0.8-15.1,4.4-21.2,9.3c2.5,10.5,4.9,20.4,4.9,20.4l9.6,1.7l31.1,5.5
				h2.8v0.2h38.7v-0.2h59.5L277.3,275.3z"/>
			<polygon class="st8" points="135.8,303.7 144.8,305.3 175.9,310.8 178.7,310.8 178.7,311 217.4,311 217.4,310.8 276.9,310.8 
				277,303.7 			"/>
			<path d="M283.2,304.2v-0.5c0-2.1-0.2-4.3-0.6-6.4l-3.4,0.6c-0.4-2.1-0.9-4.1-1.7-6l3.2-1.3c-0.8-2.1-1.9-4.2-3.2-6.1l-2.9,1.9
				c-1.1-1.7-2.4-3.4-3.9-4.9l2.5-2.4c-1.6-1.7-3.4-3.1-5.3-4.5l-2,2.8c-1.7-1.2-3.5-2.2-5.5-3l1.4-3.2c-2.1-0.9-4.3-1.6-6.6-2.1
				l-0.7,3.4c-2-0.4-4.1-0.7-6.2-0.7v-3.4H248c-2.1,0-4.3,0.2-6.4,0.6l0.6,3.4c-2.1,0.4-4.1,1-6,1.7l-1.3-3.2
				c-2.1,0.9-4.2,1.9-6.1,3.2l1.9,2.9c-1.7,1.1-3.3,2.4-4.7,3.9l-2.4-2.5c-1.7,1.6-3.1,3.4-4.4,5.3l2.8,2c-1.2,1.7-2.2,3.5-3,5.4
				l-3.2-1.4c-0.9,2.1-1.6,4.3-2.1,6.6l3.4,0.7c-0.4,2-0.7,4.1-0.7,6.2H213c0,0.2,0,0.3,0,0.5c0,2.1,0.2,4.3,0.6,6.4l3.4-0.6
				c0.4,2.1,1,4.1,1.7,6l-3.2,1.3c0.9,2.1,1.9,4.2,3.2,6.1l2.9-1.9c1.1,1.7,2.4,3.4,3.9,4.9l-2.5,2.4c1.6,1.7,3.4,3.1,5.3,4.5
				l1.9-2.8c1.7,1.2,3.5,2.2,5.4,3l-1.4,3.2c2.1,0.9,4.3,1.6,6.6,2.1l0.7-3.4c2,0.4,4.1,0.7,6.2,0.7v3.5h0.5c2.1,0,4.3-0.2,6.4-0.6
				L254,335c2.1-0.4,4.1-0.9,6-1.7l1.3,3.2c2.1-0.9,4.2-1.9,6.1-3.2l-1.9-2.9c1.7-1.1,3.4-2.4,4.9-3.9l2.4,2.5
				c1.7-1.6,3.1-3.4,4.5-5.3l-2.8-2c1.2-1.7,2.2-3.5,3-5.4l3.2,1.4c0.9-2.1,1.6-4.3,2.1-6.6l-3.4-0.7c0.4-2,0.7-4.1,0.7-6.2
				L283.2,304.2z"/>
			<path d="M279.8,303.7c0,17.5-14.2,31.7-31.7,31.7c-17.5,0-31.7-14.2-31.7-31.7c0-17.5,14.2-31.7,31.7-31.7
				C265.6,272,279.8,286.2,279.8,303.7L279.8,303.7z"/>
			<g>
				
					<radialGradient id="SVGID_2_" cx="214.2" cy="74.0528" r="52.27" gradientTransform="matrix(1 0 0 -1 0 341.3228)" gradientUnits="userSpaceOnUse">
					<stop  offset="0" style="stop-color:#FFFFFF"/>
					<stop  offset="1" style="stop-color:#FFFFFF"/>
				</radialGradient>
				<path class="st9" d="M276.6,303.8c0,15.9-12.9,28.8-28.8,28.8c-15.9,0-28.8-12.9-28.8-28.8c0-15.9,12.9-28.8,28.8-28.8
					C263.6,275,276.6,287.9,276.6,303.8C276.6,303.8,276.6,303.8,276.6,303.8z"/>
			</g>
			<path class="st10" d="M268.2,303.7c0,11.1-9,20.2-20.1,20.2c-11.1,0-20.2-9-20.2-20.1c0-11.1,9-20.2,20.1-20.2c0,0,0,0,0,0
				C259.2,283.6,268.2,292.6,268.2,303.7z"/>
			<path class="st11" d="M260.7,303.7c0,7-5.6,12.6-12.6,12.6s-12.6-5.6-12.6-12.6s5.6-12.6,12.6-12.6S260.7,296.8,260.7,303.7
				L260.7,303.7z"/>
			<path d="M249.6,287c0,0.8-0.7,1.5-1.5,1.5c-0.8,0-1.5-0.7-1.5-1.5c0-0.8,0.7-1.5,1.5-1.5c0,0,0,0,0,0
				C248.9,285.5,249.6,286.2,249.6,287z"/>
			<path d="M249.6,320.3c0,0.8-0.7,1.5-1.5,1.5c-0.8,0-1.5-0.7-1.5-1.5c0-0.8,0.7-1.5,1.5-1.5C248.9,318.8,249.6,319.5,249.6,320.3
				C249.6,320.3,249.6,320.3,249.6,320.3z"/>
			<path d="M264.7,305.2c-0.8,0-1.5-0.7-1.5-1.5c0-0.8,0.7-1.5,1.5-1.5c0.8,0,1.5,0.7,1.5,1.5C266.2,304.5,265.5,305.2,264.7,305.2z
				"/>
			<path d="M231.5,305.2c-0.8,0-1.5-0.7-1.5-1.5c0-0.8,0.7-1.5,1.5-1.5c0.8,0,1.5,0.7,1.5,1.5c0,0,0,0,0,0
				C233,304.5,232.3,305.2,231.5,305.2z"/>
			<path d="M260.9,293c-0.6,0.6-1.5,0.6-2.1,0c-0.6-0.6-0.6-1.5,0-2.1c0.6-0.6,1.5-0.6,2.1,0C261.5,291.5,261.5,292.4,260.9,293
				C260.9,293,260.9,293,260.9,293z"/>
			<path d="M237.4,316.5c-0.6,0.6-1.5,0.6-2.1,0c-0.6-0.6-0.6-1.5,0-2.1c0.6-0.6,1.5-0.6,2.1,0c0,0,0,0,0,0
				C238,315,238,315.9,237.4,316.5z"/>
			<path d="M258.8,316.5c-0.5-0.6-0.5-1.6,0.2-2.1c0.6-0.5,1.4-0.5,2,0c0.6,0.6,0.6,1.5,0,2.1C260.3,317.1,259.4,317.1,258.8,316.5
				C258.8,316.5,258.8,316.5,258.8,316.5z"/>
			<path d="M235.3,293c-0.6-0.6-0.6-1.5,0-2.1c0.6-0.6,1.5-0.6,2.1,0c0.6,0.6,0.6,1.5,0,2.1c0,0,0,0,0,0
				C236.8,293.6,235.8,293.6,235.3,293z"/>
			<path d="M182.7,308.9c0-0.1,0-0.3,0-0.4c0-1.9-0.2-3.7-0.5-5.5l-2.9,0.5c-0.3-1.8-0.8-3.5-1.5-5.2l2.8-1.1
				c-0.7-1.9-1.7-3.6-2.8-5.3l-2.5,1.6c-1-1.5-2.1-2.9-3.4-4.2l2.1-2.1c-1.4-1.4-2.9-2.7-4.6-3.9l-1.7,2.5c-1.5-1-3.1-1.9-4.7-2.6
				l1.2-2.7c-1.8-0.8-3.7-1.4-5.7-1.8l-0.6,2.9c-1.8-0.4-3.6-0.6-5.4-0.6v-3h-0.4c-1.9,0-3.7,0.2-5.5,0.5l0.5,2.9
				c-1.8,0.3-3.5,0.8-5.2,1.5l-1.1-2.8c-1.9,0.7-3.6,1.7-5.3,2.7l1.6,2.5c-1.5,1-2.9,2.1-4.2,3.4l-2.1-2.1c-1.4,1.4-2.7,2.9-3.8,4.6
				l2.5,1.7c-1,1.5-1.9,3.1-2.6,4.7l-2.7-1.2c-0.8,1.8-1.4,3.7-1.8,5.7l2.9,0.6c-0.4,1.8-0.6,3.6-0.6,5.4l-3,0c0,0.1,0,0.3,0,0.4
				c0,1.9,0.2,3.7,0.5,5.5l2.9-0.5c0.3,1.8,0.8,3.5,1.5,5.2l-2.7,1.1c0.7,1.8,1.7,3.6,2.7,5.3l2.5-1.6c1,1.5,2.1,2.9,3.4,4.2
				l-2.1,2.1c1.4,1.4,2.9,2.7,4.6,3.9l1.7-2.5c1.5,1,3.1,1.9,4.7,2.6l-1.2,2.7c1.8,0.8,3.7,1.4,5.7,1.8l0.6-2.9
				c1.8,0.4,3.6,0.6,5.4,0.6v3h0.4c1.9,0,3.7-0.2,5.5-0.5l-0.6-2.9c1.8-0.3,3.5-0.8,5.2-1.5l1.1,2.8c1.8-0.7,3.6-1.7,5.3-2.7
				l-1.6-2.5c1.5-1,2.9-2.1,4.2-3.4l2.1,2.1c1.4-1.4,2.7-2.9,3.9-4.5l-2.4-1.7c1-1.5,1.9-3.1,2.6-4.7l2.7,1.2
				c0.8-1.8,1.4-3.7,1.8-5.7l-2.9-0.6c0.4-1.8,0.6-3.6,0.6-5.4L182.7,308.9z"/>
			<path d="M179.8,308.4c0,15.2-12.3,27.5-27.5,27.5c-15.2,0-27.5-12.3-27.5-27.5c0-15.2,12.3-27.5,27.4-27.5
				C167.4,281,179.7,293.3,179.8,308.4C179.8,308.4,179.8,308.4,179.8,308.4z"/>
			<g>
				
					<radialGradient id="SVGID_3_" cx="122.98" cy="64.4028" r="45.24" gradientTransform="matrix(1 0 0 -1 0 341.3228)" gradientUnits="userSpaceOnUse">
					<stop  offset="0" style="stop-color:#FFFFFF"/>
					<stop  offset="1" style="stop-color:#FFFFFF"/>
				</radialGradient>
				<path class="st12" d="M177,308.5c0,13.8-11.1,25-24.9,25c-13.8,0-25-11.1-25-24.9c0-13.8,11.1-24.9,24.9-25
					C165.8,283.6,177,294.7,177,308.5C177,308.5,177,308.5,177,308.5z"/>
			</g>
			<path class="st10" d="M169.7,308.5c0,9.6-7.8,17.5-17.4,17.5c-9.6,0-17.5-7.8-17.5-17.4c0-9.6,7.8-17.5,17.4-17.5c0,0,0,0,0,0
				C161.9,291,169.7,298.8,169.7,308.5z"/>
			<path class="st11" d="M163.2,308.5c0,6-4.9,10.9-10.9,10.9c-6,0-10.9-4.9-10.9-10.9c0-6,4.9-10.9,10.9-10.9
				C158.3,297.5,163.2,302.4,163.2,308.5C163.2,308.5,163.2,308.5,163.2,308.5z"/>
			<path d="M153.6,294c-0.1,0.7-0.7,1.3-1.4,1.2c-0.6-0.1-1.1-0.6-1.2-1.2c0.1-0.7,0.7-1.3,1.4-1.2C153,292.9,153.5,293.4,153.6,294
				z"/>
			<path d="M153.6,322.8c0,0.7-0.6,1.3-1.3,1.3s-1.3-0.6-1.3-1.3c0-0.7,0.6-1.3,1.3-1.3c0,0,0,0,0,0
				C153,321.5,153.6,322.1,153.6,322.8z"/>
			<path d="M166.7,309.7c-0.7,0-1.3-0.6-1.3-1.3c0-0.7,0.6-1.3,1.3-1.3c0.7,0,1.3,0.6,1.3,1.3l0,0
				C168,309.1,167.4,309.7,166.7,309.7z"/>
			<path d="M137.9,309.7c-0.7,0-1.3-0.6-1.3-1.3s0.6-1.3,1.3-1.3c0.7,0,1.3,0.6,1.3,1.3c0,0,0,0,0,0
				C139.2,309.1,138.6,309.7,137.9,309.7z"/>
			<path d="M163.4,299.1c-0.5,0.5-1.3,0.5-1.8,0s-0.5-1.3,0-1.8c0.5-0.5,1.3-0.5,1.8,0C163.9,297.8,163.9,298.6,163.4,299.1
				C163.4,299.1,163.4,299.1,163.4,299.1z"/>
			<path d="M143.1,319.5c-0.5,0.5-1.3,0.5-1.8,0c-0.5-0.5-0.5-1.3,0-1.8c0.5-0.5,1.3-0.5,1.8,0C143.6,318.2,143.6,319,143.1,319.5z"
				/>
			<path d="M161.6,319.5c-0.5-0.5-0.5-1.3,0-1.8c0.5-0.5,1.3-0.5,1.8,0c0.5,0.5,0.5,1.3,0,1.8C162.9,320,162.1,320,161.6,319.5z"/>
			<path d="M141.2,299.2c-0.5-0.5-0.5-1.3,0-1.8c0.5-0.5,1.3-0.5,1.8,0c0.5,0.5,0.5,1.3,0,1.8C142.5,299.7,141.7,299.7,141.2,299.2
				C141.2,299.2,141.2,299.2,141.2,299.2z"/>
			<path d="M152.9,274.9c17.2,0,31.1,13.9,31.1,31.1c0,0,0,0,0,0l0,0c1.1,0,2.1-0.1,3.2-0.2c-0.1-19-15.5-34.3-34.5-34.2
				c-9,0-17.6,3.6-24,9.9c0.7,0.8,1.4,1.6,2.2,2.4C136.8,278.1,144.7,274.8,152.9,274.9z"/>
			<path d="M248.8,263.6c-22,0-39.9,17.9-39.9,40l0,0c-1.4,0-2.7-0.1-4.1-0.2c0.1-24.3,19.8-43.9,44.1-43.9
				c11.6,0,22.7,4.6,30.9,12.8c-0.9,1-1.9,2-2.8,3C269.5,267.8,259.3,263.6,248.8,263.6z"/>
			<path class="st13" d="M127.2,267.2c0.6,3-0.3,5.7-1.8,6s-3.3-2-3.8-5s0.3-5.7,1.9-6S126.6,264.1,127.2,267.2z"/>
			<path class="st14" d="M126.2,267.7c0.4,2.4-0.2,4.5-1.4,4.7s-2.6-1.5-3-3.9s0.2-4.5,1.4-4.7S125.8,265.3,126.2,267.7z"/>
			<path class="st13" d="M127.9,278.4c0.4,2-0.2,3.7-1.2,3.9s-2.1-1.3-2.5-3.2s0.2-3.7,1.2-3.9S127.6,276.5,127.9,278.4z"/>
			<path class="st14" d="M127.3,278.8c0.3,1.5-0.1,2.9-0.9,3s-1.7-1-1.9-2.5s0.1-2.9,0.9-3S127,277.2,127.3,278.8z"/>
			<path class="st13" d="M277.3,266.4c-0.6,1.9-0.3,3.6,0.7,3.9s2.2-1,2.8-2.8s0.3-3.6-0.7-3.9S277.9,264.5,277.3,266.4z"/>
			<path class="st14" d="M277.9,266.7c-0.5,1.4-0.2,2.8,0.5,3s1.7-0.8,2.2-2.2s0.2-2.8-0.5-3S278.3,265.3,277.9,266.7z"/>
			<path class="st5" d="M146,268.7l37.9-7.4l-5.8-11l-34.9,8.3c-1.4,0.6-2.2,2.1-2,3.6c0.5,2.5,1.6,7.3,1.6,7.3L146,268.7z"/>
			<polygon class="st5" points="193.6,260.4 131.4,273.6 131.5,274.3 194.8,262.2 			"/>
			<polygon class="st6" points="153.4,256.3 156.7,266.7 157.8,266.4 154.3,256.1 			"/>
			<polygon class="st6" points="158.8,255 162.7,265.5 163.8,265.3 159.8,254.7 			"/>
			<polygon class="st6" points="157,255.4 160.7,265.9 161.8,265.7 157.9,255.2 			"/>
			<polygon class="st6" points="155.2,255.8 158.7,266.3 159.8,266.1 156.1,255.6 			"/>
			<polygon class="st6" points="149.7,257.2 152.7,267.4 153.8,267.2 150.6,256.9 			"/>
			<polygon class="st6" points="151.5,256.7 154.7,267.1 155.8,266.8 152.5,256.5 			"/>
			<path class="st6" d="M143.2,258.7c-0.2,0.1-0.5,0.3-0.7,0.4l2.2,9.9l1.1-0.3l-2.4-10.1L143.2,258.7z"/>
			<polygon class="st6" points="144.3,258.5 146.7,268.6 147.8,268.4 145.2,258.2 			"/>
			<path class="st6" d="M141.2,262.3c0.5,2.5,1.6,7.3,1.6,7.3l1.1-0.3l-2.1-9.4C141.2,260.6,141,261.4,141.2,262.3z"/>
			<polygon class="st6" points="146.1,258 148.7,268.2 149.8,268 147,257.8 			"/>
			<polygon class="st6" points="147.9,257.6 150.7,267.8 151.8,267.6 148.8,257.4 			"/>
			<polygon class="st6" points="171.6,251.9 176.8,262.7 177.9,262.5 172.6,251.7 			"/>
			<polygon class="st6" points="169.8,252.4 174.8,263.1 175.9,262.9 170.8,252.1 			"/>
			<polygon class="st6" points="173.5,251.5 178.8,262.3 180,262.1 174.5,251.2 			"/>
			<polygon class="st6" points="176.3,250.8 175.3,251 180.9,261.9 182,261.7 			"/>
			<polygon class="st6" points="183.9,261.3 178.1,250.4 177.2,250.6 182.9,261.5 			"/>
			<polygon class="st6" points="160.6,254.5 164.7,265.1 165.8,264.9 161.6,254.3 			"/>
			<polygon class="st6" points="162.5,254.1 166.7,264.7 167.8,264.5 163.4,253.9 			"/>
			<polygon class="st6" points="168,252.8 172.7,263.5 173.9,263.3 168.9,252.6 			"/>
			<polygon class="st6" points="164.3,253.7 168.7,264.3 169.8,264.1 165.3,253.4 			"/>
			<polygon class="st6" points="166.1,253.2 170.7,263.9 171.9,263.7 167.1,253 			"/>
			<g>
				
					<radialGradient id="SVGID_4_" cx="127.41" cy="142.6928" r="87.01" gradientTransform="matrix(1 0 0 -1 0 341.3228)" gradientUnits="userSpaceOnUse">
					<stop  offset="0" style="stop-color:#FFFFFF"/>
					<stop  offset="1" style="stop-color:#FFFFFF"/>
				</radialGradient>
				<path class="st15" d="M122.9,260.4c0,0,3-6.3,6.6-7.3s54.3-13.2,54.3-13.2l4.5,7.2l-46.8,11.4c0,0-2.6,1.4-1.6,5.1
					s1.5,6.9,1.5,6.9l-10.5,2.4C130.9,272.9,129.1,259.4,122.9,260.4z"/>
			</g>
			<g>
				
					<radialGradient id="SVGID_5_" cx="236.63" cy="104.5628" r="20.9" gradientTransform="matrix(1 0 0 -1 0 341.3228)" gradientUnits="userSpaceOnUse">
					<stop  offset="0" style="stop-color:#FFFFFF"/>
					<stop  offset="1" style="stop-color:#FFFFFF"/>
				</radialGradient>
				<path class="st16" d="M233.9,257.4l3.1-12.8c0,0,0.9-2.6,6.6-2.8l22.6,0.2l-22.6,0.5c0,0-5,0.3-6.1,3.4L233.9,257.4z"/>
			</g>
			<path class="st17" d="M63.5,338.3h17c3.1-5.4,6.1-14.1,8-27.1c2.5-16.4,3.5-23.3,3.5-23.3l-33.1,2.2c2.2,14.1,3.6,28.4,4.3,42.6
				C63.2,334.6,63.3,336.4,63.5,338.3z"/>
			<path class="st18" d="M58.9,290.1c0,0,19.6,6.5,33.1-2.2C87.6,285.1,64.4,283,58.9,290.1z"/>
			<path class="st19" d="M144.3,298c-2.1-3.1-1.9-4.5-1.9-4.5s6.9,7.1,14.9-0.1c4.4-3.6,7-3.7,8.4-3.9c-1.3,1.8-2.4,3.7-3.2,5.7
				c0,0,4.6-3.9,13.5-1.7c-4.4,2.8-5.1,3.2-5.1,3.2s16.4,0.1,19.8,4.6c0.3-4.2-0.9-5.6-0.9-5.6s6.1,1.2,7.8,2.8
				c-1.4-4.1-2.4-4.6-2.4-4.6s10.7,0.5,14.7-2.2c0,0,0.1-0.1,0.1-0.1c-2.3,0.3-4.2-2.3-9.5-4.4c-18.9-4.4-37.6-5.4-56-0.9
				S127.7,305,127.7,305c1-0.4,2-0.8,3-1C133.3,301.2,138.1,297.2,144.3,298z"/>
			<path class="st20" d="M131.1,306.4c-0.6,2.1,0,8.2,0.7,17.5s-0.7,13.9-0.7,13.9s0.4,0.2,1.2,0.5h50.3c-0.6-1.9-1.1-3.1-1.1-3.1
				c1.5,0.8,2.9,1.8,4.1,3.1h0.2c-0.4-2.8-1.5-5.4-3.1-7.7l3.5,0.6c-1.1-3.2-2.1-1.3-2.1-11.8c-0.8-14.7,1.1-14,1.1-14l-2.3-2.4
				l3.1-1.8l-2.9-3.3c-4-0.7-8.1-1.1-12.2-1.2c0,0,0.7-0.4,5.1-3.2c-8.9-2.2-13.5,1.7-13.5,1.7c0.8-2,1.9-3.9,3.2-5.7
				c-1.4,0.2-4,0.3-8.4,3.9c-8,7.2-14.9,0.1-14.9,0.1s-0.2,1.4,1.9,4.5c-6.1-0.8-11,3.1-13.6,5.9l0.2-0.1c-0.7,1-1.1,2.1-1.2,3.3
				C130,306.7,130.5,306.4,131.1,306.4z"/>
			<path class="st21" d="M185.7,338.3h26.9c-1.1-2.4-1.8-5.6-1.6-14.2c0.3-15.5-1.8-24.6-1.8-24.6h2.2l-3.6-2.5l5-1.1l-4.2-3.5
				l2.1-1.1c-0.3,0.1-0.6,0.2-0.9,0.3c0,0-0.1,0.1-0.1,0.1c-4,2.8-14.7,2.2-14.7,2.2s1,0.5,2.4,4.6c-1.6-1.5-7.8-2.8-7.8-2.8
				s1.2,1.3,0.9,5.6c-1.2-1.7-4.2-2.7-7.6-3.4l2.9,3.3l-3.1,1.8l2.3,2.4c0,0-1.9-0.7-1.1,14c0,10.6,1,8.7,2.1,11.8l-3.5-0.6
				C184.2,332.9,185.3,335.5,185.7,338.3z"/>
			<path class="st21" d="M185.5,338.3c-1.1-1.3-2.5-2.4-4.1-3.1c0,0,0.5,1.2,1.1,3.1H185.5z"/>
			<g>
				<path class="st20" d="M151,322.7c0-0.4,0.1-0.7,0.1-1s0.1-0.7,0.2-1c0.1-0.7,0.3-1.3,0.6-2c0-0.2,0.1-0.3,0.2-0.5
					c0.1-0.2,0.1-0.3,0.2-0.5c0.3-0.7,0.6-1.3,1-1.9c0.1-0.1,0.2-0.3,0.3-0.4l0.4-0.4l0.1,0.5c-0.2,0-0.5-0.1-0.7-0.1H153l-0.4,0
					c-0.1,0-0.2,0-0.4,0.1c-0.1,0-0.2,0.1-0.4,0.1c-0.2,0.1-0.5,0.2-0.7,0.3c-0.2,0.1-0.4,0.2-0.6,0.4c-0.2,0.1-0.4,0.3-0.6,0.5
					c-0.4,0.3-0.8,0.7-1.1,1.1c0.2-0.5,0.6-0.9,0.9-1.4c0.2-0.2,0.4-0.4,0.6-0.6c0.2-0.2,0.4-0.3,0.6-0.5c0.2-0.1,0.5-0.3,0.7-0.4
					c0.1-0.1,0.2-0.1,0.4-0.1c0.1,0,0.2-0.1,0.4-0.1l0.4-0.1h0.4c0.3,0,0.5,0,0.8,0h0.6l-0.5,0.5l-0.3,0.4c-0.1,0.1-0.2,0.3-0.3,0.4
					c-0.2,0.3-0.4,0.5-0.5,0.8c-0.3,0.6-0.6,1.2-0.8,1.8c-0.3,0.6-0.5,1.3-0.7,1.9S151.2,322,151,322.7z"/>
				<path class="st20" d="M164,338.3L164,338.3l0.7-0.7c0.2-0.2,0.5-0.5,0.7-0.6l0.7-0.6c0.2-0.2,0.5-0.4,0.8-0.5l0.4-0.3
					c0.1-0.1,0.3-0.2,0.4-0.2c0.3-0.2,0.5-0.3,0.8-0.5c0.3-0.1,0.6-0.3,0.8-0.4s0.6-0.2,0.9-0.3c-0.3,0-0.6,0.1-0.9,0.2
					c-0.3,0.1-0.6,0.2-0.9,0.3c-0.3,0.1-0.6,0.2-0.9,0.4c-0.1,0.1-0.3,0.1-0.4,0.2l-0.4,0.2c-0.3,0.2-0.6,0.3-0.8,0.5l-0.8,0.6
					c-0.3,0.2-0.5,0.4-0.7,0.7l-0.1,0.1c0-0.1,0.1-0.3,0.1-0.4s0.1-0.3,0.1-0.4s0.2-0.5,0.4-0.8s0.3-0.5,0.4-0.8
					c0.3-0.5,0.6-1,0.9-1.5s0.6-1,0.9-1.5c-0.4,0.4-0.8,0.9-1.1,1.3c-0.4,0.5-0.7,1-1,1.5c-0.3,0.5-0.6,1-0.9,1.6
					c-0.1,0.3-0.2,0.6-0.3,0.9l-0.1,0.5l-0.1,0.8L164,338.3z"/>
				<path class="st20" d="M194.7,323.4c0.4-0.2,0.8-0.3,1.3-0.5c0.4-0.1,0.9-0.2,1.3-0.3c0.4-0.1,0.9-0.1,1.3-0.1h0.4
					c0.1,0,0.2,0,0.3,0.1c0.2,0.1,0.5,0.1,0.7,0.2l-0.4,0.4c-0.2-0.3-0.3-0.6-0.5-1l-0.3-0.5c-0.1-0.1-0.2-0.3-0.3-0.4
					s-0.4-0.5-0.6-0.8l-0.4-0.4l-0.4-0.3c-0.3-0.2-0.5-0.4-0.8-0.6c-0.1-0.1-0.3-0.1-0.4-0.2c-0.2-0.1-0.3-0.1-0.5-0.1
					c-0.3-0.1-0.7-0.1-1-0.1c-0.3,0-0.7,0.1-1,0.1l0.5-0.2c0.2,0,0.3-0.1,0.5-0.1c0.2,0,0.3-0.1,0.5-0.1c0.5,0,1.1,0.1,1.5,0.3
					c0.3,0.1,0.6,0.3,0.9,0.5l0.4,0.4l0.4,0.4c0.2,0.3,0.5,0.6,0.7,0.9l0.3,0.5l0.3,0.5c0.2,0.3,0.4,0.7,0.5,1l0.4,0.8l-0.8-0.4
					c-0.2-0.1-0.4-0.2-0.6-0.2c-0.1,0-0.2-0.1-0.3-0.1c-0.1,0-0.2,0-0.3,0c-0.4,0-0.8,0-1.3,0c-0.4,0-0.9,0.1-1.3,0.1
					S195.1,323.3,194.7,323.4z"/>
			</g>
			<g>
				
					<radialGradient id="SVGID_6_" cx="120.16" cy="-71.4134" r="45.68" gradientTransform="matrix(1 0 0 -1.13 0 237.6848)" gradientUnits="userSpaceOnUse">
					<stop  offset="0" style="stop-color:#FFFFFF"/>
					<stop  offset="0.69" style="stop-color:#FFFFFF"/>
					<stop  offset="0.75" style="stop-color:#FFFFFF"/>
					<stop  offset="1" style="stop-color:#FFFFFF"/>
				</radialGradient>
				<path class="st22" d="M163.9,338.3c2-5.2,0.6-14.9,1.5-24.9c1.2-15,1.6-19.1-4-15.3c0.5-4.7,0.7-6.7,0.7-6.7s-4.7,3.8-7.7,6.3
					s-10.4-2-10.4-2c0.5,1.7,1.5,3.1,2.9,4.2c1,2-4.9-1.4-5.2,1.4c0,0-0.6,24.2-1.9,34.9c-0.2,0.7-0.2,1.5,0.1,2.1L163.9,338.3z"/>
			</g>
			<path class="st23" d="M133.5,203.2c-5.9-2.5-7.3-2.4-7.3-2.4s1.1-2.8-0.3-2.7c-0.8,0.1-1.5,0.2-2.2,0.5l-2.4-0.8
				c-1.1,0.6-2.2,1.2-3.3,1.7C121.1,202.8,128.4,209.4,133.5,203.2z"/>
			<path class="st23" d="M74.7,201.4c-2.3-0.6-4.7-1.4-7.2-2.3c0,0-5.5,4.9-4.2,7s2.6,2.5,2.3,3.9c-0.2,1.1-1,0.8-1.5,8.5
				C72.9,214.3,74.4,205.5,74.7,201.4z"/>
			<path class="st24" d="M135.3,204l-1.7-0.8c-5.1,6.1-12.4-0.4-15.5-3.7c-6.5,2.9-22,7.8-43.4,1.9c-0.2,4.1-1.7,12.9-10.5,17.1
				c-0.1,1.8-0.2,4-0.3,6.8c-0.4,14.7,0.7,66.1,0.7,66.1s12.2,3.3,22-1.2c2.2-30.2,3-63.5,13.6-67.3c6.6-2.1,35.9,13.7,38.6,20
				c8.6-2.4,18.5-4.6,25.5-3.6C161.7,221.8,156.2,214.4,135.3,204z"/>
			<path class="st17" d="M136.1,244.7c8.8-4,18.5-5.8,28.1-5.4c2.3,0.4,2.6,1,1.8,6.7s-3.5,28.7-5.1,39.3
				c-1.9,13-15.2,17.7-18.5-0.1c-1.7-12.5-2.5-29-4.2-33.7C136.5,246.7,135.3,245.6,136.1,244.7z"/>
			<path class="st25" d="M79.1,109.6c0,0-18.2,3.2-24.2,12.4c7,44.1,8.9,63.5,10,72.1c1.3,6.5,1.5,9.8,17.8,12
				c19,2.5,38.4-1.3,42-11.4s4.5-29.2,1.1-46.7c-2.2-10.1-2.3-20.6-0.4-30.8c3.2-3-5.7-7.2-14.3-8.3
				C102.5,108.6,79.1,109.6,79.1,109.6z"/>
			<path class="st26" d="M118.3,267.3c0.1,1.5-1,2.7-2.5,2.8l0,0c-1.5-0.1-2.6-1.4-2.5-2.8V148.8c-0.1-1.5,1-2.7,2.5-2.8l0,0
				c1.5,0.1,2.6,1.4,2.5,2.8V267.3z"/>
			<g>
				
					<radialGradient id="SVGID_7_" cx="72.61" cy="-34.7772" r="54.95" gradientTransform="matrix(1 0 0 -1 0 341.3228)" gradientUnits="userSpaceOnUse">
					<stop  offset="0" style="stop-color:#FFFFFF"/>
					<stop  offset="0.69" style="stop-color:#FFFFFF"/>
					<stop  offset="0.75" style="stop-color:#FFFFFF"/>
					<stop  offset="1" style="stop-color:#FFFFFF"/>
				</radialGradient>
				<path class="st27" d="M115.3,267.3c0,1.6-0.5,2.8-1,2.8l0,0c-0.6,0-1-1.3-1-2.8V148.8c0-1.6,0.5-2.8,1-2.8l0,0
					c0.6,0,1,1.3,1,2.8V267.3z"/>
			</g>
			<path class="st28" d="M121.5,274.6c0,2.9-2.1,5.2-4.6,5.2h-2.3c-2.6,0-4.6-2.3-4.6-5.2V272c0-2.9,2.1-5.2,4.6-5.2h2.3
				c2.6,0,4.6,2.3,4.6,5.2V274.6z"/>
			<path class="st29" d="M119.8,272.2c-0.1,0.7-0.8,1.3-1.5,1.2c-0.7-0.1-1.3-0.8-1.2-1.5c0.1-0.7,0.7-1.2,1.3-1.2
				C119.2,270.7,119.8,271.4,119.8,272.2z"/>
			<path class="st30" d="M98.2,338.3H99c1-7.5,1-15.2-0.1-22.7c-2.5-17-6.8-27.7,9.2-34.4c6.9-2.9,22.7-2.6,30.2,7.3
				c-4.2-9.5-21.6-10.2-21.6-10.2c-26.2,0.6-22.2,18-19.1,35.6C98.9,321.9,99,330.1,98.2,338.3z"/>
			<path class="st30" d="M105.7,297.5c3.3-0.3,3.8,22.5,4,32.2c0.1,3.3,0,6.2,0,8.6h2c0.3-5.3-0.2-12.4-0.6-19.6
				c-0.7-12.6-1.4-22.1-4.4-22.2c-1,0-1.6,0.7-1.8,1.7C105.2,297.7,105.4,297.5,105.7,297.5z"/>
			<path class="st30" d="M122.2,328.7c0,3.8-0.2,7-0.3,9.6h2c0.5-5.6,0.5-13.3,0.4-19.7c-0.2-10.9-1.6-21.5-4.7-21.9
				c-0.9-0.1-1.8,0.3-2.3,1c0.2-0.2,0.5-0.3,0.8-0.3C121.6,296.7,122,318.4,122.2,328.7z"/>
			<path class="st30" d="M130.8,298.2c4.7,1.3,3.5,29,2.4,39.4c0,0.2,0,0.4,0,0.6h1.5c0.7-6.5,1-13.1,1-19.6
				c0.2-15.7-2-21.3-4.3-21.6c-1.1-0.1-1.6,0.9-1.7,1.9C129.9,298.5,130.3,298.2,130.8,298.2z"/>
			<path class="st28" d="M99,338.3h3.8c1.5-6.9,1.8-17.3,1.5-23.6c-0.3-8.2-0.4-14.5,0.6-16.5c0.2-1,0.8-1.7,1.8-1.7
				c3,0.1,3.6,9.6,4.4,22.2c0.4,7.2,0.9,14.3,0.6,19.6h4.2c1.2-7.6,0.7-18.9,0.6-23.9c-0.1-7.1-1.9-14.9,0.6-16.7
				c0.5-0.7,1.4-1.1,2.3-1c3.2,0.3,4.6,10.9,4.7,21.9c0.1,6.4,0.1,14.1-0.4,19.7h3.6c1-5,1.3-12.2,1.3-19.5
				c0-10.6-0.4-17.7,0.9-19.8c0.2-1.1,0.7-2.1,1.7-1.9c2.2,0.3,4.4,6,4.3,21.6c0,6.6-0.3,13.1-1,19.6h3.6c0-0.2,0.1-0.5,0.1-0.8
				c1-7.2,2.1-33.1,0.8-45.7c-0.1-1.1-0.4-2.2-0.9-3.3c-7.5-9.9-23.3-10.2-30.2-7.3c-16,6.6-11.7,17.3-9.2,34.4
				C100,323.1,100,330.7,99,338.3z"/>
			<g>
				
					<radialGradient id="SVGID_8_" cx="77.39" cy="-106.8472" r="48.21" gradientTransform="matrix(1 0 0 -1 0 341.3228)" gradientUnits="userSpaceOnUse">
					<stop  offset="0" style="stop-color:#FFFFFF"/>
					<stop  offset="0.69" style="stop-color:#FFFFFF"/>
					<stop  offset="0.75" style="stop-color:#FFFFFF"/>
					<stop  offset="1" style="stop-color:#FFFFFF"/>
				</radialGradient>
				<path class="st31" d="M115.9,280.5c0,0-19.9,1.4-18.6,17.4c1.2,15,3.7,21.7,2.7,34.2c-0.6,8.3,4.3,5.5,3.3-13.4
					s-1.5-24.2,4.3-24.5C125.7,293.2,127.4,279.1,115.9,280.5z"/>
			</g>
			<path class="st32" d="M94.1,118.1c0,0,0.3,5.5,0.9,13.8c0.2,4.1,0.5,9,0.8,14.1s0.6,10.7,0.9,16.2s0.5,11,0.8,16.2
				s0.4,10,0.6,14.1s0.3,7.6,0.4,10s0.1,3.8,0.1,3.8s-0.1-1.4-0.2-3.8s-0.4-5.9-0.6-10s-0.5-9-0.8-14.1s-0.6-10.7-0.9-16.2
				s-0.5-11-0.8-16.2s-0.4-10-0.6-14.1C94.3,123.6,94.1,118.1,94.1,118.1z"/>
			<path class="st33" d="M101.7,101.7l-14.8,0.9l-0.5,0.3v4.1c2.7,3.5,5.1,7.3,7.2,11.2c0.2,0,0.3-0.1,0.5-0.1c0.3-0.1,0.7-0.1,1,0
				c3-5.1,5.7-10.4,8-15.9C102.7,102,102.2,101.9,101.7,101.7z"/>
			<path class="st34" d="M86.4,102.9c-1.6,1-6.6,4.3-9.3,7c0.7,4.8,10.3,16.8,10.5,16.3s2.2-7.2,6-8.2c-2.1-3.9-4.5-7.6-7.2-11.1
				V102.9z"/>
			<path class="st34" d="M103.1,102.2c-2.3,5.5-5,10.8-8,15.9c4.1,0.7,9.8,7.4,9.8,7.4l6.9-16.3
				C111.9,109.2,108.2,104.3,103.1,102.2z"/>
			<path class="st34" d="M54.7,120.9c0,0-8.4,4.7-4.2,22.5S59.6,175,65.7,177s18.3-1.5,26.2-11.8c-5.6-19.1-6.1-22.9-6.1-22.9
				l-13.2,5.8C72.6,148.2,63.4,115.9,54.7,120.9z"/>
			<polygon class="st32" points="85,141.9 92.1,166.8 99.6,162.5 92.3,138.9 			"/>
			<path class="st25" d="M95.6,159.8c-0.1,0.7-0.7,1.2-1.5,1.1c-0.7-0.1-1.2-0.7-1.1-1.5c0.1-0.7,0.6-1.2,1.3-1.1
				C95.1,158.4,95.6,159.1,95.6,159.8z"/>
			<path class="st34" d="M145.8,137.8C138.7,120.1,125,114,125,114s-2,15.8-1.5,24.8c0.3,6.1,3,6.5,3,6.5s1.5-4.6,3.4-3.6
				s3.2,1.5,2.6,2.7c-0.5,1-5.8,16.9-7.2,21.2c13.3,7.1,18.5,10.3,23.7,3.9C154.3,160.7,152.8,156.3,145.8,137.8z"/>
			<path class="st32" d="M129.8,141.7c-1.9-1-2,0.3-2,0.3c-3,6.8-5.5,13.8-7.5,21c1.8,0.9,3.4,1.8,4.9,2.6
				c1.4-4.2,6.8-20.2,7.2-21.2C133,143.2,131.7,142.7,129.8,141.7z"/>
			<path class="st32" d="M132.5,143.9l0.4,0.1c0.3,0,0.7,0.1,1.1,0.2s1,0.2,1.6,0.4s1.2,0.3,1.8,0.5s1.2,0.4,1.7,0.7
				c0.3,0.1,0.5,0.2,0.8,0.4l0.7,0.4c0.2,0.1,0.4,0.2,0.6,0.4l0.4,0.3l0.4,0.3l-0.4-0.1l-0.5-0.2c-0.2-0.1-0.4-0.1-0.6-0.2l-1.5-0.5
				c-0.6-0.2-1.1-0.4-1.8-0.6l-1.7-0.6l-1.5-0.5l-1.1-0.4L132.5,143.9z"/>
			<path class="st25" d="M124.5,160.9c-0.1,0.7-0.7,1.2-1.5,1.1c-0.7-0.1-1.2-0.7-1.1-1.5c0.1-0.7,0.6-1.2,1.3-1.1
				C124,159.5,124.6,160.1,124.5,160.9z"/>
			<path class="st33" d="M122.8,154.7c0,0-3.9-2.6-7-4.6c-2.8,4.6-3.2,4.3-13.3,2.3c6.1-10.7,11.8-13.6,17.6-10.7s6.2,3.9,6.2,3.9
				L122.8,154.7z"/>
			<path class="st35" d="M92.6,140.2c5.6-2.9,11.5-5.1,17.6-6.7c2.1-6.1,3-7.4,4.1-7.5s0.3,3.8,0.3,3.8c2-1.7,4.6-2.6,7.2-2.6
				c4.4,0.1,4.4,0.4,4.6,1.3c0.2,0.8-5.7,1.8-6.4,3.1c5.7-0.5,8.8,1.2,9,2.4s-5.8,0.4-8,1.7c5.9,1.6,7.8,2.6,7.6,4.2
				s-8.3-0.2-8.3-0.2s6,3.8,5.3,5.6s-6.6-2.8-6.6-2.8s-1.6,5.5-7,2.2c-5.7,5-14.1,12.8-14.1,12.8L92.6,140.2z"/>
			<path class="st33" d="M56.8,72c0,0-6.5-1.4-7,7.5c0.2,7.2,9.5,10.4,12.4,5.1C63.9,80.1,56.8,72,56.8,72z"/>
			<path class="st33" d="M125.9,68.2c0,0,4.5-2.4,7.2,1.8s0.7,13.3-5.5,14.3c-4.2,0.3-4.6-4.2-4.2-7.1S124.5,69.4,125.9,68.2z"/>
			<path class="st36" d="M31.7,52.4c0,0,48.7,22,116.8-1.3C136.9,43,82.4,25.7,31.7,52.4z"/>
			<path class="st17" d="M69,55.1c0,0,6-12.8,11.4-20.2c-8.8,0.7-17,2.4-22.4,5.5c0,0-9.2,5.5-11.7,19.1c0.9-1,2.1-1.9,3.3-2.5
				c-0.8,3-1.1,6.2-0.8,9.3l2.2-2c0,0,6.7,10.9,9.9,15.4c0,0,1.7-17.2,6.7-30.5C67.9,51.2,68.3,53.2,69,55.1z"/>
			<path class="st17" d="M130,52.3c1.6,0.5,3.2,1.2,4.8,2c0,0-4.6-9-11.7-14.5c-2.3-1.8-8.1-3.3-15.4-4.2c2.1,5,4.5,9.8,7.1,14.5
				l0.4-4.4c0,0,3.6,8.7,7.2,16.4c1.7,3.8,2.5,7.9,2.4,12c0.8-4,2.4-6.5,4.4-10.3c-0.1-2.2-0.4-4.4-0.8-6.5L133,61
				C133,61,131.9,54.9,130,52.3z"/>
			<path class="st35" d="M115.2,45.7l-0.4,4.4c-2.6-4.7-5-9.6-7.1-14.5c-9.1-1.1-18.2-1.4-27.3-0.7C75,42.3,69,55.1,69,55.1
				c-0.7-1.9-1.1-4-1.4-6c-5,13.4-6.7,30.5-6.7,30.5s0,12.8,4.9,15.6s27.1,15.4,47.9,1.8c7.9-5.1,10.2-8,10.8-20
				c0.1-1,0.2-1.9,0.4-2.8c0.1-4.1-0.7-8.2-2.4-12C118.8,54.4,115.2,45.7,115.2,45.7z"/>
			<path class="st17" d="M80.5,81.1c0,0-6.1,0.3-7.6,4.3c1.2-0.3,2.5-0.4,3.7-0.2c0,0-4.8,4.4-5.8,8.8c0.6-0.6,1.3-1,2-1.4
				c-1,2.6-0.8,5.4,0.5,7.9c0.2-1.1,0.5-2.2,0.8-3.3c0,0,1.5,4.5,7.6,7.1c-0.7-2.5-0.1-2.7-0.1-2.7s0.7,2.7,13.7,4.3
				c2.8-0.1,9.9-4.7,9.9-4.7c-0.3,0.8-0.7,1.6-1.1,2.3c8.1-3.5,12.3-8.4,8.1-15c0.8,0.1,1.6,0.5,2.2,1.1c0,0-0.8-5.2-7.5-7.9
				c3.8-0.6,4.9,0.6,4.9,0.6s-0.6-3-6.1-4.6c1.3-0.6,2.7-0.7,4-0.3c0,0-4.7-5.4-14.4-0.5c-7,4.2-6.5,2.7-10.1,2
				c-2.5-0.4-5.1-0.3-7.6,0.4C80,79.9,80.5,81.1,80.5,81.1z"/>
			<path class="st37" d="M78.5,69.6c0.2,2.9-0.7,5.4-1.9,5.4s-2.2-2.2-2.4-5.2s0.7-5.4,1.9-5.5S78.3,66.7,78.5,69.6z"/>
			<path class="st38" d="M76.3,67c0,0.9-0.2,1.6-0.5,1.6s-0.7-0.7-0.7-1.5s0.2-1.6,0.5-1.6S76.2,66.1,76.3,67z"/>
			<path class="st37" d="M104.2,65.4c0.3,2.9-0.3,5.4-1.5,5.6s-2.4-2.1-2.7-5c-0.3-2.9,0.3-5.4,1.5-5.6S103.8,62.4,104.2,65.4z"/>
			<path class="st38" d="M101.8,62.9c0.1,0.9-0.1,1.6-0.4,1.6s-0.7-0.6-0.8-1.5s0.1-1.6,0.4-1.6S101.7,62.1,101.8,62.9z"/>
			<path class="st39" d="M69.9,62.1c0,0-0.1-5,10,1.7l0.3-1.3C80.2,62.6,69.7,45,69.9,62.1z"/>
			<path class="st39" d="M94.4,59.9c0,0,5.5-7.3,13.9-6.2c0,0-3-7.2-7.7-5.6c-4.1,2.4-5.2,6.8-6.3,9.8C93.7,59.8,94,60.2,94.4,59.9z
				"/>
			<path class="st40" d="M87.7,70.1c-0.4,0-0.7,0-1.1,0.1c-0.3,0-0.7,0.1-1,0.2c-0.2,0-0.3,0.1-0.5,0.2c-0.2,0.1-0.3,0.1-0.5,0.2
				c-0.2,0.1-0.3,0.2-0.4,0.3c-0.1,0.1-0.3,0.2-0.4,0.4c-0.1,0.1-0.2,0.3-0.3,0.4l-0.3,0.5l-0.2,0.5c-0.1,0.2-0.1,0.4-0.1,0.6
				c0,0.2-0.1,0.4-0.1,0.6v0.6c0,0.2,0,0.4,0.1,0.6l0.1,0.6l0,0c0.1,0.2,0.2,0.5,0.3,0.7c0.1,0.2,0.3,0.4,0.5,0.6
				c0.2,0.2,0.3,0.4,0.5,0.6c0.2,0.2,0.4,0.3,0.6,0.5c0.2,0.2,0.4,0.3,0.7,0.4l0.3,0.2l0.3,0.2c0.2,0.1,0.5,0.2,0.7,0.2
				c0.2,0.1,0.5,0.1,0.7,0.2l0.4,0.1h0.4c0.3,0,0.5,0,0.8,0c0.3,0,0.5,0,0.8-0.1c0.2,0,0.5-0.1,0.8-0.1S91,79,91.2,79
				s0.5-0.2,0.7-0.3c0.2-0.1,0.5-0.2,0.7-0.3l0.7-0.4l-0.7,0.5c-0.2,0.2-0.4,0.3-0.7,0.4c-0.2,0.1-0.5,0.3-0.7,0.4l-0.8,0.3
				c-0.2,0.1-0.5,0.1-0.8,0.2c-0.3,0.1-0.5,0.1-0.8,0.1c-0.3,0-0.5,0-0.8,0h-0.4h-0.4c-0.3,0-0.5-0.1-0.8-0.2
				c-0.3-0.1-0.5-0.1-0.8-0.2l-0.4-0.2l-0.4-0.2c-0.2-0.1-0.5-0.3-0.7-0.4c-0.2-0.2-0.5-0.3-0.7-0.5c-0.2-0.2-0.4-0.4-0.6-0.6
				c-0.2-0.2-0.4-0.5-0.5-0.7c-0.2-0.3-0.3-0.5-0.4-0.8v-0.1l-0.1-0.6c0-0.2,0-0.4,0-0.6V74c0-0.2,0-0.4,0.1-0.6
				c0-0.2,0.1-0.4,0.2-0.6l0.2-0.6c0.1-0.2,0.2-0.3,0.3-0.5c0.1-0.2,0.3-0.3,0.4-0.4c0.1-0.1,0.3-0.3,0.5-0.4
				c0.2-0.1,0.3-0.2,0.5-0.3c0.2-0.1,0.3-0.2,0.5-0.2c0.2-0.1,0.3-0.1,0.5-0.1c0.4-0.1,0.7-0.1,1.1-0.1
				C86.9,70.1,87.3,70.1,87.7,70.1z"/>
			<path class="st41" d="M86.3,95.7c1.7,0.6,3.5,0.9,5.3,0.7c3.1-0.2,5-1.1,6.6-2.9C91.4,91.9,87.7,94.3,86.3,95.7z"/>
			<path class="st38" d="M92.1,91.4c4.8-1.2,7.4-1.9,9.4-3.8c0.7-1.6,1.5-3.4,2.4-5.5c-6,4.1-13.1,6.3-20.4,6.4
				C84.4,89.9,86.9,92.7,92.1,91.4z"/>
			<path class="st42" d="M92.1,91.4c-5.2,1.2-7.6-1.5-8.6-3c-1.2,0-2.4-0.1-3.5-0.3c1.5,1,2.7,2.4,3.5,3.9c0.7,1.5,1.2,2.8,2.9,3.5
				c1.4-1.4,5.1-3.8,11.9-2.2c1.4-1.8,2.5-3.8,3.3-5.9C99.4,89.6,96.8,90.3,92.1,91.4z"/>
			<path class="st40" d="M129.6,72.4c0.8-0.5,1.8,0.5,2.2,1.2c0.6,1.2,0.9,2.6,0.7,4l0,0c-0.1-1-0.4-2.1-0.8-3
				c-1.1-2.2-2.8-0.2-3.5,1c-0.1,0.2-0.2,0.5-0.4,0.7c0,0.7,0.1,1.3,0.2,2c0.4,1.3,1.9,2.8,3.1,1.8l0,0c-0.9,1-2.3,0.3-3-0.6
				c-0.4-0.6-0.7-1.4-0.8-2.1c-0.4,1.4-0.7,2.9-0.8,4.4c0,0.2-0.2,0-0.2-0.1C126.3,78.4,126.7,74.1,129.6,72.4z"/>
			<path class="st40" d="M54.7,75.8c-0.9-0.3-1.7,0.9-1.9,1.7c-0.4,1.3-0.4,2.7,0.1,4.1l0,0c-0.1-1.1-0.1-2.1,0.2-3.2
				c0.7-2.4,2.7-0.9,3.6,0.1c0.2,0.2,0.3,0.4,0.5,0.6c0.1,0.7,0.2,1.3,0.2,2c-0.1,1.4-1.3,3.2-2.7,2.5l0,0c1,0.8,2.3-0.2,2.8-1.3
				c0.3-0.7,0.4-1.5,0.3-2.3c0.7,1.3,1.2,2.7,1.6,4.1c0,0.1,0.2,0,0.2-0.1C59,80.9,57.8,76.8,54.7,75.8z"/>
			<path class="st43" d="M51.1,26.1c0,0-5.3-12.4-2.9-14.8S68.7,0.3,91.7,0s38.7,3.6,41,6.6c1.5,2.5-3.5,16.7-3.5,16.7L51.1,26.1z"
				/>
			<path class="st44" d="M53.4,33.1l-2.3-7c0,0,34.7-7.1,78-3.3c-1.6,7-1.4,7.8-1.4,7.8L53.4,33.1z"/>
			<path class="st43" d="M31.7,52.4c0,0,54-25.9,116.8-1.3c0,0-11.9-13.1-21-20.9c-33.1-6.6-74.1,2.9-74.1,2.9S39.3,43.5,31.7,52.4z
				"/>
			<g>
				
					<radialGradient id="SVGID_9_" cx="41.21" cy="-140.9172" r="39.72" gradientTransform="matrix(1 0 0 -1 0 341.3228)" gradientUnits="userSpaceOnUse">
					<stop  offset="0" style="stop-color:#FFFFFF"/>
					<stop  offset="0.69" style="stop-color:#FFFFFF"/>
					<stop  offset="0.75" style="stop-color:#FFFFFF"/>
					<stop  offset="1" style="stop-color:#FFFFFF"/>
				</radialGradient>
				<path class="st45" d="M64.6,338.3h8.8c0.7-2.1,1-4.3,1.1-6.5c0.6-15.1,0.6-36.6,0.6-36.6L62.3,295c0,0,1.9,20.2,2,40.1
					C64.3,336.2,64.4,337.2,64.6,338.3z"/>
			</g>
			<path class="st46" d="M281.1,244.3c-4.4-0.4-8.6-1.4-13-1.7c-4.2-0.2-8.4-0.2-12.6,0.2c-8.6,0.8-17.1,2.6-25.2,5.4
				c-8,2.7-15.7,6-23.1,10.1c-7.1,3.7-13.7,8.3-19.8,13.5c-7.1,6.3-12.7,14.1-16.4,22.8c-1.4,3.5-2.6,7.1-3.6,10.8
				c0.3-1.4,0.7-2.8,1.1-4.1c1.4-4.3,3-8.6,4.6-12.8c3.2-8.2,7.1-16,11.9-23.4c4.6-7.2,10.2-13.8,16.6-19.4
				c6.4-5.5,12.8-10.9,20.5-14.6c3.2-1.5,6.5-2.9,9.9-4c1.9-0.7,3.9-1.3,5.9-1.9c1.3-0.2,2.7-0.6,3.9-1.1c0.2-0.1,0.2-0.4,0-0.3
				c-1.7,0.6-3.5,1-5.3,1.3c-2.2,0.6-4.4,1.1-6.5,1.8c-3.8,1.1-7.6,2.6-11.2,4.2c-7.4,3.5-14.2,8.5-20.5,13.7
				c-6.5,5.6-12.2,12.1-16.8,19.4c-4.8,7.3-8.6,15.2-11.3,23.5c-2.3,6.7-3.9,13.7-4.8,20.8c0-1.4,0-2.8,0-4.1s0.2-2.8,0.3-4.2
				c0.4-4.5,1-8.9,1.7-13.4c1.4-8.8,3.7-17.5,6.7-25.9c3-8,7-15.7,11.8-22.8c4.9-7.3,10.7-13.9,17.3-19.7c3.2-2.9,6.7-5.6,10.2-8.1
				c1.8-1.2,3.6-2.4,5.5-3.6c2.1-1.3,4.3-2.2,6.4-3.3c0.1-0.1,0.1-0.3,0-0.2c-1.9,0.9-3.8,1.5-5.6,2.4s-3.8,2.2-5.7,3.3
				c-3.7,2.3-7.2,4.8-10.6,7.5c-6.7,5.3-12.6,11.5-17.8,18.3c-5.1,6.8-9.3,14.2-12.5,22c-3.3,8.1-5.8,16.4-7.5,25
				c0.1-1.1,0.1-2.3,0.2-3.5c0.7-9.1,1.1-18.3,1.5-27.4c0.8-17.7,2.5-35.6,6.3-53c0.2-1,0.4-2,0.7-3c-0.4,1.1-0.8,2.3-1.2,3.5
				c-1.2,3.5-2.4,7-3.3,10.6c-1.4,5.3-2.1,10.7-3.3,16.1c-0.6,4.8-1.1,9.7-1.4,14.5c-0.7,9.1-0.9,18.1-1.4,27.2
				c-0.2,2.7-0.3,5.3-0.4,8c-0.4-3.4-0.7-6.9-1.2-10.3c-0.6-4.3-1.4-8.6-2.6-12.8c-1.2-4.1-2.1-8.3-3.4-12.4s-2.8-8.3-4.5-12.4
				c-1.8-3.9-3.9-7.7-6.3-11.3c-2.2-3.8-4.9-7.4-7.9-10.6c-1.8-1.6-3.6-3.1-5.5-4.5c-1.8-1.4-3.6-3-5.5-4.3c0,0-0.1,0,0,0
				c3.2,2.6,6.1,5.7,9.1,8.6s5.3,6.9,7.5,10.5c1.1,1.8,2.1,3.6,3.2,5.5s2.3,3.8,3.2,5.8c1.8,4,3.3,8.2,4.6,12.4
				c1.4,4.3,2.3,8.7,3.6,13.1c1.1,4.3,2,8.6,2.5,13c0.7,4.4,1.1,8.8,1.6,13.3s1,8.7,1.3,13.1c0,0.4,0.1,0.8,0.1,1.2
				c0,1.2,0,2.4,0.1,3.6c-0.1-0.6-0.2-1.3-0.3-1.9c-1.3-8.6-3.7-16.9-7.1-24.9c-3.2-7.5-7.2-15-12.6-21.2
				c-5.2-6-12.1-10.2-19.8-12.2c-1.4-0.3-2.7-0.6-4.1-0.7c-0.8-0.1-1.5-0.2-2.3-0.2c-0.7,0.1-1.4,0-2.2-0.1c-0.1,0-0.2,0.1-0.1,0.1
				c0.6,0.2,1.1,0.3,1.7,0.3c0.9,0.1,1.7,0.2,2.6,0.4c2.2,0.4,4.3,1.1,6.4,2c3.7,1.6,7.1,3.7,10.2,6.3c6.5,5.1,11,12.6,14.6,19.8
				c4.1,7.8,7.1,16,9,24.6c0.8,3.8,1.6,7.5,2.2,11.4c0-0.1-0.1-0.2-0.1-0.3c-0.6-1.4-1.2-2.9-1.9-4.3c-0.2-0.7-0.4-1.4-0.6-2.1
				c-1.2-3.9-2.8-7.7-4.8-11.2c-1.9-3.5-4.2-6.7-6.8-9.5c-2.8-2.8-5.7-5.3-8.8-7.7c-3.1-2.5-6.7-4.2-10.6-5.2c-3.9-1-7.9-1.3-11.9-1
				c-4,0.3-8,2.1-11.6,3.9c-9.6,4.7-17.6,12.9-23.4,21.7c-4.2,6.9-7.1,14.5-8.6,22.4c-0.4,2.7-0.7,5.4-1.3,8.1c0,0.2,0.2,0.1,0.2,0
				c1.2-4,1.6-8.2,2.8-12.2c1.3-4.1,3-8.2,5-12.1c3.7-7.5,9.6-14.3,16-19.6c3.2-2.7,6.7-4.9,10.4-6.6c3.8-2,8-3.1,12.3-3.3
				c4.2-0.1,8.4,0.7,12.3,2.2c3.9,1.5,6.9,4.1,10.2,6.5c3.4,2.5,6.4,5.5,9,8.8c2.3,3.2,4.4,6.6,6.1,10.1c-2.3-2.7-5.2-4.9-8.5-6.5
				c-3.7-1.7-7.7-2.6-11.8-2.7c-1.7-0.2-3.5-0.2-5.2,0c-2.1,0.3-4.2,0.8-6.3,1.5c-7.6,2.4-14.1,7.7-19,14c-3.1,4-5.5,8.4-7.1,13.2
				c-0.1,0.3,0.3,0.2,0.4,0c1.6-4,3.7-7.7,6.3-11.1c2.6-3.2,5.7-6.1,9-8.6c3.3-2.7,7.1-4.7,11.2-5.9c1.9-0.6,3.9-1,5.8-1.3
				c2-0.3,4.1,0.1,6.1,0.2c2.1,0.2,4.2,0.6,6.2,1.2c2.1,0.6,4.1,1.4,6,2.5c3.6,2.2,6.5,5.3,8.5,9c1.3,2.3,2.5,4.7,3.5,7.2
				c0.2,0.7,0.5,1.5,0.6,2.2c0.4,1.5,0.7,2.9,0.9,4.4c-1.1-3.5-3-6.7-5.6-9.3c-1.3-1.4-2.7-2.7-4.2-3.9c-1.7-1.1-3.4-2-5.3-2.7
				c-1.8-0.6-3.7-1.1-5.6-1.5c-2.1-0.5-4.2-0.8-6.3-0.8c-4,0.1-7.9,1.3-11.4,3.4c-3.3,2.1-6.1,4.8-8.3,8c-2.1,3.3-3.9,6.7-5.4,10.4
				c-1.7,3.8-3,7.9-3.8,12c-1,4.1-1.4,8.2-1.3,12.4c1-5,1.9-10.1,3.3-15.1c1.8-6.4,4.2-12.8,8.1-18.2c1.8-2.6,4.1-4.9,6.7-6.7
				c2.4-1.5,5.2-2.5,8-2.9c4.7-0.6,9.5,0.2,13.9,2.1c2,0.6,3.9,1.4,5.7,2.4c1.7,1,3,2.6,4.4,3.9c1.3,1.3,2.5,2.7,3.4,4.3
				c0.8,1,1.5,2.1,2.1,3.2c0.8,1.5,1.5,3,2.1,4.6c0.1,0.9,0.2,1.8,0.2,2.7h3.4c1.2-2.2,2.2-4.5,3.4-6.6c1-1.8,2.1-3.6,3.3-5.3
				c1.4-1.6,2.8-3.2,4.3-4.6c5.9-6,13-10.6,20.9-13.6c7.1-2.8,14.7-4.2,22.3-4.2c3.8,0.1,7.6,0.6,11.2,1.7c3.7,1.1,7.1,2.9,10.6,4.5
				c2.7,1.2,5.2,2.9,7.4,5c1.1,1.2,2.1,2.6,3,4c0.9,1.1,1.7,2.4,2.4,3.6c0.1,0.1,0.3,0,0.3-0.2c-0.6-1.5-1.3-3-2.1-4.5
				c-0.7-1.8-1.7-3.5-2.8-5.1c-1.2-1.3-2.6-2.5-4.1-3.5c-1.7-1.2-3.4-2.1-5.3-2.9c-3.3-1.8-6.8-3.2-10.3-4.2
				c-3.6-0.9-7.3-1.3-11-1.3c-7.5,0-14.9,1.4-21.9,4.1c-7.9,2.8-15,7.4-21,13.2c-3.2,3.1-5.9,6.8-7.9,10.9c-0.8,1.6-1.4,3.2-2.1,4.9
				c1.1-4,2.6-7.9,4-11.7c2.9-7.9,7.1-15.2,12.6-21.6c5.2-6.1,12.1-10.9,18.9-15.1c7.1-4.4,14.6-8.2,22.4-11.4
				c8.7-3.6,17.9-6.2,27.2-7.7c4.8-0.7,9.7-1,14.6-1c4.8,0,9.6,0.6,14.4,0.7C281.2,244.4,281.2,244.3,281.1,244.3z"/>
			<path class="st47" d="M254.9,279c-0.6-0.5-0.9-1.2-1.5-1.6s-1.3-1.2-2-1.7c-1.7-1.1-3.6-1.9-5.5-2.4c-4-1.2-8.3-1.1-12.4-1.1
				c-7.9,0.1-15.8,1.7-23.2,4.5c-7.6,2.8-14.7,6.9-20.9,12.2c-3.3,2.8-6.3,5.8-9,9c-2.8,3.3-5.2,6.9-7.2,10.7c-1.9,4-3.9,7.9-5.5,12
				l-0.4,0.4c0-0.3,0.1-0.5,0.1-0.8c0.3-2.1,0.6-4.2,1-6.3s0.8-4,1.3-6c1.4-3.8,3.1-7.6,4.7-11.3c1.6-3.8,3.6-7.5,5.9-10.9
				c2.5-3.3,5.3-6.5,8.4-9.3c6-6,12.8-11.1,20.2-15.3c3.8-2.1,7.9-3.8,11.8-5.6c4.3-1.8,8.7-3.3,13.2-4.3c2.1-0.5,4.2-1,6.3-1.4
				c0.2,0,0.3-0.4,0-0.3c-4.4,0.6-8.7,1.5-13,2.6c-1.9,0.5-3.8,1-5.7,1.7c-2.1,0.8-4.2,1.7-6.3,2.5c-7.9,2.8-15.2,7-21.7,12.4
				c-6.6,5.2-12.4,11.3-17.3,18.2c-0.5,0.7-1,1.5-1.4,2.3l0.1-0.4c1.2-4.2,2.8-8.2,4.9-12c2-3.7,4-7.5,6.3-11.1s4.8-7,7.4-10.4
				c2.7-3.3,5.7-6.3,9-9c3.2-2.7,6.6-5.2,10.2-7.4c3.1-2,6.4-3.7,9.8-5.3c3.4-1.6,6.9-2.9,10.5-3.8c0.1,0,0.2-0.2,0-0.2
				c-4,0.8-7.8,2.1-11.6,3.8c-3.9,1.6-7.6,3.5-11.2,5.7c-7.1,4.1-13.5,9.3-19,15.4c-5.6,6.4-9.8,13.8-13.9,21.2
				c-2.1,3.8-3.7,7.7-4.9,11.8c-1.2,4.1-2.5,8.1-3.6,12.2c-0.6,2.2-1,4.4-1.4,6.7c-0.4,1.1-0.8,2.3-1.1,3.5
				c-0.1,0.4-0.2,0.7-0.3,1.1c-0.1-1.5-0.2-2.9-0.3-4.4c0.1-2.4,0.2-4.7,0.4-7.1c0.8-9,2.3-17.9,3.8-26.8c0.6-4.2,1.5-8.4,2.5-12.5
				c1.2-4.1,2.6-8.1,4.3-11.9c1.6-3.9,3.4-7.7,5.6-11.3c2.2-3.6,4.6-7,7.3-10.3c2.1-2.6,4.3-5.1,6.7-7.5c2.4-2.4,5.1-4.4,7.5-6.7
				c0.2-0.2,0-0.4-0.2-0.2c-3.2,2.9-6.7,5.4-10,8.3c-3,2.7-5.9,5.7-8.5,8.8c-5.5,6.5-10.1,13.7-13.6,21.5c-1.8,3.9-3.2,8-4.3,12.2
				c-1.1,4.2-1.7,8.5-2.5,12.8c-0.5,3.1-1,6.2-1.4,9.3c-0.8-7.4-1.7-14.8-2.5-22.2c-1-9-1.6-18-2.8-27c-1.2-8.7-2-17.6-2.6-26.4
				c-0.3-4.6-0.6-9.1-1.1-13.6c0-0.2-0.3,0-0.3,0.1c0.4,9,0.4,17.9,1,26.9s1.5,18,2.2,27c0.7,9,1.7,18.1,2.7,27.1
				c0.7,6.3,1.4,12.5,2.2,18.8c0,0.4-0.1,0.9-0.1,1.3c-1.3-7.5-3-14.9-4.8-22.3c-2.1-8.4-5-16.7-8.8-24.5c-3.6-7.4-8-14.4-13.1-20.9
				c-4-5.2-9.4-9.4-14.8-13.1s-11.6-5.7-17.8-7c0,0-0.1,0.1,0,0.1c4.1,1.2,8,2.8,11.7,4.7c3.8,2.1,7.4,4.7,10.6,7.7
				c3.3,2.7,6.3,5.7,8.9,9c2.6,3.4,4.9,7,7.2,10.6c4.7,7.1,8,15.1,10.9,23.1c0.6,1.8,1.2,3.5,1.8,5.4c-2.5-6.2-5.5-12.2-9.2-17.8
				c-4.4-6.8-9.8-12.9-16-18c-4.8-3.9-10.3-6.9-16.1-8.8c-2.9-0.8-5.8-1.3-8.8-1.4c-1.5,0-3-0.1-4.5,0c-0.6,0.1-1.2,0.2-1.8,0.4
				c-0.8,0.3-1.6,0.6-2.4,0.7c0,0-0.1,0.1,0,0.1c0.7,0,1.4-0.1,2-0.3c0.9-0.1,1.9-0.2,2.8-0.1c2.3,0.2,4.5,0.5,6.8,0.9
				c4.1,1,8,2.6,11.7,4.8c7.3,3.9,13.4,9.7,18.6,16.1c5.3,6.6,9.8,13.8,13.3,21.5c3.8,8.1,7.3,16.8,9,25.5c0.2,0.9,0.3,1.7,0.5,2.5
				c0.3,1.6,0.6,3.1,0.8,4.7c-1-4-1.9-8.1-3.2-12.1c-1.3-3.9-3.1-7.6-5.3-11c-8.2-13.2-21.3-24-37.1-25.8c-5-0.6-10.1-0.5-15.1,0.1
				c-2.5,0.3-5,0.8-7.5,1.6c-1.8,0.4-3.6,1.2-5,2.4l0,0c1.5-1.3,3.4-1.7,5.3-2.1c2.3-0.5,4.5-0.7,6.8-0.8c4.2-0.2,8.4,0,12.6,0.5
				c8.1,1,15.8,4,22.3,8.9c6.3,4.8,11.7,10.8,15.8,17.7c3.8,6,5.9,12.7,7.8,19.4c-0.2-0.4-0.4-0.8-0.6-1.2
				c-3.8-7.6-8-14.7-14.2-20.6c-5.6-5.6-12.7-9.4-20.5-11c-7.8-1.4-15.8-0.4-23,3c-8.6,3.8-15.5,10.3-21,17.8
				c-2.9,3.9-5.4,8.1-7.5,12.4c-1.1,2.3-2.1,4.7-3,7.1c-0.7,2.4-1.4,4.9-1.8,7.3c0,0,0.1,0,0.1,0c0.6-1.9,1.1-3.9,1.7-5.9
				c0.8-2.2,1.7-4.4,2.8-6.5c1.8-3.6,3.8-7.1,6.1-10.4c4.2-6.5,9.7-12.2,16-16.8c6.9-4.7,15-7.2,23.3-7.1c8.3,0.3,16.3,3.4,22.6,8.8
				c3.3,2.8,6.3,5.9,9,9.3c2.8,3.7,5.2,7.5,7.3,11.6c0.6,1,1.1,2.1,1.6,3.2c-0.1-0.1-0.2-0.3-0.3-0.5c-2.1-3.4-4.6-6.6-7.5-9.4
				c-5.8-5.3-13.4-8.3-21.3-8.4c-4.2-0.2-8.5,0.2-12.6,1.2c-7.8,2.2-14.7,6.9-19.7,13.4c-3.5,4.6-6.3,9.7-8.4,15.1
				c-1.1,2.8-2.1,5.7-2.8,8.6c-0.8,2.7-1.3,5.4-1.3,8.2h0.1c0.2-2.1,0.7-4.2,1.3-6.2c0.6-2.1,1.3-4.2,2.1-6.2
				c1.5-4.1,3.4-8,5.5-11.8c2-3.7,4.6-7.1,7.5-10.1c6.2-6,14.6-9.3,23.3-9c4.1-0.2,8.2,0.2,12.2,1.2c3.8,1,7.4,2.8,10.6,5.1
				c3.2,2.5,6,5.5,8.4,8.8c2.2,3,4.1,6.3,5.5,9.7c-0.5-0.8-1.1-1.5-1.6-2.2c-1.2-1.6-2.5-3.1-3.9-4.6c-1.2-1.4-2.7-2.7-4.3-3.7
				c-0.8-0.5-1.7-0.9-2.5-1.2c-1-0.4-1.9-1.2-2.9-1.6c-3.6-1.6-8.2-1.2-12-0.8c-7.9,0.8-15.2,4.7-20.3,10.9
				c-2.5,3.3-4.6,6.8-6.3,10.6c-1.9,3.7-3.4,7.5-4.4,11.5c-0.7,2.3-1.2,4.6-1.4,7c0,0.1,0.1,0,0.1,0c0.2-1.9,0.7-3.8,1.3-5.6
				c0.6-1.9,1.2-3.8,2-5.7c1.7-3.9,3.7-7.7,6-11.2c2-3.5,4.6-6.6,7.7-9.2c3.2-2.6,7-4.4,11-5.5c4.1-1,8.4-1.2,12.6-0.8
				c2,0.3,3.9,1,5.7,2c0.9,0.4,1.8,0.6,2.7,1c1.2,0.6,2.2,1.3,3.1,2.2c3,2.8,5.6,6,7.8,9.5c1.1,1.9,1.9,3.9,2.4,6
				c0.1,0.2,0.1,0.4,0.1,0.6s0,0.2,0,0.2c0.1,0.8,0.1,1.5,0.2,2.3c0.1,0.4,0.2,0.8,0.2,1.3c-0.2-0.5-0.4-1.1-0.5-1.6
				c-0.4-1-1-1.9-1.7-2.7c-1.6-1.5-3.4-2.7-5.4-3.6c-2.1-1-4.4-1.9-6.6-2.6c-2.4-0.6-4.9-0.7-7.3-0.3c-4.7,0.8-9.1,2.7-13.1,5.4
				c-3.7,2.4-6.7,5.8-8.6,9.8c-0.2,0.5,0.5,0.5,0.7,0.1c2.1-3.5,5-6.5,8.6-8.5c3.8-2.4,8.1-4,12.6-4.8c4.7-0.7,9.3,0.9,13.6,2.8
				c1.9,0.7,3.7,1.8,5.3,3.1c1,0.9,1.5,2.7,2.5,3.6c0,0.2,0.1,0.4,0.3,0.5c0,0.1,0.1,0.2,0.2,0.2l0.1,0.3c0,0.1,0.1,0.2,0.2,0.2
				c0,0.2,0,0.4,0,0.5c0,0.1,0,0.2,0.1,0.3c-0.1,0.3-0.2,0.5-0.2,0.8c-0.2,0.8,0.9,0.6,1.2,0.3c0.7-0.6,1.4-1.3,2.1-2
				c0.3,0,0.5-0.1,0.7-0.3c0.1-0.2,0.3-0.5,0.4-0.7c0.8-0.8,1.6-1.5,2.3-2.3c2.1-2,4.3-3.7,6.7-5.3c4.7-3.2,10.6-5.2,16.1-6.4
				c11.9-2.5,25.5-1.9,36.5,3.5c0.1,0.1,0.3-0.2,0.2-0.3c-2.4-1.7-4.9-3-7.6-4c-3-1-6-1.8-9.1-2.2c-6.7-1-13.5-0.8-20.2,0.5
				c-6.2,1.1-12.1,3.5-17.4,7c-1.4,0.9-2.7,1.9-4,2.9c0.7-1.3,1.4-2.5,2.1-3.8c2.3-3.7,4.3-7.4,6.8-10.9
				c4.9-6.9,11.1-12.8,18.4-17.2c13.6-8.6,31.1-12.9,47.3-10.3c1.8,0.3,3.5,0.8,5.1,1.5c0.7,0.3,1.3,0.7,1.9,1.1s1.1,1,1.8,1.3
				C254.9,279.2,255,279.1,254.9,279z M164.9,320.9c0.2-0.1,0.4-0.2,0.5-0.4v-0.1c0,0.3-0.1,0.7-0.1,1c-0.1,0.5,0,1.1,0,1.7
				l-0.2,0.3C165.2,322.6,165.1,321.7,164.9,320.9L164.9,320.9z"/>
			<path class="st48" d="M234.6,312.5c-2.8-2.8-6.1-5.1-9.7-6.8c-3.7-1.7-7.6-2.7-11.6-2.9c-4.1-0.1-8.2,0.2-12.2,1.2
				c-9.5,2-19.9,6.2-27.3,13c0.6-1,1.2-1.9,1.9-2.9c3.8-5.4,8.5-10.1,13.8-14c5.3-4,11.6-6.5,17.7-8.9c3.4-1.4,6.9-2.5,10.4-3.3
				c1.6-0.3,3.3-0.5,5-0.7c1.3-0.2,2.8,0,4-0.6c0.1-0.1,0.2-0.4,0-0.3c-0.8,0.2-1.6,0.2-2.3,0c-0.8,0-1.6,0-2.4,0.1
				c-1.7,0-3.4,0.2-5.1,0.4c-3.5,0.6-6.9,1.4-10.3,2.6c-6.4,2.2-12.9,4.6-18.4,8.6c-5.6,4-10.6,8.9-14.6,14.4
				c-0.9,1.3-1.8,2.6-2.5,4c0.6-1.9,1.2-3.8,2-5.6c1.3-3.1,2.2-6.4,3.4-9.6c1.4-3.3,3-6.6,4.9-9.7c3.4-6.2,8.1-11.6,13.8-15.9
				c2.8-2,5.8-3.6,8.9-4.8c1.7-0.7,3.4-1.2,5.1-1.7c2-0.5,4.1-0.7,6.1-0.7c0.1,0,0.3-0.3,0.1-0.3c-1.7-0.1-3.4,0-5.2,0.2
				c-1.8,0.3-3.5,0.7-5.2,1.3c-3.3,1-6.5,2.4-9.4,4.1c-6.5,3.8-12,9.1-16,15.4c-2.1,3.2-4,6.5-5.7,9.9c-1.7,3.5-2.5,7.3-4,10.9
				l0.1-0.8c1.2-6.8,2.8-13.5,4.9-20.1c1.8-6.6,4.3-13,7.4-19.1c1.5-2.8,3.3-5.4,5.4-7.8c2.1-2.6,4.6-5,7.3-6.9
				c0.1-0.1,0.1-0.3-0.1-0.2c-2.7,1.6-5.2,3.5-7.4,5.7c-2.4,2.2-4.5,4.6-6.3,7.3c-4,5.8-6.4,12.8-8.6,19.4c-1.6,5-3,9.9-4.2,15
				c0.8-6.1,2-12.1,3.5-18.1c1.7-7.4,3.9-14.6,6.6-21.7c1.5-3.5,3.3-6.9,5.3-10.1c1.9-3,4.1-5.7,6.2-8.5c0.1-0.1-0.1-0.2-0.2-0.1
				c-2.1,2.6-4.4,5.1-6.4,7.9c-2.2,3.1-4.2,6.4-5.9,9.8c-3.4,7-5.5,14.5-7.6,22c-1.4,5.1-2.5,10.3-3.4,15.5c0-1.3,0-2.6,0-4
				c-0.1-9,0.4-18.1,1.6-27c1.1-8.8,2.8-17.5,5.9-25.8c2.8-7.7,6.7-14.9,11.7-21.5c4.2-5.4,9.5-10,15.6-13.3c0.2-0.1,0.2-0.4,0-0.3
				c-14.6,6.7-24.6,20.8-30.4,35.4c-3.2,8.2-4.8,16.8-6,25.5l0,0c-0.2-4.3-0.6-8.5-0.6-12.8c0-3.9-0.3-7.8-0.3-11.7c0-2,0.2-4,0.3-6
				s0.6-3.8,0.6-5.8c0-0.1-0.1-0.1-0.2,0c-0.2,1.8-0.8,3.6-1,5.4c-0.3,2-0.6,4.1-0.8,6.2c-0.4,4.1-0.5,8.2-0.7,12.4
				c-0.4,8.3-0.1,16.6,0.1,24.9c0.1,3.8,0.4,7.6,0.6,11.4c-0.4-2.6-0.9-5.2-1.5-7.8c-0.9-4.2-1.6-8.3-2.8-12.4s-2.3-8.4-3.5-12.6
				c-1.1-4-2.3-7.9-3.8-11.7c-1.5-3.7-2.9-7.6-5.2-10.8c0-0.1-0.1,0-0.1,0.1c0.9,1.7,1.6,3.5,2.1,5.4c0.6,1.9,1.3,3.8,1.9,5.7
				c1.4,4.1,2.5,8.4,3.6,12.6c1.1,4.1,2.2,8.1,3.2,12.2c1.1,4.1,1.6,8.4,2.4,12.6c1.4,7,2.4,14.1,3.2,21.2c-0.4-1.7-0.9-3.3-1.5-4.9
				c-1.2-4-2.8-7.8-4.6-11.5c-4.1-7.3-9.8-13.7-16.6-18.6c-3.2-2.4-6.7-4.4-10.3-6c-3.8-1.5-7.8-2.6-11.8-3.2
				c-3.3-0.7-6.7-0.9-10.1-0.6c-1.6,0.2-3.2,0.5-4.8,0.9c-0.6,0.2-1.2,0.4-1.8,0.7c-0.4,0.2-0.8,0.2-1.2,0.4
				c-0.5,0.2-0.4,0.4-1.1,0.6c-0.1,0-0.1,0.1,0,0.1c1.7-0.4,3.2-1.2,5-1.5c2.2-0.3,4.4-0.4,6.6-0.2c4.2,0.4,8.5,1.8,12.5,3
				c7.9,2.5,15.1,6.8,21,12.7c3.2,3,6,6.3,8.5,9.9c2.2,3.5,4,7.1,5.4,11c2.6,6.7,4.5,13.7,5.8,20.8c0,0.1,0,0.2,0,0.4
				c-0.4-2.7-1.1-5.4-1.7-8c-1.6-6.5-4.4-12.7-8.5-18c-3.7-4.9-8.7-9.3-14.4-11.6c-6.6-2.7-13.6-2.1-20.4-1.3c0,0-0.1,0.1,0,0.1
				c6.7-0.2,13.3-0.2,19.3,3.1c5.2,2.9,9.7,6.9,13.3,11.6c2.1,2.8,3.9,5.9,5.3,9.1c-0.7-0.9-1.4-1.7-2.1-2.6c-2.6-3-6-4.8-9.4-6.6
				c-7.3-3.9-16.1-3.3-23.6-0.6c-7.4,2.6-12.8,8.5-17,15c-1.8,2.8-3.3,5.8-4.4,8.9c-0.1,0.3,0.3,0.2,0.4,0c1.7-3.9,3.8-7.7,6.3-11.1
				c2.4-3.5,5.6-6.5,9.3-8.7c7.4-4.1,16.2-5,24.3-2.5c3.9,1.3,7.5,3.4,10.6,6.1c2.7,2.7,5,5.9,6.7,9.3c-5.6-5.5-13.4-7.9-21.2-8.2
				c-4-0.2-8.1,0.2-12,1.4c-3.8,1.1-7.4,3-10.7,5.4c-6.1,4.7-10.8,10.9-13.7,18c-0.9,2.2-1.4,4.4-1.7,6.8c0,0.2,0.3,0.1,0.3,0
				c1.6-7.9,6.7-15.1,12.9-20.1c6-4.9,13.4-7.7,21.2-7.7c3.9-0.1,7.8,0.4,11.6,1.5c3.5,1.1,6.8,2.9,9.7,5.2c2.8,2.4,5.2,5.2,7.2,8.2
				c0.3,0.5,0.6,0.9,0.9,1.4v0.1c0.5,1.7,0.9,3.5,1.2,5.3c0,0.6,0,1.3,0.1,2h3.6c0.1-0.1,0.2-0.3,0.3-0.5l0.5-2.3
				c0.9-2.1,2.1-4.2,3.6-6c2.2-2.8,4.9-5.3,7.8-7.5c6.5-4.7,14-7.4,21.8-9.1c1.8-0.4,3.6-0.7,5.5-1c1.9-0.2,3.7-0.2,5.6-0.1
				c3.7,0.1,7.4,0.8,10.9,2c3.5,1.2,6.8,3,9.8,5.2c3.2,2.2,6.2,5.5,7.2,9.3c0,0.1,0.2,0,0.2-0.1
				C239.3,318.3,237.1,314.9,234.6,312.5z"/>
			<path class="st49" d="M216.1,305.9c-1.1-0.2-2.3-0.3-3.5-0.3c-1.3,0-2.6,0.1-3.9,0.3c-3.1,0.3-6.2,0.7-9.3,1.4
				c-2.6,0.6-5.2,1.4-7.6,2.3c-2.7,1.1-5.2,2.5-7.7,4c-4.7,2.8-8.9,6.3-12.6,10.3c-1.4,1.6-2.7,3.2-3.8,5c0.2-2.5,0.6-5.1,1.2-7.6
				c1.3-5.7,3.2-11.3,5.7-16.6c2.5-5.1,6-9.6,10.1-13.5c2.1-1.9,4.3-3.7,6.7-5.2c2.3-1.5,4.7-2.6,6.9-4.2c0.1-0.1,0.1-0.3-0.1-0.2
				c-2.4,1.5-5,2.4-7.5,3.7c-2.4,1.3-4.7,3-6.8,4.8c-4.4,3.9-8.2,8.5-11,13.7c-2.7,5.2-4.9,10.6-6.3,16.3c0-0.9,0-1.9,0.1-2.8
				c1.2-6.5,1-13.3,1.9-19.8c0.4-3.4,1.5-6.7,2.1-10s1.1-6.5,1.9-9.7c0.8-3.3,1.7-6.5,2.8-9.7c0.6-1.6,1.3-3.2,2-4.8
				c0.6-1.4,1.5-2.6,2-4c0.1-0.1-0.1-0.2-0.2,0c-0.6,1.2-1.4,2.3-2.1,3.5c-0.8,1.4-1.6,2.9-2.3,4.4c-1.5,3.2-2.8,6.5-3.9,9.9
				c-1.1,3.3-1.8,6.7-2.6,10.1s-1.9,7.1-2.4,10.6c-1,6.6-0.7,13.2-1.6,19.8l-0.1,0.5c-0.3-3.5-0.7-6.9-1-10.3
				c-0.4-4.1-0.8-8.3-1.2-12.4s-1.2-8.1-1.6-12.2c-0.3-4-0.9-7.9-1.9-11.8c-0.4-1.8-0.9-3.5-1.4-5.2c-0.6-2.1-1.6-4-2.2-6.1
				c0-0.2-0.2,0-0.2,0.1c0.5,3.8,1.8,7.4,2.5,11.2c0.7,3.8,1.2,7.7,1.4,11.5c0.3,5.9,1,11.8,1.7,17.6c-1.3-5-2.9-10-4.8-14.9
				c-1.6-3.9-3.4-7.8-5.5-11.4c-2.3-3.7-4.8-7.2-7.5-10.5c-5-6.5-11.5-12.5-19.2-15.6c-1.9-0.8-3.8-1.4-5.7-1.8
				c-0.1,0-0.3,0.2-0.2,0.2c8.2,2.7,14.6,8.3,20.2,14.7c3,3.4,5.8,7,8.4,10.8c2.4,3.6,4.4,7.4,6.1,11.3c3.5,7.9,6.1,16.2,7.8,24.7
				c1,4.2,1.7,8.4,2.2,12.7c-0.6-2.5-1.3-5.1-2-7.5c-1.1-3.9-2.5-7.7-4.2-11.4c-1.9-3.8-4.2-7.4-6.7-10.8c-4.6-6.5-10-12-16.9-15.9
				c-3.6-2.1-7.4-3.8-11.4-5c-1.8-0.5-3.7-0.8-5.5-0.7c-2,0.1-4,0.7-6,0.9c-0.1,0-0.1,0.2,0,0.2c1.7,0.1,3.5-0.2,5.2-0.1
				c2,0.2,4,0.8,5.8,1.6c3.7,1.6,7.2,3.5,10.5,5.7c3.3,2,6.3,4.3,9,6.9c2.8,2.8,5.3,5.9,7.5,9.2c2.3,3.1,4.4,6.4,6.2,9.9
				c1.8,3.6,3.3,7.4,4.4,11.3c1.1,3.5,2.1,7,2.8,10.6c-1.2-3.6-2.7-7-4.4-10.4c-3.5-7.4-8.5-14.1-14.6-19.6
				c-5.9-5.4-15.2-7-22.9-5.9c-2.1,0.3-4.2,1-6.3,1.5c-2.2,0.5-4.3,1.2-6.3,1.9c-3.7,1.5-7.1,3.7-10.1,6.5c-2.8,2.6-5.4,5.4-7.6,8.5
				c-2.5,3.3-3.6,7.2-5,11c0,0.1,0.1,0.1,0.1,0c0.9-2.1,1.8-4.3,2.8-6.4c1-1.9,2.3-3.7,3.8-5.3c2.7-3,5.7-5.6,9-7.9
				c3.5-2.3,7.3-4,11.3-5.1c4.2-1.3,8.7-2,13.1-2c4.3,0.2,8.4,1.3,12.2,3.3c3.6,1.9,6.4,4.9,9.2,7.7c3.1,2.9,5.8,6.2,8,9.8
				c1.5,2.4,2.8,4.9,4,7.5c-0.5-0.7-1.1-1.3-1.7-1.9c-2-2.1-4.5-3.8-7.1-5.1c-2.7-1.5-5.7-2.3-8.8-2.5c-3.1-0.1-6.2,0.3-9.2,1.1
				c-2.9,0.9-5.7,2.3-8.1,4.1c-4.9,3.5-8.4,9.2-10.1,14.9c0,0.1,0.1,0.1,0.1,0c2.2-5.3,5.9-10.6,10.9-13.5
				c4.9-2.9,10.7-4.1,16.4-3.5c5.5,0.7,10.6,3.2,14.5,7c3.6,3.5,7.9,9.4,8.1,14.6c0,0.2,0,0.3,0,0.5h5.4c4.2-10,13.4-17.3,22.7-22.3
				c3-1.6,6.2-3,9.4-4.2c2.8-1,5.7-1.9,8.6-2.5c1.3-0.3,2.6-0.5,3.9-0.8c1.3-0.1,2.7-0.2,4-0.1C216.1,306.1,216.2,305.9,216.1,305.9
				z"/>
			<path class="st50" d="M209.3,322.3c-4.2-1.4-8.4-2.7-12.9-2.7c-4.5,0.1-8.9,0.8-13.2,2.2c-4.2,1.2-8.2,3.2-11.8,5.8
				c-1.7,1.3-3.2,2.8-4.6,4.4l0,0c0.9-3.4,2.3-6.7,4.1-9.8c2.4-3.9,5.4-7.3,9-10.1c3.6-2.8,7.5-5.1,11.7-6.8
				c4.9-2.1,10.5-4,15.9-3.8c0.1,0,0.2-0.2,0.1-0.2c-5.2-0.6-10.9,0.7-15.8,2.5c-4.7,1.6-9.1,3.9-13.2,6.8c-4.1,3-7.5,6.8-10.1,11.1
				c-1.3,2.2-2.3,4.5-3.1,7c-0.1-1.7-0.2-3.4-0.4-5c-0.4-5.2-0.4-10.4-0.4-15.6s0.5-10.2,0.7-15.4c0.1-2.6,0.2-5.1,0.4-7.7
				c0.1-1.2,0.2-2.4,0.3-3.6c0.1-1,0.3-2,0.3-3c0-0.1-0.1,0-0.1,0c-0.1,1.1-0.5,2-0.7,3.1l-0.7,3.7c-0.5,2.6-1,5.2-1.3,7.9
				c-0.6,5-1,10.1-1,15.2c0,5.1,0.3,10.1,0.6,15.2c0.2,3.3,0.6,6.6,0.8,9.9c-0.4-1.1-0.8-2.3-1.2-3.4c-1-2.2-2.2-4.3-3.5-6.4
				c-2.5-4.1-5.4-7.8-8.8-11.1c-3.2-3.4-6.9-6.2-10.9-8.6c-2-1.2-4.2-2-6.4-2.5c-1.9-0.5-4-0.4-5.8,0.3c-0.1,0-0.2,0.2,0,0.3
				c1.9,0.4,3.8,0.3,5.7,0.9c2.1,0.7,4.2,1.6,6.1,2.8c3.8,2.5,7.2,5.4,10.3,8.8c2.4,2.5,4.7,5.2,6.6,8.1c-3.2-3.3-7-5.9-11.2-7.7
				c-5-2.3-10.5-3.2-16-2.5c-2.8,0.4-5.5,1.2-8.1,2.1c-2.4,0.8-4.5,2.2-6.2,4c0,0,0,0.1,0,0.1c3.8-3.3,9.3-4.2,14.1-4.9
				c5.4-0.7,10.8,0.8,15.7,3c4.2,1.8,8,4.6,11,8c1.7,2,3.3,4.1,4.7,6.3c0.5,0.8,0.9,1.6,1.3,2.4c0.2,0.5,0.4,1.1,0.5,1.6
				c0.1,0.3,0.2,0.7,0.3,1h4c4-6.4,10.6-10.3,17.7-12.6c3.9-1.2,7.9-2,12-2.3c4.4-0.3,8.8,0.7,13.1,1.7
				C209.2,322.9,209.6,322.4,209.3,322.3z"/>
			<path class="st46" d="M281.4,299.4c-1.8-0.2-3.5-0.6-5.3-0.7c-1.7-0.1-3.4-0.1-5.1,0.1c-3.5,0.3-7,1.1-10.3,2.2
				c-3.3,1.1-6.4,2.5-9.4,4.1c-2.9,1.5-5.6,3.4-8.1,5.5c-2.9,2.6-5.2,5.7-6.7,9.3c-0.6,1.4-1.1,2.9-1.5,4.4c0.1-0.6,0.3-1.1,0.5-1.7
				c0.6-1.8,1.2-3.5,1.9-5.2c1.3-3.3,2.9-6.5,4.8-9.5c1.9-2.9,4.2-5.6,6.8-7.9c2.5-2.3,5.3-4.4,8.4-6c1.3-0.6,2.6-1.2,4-1.6
				c0.8-0.3,1.6-0.5,2.4-0.8c0.5-0.1,1.1-0.3,1.6-0.5c0.1,0,0.1-0.2,0-0.1c-0.7,0.2-1.4,0.4-2.1,0.5c-0.9,0.2-1.8,0.5-2.6,0.7
				c-1.5,0.5-3,1.1-4.5,1.7c-3,1.5-5.8,3.4-8.4,5.6c-2.7,2.3-5,4.9-6.8,7.9c-2,3-3.5,6.2-4.6,9.6c-0.9,2.8-1.6,5.6-1.9,8.5
				c0-0.6,0-1.1,0-1.7s0.1-1.1,0.1-1.7c0.2-1.8,0.4-3.6,0.7-5.5c0.6-3.6,1.5-7.1,2.7-10.6c1.2-3.3,2.8-6.4,4.8-9.3
				c2-3,4.4-5.7,7.1-8.1c1.3-1.2,2.7-2.3,4.2-3.3c0.7-0.5,1.5-1,2.2-1.5s1.8-0.9,2.6-1.3c0,0,0-0.1,0-0.1c-0.8,0.4-1.6,0.6-2.3,1
				s-1.6,0.9-2.3,1.4c-4.5,2.8-8.4,6.3-11.6,10.5c-2.1,2.8-3.8,5.8-5.1,9c-1.3,3.3-2.4,6.7-3.1,10.2c0-0.5,0.1-0.9,0.1-1.4
				c0.3-3.7,0.5-7.5,0.6-11.2c0.2-7.3,1.1-14.5,2.6-21.6c0.1-0.4,0.2-0.8,0.3-1.2l-0.5,1.4c-0.5,1.4-1,2.9-1.4,4.3
				c-0.6,2.2-0.9,4.4-1.3,6.6c-0.2,2-0.4,4-0.6,5.9c-0.3,3.7-0.4,7.4-0.6,11.1c-0.1,1.1-0.1,2.2-0.1,3.3c-0.1-1.4-0.3-2.8-0.5-4.2
				c-0.2-1.8-0.6-3.5-1.1-5.2c-0.5-1.7-0.8-3.4-1.4-5.1s-1.1-3.4-1.9-5.1c-0.7-1.6-1.6-3.1-2.6-4.6c-0.9-1.6-2-3-3.2-4.3
				c-0.7-0.7-1.5-1.3-2.3-1.9c-0.7-0.6-1.4-1.2-2.2-1.7l0,0c1.3,1.1,2.5,2.3,3.7,3.5c1.2,1.3,2.2,2.7,3.1,4.3
				c0.4,0.7,0.9,1.5,1.3,2.2s0.9,1.5,1.3,2.4c0.7,1.7,1.3,3.3,1.9,5.1c0.6,1.8,0.9,3.5,1.4,5.3c0.5,1.7,0.8,3.5,1.1,5.2
				c0.3,1.8,0.4,3.6,0.6,5.4s0.4,3.6,0.5,5.3v0.5c0,0.5,0,1,0,1.5c0-0.3-0.1-0.5-0.1-0.8c-0.5-3.5-1.5-6.9-2.9-10.2
				c-1.3-3.1-3-6-5.1-8.6c-2.1-2.4-4.9-4.2-8.1-5c-0.6-0.1-1.1-0.2-1.7-0.3c-0.3,0-0.6-0.1-0.9-0.1c-0.3,0-0.6,0-0.9,0
				c0,0-0.1,0,0,0.1c0.2,0.1,0.5,0.1,0.7,0.1c0.4,0,0.7,0.1,1.1,0.2c0.9,0.2,1.8,0.5,2.6,0.8c1.5,0.7,2.9,1.5,4.2,2.6
				c2.6,2.1,4.5,5.1,6,8.1c1.6,3.2,2.9,6.5,3.6,10c0.3,1.5,0.6,3.1,0.9,4.6V322c-0.3-0.6-0.5-1.2-0.8-1.7c-0.1-0.3-0.2-0.6-0.2-0.9
				c-0.5-1.6-1.2-3.1-2-4.6c-0.8-1.4-1.7-2.7-2.8-3.9c-1.1-1.1-2.3-2.2-3.6-3.1c-1.3-1-2.7-1.7-4.3-2.1c-1.6-0.4-3.2-0.5-4.9-0.4
				c-1.7,0.2-3.3,0.8-4.7,1.6c-3.9,2.1-7.2,5.1-9.6,8.9c-1.2,1.9-2.1,3.9-2.7,6c-0.3,1-0.6,2-0.8,3.1c-0.2,1.1-0.3,2.2-0.6,3.3
				c0,0.1,0.1,0,0.1,0c0.5-1.6,0.6-3.3,1.2-5c0.5-1.7,1.2-3.3,2-4.9c1.6-3.1,3.8-5.8,6.5-8c1.3-1.1,2.7-2,4.3-2.7
				c1.6-0.8,3.3-1.3,5-1.3c1.7,0,3.4,0.3,5,0.9c1.5,0.7,2.9,1.6,4.2,2.7c1.4,1,2.6,2.2,3.7,3.6c1,1.3,1.8,2.7,2.5,4.1
				c-1-1.1-2.1-2-3.5-2.6c-1.5-0.7-3.1-1.1-4.8-1.1c-0.7-0.1-1.4-0.1-2.1,0c-4.2,0.6-7.9,2.9-10.3,6.3c-1.3,1.6-2.2,3.4-2.9,5.4
				c0,0.1,0.1,0.1,0.1,0c0.6-1.6,1.5-3.1,2.6-4.5c1.1-1.3,2.3-2.5,3.7-3.5c1.3-1.1,2.9-1.9,4.6-2.4c1.6-0.5,3.2-0.7,4.9-0.5
				c0.9,0.1,1.7,0.2,2.5,0.5c0.9,0.2,1.7,0.6,2.4,1c1.5,0.9,2.7,2.2,3.5,3.7c0.5,1,1,1.9,1.4,2.9c0.1,0.3,0.2,0.6,0.3,0.9
				c0.1,0.6,0.3,1.2,0.4,1.8c-0.4-1.4-1.2-2.7-2.3-3.8c-0.5-0.6-1.1-1.1-1.7-1.6c-0.7-0.4-1.4-0.8-2.2-1.1c-0.7-0.2-1.5-0.4-2.3-0.6
				c-0.8-0.2-1.7-0.3-2.6-0.3c-1.6,0.1-3.2,0.5-4.6,1.4c-1.4,0.8-2.5,2-3.4,3.3c-1.8,2.8-3,5.9-3.8,9.1c-0.4,1.7-0.6,3.4-0.5,5
				c0.4-2.1,0.8-4.1,1.4-6.1c0.6-2.7,1.8-5.2,3.3-7.4c0.7-1.1,1.7-2,2.7-2.8c1-0.6,2.1-1,3.3-1.2c2.8,0,5.5,0.6,8,1.8
				c0.7,0.5,1.3,1,1.8,1.6c0.5,0.5,1,1.1,1.4,1.7c0.3,0.4,0.6,0.9,0.8,1.3c0.3,0.6,0.6,1.2,0.8,1.9c0,0.4,0.1,0.7,0.1,1.1h1.4
				c0.5-0.9,0.9-1.8,1.4-2.7c0.4-0.7,0.8-1.5,1.4-2.1c0.6-0.7,1.1-1.3,1.8-1.9c4.7-4.7,11-7.3,17.6-7.2c1.6,0,3.1,0.3,4.6,0.7
				c1.5,0.5,2.9,1.1,4.3,1.8c1.1,0.5,2.1,1.2,3,2c0.5,0.5,0.9,1,1.2,1.6c0.4,0.5,0.7,1,1,1.5c0,0.1,0.1,0,0.1-0.1
				c-0.2-0.6-0.5-1.2-0.8-1.8c-0.3-0.7-0.6-1.4-1.1-2c-0.5-0.5-1.1-1-1.7-1.4c-0.7-0.5-1.4-0.9-2.2-1.2c-1.3-0.7-2.8-1.3-4.2-1.7
				c-1.5-0.3-3-0.5-4.5-0.5c-3.1,0-6.1,0.6-8.9,1.7c-3.2,1.2-6.1,3-8.6,5.4c-1.3,1.3-2.4,2.8-3.2,4.4c-0.3,0.6-0.6,1.3-0.9,2
				c0.5-1.6,1.1-3.2,1.6-4.8c1.2-3.2,2.9-6.2,5.1-8.8c2.2-2.4,4.8-4.5,7.7-6.2c2.9-1.8,6-3.3,9.1-4.6c3.6-1.5,7.3-2.5,11.1-3.1
				c2-0.3,4-0.4,6-0.4C277.5,299.2,279.5,299.4,281.4,299.4C281.4,299.5,281.4,299.4,281.4,299.4z"/>
			<path class="st47" d="M270.7,313.6c-0.2-0.2-0.4-0.5-0.6-0.7c-0.3-0.2-0.5-0.5-0.8-0.7c-0.7-0.4-1.5-0.8-2.3-1
				c-1.7-0.4-3.4-0.6-5-0.5c-3.2,0.1-6.5,0.7-9.5,1.8c-3.1,1.1-6,2.8-8.5,5c-1.3,1.1-2.5,2.4-3.7,3.7c-1.1,1.3-2.1,2.8-2.9,4.4
				c-0.8,1.6-1.6,3.2-2.2,4.9l-0.1,0.1c0-0.1,0-0.2,0.1-0.3c0.1-0.9,0.2-1.7,0.4-2.6l0.5-2.5c0.6-1.6,1.3-3.1,1.9-4.6
				c0.6-1.6,1.5-3.1,2.4-4.5c1-1.4,2.2-2.6,3.4-3.8c2.5-2.4,5.2-4.5,8.2-6.3c1.6-0.9,3.2-1.6,4.8-2.3c1.7-0.7,3.5-1.3,5.4-1.8
				c0.9-0.2,1.7-0.4,2.6-0.5c0.1,0,0.1-0.1,0-0.1c-1.8,0.2-3.6,0.6-5.3,1.1c-0.8,0.2-1.6,0.4-2.3,0.7s-1.7,0.7-2.6,1
				c-3.2,1.1-6.2,2.8-8.9,5c-2.7,2.1-5,4.6-7,7.4c-0.2,0.3-0.4,0.6-0.6,0.9c0,0,0-0.1,0-0.2c0.5-1.7,1.2-3.4,2-4.9
				c0.8-1.5,1.6-3.1,2.6-4.5s2-2.9,3-4.2c1.1-1.3,2.3-2.6,3.7-3.7c1.3-1.1,2.7-2.1,4.2-3c1.3-0.8,2.6-1.5,4-2.2
				c1.4-0.7,2.8-1.2,4.3-1.5c0,0,0.1-0.1,0-0.1c-1.6,0.3-3.2,0.8-4.7,1.5c-1.6,0.7-3.1,1.4-4.6,2.3c-2.9,1.7-5.5,3.8-7.8,6.3
				c-2.2,2.7-4.1,5.6-5.7,8.6c-0.8,1.5-1.5,3.2-2,4.8c-0.5,1.6-1,3.3-1.4,5c-0.2,0.9-0.4,1.8-0.6,2.7c-0.2,0.5-0.3,1-0.5,1.4
				c0,0.1-0.1,0.3-0.1,0.4c0-0.6-0.1-1.2-0.1-1.8c0-1,0.1-1.9,0.2-2.9c0.3-3.7,0.9-7.3,1.5-11c0.2-1.7,0.6-3.4,1-5.1
				c0.5-1.7,1.1-3.3,1.8-4.9c0.6-1.6,1.4-3.1,2.2-4.6c0.9-1.5,1.9-2.9,3-4.2c0.9-1.1,1.8-2.1,2.7-3.1c1-1,2.1-1.8,3.1-2.7
				c0.1-0.1,0-0.2-0.1-0.1c-1.3,1.2-2.7,2.2-4.1,3.4c-1.2,1.1-2.4,2.3-3.5,3.6c-2.2,2.7-4.1,5.6-5.5,8.8c-0.7,1.6-1.3,3.3-1.8,5
				c-0.4,1.7-0.7,3.5-1,5.2c-0.2,1.3-0.4,2.5-0.6,3.8c-0.3-3-0.7-6-1-9.1c-0.4-3.7-0.6-7.4-1.1-11s-0.8-7.2-1-10.8
				c-0.1-1.9-0.3-3.7-0.4-5.6c0-0.1-0.1,0-0.1,0c0.2,3.7,0.2,7.3,0.4,11s0.6,7.3,0.9,11s0.7,7.4,1.1,11c0.3,2.6,0.6,5.1,0.9,7.7
				c0,0.2,0,0.4,0,0.5c-0.5-3-1.2-6.1-2-9.1c-0.9-3.4-2.1-6.8-3.6-10c-1.5-3-3.3-5.9-5.3-8.5c-1.7-2.1-3.7-3.9-6-5.4
				c-2.2-1.4-4.7-2.4-7.3-2.8l0,0c1.7,0.5,3.3,1.1,4.8,1.9c1.6,0.9,3,1.9,4.3,3.1c1.3,1.1,2.6,2.3,3.6,3.7c1.1,1.4,2,2.9,3,4.3
				c1.8,3,3.3,6.1,4.4,9.4c0.3,0.7,0.5,1.5,0.7,2.2c-1-2.5-2.3-5-3.7-7.3c-1.8-2.8-4-5.2-6.5-7.3c-2-1.6-4.2-2.8-6.6-3.6
				c-1.2-0.3-2.5-0.5-3.8-0.5c-0.6,0-1.2,0-1.9,0c-0.2,0-0.5,0.1-0.7,0.1c-0.3,0.1-0.7,0.2-1,0.3l0,0c0.3,0,0.6,0,0.8-0.1
				c0.4-0.1,0.8-0.1,1.2,0c0.9,0.1,1.9,0.2,2.8,0.4c1.7,0.4,3.3,1.1,4.8,2c2.9,1.7,5.5,3.9,7.6,6.6c2.2,2.7,4,5.6,5.5,8.8
				c1.6,3.3,2.9,6.8,3.7,10.4l0.2,1l0.3,1.9c-0.4-1.7-0.8-3.3-1.3-4.9c-0.5-1.6-1.3-3.1-2.1-4.5c-3.4-5.4-8.7-9.8-15.2-10.5
				c-2-0.2-4.1-0.2-6.2,0c-1,0.1-2,0.3-3,0.6c-0.7,0.2-1.4,0.5-2,1l0,0c0.6-0.5,1.4-0.8,2.2-0.9c0.9-0.2,1.9-0.3,2.8-0.3
				c1.7-0.1,3.4,0,5.2,0.2c3.3,0.4,6.4,1.6,9.1,3.6c2.6,2,4.7,4.5,6.4,7.3c1.4,2.5,2.5,5.1,3.2,7.9c-0.1-0.2-0.1-0.3-0.2-0.5
				c-1.4-3.1-3.4-6-5.8-8.4c-2.3-2.3-5.2-3.9-8.4-4.5c-3.2-0.6-6.5-0.2-9.4,1.2c-3.4,1.6-6.4,4.1-8.6,7.3c-1.2,1.6-2.2,3.3-3.1,5.1
				c-0.5,0.9-0.9,1.9-1.2,2.9c-0.3,1-0.5,2-0.8,3l0,0c0.2-0.8,0.5-1.6,0.7-2.4c0.3-0.9,0.7-1.8,1.2-2.7c0.7-1.5,1.6-2.9,2.5-4.2
				c1.7-2.7,3.9-5,6.5-6.8c2.8-1.9,6.1-2.9,9.5-2.9c3.4,0.1,6.7,1.4,9.2,3.6c1.3,1.1,2.6,2.4,3.7,3.8c1.1,1.5,2.1,3.1,3,4.7
				c0.2,0.4,0.4,0.9,0.6,1.3c0-0.1-0.1-0.1-0.1-0.2c-0.9-1.4-1.9-2.7-3.1-3.8c-2.4-2.2-5.5-3.4-8.7-3.4c-1.7-0.1-3.5,0.1-5.1,0.5
				c-3.2,0.9-6,2.8-8,5.5c-1.4,1.9-2.6,4-3.4,6.2c-0.5,1.1-0.8,2.3-1.2,3.5c-0.3,1.1-0.5,2.2-0.5,3.4l0,0c0.1-0.9,0.3-1.7,0.5-2.5
				c0.2-0.9,0.5-1.7,0.8-2.5c0.6-1.7,1.4-3.3,2.2-4.8c0.8-1.5,1.9-2.9,3.1-4.1c1.2-1.2,2.7-2.1,4.3-2.8c1.7-0.6,3.4-1,5.2-0.9
				c1.7-0.1,3.4,0.1,5,0.5c1.6,0.4,3,1.1,4.3,2.1c1.3,1,2.4,2.2,3.4,3.6c0.9,1.2,1.7,2.6,2.2,4l-0.6-0.9c-0.5-0.7-1-1.3-1.6-1.9
				c-0.5-0.6-1.1-1.1-1.8-1.5c-0.3-0.2-0.7-0.4-1-0.5c-0.4-0.2-0.8-0.5-1.2-0.7c-1.6-0.5-3.3-0.6-4.9-0.3c-3.2,0.3-6.2,1.9-8.3,4.5
				c-1,1.3-1.9,2.8-2.6,4.3c-0.8,1.5-1.4,3-1.8,4.7c-0.3,0.9-0.5,1.9-0.6,2.9l0,0c0.1-0.8,0.3-1.5,0.5-2.3c0.3-0.8,0.5-1.6,0.8-2.3
				c0.7-1.6,1.5-3.1,2.4-4.6c0.8-1.4,1.9-2.7,3.1-3.8c1.3-1.1,2.9-1.8,4.5-2.2c1.7-0.4,3.4-0.5,5.1-0.3c0.8,0.1,1.6,0.4,2.3,0.8
				c0.4,0.2,0.7,0.2,1.1,0.4c0.5,0.2,0.9,0.5,1.3,0.9c1.2,1.1,2.3,2.4,3.2,3.9c0.4,0.8,0.8,1.6,1,2.4l0.1,0.2v0.1
				c0,0.3,0.1,0.6,0.1,0.9s0.1,0.3,0.1,0.5c-0.1-0.2-0.2-0.4-0.2-0.7c-0.2-0.4-0.4-0.8-0.7-1.1c-0.6-0.6-1.4-1.1-2.2-1.5
				c-0.9-0.4-1.8-0.8-2.7-1.1c-1-0.3-2-0.3-3-0.1c-1.9,0.3-3.7,1.1-5.3,2.2c-1.5,1-2.7,2.4-3.5,4c-0.1,0.2,0.2,0.2,0.3,0.1
				c0.9-1.4,2.1-2.6,3.5-3.5c1.6-1,3.3-1.7,5.1-2c1.9-0.1,3.8,0.2,5.5,1.1c0.8,0.3,1.5,0.7,2.1,1.3c0.4,0.4,0.6,1.1,1,1.5
				c0,0.1,0,0.2,0.1,0.2c0,0.1,0,0.1,0.1,0.1v0.1c0,0,0,0.1,0.1,0.1c0,0.1,0,0.1,0,0.2c0,0,0,0.1,0,0.1c0,0.1-0.1,0.2-0.1,0.3
				c-0.1,0.3,0.4,0.2,0.5,0.1l0.9-0.8c0.1,0,0.2,0,0.3-0.1l0.2-0.3c0.3-0.3,0.6-0.6,0.9-0.9c0.8-0.8,1.8-1.5,2.8-2.1
				c2-1.3,4.2-2.2,6.6-2.6c4.9-1,10.4-0.8,14.9,1.4c0,0,0.1-0.1,0.1-0.1c-1-0.7-2-1.2-3.1-1.6c-1.2-0.4-2.5-0.7-3.7-0.9
				c-2.7-0.4-5.5-0.3-8.2,0.2c-2.5,0.5-4.9,1.4-7.1,2.9c-0.6,0.4-1.1,0.8-1.6,1.2c0.3-0.5,0.6-1,0.9-1.5c0.9-1.5,1.8-3,2.8-4.5
				c2-2.8,4.6-5.2,7.5-7c5.8-3.7,12.7-5.2,19.4-4.2c0.7,0.1,1.4,0.3,2.1,0.6c0.3,0.1,0.5,0.3,0.8,0.4S270.3,313.5,270.7,313.6
				C270.7,313.7,270.7,313.6,270.7,313.6z M234,330.7c0.1,0,0.2-0.1,0.2-0.2l0,0c0,0.1,0,0.3-0.1,0.4s0,0.5,0,0.7l-0.1,0.1
				C234.1,331.4,234.1,331,234,330.7z"/>
			<path class="st48" d="M262.4,327.2c-1.2-1.1-2.5-2.1-4-2.8c-1.5-0.7-3.1-1.1-4.8-1.2c-1.7-0.1-3.4,0.1-5,0.5
				c-4.1,0.8-8,2.6-11.1,5.3c0.2-0.4,0.5-0.8,0.8-1.2c1.6-2.2,3.5-4.1,5.6-5.7c2.2-1.5,4.7-2.7,7.2-3.6c1.4-0.6,2.8-1,4.2-1.3
				c0.7-0.1,1.4-0.2,2.1-0.3c0.6,0,1.1-0.1,1.6-0.2c0,0,0.1-0.1,0-0.1c-0.3,0.1-0.7,0.1-1,0c-0.3,0-0.7,0-1,0
				c-0.7,0-1.4,0.1-2.1,0.2c-1.4,0.2-2.8,0.6-4.2,1.1c-2.7,0.8-5.2,2-7.5,3.5c-2.3,1.6-4.3,3.6-6,5.9c-0.4,0.5-0.7,1.1-1,1.6
				c0.2-0.8,0.5-1.5,0.8-2.3c0.5-1.3,0.9-2.6,1.4-3.9c0.6-1.4,1.2-2.7,2-4c1.4-2.5,3.3-4.8,5.6-6.5c1.1-0.8,2.4-1.4,3.6-2
				c0.7-0.3,1.4-0.5,2.1-0.7c0.8-0.2,1.7-0.3,2.5-0.3c0,0,0.1-0.1,0-0.1c-0.7-0.1-1.4,0-2.1,0.1c-0.7,0.1-1.4,0.3-2.1,0.5
				c-1.3,0.4-2.6,1-3.9,1.6c-2.6,1.6-4.9,3.7-6.5,6.3c-0.9,1.3-1.6,2.7-2.3,4.1c-0.7,1.4-1,3-1.6,4.4c0-0.1,0-0.2,0.1-0.3
				c0.5-2.8,1.1-5.5,2-8.2c0.7-2.7,1.8-5.3,3-7.8c0.6-1.1,1.4-2.2,2.2-3.2c0.9-1.1,1.9-2,3-2.8c0.1,0,0-0.1,0-0.1
				c-1.1,0.6-2.1,1.4-3,2.3c-1,0.9-1.8,1.9-2.6,3c-1.5,2.5-2.7,5.1-3.5,7.9c-0.6,2-1.2,4-1.7,6.1c0.3-2.5,0.8-4.9,1.4-7.4
				c0.7-3,1.6-6,2.7-8.9c0.6-1.4,1.3-2.8,2.2-4.1c0.8-1.2,1.7-2.3,2.5-3.5c0,0,0-0.1-0.1,0c-0.9,1.1-1.8,2.1-2.6,3.2
				c-0.9,1.3-1.7,2.6-2.4,4c-1.3,2.9-2.3,5.9-3.1,9c-0.6,2.1-1,4.2-1.4,6.3c0-0.5,0-1.1,0-1.6c-0.1-3.7,0.2-7.4,0.6-11
				c0.4-3.6,1.2-7.1,2.4-10.5c1.2-3.1,2.8-6.1,4.8-8.8c1.7-2.2,3.9-4.1,6.4-5.4c0.1,0,0.1-0.2,0-0.1c-5.9,2.7-10,8.5-12.4,14.4
				c-1.2,3.4-2.1,6.9-2.5,10.4l0,0c-0.1-1.8-0.2-3.5-0.2-5.2c0-1.6-0.1-3.2-0.1-4.8c0-0.8,0.1-1.6,0.1-2.5s0.2-1.6,0.2-2.4h-0.1
				c-0.1,0.7-0.3,1.5-0.4,2.2s-0.3,1.7-0.3,2.5c-0.2,1.7-0.2,3.4-0.3,5c-0.2,3.4,0,6.8,0.1,10.1c0,1.5,0.2,3.1,0.3,4.6
				c-0.2-1.1-0.4-2.1-0.6-3.2c-0.4-1.7-0.7-3.4-1.1-5.1s-0.9-3.4-1.4-5.2s-0.9-3.2-1.6-4.8c-0.5-1.5-1.2-3-2.1-4.4l0,0
				c0.4,0.7,0.6,1.4,0.9,2.2c0.2,0.8,0.5,1.5,0.8,2.3c0.6,1.7,1,3.4,1.5,5.2s0.9,3.3,1.3,5s0.6,3.4,1,5.1c0.6,2.9,1,5.8,1.3,8.7
				c-0.2-0.7-0.4-1.4-0.6-2c-0.5-1.6-1.1-3.2-1.9-4.7c-1.7-3-4-5.6-6.8-7.6c-1.3-1-2.7-1.8-4.2-2.5c-1.6-0.6-3.2-1.1-4.8-1.3
				c-1.4-0.3-2.7-0.4-4.1-0.3c-0.7,0.1-1.3,0.2-2,0.4c-0.2,0.1-0.5,0.2-0.7,0.3c-0.2,0.1-0.3,0.1-0.5,0.2s-0.2,0.1-0.4,0.2
				c0,0,0,0.1,0,0.1c0.7-0.2,1.3-0.5,2-0.6c0.9-0.1,1.8-0.2,2.7-0.1c1.7,0.2,3.5,0.6,5.1,1.2c3.2,1,6.2,2.8,8.6,5.2
				c1.3,1.2,2.5,2.6,3.4,4c0.9,1.4,1.7,2.9,2.2,4.5c1.1,2.7,1.9,5.6,2.4,8.5v0.2c-0.2-1.1-0.4-2.2-0.7-3.3c-0.6-2.7-1.8-5.2-3.5-7.4
				c-1.5-2.1-3.5-3.7-5.9-4.8c-2.7-1.1-5.5-0.9-8.4-0.5l0,0c2.7-0.1,5.4-0.1,7.9,1.3c2.1,1.2,4,2.8,5.4,4.8c0.9,1.1,1.6,2.4,2.1,3.7
				c-0.3-0.4-0.6-0.7-0.9-1c-1.1-1.1-2.4-2-3.9-2.7c-3-1.4-6.5-1.5-9.6-0.3c-3,1.1-5.2,3.5-6.9,6.1c-0.8,1.1-1.4,2.4-1.8,3.6
				c0,0.1,0.1,0.1,0.2,0c0.7-1.6,1.5-3.1,2.6-4.5c1-1.4,2.3-2.7,3.8-3.5c3-1.7,6.6-2,9.9-1c1.6,0.5,3.1,1.4,4.3,2.5
				c1.1,1.1,2,2.4,2.7,3.8c-2.4-2.2-5.4-3.3-8.6-3.3c-1.6-0.1-3.3,0.1-4.9,0.5c-1.6,0.5-3,1.2-4.3,2.2c-2.5,1.9-4.4,4.4-5.6,7.3
				c-0.4,0.9-0.6,1.8-0.7,2.8c0,0.1,0.1,0,0.1,0c0.8-3.3,2.6-6.1,5.2-8.2c2.4-2,5.5-3.1,8.7-3.1c1.6-0.1,3.2,0.2,4.7,0.6
				c1.5,0.5,2.8,1.2,4,2.1c1.1,1,2.1,2.1,2.9,3.4c0.1,0.2,0.2,0.4,0.4,0.6c0,0,0,0,0,0.1c0.2,0.7,0.4,1.4,0.5,2.2c0,0.3,0,0.5,0,0.8
				h1.5c0.1,0,0.1-0.1,0.1-0.2c0.1-0.3,0.1-0.6,0.2-0.9c0.4-0.9,0.9-1.7,1.4-2.4c0.9-1.2,2-2.2,3.2-3c2.7-1.8,5.7-3.1,8.9-3.7
				c0.7-0.2,1.5-0.3,2.2-0.4c0.8-0.1,1.5-0.1,2.3,0c1.5,0,3,0.3,4.4,0.8c1.4,0.5,2.8,1.2,4,2.1c1.4,0.9,2.4,2.2,2.9,3.8
				c0,0.1,0.1,0,0.1,0C264.2,329.7,263.5,328.3,262.4,327.2z"/>
			<path class="st49" d="M254.8,324.6c-0.5-0.1-0.9-0.1-1.4-0.1c-0.5,0-1.1,0.1-1.6,0.1c-1.3,0.1-2.5,0.3-3.8,0.6
				c-2.2,0.5-4.3,1.3-6.2,2.6c-1.9,1.1-3.6,2.6-5.1,4.2c-0.6,0.6-1.1,1.3-1.5,2.1c0.1-1,0.3-2.1,0.5-3.1c0.5-2.3,1.3-4.6,2.3-6.8
				c1-2.1,2.4-3.9,4.1-5.5c0.8-0.8,1.8-1.5,2.7-2.1c0.9-0.6,1.9-1.1,2.8-1.7c0,0,0-0.1,0-0.1c-1,0.6-2.1,1-3,1.5
				c-1,0.6-1.9,1.2-2.8,2c-1.8,1.6-3.3,3.5-4.5,5.6c-1.1,2.1-2,4.3-2.6,6.7c0-0.4,0-0.8,0-1.1c0.5-2.7,0.4-5.4,0.8-8.1
				c0.2-1.4,0.6-2.7,0.9-4.1s0.5-2.7,0.8-4c0.3-1.4,0.7-2.7,1.2-4c0.2-0.7,0.5-1.3,0.8-2c0.3-0.5,0.6-1.1,0.8-1.6
				c0-0.1-0.1-0.1-0.1,0c-0.2,0.5-0.6,0.9-0.9,1.4s-0.7,1.2-0.9,1.8c-0.6,1.3-1.1,2.6-1.6,4c-0.4,1.4-0.8,2.7-1.1,4.1
				c-0.3,1.4-0.8,2.9-1,4.4c-0.4,2.7-0.3,5.4-0.7,8.1c0,0.1,0,0.1,0,0.2c-0.1-1.4-0.3-2.8-0.4-4.2c-0.2-1.7-0.3-3.4-0.5-5
				s-0.5-3.3-0.6-5c-0.1-1.6-0.4-3.2-0.8-4.8c-0.2-0.7-0.4-1.4-0.6-2.1s-0.7-1.6-0.9-2.5c0-0.1-0.1,0-0.1,0c0.2,1.5,0.7,3,1,4.6
				c0.3,1.6,0.5,3.1,0.6,4.7c0.1,2.4,0.4,4.8,0.7,7.2c-0.5-2.1-1.2-4.1-2-6.1c-0.6-1.6-1.4-3.2-2.3-4.7c-0.9-1.5-1.9-2.9-3.1-4.3
				c-2-2.8-4.7-5-7.8-6.4c-0.8-0.3-1.5-0.6-2.3-0.8c-0.1,0-0.1,0.1-0.1,0.1c3.2,1.3,6.1,3.3,8.3,6c1.2,1.4,2.4,2.9,3.4,4.4
				c1,1.5,1.8,3,2.5,4.6c1.4,3.2,2.5,6.6,3.1,10.1c0.4,1.7,0.7,3.4,0.9,5.2c-0.2-1-0.5-2.1-0.8-3.1c-0.4-1.6-1-3.2-1.7-4.6
				c-0.8-1.5-1.7-3-2.7-4.4c-1.8-2.7-4.1-4.9-6.9-6.5c-1.5-0.9-3-1.6-4.7-2.1c-0.7-0.2-1.5-0.3-2.2-0.3c-0.8,0-1.6,0.3-2.4,0.4
				c0,0-0.1,0.1,0,0.1c0.7,0,1.4-0.1,2.1,0c0.8,0.1,1.6,0.3,2.4,0.6c1.5,0.6,2.9,1.4,4.3,2.3c1.3,0.8,2.6,1.7,3.7,2.8
				c1.1,1.2,2.2,2.4,3.1,3.8c0.9,1.3,1.8,2.6,2.5,4c0.7,1.5,1.3,3,1.8,4.6c0.4,1.4,0.8,2.9,1.1,4.3c-0.5-1.5-1.1-2.9-1.8-4.2
				c-1.4-3-3.5-5.7-5.9-8c-2.4-2.2-6.2-2.9-9.4-2.4c-0.9,0.1-1.7,0.4-2.6,0.6c-0.9,0.2-1.7,0.5-2.6,0.8c-1.5,0.6-2.9,1.5-4.1,2.6
				c-1.2,1-2.2,2.2-3.1,3.5c-0.9,1.4-1.6,2.9-2,4.5l0,0c0.4-0.9,0.7-1.8,1.2-2.6c0.4-0.8,0.9-1.5,1.6-2.1c1.1-1.2,2.3-2.3,3.7-3.2
				c1.4-0.9,3-1.7,4.6-2.1c1.7-0.5,3.5-0.8,5.3-0.8c1.7,0.1,3.5,0.5,5,1.3c1.4,0.8,2.7,1.9,3.8,3.1c1.3,1.2,2.4,2.5,3.3,4
				c0.6,1,1.1,2,1.6,3c-0.2-0.3-0.4-0.5-0.7-0.8c-0.8-0.9-1.8-1.6-2.9-2.1c-1.1-0.6-2.3-0.9-3.6-1c-1.3-0.1-2.5,0.1-3.8,0.5
				c-1.2,0.4-2.3,0.9-3.3,1.7c-2,1.5-3.4,3.7-4.1,6.1c0,0,0,0,0.1,0c0.9-2.3,2.4-4.2,4.5-5.5c2-1.2,4.4-1.7,6.7-1.5
				c2.2,0.3,4.3,1.3,5.9,2.9c1.5,1.4,3.2,3.8,3.3,6v0.2h2.2c1.7-4.1,5.5-7,9.3-9.1c1.2-0.6,2.5-1.2,3.8-1.6c1.2-0.4,2.3-0.7,3.5-1
				c0.5-0.1,1.1-0.2,1.6-0.3C253.7,324.6,254.2,324.6,254.8,324.6C254.8,324.6,254.9,324.6,254.8,324.6z"/>
			<path class="st50" d="M252,331.3c-1.7-0.6-3.5-1-5.3-1.1c-1.8,0-3.7,0.3-5.4,0.9c-1.7,0.5-3.3,1.3-4.8,2.3
				c-0.7,0.5-1.3,1.1-1.9,1.8l0,0c0.4-1.4,0.9-2.7,1.7-4c1-1.6,2.2-3,3.7-4.1c1.5-1.1,3.1-2.1,4.8-2.8c2-1,4.2-1.5,6.5-1.6
				c0,0,0.1-0.1,0-0.1c-2.2-0.2-4.4,0.2-6.4,1c-1.9,0.7-3.7,1.6-5.4,2.8c-1.7,1.2-3.1,2.8-4.1,4.5c-0.5,0.9-1,1.8-1.2,2.9l-0.1-2
				c-0.1-2.1-0.2-4.2-0.1-6.4s0.2-4.2,0.3-6.3c0-1,0.1-2.1,0.2-3.1c0-0.5,0.1-1,0.1-1.5s0.1-0.8,0.1-1.2c0,0-0.1,0-0.1,0
				c0,0.4-0.2,0.8-0.3,1.3s-0.2,1-0.3,1.5c-0.2,1.1-0.4,2.1-0.5,3.2c-0.2,2.1-0.4,4.1-0.4,6.2c0,2.1,0.1,4.1,0.2,6.2
				c0.1,1.3,0.2,2.7,0.3,4c-0.2-0.5-0.3-0.9-0.5-1.4c-0.4-0.9-0.9-1.8-1.4-2.6c-1-1.7-2.2-3.2-3.6-4.5c-1.3-1.4-2.8-2.6-4.4-3.5
				c-0.8-0.5-1.7-0.8-2.6-1c-0.8-0.2-1.6-0.2-2.4,0.1c0,0-0.1,0.1,0,0.1c0.8,0.1,1.6,0.2,2.3,0.4c0.9,0.3,1.7,0.7,2.5,1.1
				c1.5,1,3,2.2,4.2,3.6c1,1,1.9,2.1,2.7,3.3c-1.3-1.4-2.8-2.4-4.6-3.1c-2-0.9-4.3-1.3-6.5-1c-1.1,0.2-2.2,0.5-3.3,0.9
				c-1,0.3-1.8,0.9-2.5,1.6c0,0,0,0,0,0c1.6-1.4,3.8-1.7,5.8-2c2.2-0.2,4.4,0.2,6.4,1.2c1.7,0.7,3.3,1.8,4.5,3.2
				c0.7,0.8,1.3,1.7,1.9,2.6c0.2,0.3,0.4,0.7,0.5,1c0.1,0.2,0.1,0.4,0.2,0.7c0,0.1,0.1,0.3,0.1,0.4h1.6c1.7-2.5,4.3-4.3,7.2-5.1
				c1.6-0.5,3.2-0.8,4.9-0.9c1.8,0,3.6,0.2,5.4,0.7C252,331.5,252.2,331.3,252,331.3z"/>
			<path class="st46" d="M124.7,299.8c-1.8-0.2-3.5-0.6-5.3-0.7c-1.7-0.1-3.4-0.1-5.2,0.1c-3.5,0.3-7,1.1-10.3,2.2
				c-3.3,1.1-6.4,2.5-9.4,4.1c-2.9,1.5-5.6,3.4-8.1,5.5c-2.9,2.6-5.2,5.7-6.7,9.3c-0.6,1.4-1.1,2.9-1.5,4.4c0.1-0.6,0.3-1.1,0.5-1.7
				c0.6-1.8,1.2-3.5,1.9-5.2c1.3-3.3,2.9-6.5,4.8-9.5c1.9-2.9,4.1-5.6,6.8-7.9c2.5-2.4,5.3-4.4,8.4-6c1.3-0.6,2.6-1.2,4-1.6
				c0.8-0.3,1.6-0.5,2.4-0.7c0.5-0.1,1.1-0.2,1.6-0.4c0.1,0,0.1-0.2,0-0.1c-0.7,0.2-1.4,0.4-2.2,0.5c-0.9,0.2-1.8,0.5-2.7,0.7
				c-1.6,0.5-3.1,1-4.6,1.7c-3,1.5-5.8,3.4-8.4,5.6c-2.7,2.3-5,5-6.9,8c-1.9,3-3.5,6.2-4.6,9.6c-0.9,2.7-1.6,5.6-1.9,8.4
				c0-0.6,0-1.1,0-1.7s0.1-1.1,0.1-1.7c0.2-1.8,0.4-3.6,0.7-5.5c0.6-3.6,1.5-7.1,2.7-10.5c1.2-3.3,2.8-6.4,4.8-9.3
				c2-3,4.4-5.7,7.1-8.1c1.3-1.2,2.7-2.2,4.1-3.2c0.7-0.5,1.5-1,2.2-1.5s1.8-0.9,2.6-1.3c0,0,0-0.1,0-0.1c-0.8,0.4-1.6,0.6-2.3,1
				s-1.6,0.9-2.3,1.4c-1.5,0.9-2.9,1.9-4.3,3c-5.4,4.4-9.7,10.1-12.3,16.5c-1.3,3.3-2.4,6.7-3.1,10.2c0-0.5,0.1-0.9,0.1-1.4
				c0.3-3.7,0.5-7.5,0.6-11.2c0.2-7.3,1.1-14.5,2.6-21.6c0.1-0.4,0.2-0.8,0.3-1.2c-0.2,0.5-0.3,0.9-0.5,1.4c-0.5,1.4-1,2.9-1.4,4.3
				c-0.6,2.2-0.9,4.4-1.3,6.6c-0.2,2-0.4,4-0.6,5.9c-0.3,3.7-0.3,7.4-0.6,11.1c-0.1,1.1-0.1,2.2-0.2,3.3c-0.2-1.4-0.3-2.8-0.5-4.2
				c-0.2-1.8-0.6-3.5-1-5.2c-0.5-1.7-0.8-3.4-1.4-5.1s-1.2-3.4-1.8-5.1c-0.7-1.6-1.6-3.1-2.6-4.6c-0.9-1.6-2-3-3.2-4.3
				c-0.7-0.7-1.5-1.3-2.3-1.9c-0.7-0.6-1.5-1.2-2.2-1.7l0,0c1.3,1.1,2.5,2.3,3.7,3.5c1.2,1.3,2.2,2.7,3.1,4.3
				c0.4,0.7,0.9,1.5,1.3,2.2s0.9,1.5,1.3,2.4c0.7,1.7,1.3,3.3,1.9,5.1c0.6,1.8,0.9,3.6,1.4,5.3c0.5,1.7,0.8,3.5,1.1,5.2
				c0.3,1.8,0.4,3.6,0.7,5.4s0.4,3.6,0.5,5.4v0.5c0,0.5,0,1,0,1.5c0-0.3-0.1-0.5-0.1-0.8c-0.5-3.5-1.5-6.9-2.9-10.2
				c-1.3-3.1-3-6-5.1-8.6c-2.1-2.4-4.9-4.2-8.1-5c-0.6-0.1-1.1-0.2-1.7-0.3c-0.3,0-0.6-0.1-0.9-0.1c-0.3,0-0.6,0-0.9,0
				c0,0-0.1,0,0,0.1c0.2,0.1,0.5,0.1,0.7,0.1c0.4,0,0.7,0.1,1.1,0.2c0.9,0.2,1.8,0.5,2.6,0.8c1.5,0.7,2.9,1.5,4.2,2.6
				c2.6,2.1,4.5,5.1,6,8.1c1.6,3.2,2.8,6.6,3.6,10.1c0.3,1.5,0.6,3.1,0.9,4.6v-0.1c-0.3-0.6-0.5-1.2-0.8-1.8
				c-0.1-0.3-0.2-0.6-0.2-0.9c-0.5-1.6-1.2-3.1-2-4.6c-0.8-1.4-1.7-2.7-2.8-3.9c-1.1-1.1-2.3-2.2-3.6-3.1c-1.3-1-2.7-1.7-4.3-2.1
				c-1.6-0.4-3.2-0.5-4.9-0.4c-1.7,0.2-3.3,0.8-4.7,1.6c-3.9,2.1-7.2,5.1-9.5,8.9c-1.2,1.9-2.1,3.9-2.7,6c-0.3,1-0.6,2-0.8,3.1
				c-0.2,1.1-0.3,2.2-0.5,3.3c0,0.1,0.1,0,0.1,0c0.5-1.6,0.7-3.3,1.2-5c0.5-1.7,1.2-3.3,2-4.9c1.6-3.1,3.8-5.8,6.5-8
				c1.3-1.1,2.7-2,4.2-2.7c1.6-0.8,3.3-1.2,5-1.3c1.7,0,3.4,0.3,5,0.9c1.5,0.7,2.9,1.6,4.2,2.7c1.4,1,2.6,2.2,3.7,3.6
				c1,1.3,1.8,2.7,2.5,4.1c-1-1.1-2.1-2-3.5-2.6c-1.5-0.7-3.1-1.1-4.8-1.1c-0.7-0.1-1.4-0.1-2.1,0c-4.1,0.6-7.9,2.9-10.3,6.3
				c-1.3,1.6-2.2,3.4-2.9,5.4c0,0.1,0.1,0.1,0.2,0c0.6-1.6,1.5-3.1,2.6-4.5c1.1-1.3,2.3-2.5,3.7-3.5c1.3-1.1,2.9-1.9,4.5-2.4
				c0.8-0.2,1.6-0.4,2.4-0.5c0.8-0.1,1.7,0,2.5,0.1c0.9,0.1,1.7,0.2,2.5,0.5c0.9,0.2,1.7,0.6,2.4,1c1.5,0.9,2.7,2.2,3.5,3.7
				c0.5,0.9,1,1.9,1.4,2.9c0.1,0.3,0.2,0.6,0.3,0.9c0.2,0.6,0.3,1.2,0.4,1.8c-0.4-1.4-1.2-2.7-2.3-3.8c-0.5-0.6-1.1-1.1-1.7-1.6
				c-0.7-0.4-1.4-0.8-2.2-1.1c-0.7-0.2-1.5-0.4-2.3-0.6c-0.8-0.2-1.7-0.3-2.6-0.3c-1.6,0-3.2,0.5-4.6,1.4c-1.3,0.8-2.5,1.9-3.4,3.3
				c-0.9,1.3-1.6,2.8-2.2,4.2c-0.7,1.6-1.2,3.2-1.5,4.9c-0.4,1.7-0.6,3.4-0.5,5c0.4-2.1,0.8-4.1,1.3-6.1c0.6-2.7,1.8-5.2,3.3-7.5
				c0.7-1.1,1.7-2,2.7-2.8c1-0.6,2.1-1,3.3-1.2c1.9-0.2,3.9,0.1,5.7,0.9c0.8,0.2,1.6,0.6,2.3,1c0.7,0.5,1.3,1,1.8,1.6
				c0.5,0.5,1,1.1,1.4,1.7c0.3,0.4,0.6,0.9,0.8,1.3c0.3,0.6,0.6,1.2,0.8,1.9c0,0.4,0.1,0.7,0.1,1.1h1.4c0.5-0.9,0.9-1.8,1.4-2.7
				c0.4-0.7,0.8-1.5,1.4-2.1c0.6-0.7,1.1-1.3,1.8-1.9c2.4-2.4,5.3-4.3,8.5-5.5c2.9-1.2,6-1.7,9.1-1.7c1.6,0,3.1,0.3,4.6,0.7
				c1.5,0.5,2.9,1.1,4.3,1.8c1.1,0.5,2.1,1.2,3,2c0.5,0.5,0.9,1,1.2,1.6c0.4,0.5,0.7,1,1,1.5c0,0.1,0.1,0,0.1-0.1
				c-0.2-0.6-0.5-1.2-0.8-1.8c-0.3-0.7-0.7-1.4-1.2-2.1c-0.5-0.5-1.1-1-1.7-1.4c-0.7-0.5-1.4-0.9-2.2-1.2c-1.3-0.7-2.8-1.3-4.2-1.7
				c-1.5-0.4-3-0.5-4.5-0.5c-3.1,0-6.1,0.6-8.9,1.7c-3.2,1.2-6.1,3-8.6,5.4c-1.3,1.3-2.4,2.8-3.2,4.5c-0.3,0.6-0.6,1.3-0.9,2
				c0.5-1.6,1.1-3.2,1.7-4.8c1.2-3.2,2.9-6.2,5.2-8.7c2.2-2.4,4.8-4.5,7.7-6.1c2.9-1.8,6-3.4,9.1-4.6c3.6-1.5,7.3-2.6,11.1-3.2
				c2-0.3,4-0.4,6-0.4C120.8,299.6,122.7,299.8,124.7,299.8C124.7,299.9,124.7,299.8,124.7,299.8z"/>
			<path class="st47" d="M114,314c-0.2-0.2-0.4-0.5-0.6-0.7s-0.5-0.5-0.8-0.7c-0.7-0.4-1.5-0.8-2.2-1c-1.6-0.4-3.3-0.5-5-0.5
				c-6.6,0.2-13,2.6-18,6.8c-1.3,1.1-2.5,2.4-3.7,3.7c-1.1,1.3-2.1,2.8-2.9,4.4c-0.8,1.6-1.6,3.2-2.2,4.9c0,0.1-0.1,0.1-0.1,0.1
				c0-0.1,0-0.2,0-0.3c0.1-0.9,0.2-1.7,0.4-2.6l0.5-2.5c0.6-1.6,1.3-3.1,1.9-4.6c0.6-1.6,1.5-3.1,2.4-4.5c1-1.3,2.2-2.6,3.4-3.7
				c2.5-2.4,5.2-4.6,8.2-6.3c1.6-0.9,3.2-1.6,4.8-2.3c1.7-0.7,3.5-1.3,5.4-1.8c0.8-0.2,1.7-0.4,2.6-0.5c0.1,0,0.1-0.1,0-0.1
				c-1.8,0.2-3.6,0.6-5.3,1.1c-0.8,0.2-1.6,0.4-2.3,0.7s-1.7,0.7-2.6,1c-3.2,1.2-6.2,2.8-8.9,5c-2.7,2.1-5.1,4.6-7.1,7.4
				c-0.2,0.3-0.4,0.6-0.6,0.9c0,0,0-0.1,0-0.2c0.5-1.7,1.2-3.4,2-4.9c0.8-1.5,1.6-3.1,2.6-4.5s2-2.9,3-4.2c1.1-1.3,2.3-2.6,3.7-3.7
				c1.3-1.1,2.7-2.1,4.2-3c1.3-0.8,2.6-1.5,4-2.2c1.4-0.7,2.8-1.2,4.3-1.5c0,0,0.1-0.1,0-0.1c-1.6,0.3-3.2,0.9-4.7,1.5
				c-1.6,0.7-3.1,1.4-4.6,2.3c-2.9,1.7-5.5,3.8-7.7,6.3c-2.2,2.7-4.1,5.6-5.7,8.6c-0.8,1.5-1.5,3.1-2,4.8c-0.5,1.7-1,3.3-1.4,5
				c-0.2,0.9-0.4,1.8-0.6,2.7c-0.2,0.5-0.3,0.9-0.5,1.4c0,0.1-0.1,0.3-0.1,0.4c0-0.6-0.1-1.2-0.1-1.8c0-1,0.1-1.9,0.2-2.9
				c0.3-3.7,0.9-7.3,1.5-11c0.3-1.7,0.6-3.4,1-5.1c0.5-1.7,1-3.3,1.7-4.9c0.6-1.6,1.4-3.1,2.2-4.6c0.9-1.5,1.9-2.9,3-4.2
				c0.9-1.1,1.8-2.1,2.8-3.1c1-1,2.1-1.8,3.1-2.7c0.1-0.1,0-0.2-0.1-0.1c-1.3,1.2-2.7,2.2-4.1,3.4c-1.2,1.1-2.4,2.3-3.5,3.6
				c-2.2,2.7-4.1,5.6-5.5,8.8c-0.7,1.6-1.3,3.3-1.8,5c-0.4,1.7-0.7,3.5-1,5.2c-0.2,1.3-0.4,2.5-0.6,3.8c-0.3-3-0.7-6-1-9.1
				c-0.4-3.7-0.7-7.4-1.1-11s-0.8-7.2-1-10.8c-0.1-1.9-0.2-3.7-0.4-5.6c0-0.1-0.1,0-0.1,0.1c0.2,3.6,0.2,7.3,0.4,11s0.6,7.4,0.9,11
				s0.7,7.4,1.1,11c0.3,2.6,0.6,5.1,0.9,7.7c0,0.2,0,0.4,0,0.5c-0.5-3-1.2-6.1-2-9.1c-0.9-3.4-2.1-6.8-3.6-10
				c-1.5-3-3.3-5.9-5.3-8.5c-1.7-2.1-3.7-3.9-6-5.4c-2.2-1.4-4.7-2.4-7.3-2.8c0,0,0,0,0,0c3.4,0.9,6.5,2.7,9,5.1
				c1.3,1.1,2.6,2.3,3.6,3.7c1,1.4,2,2.9,3,4.3c1.8,3,3.3,6.1,4.4,9.4c0.3,0.7,0.5,1.5,0.7,2.2c-1-2.5-2.2-5-3.7-7.2
				c-1.8-2.8-4-5.2-6.5-7.3c-2-1.6-4.2-2.8-6.6-3.6c-1.2-0.3-2.4-0.5-3.6-0.5c-0.6,0-1.2-0.1-1.9,0c-0.2,0-0.5,0.1-0.7,0.1
				c-0.3,0.1-0.7,0.2-1,0.3l0,0c0.3,0,0.6,0,0.8-0.1c0.4,0,0.8,0,1.2,0c0.9,0.1,1.8,0.2,2.8,0.4c1.7,0.4,3.3,1.1,4.8,1.9
				c2.9,1.7,5.5,3.9,7.6,6.6c2.2,2.7,4,5.6,5.4,8.8c1.6,3.3,2.9,6.8,3.7,10.4l0.2,1c0.1,0.6,0.2,1.3,0.3,1.9
				c-0.4-1.6-0.8-3.3-1.3-4.9c-0.5-1.6-1.3-3.1-2.2-4.5c-3.4-5.4-8.7-9.8-15.2-10.5c-2-0.2-4.1-0.2-6.2,0c-1,0.1-2,0.3-3,0.6
				c-0.7,0.2-1.4,0.5-2,1l0,0c0.6-0.5,1.4-0.7,2.2-0.8c0.9-0.2,1.9-0.3,2.8-0.4c1.7-0.1,3.4,0,5.2,0.2c3.3,0.4,6.4,1.6,9.1,3.6
				c2.6,2,4.8,4.4,6.5,7.2c1.4,2.5,2.5,5.1,3.2,7.9c-0.1-0.2-0.2-0.3-0.2-0.5c-1.4-3.1-3.4-6-5.8-8.4c-2.3-2.3-5.2-3.9-8.3-4.5
				c-3.2-0.6-6.5-0.1-9.4,1.2c-3.4,1.6-6.4,4.1-8.6,7.3c-1.2,1.6-2.2,3.3-3.1,5.1c-1,1.8-1.7,3.8-2,5.9l0,0c0.2-0.8,0.5-1.6,0.7-2.4
				c0.3-0.9,0.7-1.8,1.1-2.6c0.7-1.5,1.5-2.9,2.5-4.2c1.7-2.7,3.9-5,6.5-6.9c2.8-1.9,6.1-2.9,9.5-2.9c3.4,0.1,6.7,1.4,9.2,3.6
				c1.3,1.1,2.6,2.4,3.7,3.8c1.1,1.5,2.1,3.1,3,4.7c0.2,0.4,0.4,0.9,0.7,1.3l-0.1-0.2c-0.9-1.4-1.9-2.7-3.1-3.8
				c-2.4-2.2-5.5-3.4-8.7-3.4c-1.7-0.1-3.5,0.1-5.1,0.5c-3.2,0.9-6,2.8-8,5.5c-1.4,1.9-2.6,4-3.4,6.2c-0.5,1.2-0.9,2.3-1.2,3.5
				c-0.3,1.1-0.5,2.2-0.5,3.4l0,0c0.1-0.9,0.3-1.7,0.5-2.5c0.2-0.9,0.5-1.7,0.8-2.5c0.6-1.7,1.4-3.3,2.2-4.8
				c0.8-1.5,1.9-2.9,3.1-4.1c1.2-1.2,2.7-2.1,4.3-2.8c1.7-0.6,3.4-1,5.2-0.9c1.7-0.1,3.4,0.1,5,0.5c1.6,0.4,3,1.1,4.3,2.1
				c1.3,1,2.4,2.2,3.4,3.6c0.9,1.2,1.7,2.6,2.2,4l-0.7-0.9c-0.5-0.7-1-1.3-1.6-1.9c-0.5-0.6-1.1-1.1-1.8-1.5c-0.3-0.2-0.7-0.4-1-0.5
				c-0.4-0.2-0.8-0.5-1.2-0.7c-1.6-0.5-3.3-0.6-4.9-0.3c-3.2,0.3-6.2,1.9-8.3,4.4c-1,1.3-1.9,2.8-2.6,4.3c-0.8,1.5-1.4,3.1-1.8,4.7
				c-0.3,0.9-0.5,1.9-0.6,2.9l0,0c0.1-0.8,0.3-1.5,0.5-2.3c0.3-0.8,0.5-1.6,0.8-2.3c0.6-1.6,1.4-3.2,2.4-4.7
				c0.8-1.4,1.9-2.7,3.1-3.7c1.3-1.1,2.8-1.8,4.5-2.2c1.7-0.4,3.4-0.5,5.1-0.3c0.8,0.1,1.6,0.4,2.3,0.8c0.3,0.2,0.7,0.2,1.1,0.4
				c0.5,0.2,0.9,0.5,1.3,0.9c1.2,1.1,2.3,2.4,3.2,3.9c0.4,0.8,0.8,1.6,1,2.4l0.1,0.2v0.1c0,0.3,0,0.6,0.1,0.9c0,0.1,0.1,0.3,0.1,0.5
				c-0.1-0.2-0.2-0.4-0.2-0.7c-0.2-0.4-0.4-0.8-0.7-1.1c-0.6-0.6-1.4-1.1-2.2-1.5c-0.9-0.4-1.8-0.8-2.7-1.1c-1-0.3-2-0.3-3-0.1
				c-1.9,0.3-3.7,1.1-5.3,2.2c-1.5,1-2.7,2.4-3.5,4c-0.1,0.2,0.2,0.2,0.3,0.1c0.9-1.4,2.1-2.6,3.5-3.5c1.6-1,3.3-1.7,5.1-2
				c1.9-0.2,3.8,0.2,5.5,1.1c0.8,0.3,1.5,0.7,2.2,1.3c0.4,0.4,0.6,1.1,1,1.5c0,0.1,0,0.2,0.1,0.2c0,0.1,0,0.1,0.1,0.1s0,0.1,0,0.1
				s0,0.1,0.1,0.1v0.3c0,0,0,0.1,0,0.1c0,0.1-0.1,0.2-0.1,0.3c-0.1,0.3,0.3,0.2,0.5,0.1l0.8-0.8c0.1,0,0.2,0,0.3-0.1
				c0.1-0.1,0.1-0.2,0.2-0.3l1-0.9c2.6-2.5,5.8-4.1,9.3-4.8c5-1.2,10.2-0.7,14.9,1.4c0,0,0.1-0.1,0.1-0.1c-1-0.7-2-1.2-3.1-1.6
				c-1.2-0.4-2.4-0.7-3.7-0.9c-2.7-0.4-5.5-0.3-8.2,0.2c-2.5,0.5-4.9,1.4-7.1,2.9c-0.6,0.4-1.1,0.8-1.6,1.2c0.3-0.5,0.6-1,0.9-1.5
				c0.9-1.5,1.8-3,2.8-4.5c2-2.8,4.5-5.2,7.5-7c5.8-3.6,12.6-5.1,19.3-4.2c0.7,0.1,1.4,0.3,2.1,0.6c0.3,0.1,0.5,0.3,0.8,0.4
				s0.4,0.4,0.7,0.5C113.9,314.1,114,314,114,314z M77.2,331.1c0.1,0,0.2-0.1,0.2-0.2l0,0c0,0.1,0,0.3,0,0.4s0,0.5,0,0.7l-0.1,0.1
				C77.3,331.8,77.3,331.5,77.2,331.1z"/>
			<path class="st48" d="M105.6,327.7c-1.2-1.1-2.5-2.1-4-2.8c-1.5-0.7-3.1-1.1-4.8-1.2c-1.7-0.1-3.4,0.1-5,0.5
				c-4.1,0.8-7.9,2.6-11.1,5.3c0.2-0.4,0.5-0.8,0.8-1.2c1.6-2.2,3.5-4.1,5.6-5.7c2.3-1.5,4.7-2.7,7.3-3.6c1.4-0.6,2.8-1,4.2-1.3
				c0.7-0.1,1.4-0.2,2-0.3c0.6,0,1.1-0.1,1.6-0.2c0,0,0.1-0.1,0-0.1c-0.3,0.1-0.7,0.1-1,0c-0.3,0-0.7,0-1,0c-0.7,0-1.4,0.1-2.1,0.2
				c-1.4,0.2-2.8,0.6-4.2,1.1c-2.7,0.8-5.2,2-7.5,3.5c-2.3,1.6-4.3,3.6-6,5.9c-0.4,0.5-0.7,1.1-1,1.6c0.2-0.8,0.5-1.6,0.8-2.3
				c0.5-1.3,0.9-2.6,1.4-3.9c0.6-1.4,1.2-2.7,2-4c1.4-2.5,3.3-4.8,5.6-6.5c1.1-0.8,2.4-1.5,3.6-2c0.7-0.3,1.4-0.5,2.1-0.7
				c0.8-0.2,1.7-0.3,2.5-0.3c0,0,0.1-0.1,0-0.1c-0.7,0-1.4,0-2.1,0.1c-0.7,0.1-1.4,0.3-2.1,0.5c-4.3,1.3-8,4.1-10.4,8
				c-0.9,1.3-1.6,2.7-2.3,4c-0.7,1.4-1,3-1.6,4.5c0-0.1,0-0.2,0-0.3c0.5-2.8,1.1-5.5,2-8.2c0.7-2.7,1.7-5.3,3-7.8
				c0.6-1.1,1.4-2.2,2.2-3.2c0.9-1.1,1.9-2,3-2.8c0,0,0-0.1,0-0.1c-1.1,0.6-2.1,1.4-3,2.3c-1,0.9-1.8,1.9-2.6,3
				c-1.6,2.5-2.7,5.1-3.5,7.9c-0.7,2-1.2,4-1.7,6.1c0.4-2.5,0.9-4.9,1.6-7.4c0.7-3,1.6-6,2.7-8.8c0.6-1.4,1.3-2.8,2.2-4.1
				c0.8-1.2,1.7-2.3,2.5-3.5c0,0,0-0.1-0.1,0c-0.9,1.1-1.8,2.1-2.6,3.2c-0.9,1.3-1.7,2.6-2.4,4c-1.3,2.9-2.3,5.9-3.1,9
				c-0.6,2.1-1,4.2-1.4,6.3c0-0.5,0-1.1,0-1.6c-0.1-3.7,0.2-7.4,0.6-11c0.4-3.6,1.2-7.1,2.4-10.5c1.1-3.1,2.8-6.1,4.8-8.8
				c1.7-2.3,3.9-4.1,6.4-5.5c0.1,0,0.1-0.2,0-0.1c-6,2.7-10,8.5-12.4,14.4c-1.2,3.4-2.1,6.9-2.5,10.4l0,0c-0.1-1.8-0.2-3.5-0.2-5.2
				c0-1.6-0.1-3.2-0.1-4.8c0-0.8,0.1-1.6,0.1-2.5s0.2-1.6,0.2-2.4c0,0-0.1,0-0.1,0c-0.1,0.7-0.3,1.5-0.4,2.2s-0.3,1.7-0.3,2.5
				c-0.2,1.7-0.2,3.4-0.3,5c-0.2,3.4,0,6.8,0.1,10.1c0,1.5,0.2,3.1,0.3,4.6c-0.2-1.1-0.4-2.1-0.6-3.2c-0.4-1.7-0.7-3.4-1.2-5.1
				s-0.9-3.4-1.4-5.2s-0.9-3.2-1.6-4.8c-0.5-1.5-1.2-3-2.1-4.4c0,0-0.1,0,0,0c0.4,0.7,0.7,1.4,0.9,2.2c0.2,0.8,0.5,1.5,0.8,2.3
				c0.6,1.7,1,3.4,1.5,5.1s0.9,3.3,1.3,5s0.7,3.4,1,5.1c0.6,2.9,1,5.8,1.3,8.6c-0.2-0.7-0.4-1.4-0.6-2c-0.5-1.6-1.1-3.2-1.8-4.7
				c-1.7-3-4-5.6-6.8-7.6c-1.3-1-2.7-1.8-4.2-2.5c-1.6-0.6-3.2-1.1-4.8-1.3c-1.4-0.3-2.7-0.4-4.1-0.2c-0.7,0.1-1.3,0.2-2,0.4
				c-0.2,0.1-0.5,0.2-0.7,0.3c-0.2,0.1-0.3,0.1-0.5,0.2s-0.2,0.1-0.5,0.2c0,0,0,0.1,0,0c0.7-0.2,1.3-0.5,2-0.6
				c0.9-0.1,1.8-0.2,2.7-0.1c1.7,0.2,3.5,0.6,5.1,1.2c3.2,1,6.2,2.8,8.6,5.2c1.3,1.2,2.5,2.5,3.4,4c0.9,1.4,1.7,2.9,2.2,4.5
				c1.1,2.7,1.9,5.6,2.4,8.5v0.2c-0.2-1.1-0.4-2.2-0.7-3.3c-0.6-2.7-1.8-5.2-3.5-7.4c-1.5-2.1-3.5-3.7-5.9-4.8
				c-2.7-1.1-5.5-0.9-8.3-0.5l0,0c2.7-0.1,5.4-0.1,7.9,1.3c2.1,1.2,4,2.9,5.4,4.8c0.9,1.1,1.6,2.4,2.2,3.7c-0.3-0.4-0.6-0.7-0.8-1
				c-1.1-1.1-2.4-2-3.9-2.7c-3-1.4-6.5-1.5-9.7-0.3c-3,1.1-5.2,3.5-6.9,6.1c-0.7,1.1-1.3,2.4-1.8,3.6c0,0.1,0.1,0.1,0.2,0
				c0.7-1.6,1.5-3.1,2.6-4.5c1-1.5,2.3-2.7,3.8-3.5c3-1.7,6.6-2,9.9-1c1.6,0.5,3.1,1.4,4.3,2.5c1.1,1.1,2,2.4,2.7,3.8
				c-2.4-2.2-5.4-3.4-8.6-3.3c-1.6-0.1-3.3,0.1-4.9,0.5c-1.6,0.5-3,1.2-4.3,2.2c-2.5,1.9-4.4,4.4-5.6,7.3c-0.4,0.9-0.6,1.8-0.7,2.8
				c0,0.1,0.1,0,0.1,0c0.7-3.3,2.6-6.2,5.2-8.3c2.4-2,5.5-3.1,8.7-3.1c1.6,0,3.2,0.2,4.7,0.6c1.5,0.5,2.8,1.2,4,2.1
				c1.1,1,2.1,2.1,2.9,3.4c0.1,0.2,0.3,0.4,0.4,0.6c0,0,0,0,0,0.1c0.2,0.7,0.4,1.4,0.5,2.2c0,0.3,0,0.5,0,0.8h1.5
				c0.1-0.1,0.1-0.1,0.1-0.2c0.1-0.3,0.2-0.6,0.2-0.9c0.4-0.9,0.9-1.7,1.5-2.5c0.9-1.1,2-2.1,3.2-3c2.7-1.8,5.7-3.1,8.9-3.7
				c0.7-0.2,1.5-0.3,2.2-0.4c0.8-0.1,1.5-0.1,2.3,0c1.5,0,3,0.3,4.4,0.8c1.4,0.5,2.8,1.2,4,2.1c1.4,0.9,2.4,2.2,2.9,3.8
				c0,0,0.1,0,0.1,0C107.5,330.1,106.8,328.7,105.6,327.7z"/>
			<path class="st49" d="M98.1,325c-0.5-0.1-0.9-0.1-1.4-0.1c-0.5,0-1.1,0-1.6,0.1c-1.3,0.1-2.5,0.3-3.8,0.6c-1.1,0.3-2.1,0.6-3.1,1
				c-1.1,0.5-2.1,1-3.1,1.6c-1.9,1.1-3.6,2.6-5.1,4.2c-0.6,0.6-1.1,1.3-1.5,2.1c0.1-1,0.3-2.1,0.5-3.1c0.5-2.3,1.3-4.6,2.3-6.8
				c1-2.1,2.4-4,4.1-5.6c0.8-0.8,1.8-1.5,2.7-2.1c0.9-0.6,1.9-1.1,2.8-1.7c0,0,0-0.1,0-0.1c-1,0.6-2,1-3,1.5c-1,0.6-1.9,1.2-2.8,2
				c-1.8,1.6-3.3,3.5-4.5,5.6c-1.1,2.1-2,4.3-2.6,6.6c0-0.4,0-0.8,0-1.1c0.5-2.7,0.4-5.4,0.8-8.1c0.2-1.4,0.6-2.7,0.9-4.1
				s0.5-2.7,0.8-4c0.3-1.4,0.7-2.7,1.2-4c0.2-0.7,0.5-1.3,0.8-2c0.3-0.5,0.6-1.1,0.8-1.6c0-0.1-0.1-0.1-0.1,0
				c-0.2,0.5-0.6,0.9-0.9,1.4s-0.7,1.2-1,1.8c-0.6,1.3-1.1,2.6-1.6,4c-0.4,1.4-0.8,2.7-1.1,4.1s-0.8,2.9-1,4.4
				c-0.4,2.7-0.3,5.4-0.7,8.1c0,0.1,0,0.1,0,0.2c-0.1-1.4-0.3-2.8-0.4-4.2c-0.2-1.7-0.3-3.4-0.5-5s-0.5-3.3-0.6-5
				c-0.1-1.6-0.4-3.2-0.8-4.8c-0.2-0.7-0.4-1.4-0.6-2.1s-0.7-1.6-0.9-2.5c0-0.1-0.1,0-0.1,0c0.2,1.5,0.7,3,1,4.6
				c0.3,1.6,0.5,3.1,0.6,4.7c0.1,2.4,0.4,4.8,0.7,7.2c-0.5-2.1-1.2-4.1-2-6.1c-0.6-1.5-1.3-3-2.1-4.5c-0.9-1.5-1.9-2.9-3.1-4.3
				c-2-2.8-4.7-5-7.8-6.4c-0.8-0.3-1.5-0.6-2.3-0.8c0,0-0.1,0.1-0.1,0.1c3.2,1.3,6.1,3.3,8.3,6c1.2,1.4,2.4,2.9,3.4,4.4
				c1,1.5,1.8,3,2.5,4.6c1.4,3.2,2.5,6.6,3.2,10.1c0.4,1.7,0.7,3.4,0.9,5.2c-0.2-1-0.5-2.1-0.8-3.1c-0.4-1.6-1-3.2-1.7-4.7
				c-0.8-1.5-1.7-3-2.7-4.4c-1.8-2.7-4.1-4.9-6.9-6.5c-1.5-0.9-3-1.6-4.7-2.1c-0.7-0.2-1.5-0.3-2.2-0.3c-0.8,0-1.6,0.3-2.5,0.4
				c0,0-0.1,0.1,0,0.1c0.7,0,1.4-0.1,2.1,0c0.8,0.1,1.6,0.3,2.4,0.6c1.5,0.6,2.9,1.4,4.3,2.3c1.3,0.8,2.6,1.7,3.7,2.8
				c1.1,1.2,2.1,2.4,3,3.7c0.9,1.3,1.8,2.6,2.5,4c0.7,1.5,1.3,3,1.8,4.6c0.4,1.4,0.8,2.9,1.1,4.3c-0.5-1.5-1.1-2.9-1.8-4.2
				c-1.4-3-3.5-5.7-5.9-8c-2.4-2.2-6.2-2.9-9.4-2.4c-0.9,0.2-1.7,0.3-2.6,0.6c-0.9,0.2-1.7,0.5-2.6,0.8c-1.5,0.6-2.9,1.5-4.1,2.6
				c-1.1,1-2.2,2.2-3.1,3.5c-0.9,1.4-1.6,2.9-2,4.5l0,0c0.4-0.9,0.7-1.8,1.2-2.6c0.4-0.8,0.9-1.5,1.5-2.1c1.1-1.2,2.3-2.3,3.7-3.2
				c1.4-0.9,3-1.7,4.6-2.1c1.7-0.5,3.5-0.8,5.3-0.8c1.7,0.1,3.5,0.5,5,1.3c1.4,0.9,2.7,1.9,3.8,3.1c1.3,1.2,2.4,2.5,3.3,4
				c0.6,1,1.1,2,1.6,3c-0.2-0.3-0.5-0.5-0.7-0.8c-0.8-0.9-1.8-1.6-2.9-2.1c-1.1-0.6-2.3-0.9-3.6-1c-2.5-0.2-5,0.6-7.1,2.1
				c-2,1.5-3.4,3.7-4.1,6.1l0,0c0.9-2.3,2.4-4.2,4.5-5.5c2-1.2,4.4-1.7,6.7-1.4c2.2,0.3,4.3,1.3,5.9,2.9c1.5,1.4,3.2,3.8,3.3,6v0.2
				h2.2c1.7-4.1,5.4-7,9.3-9.1c2.3-1.2,4.8-2.1,7.4-2.7c0.5-0.1,1.1-0.2,1.6-0.3C96.9,325,97.5,325,98.1,325
				C98,325,98.2,325,98.1,325z"/>
			<path class="st50" d="M95.3,331.7c-1.7-0.6-3.5-1-5.3-1.1c-1.8,0-3.7,0.3-5.4,0.9c-1.7,0.5-3.3,1.3-4.8,2.4
				c-0.7,0.5-1.3,1.1-1.9,1.8l0,0c0.4-1.4,1-2.7,1.7-4c1-1.6,2.2-3,3.7-4.1c1.5-1.1,3.1-2.1,4.8-2.8c2-1,4.2-1.5,6.5-1.6
				c0,0,0.1-0.1,0-0.1c-2.2-0.1-4.4,0.2-6.4,1c-1.9,0.7-3.7,1.6-5.4,2.8c-1.7,1.2-3.1,2.8-4.1,4.5c-0.5,0.9-1,1.8-1.2,2.9
				c0-0.7-0.1-1.4-0.1-2.1c-0.1-2.1-0.2-4.2-0.2-6.4s0.2-4.2,0.3-6.3c0-1,0.1-2.1,0.2-3.1c0-0.5,0.1-1,0.1-1.5s0.1-0.8,0.1-1.2h-0.1
				c0,0.4-0.2,0.8-0.3,1.2s-0.2,1-0.3,1.5c-0.2,1.1-0.4,2.1-0.5,3.2c-0.2,2.1-0.4,4.1-0.4,6.2c0,2.1,0.1,4.1,0.2,6.2
				c0.1,1.3,0.2,2.7,0.3,4c-0.2-0.5-0.3-0.9-0.5-1.4c-0.4-0.9-0.9-1.8-1.4-2.6c-1-1.7-2.2-3.2-3.6-4.5c-1.3-1.4-2.8-2.5-4.4-3.5
				c-0.8-0.5-1.7-0.8-2.6-1c-0.8-0.2-1.6-0.1-2.4,0.1c0,0-0.1,0.1,0,0.1c0.8,0.2,1.6,0.1,2.3,0.4c0.9,0.3,1.7,0.7,2.5,1.2
				c1.5,1,2.9,2.2,4.2,3.6c1,1,1.9,2.1,2.7,3.3c-1.3-1.3-2.9-2.4-4.6-3.1c-2-0.9-4.3-1.3-6.5-1c-1.1,0.2-2.2,0.5-3.3,0.9
				c-1,0.3-1.8,0.9-2.5,1.6c0,0,0,0,0,0c1.5-1.4,3.8-1.7,5.8-2c2.2-0.2,4.4,0.2,6.4,1.2c1.7,0.7,3.3,1.9,4.5,3.3
				c0.7,0.8,1.4,1.7,1.9,2.6c0.2,0.3,0.4,0.7,0.5,1c0.1,0.2,0.2,0.4,0.2,0.6s0.1,0.3,0.1,0.4h1.6c1.7-2.5,4.3-4.3,7.2-5.1
				c1.6-0.5,3.2-0.8,4.9-0.9c1.8,0,3.6,0.2,5.3,0.7C95.3,331.9,95.4,331.7,95.3,331.7z"/>
			<path class="st51" d="M45.1,337.2c0.4-5,0.8-9.9,1.5-14.8c0.1-2,0.3-3.9,0.5-5.8c0.5-4.5,1.3-8.9,2.4-13.3
				c0.6-2.2,1.3-4.4,2.1-6.5c0.1-0.3,0.3-0.7,0.5-1c-0.5,0.7-1.1,1.4-1.6,2c-4.5,7.1-7.9,14.7-8.6,23.3c0,0.4-0.6,0.4-0.6,0
				c0-7.4,0.6-14.9,1.6-22.2c0.5-3.4,1-6.9,1.7-10.2c0.3-1.3,0.6-2.5,1-3.7c-2,3.3-3,7.3-4.3,10.9c-2.7,7.9-4.2,16.2-4.4,24.5
				c-0.6-3.8-1.2-7.5-1.7-11.3c-0.7-5.8-1.2-11.5-1.7-17.3c-0.8-4.8-1.8-9.6-2.4-14.4c-0.1,0.1-0.2,0.2-0.3,0.4
				c-2.1,9.5-1.7,19-1,28.6c0,0.4,0.1,0.9,0.1,1.3c-1.9-6.9-4.6-13.6-8.2-19.8c-1-1.2-2-2.4-2.9-3.6s-2.7-3.9-4.6-5.1
				c0.5,1.2,1.2,2.3,1.8,3.5c1.2,2.2,2.1,4.7,3.1,7c1.7,4,3.1,8.1,4.5,12.2c-1.3-1.3-2.7-2.4-4.1-3.5c-1.4-1.2-3-2.2-4.7-2.9
				c0.6,0.7,1.1,1.5,1.5,2.2c1,1.8,1.9,3.6,2.6,5.5c0.2,0.4,0.4,0.9,0.6,1.3c1.6,4,2.9,8,3.9,12.1c0.9,3.6,1.5,7.4,1.9,11.1
				c-1.4-4.8-3.5-9.3-6.4-13.3c-2.5-3.6-6-6.4-10.1-8.1c-2.2-0.9-6-2.5-8.9-2.5c2,1.1,3.8,2.5,5.5,3.9c2.9,2.3,5.3,5.1,7.3,8.3
				c3.8,6.2,6.7,13.8,6.9,21.1L45.1,337.2z"/>
			<g>
				<path class="st52" d="M18.5,328.1c-0.7-3.9-2.1-7.7-4.1-11.1c-1.8-3.3-4.3-6.2-7.2-8.5c-1.4-1.1-2.9-2-4.5-2.7
					c0.9,0.7,1.8,1.4,2.7,2.1c2.9,2.3,5.3,5.1,7.3,8.3c2.8,4.5,4.8,9.5,6.1,14.6C18.8,329.9,18.7,329,18.5,328.1z"/>
				<path class="st52" d="M16.4,297.7c1,1.8,1.9,3.6,2.6,5.5c0.2,0.4,0.4,0.9,0.6,1.3c1.6,4,2.9,8,3.9,12.1
					c0.8,3.4,1.4,6.8,1.8,10.2c0-0.3,0-0.7,0.1-1c0.1-1.9,0-3.8-0.2-5.7c-0.4-3.7-1.1-7.3-2.1-10.9c-1.4-4.6-3.3-10-7-13.4
					c-0.3-0.2-0.7-0.3-1-0.5C15.5,296.2,16,296.9,16.4,297.7z"/>
				<path class="st52" d="M14.8,280.3c0.4,0.8,0.9,1.6,1.3,2.4c1.2,2.2,2.1,4.7,3.1,7c1.6,3.8,2.9,7.6,4.2,11.5
					c0.3,0.4,0.6,0.8,0.9,1.2C22.9,294.4,19.7,286.8,14.8,280.3z"/>
				<path class="st52" d="M36.8,320.1c0.1,2.8,0.6,5.5,1.4,8.1c-0.4-7.3,0-14.7,1.2-21.9c0.5-3.8,1.3-7.6,2.4-11.4
					c0.6-2,1.3-4.1,1.9-6.1c-0.9,2.4-1.6,4.8-2.4,7.1c-2.7,7.9-4.2,16.2-4.4,24.5L36.8,320.1z"/>
				<path class="st52" d="M43.2,328.8c-0.1-6.2,0.7-12.4,2.2-18.5c1.3-4.8,2.9-9.9,6.3-13.7c0.1-0.3,0.2-0.5,0.4-0.8
					c-0.5,0.7-1.1,1.4-1.6,2c-4.3,6.9-7.7,14.2-8.5,22.4C42,323.2,42.4,326.1,43.2,328.8z"/>
				<path class="st52" d="M29.8,307.2l0.2,1.6c-0.4-10.4,0.9-20.8,0.7-31.2v0.1c-2.1,9.5-1.7,19-1,28.6
					C29.8,306.6,29.8,306.9,29.8,307.2z"/>
			</g>
			<path class="st53" d="M28.1,310.7c-1.1-3.2-2.7-6.2-4.6-9c-1.2-1.2-2.5-2.2-3.9-3.3c-1.3-1.1-2.7-2-4.1-2.7l0,0
				c2.6,1.5,4.7,4.3,6.4,6.6c2.6,3.7,4.7,7.8,6.3,12c1.4,3.9,2.4,7.9,3.1,12C30.6,321,29.5,315.8,28.1,310.7z"/>
			<path class="st53" d="M29.1,305.2c-1.8-6-4.3-11.8-7.5-17.3c-1-1.2-2-2.4-2.9-3.6s-2.6-3.8-4.4-5c4.7,5.9,7.8,13,10.4,20
				c1.9,5.1,3.9,10.2,5.5,15.5C30.1,311.6,29.7,308.3,29.1,305.2z"/>
			<path class="st53" d="M34,307.8c0.7,5.1,1.4,10.3,2.6,15.4c0.2,0.6,0.3,1.2,0.4,1.9c-0.3-2.7-0.5-5.4-0.7-8.1
				c-0.4-2.6-0.8-5.3-1.2-7.9c-0.7-5.8-1.2-11.5-1.7-17.3c-0.6-3.6-1.3-7.2-1.9-10.8C31.9,290,32.7,298.9,34,307.8z"/>
			<path class="st53" d="M40.1,311.2c-0.2,2.5-0.2,4.9-0.3,7.4c0.3,4,0.8,8.1,1.4,12.1c-0.1-3.1,0-6.2,0.2-9.3
				c-0.1-0.1-0.1-0.2-0.1-0.2c0-7.4,0.6-14.9,1.6-22.2c0.5-3.4,1-6.9,1.7-10.2c0.3-1.2,0.6-2.4,1-3.5
				C41.8,293.2,40.7,302.4,40.1,311.2z"/>
			<path class="st53" d="M46.1,316.3c-0.6,5.7-0.8,11.5-0.8,17.3c0.3-3.7,0.7-7.5,1.2-11.2c0.1-2,0.3-3.9,0.5-5.8
				c0.5-4.5,1.3-8.9,2.4-13.3c0.6-2.2,1.3-4.4,2.1-6.5c0.1-0.2,0.2-0.3,0.2-0.5c-0.6,0.7-1.1,1.5-1.6,2.3
				C47.4,304,46.7,310.6,46.1,316.3z"/>
			<path class="st53" d="M6.8,305.8c1.6,1,3.2,2.2,4.7,3.4c3,2.6,5.7,5.7,7.9,9.1c3.6,5.8,6.1,12.2,7.5,18.8l0,0
				c-0.3-2.5-0.8-5.1-1.3-7.5c-0.2-1.2-0.5-2.4-0.9-3.6c-1.3-4.1-3.3-8-5.7-11.6c-2.5-3.6-6-6.4-10.1-8.1c-0.9-0.4-2.1-0.9-3.4-1.3
				C6,305.3,6.4,305.6,6.8,305.8z"/>
			<path class="st51" d="M237.4,338.6c0.4-3,0.7-5.9,1.2-8.8c0.1-1.2,0.3-2.3,0.4-3.5c0.4-2.7,1-5.3,1.8-7.9
				c0.4-1.3,0.9-2.6,1.4-3.8c0.1-0.2,0.2-0.4,0.3-0.6c-0.3,0.4-0.7,0.8-1,1.2c-2.9,4.1-5.1,8.6-5.7,13.7c0,0.1-0.1,0.2-0.2,0.1
				c-0.1,0-0.1-0.1-0.1-0.1c0.2-4.5,0.8-8.9,1.6-13.3c0.4-2,0.8-4.1,1.3-6.1c0.2-0.8,0.4-1.5,0.7-2.2c-1.2,2-2.1,4.2-2.8,6.4
				c-1.1,2.8-2,5.8-2.5,8.8c-0.4,1.9-0.6,3.8-0.8,5.8c-0.3-2.3-0.5-4.5-0.7-6.8c-0.3-3.5-0.4-6.9-0.6-10.4c-0.4-2.9-0.8-5.8-1.1-8.7
				c-0.1,0.1-0.1,0.1-0.2,0.2c-1.5,5.6-1.5,11.3-1.3,17.1c0,0.3,0,0.5,0,0.8c-0.9-4.2-2.4-8.2-4.4-12c-0.6-0.7-1.1-1.5-1.6-2.2
				c-0.7-1.2-1.6-2.3-2.6-3.2c0.3,0.7,0.7,1.5,1,2.1c0.6,1.4,1.2,2.8,1.7,4.3c0.9,2.4,1.6,4.9,2.4,7.4c-0.8-0.8-1.6-1.5-2.4-2.2
				c-0.8-0.8-1.7-1.4-2.7-1.9c0.3,0.4,0.6,0.9,0.9,1.4c0.5,1.1,1,2.2,1.4,3.4l0.3,0.8c0.8,2.4,1.5,4.9,2,7.4
				c0.5,2.2,0.7,4.4,0.8,6.7c-0.7-2.9-1.9-5.6-3.4-8.1c-1.4-2.2-3.4-4-5.8-5.1c-1.6-0.9-3.4-1.4-5.2-1.7c1.1,0.7,2.2,1.6,3.2,2.5
				c1.7,1.5,3.1,3.2,4.1,5.1c2.3,3.9,3.5,8.3,3.6,12.9L237.4,338.6z"/>
			<g>
				<path class="st52" d="M221.8,332.5c-0.3-2.4-1.1-4.7-2.2-6.8c-1-2-2.3-3.8-4-5.3c-0.8-0.7-1.7-1.3-2.6-1.8
					c0.5,0.4,1.1,0.9,1.6,1.3c1.7,1.5,3.1,3.2,4.1,5.1c1.5,2.8,2.6,5.8,3.2,8.9C221.9,333.5,221.9,333,221.8,332.5z"/>
				<path class="st52" d="M221.3,314.2c0.5,1.1,1,2.2,1.4,3.4l0.3,0.8c0.8,2.4,1.5,4.9,2,7.4c0.4,2,0.7,4.1,0.8,6.2l0.1-0.6
					c0.1-1.1,0.1-2.3,0-3.4c-0.1-2.2-0.5-4.4-1-6.5c-0.7-2.8-1.7-6.1-3.8-8.2c-0.2-0.1-0.4-0.2-0.6-0.3
					C220.8,313.3,221,313.7,221.3,314.2z"/>
				<path class="st52" d="M220.7,303.7c0.2,0.5,0.5,1,0.7,1.5c0.6,1.4,1.2,2.8,1.7,4.3c0.8,2.3,1.6,4.6,2.2,7
					c0.2,0.2,0.4,0.5,0.5,0.7C225.3,312.4,223.5,307.8,220.7,303.7z"/>
				<path class="st52" d="M232.9,328.1c0,1.7,0.2,3.3,0.6,4.9c0-4.4,0.4-8.8,1.2-13.1c0.4-2.3,1-4.5,1.7-6.7
					c0.4-1.2,0.9-2.4,1.3-3.6c-0.6,1.4-1.1,2.8-1.6,4.2c-1.1,2.8-2,5.8-2.5,8.8c-0.4,1.9-0.6,3.8-0.8,5.8
					C232.9,328.3,232.9,328.2,232.9,328.1z"/>
				<path class="st52" d="M236.4,333.6c0.1-3.7,0.7-7.4,1.8-11c0.9-2.8,2-5.9,4.1-8.1c0.1-0.2,0.1-0.3,0.2-0.5
					c-0.3,0.4-0.7,0.8-1,1.2c-2.9,3.9-4.8,8.4-5.7,13.2C235.9,330.1,236.1,331.9,236.4,333.6z"/>
				<path class="st52" d="M229,320.3c0,0.3,0.1,0.6,0.1,1c0-6.2,1.1-12.4,1.2-18.6v0c-1.5,5.6-1.5,11.3-1.3,17.1V320.3z"/>
			</g>
			<path class="st53" d="M227.9,322.3c-0.6-1.9-1.4-3.8-2.5-5.5c-0.7-0.7-1.5-1.4-2.2-2.1c-0.7-0.7-1.5-1.3-2.4-1.7l0,0
				c1.5,1.1,2.7,2.5,3.6,4.1c1.4,2.3,2.6,4.8,3.4,7.3c0.7,2.4,1.3,4.8,1.6,7.2C229.1,328.5,228.6,325.4,227.9,322.3z"/>
			<path class="st53" d="M228.7,319c-0.9-3.7-2.3-7.2-4-10.5c-0.6-0.7-1.1-1.5-1.6-2.2c-0.7-1.2-1.5-2.2-2.5-3.1
				c2.5,3.8,4.4,7.9,5.7,12.2c1,3.1,2.1,6.2,2.9,9.4C229.1,322.9,228.9,320.9,228.7,319z"/>
			<path class="st53" d="M231.5,320.7c0.3,3.1,0.6,6.2,1.2,9.3c0.1,0.4,0.1,0.8,0.2,1.1c-0.1-1.6-0.2-3.2-0.2-4.9s-0.4-3.2-0.5-4.8
				c-0.3-3.5-0.4-6.9-0.6-10.4c-0.3-2.2-0.6-4.3-0.9-6.5C230.7,310,231,315.4,231.5,320.7z"/>
			<path class="st53" d="M235,322.9c-0.2,1.5-0.3,3-0.4,4.4c0.1,2.4,0.3,4.9,0.5,7.3c0-1.9,0.1-3.7,0.3-5.6c0,0-0.1-0.1-0.1-0.1
				c0.2-4.5,0.8-8.9,1.6-13.3c0.4-2,0.8-4.1,1.3-6.1c0.2-0.7,0.4-1.4,0.7-2.1C236.5,312.2,235.6,317.7,235,322.9z"/>
			<path class="st53" d="M238.5,326.1c-0.5,3.4-0.7,6.9-0.9,10.3c0.3-2.2,0.6-4.5,1-6.7c0.1-1.2,0.3-2.3,0.4-3.5
				c0.4-2.7,1-5.3,1.8-7.9c0.4-1.3,0.9-2.6,1.4-3.8c0.1-0.1,0.1-0.2,0.2-0.3c-0.4,0.4-0.7,0.9-1,1.3
				C239.6,318.8,239,322.7,238.5,326.1z"/>
			<path class="st53" d="M215.4,318.9c1,0.6,1.9,1.4,2.7,2.2c1.7,1.7,3.2,3.5,4.4,5.6c2,3.6,3.4,7.4,4,11.5l0,0
				c-0.1-1.5-0.3-3-0.6-4.5c-0.1-0.7-0.3-1.5-0.4-2.2c-0.7-2.5-1.8-4.9-3.1-7.1c-1.4-2.2-3.4-4-5.8-5.1c-0.5-0.2-1.2-0.6-2-0.9
				C214.9,318.5,215.1,318.7,215.4,318.9z"/>
			<path class="st51" d="M137.6,332.8c2.4-2,5.3-3.2,8.4-3.4c0.2,0,0.4-0.1,0.5-0.1c-3.1-1.6-6.6-2-10-1.2c-1.4,0.5-2.8,1.2-4.1,2.1
				c1-2,2.1-3.9,3.4-5.6c1.1-1.6,2.7-2.9,3.6-4.6c0,0,0-0.1,0.1-0.1c0,0-2.9,0.4-3.2,0.4c-4,1.1-9,4.8-10.7,8.7
				c0.3-0.7-0.8-3.1-1.2-3.8c-0.9-1.3-2.1-2.2-3.6-2.7c0,0.3,0,0.4,0.3,1c1,1.9,1.6,4.1,1.7,6.2c-1.5-1.8-3.3-3.2-5.4-4.2
				c-1.7-0.5-3.5-0.7-5.3-0.5c-1.6,0.1-3.1,0.5-4.6,1c2,0,4,0.3,6,0.8c2,0.8,3.9,1.9,5.4,3.5c-5.7-1.6-12.8,1.3-16.5,5.4
				c0,0-0.1,0.1-0.1,0.2c3.8-2.2,7.8-3.2,12.2-1.6c2.6,1,4.4,2.8,6.7,4c4,2.2,8.4,1.1,12.2-0.3c2.2-0.8,4.4-2.8,6.7-3.2
				c1.2-0.2,2.4-0.4,3.6-0.5c0.7-0.1,2.8-0.6,3.4-0.3C144.4,332.2,140.8,332.8,137.6,332.8z"/>
			<path class="st53" d="M121.9,332.7c-1.2-1.4-2.8-2.5-4.5-3c-4.7-0.6-9.9,1.4-13.4,4.4c3.3-2,7.3-2.7,11.1-1.9
				c2.9,0.7,5.5,2,7.8,3.9c0.8,0.7,1.6,1.4,2.3,2.1C124.3,336.3,123.3,334.4,121.9,332.7z"/>
			<path class="st53" d="M125.9,328.5c0,0.1-0.1,0.2-0.2,0.3c0.3-0.7-0.8-3.1-1.2-3.8c-0.9-1.3-2.1-2.2-3.6-2.7
				c2.4,2.5,4,5.7,4.5,9.1C125.6,330.4,125.7,329.5,125.9,328.5z"/>
			<path class="st53" d="M131.8,327.1c-1.3,2.6-2.1,5.3-2.4,8.2c0.8-1.9,1.9-3.7,3.2-5.4c0.9-1.9,2-3.7,3.3-5.4
				c1.1-1.5,2.7-2.9,3.6-4.5C136.3,320.7,133.2,324.4,131.8,327.1z"/>
			<path class="st53" d="M135.3,335.9c-1.1,0.7-2.1,1.6-3.2,2.4c0.5-0.2,1-0.3,1.4-0.5c2.2-0.8,4.4-2.8,6.7-3.2
				c1.2-0.2,2.4-0.4,3.6-0.5c0.7-0.1,2.8-0.6,3.4-0.3c-0.1,0-0.1-0.1-0.2-0.1C142.8,333.2,138.9,333.5,135.3,335.9z"/>
			<path class="st53" d="M137.4,330.2c-2.2,1.2-4.7,2.9-5.7,5.3c1.6-0.8,3.3-1.4,5-2.2c0.4-0.2,0.7-0.4,1-0.5l0,0
				c2.4-2,5.3-3.2,8.4-3.4c0.2,0,0.4-0.1,0.5-0.1l-0.2-0.1C143.4,328.4,140.2,328.8,137.4,330.2z"/>
			<path class="st53" d="M123,329.3c0,0.1,0,0.1,0,0.2c-1.5-1.8-3.3-3.2-5.4-4.2c-1.7-0.5-3.5-0.7-5.3-0.5c-0.7,0.1-1.5,0.2-2.3,0.4
				c4.4-0.2,8.6,1.9,12,4.9c0.5,0.4,0.9,0.9,1.4,1.4C123.3,330.8,123.2,330,123,329.3z"/>
			<path class="st54" d="M269.3,337.6c-10.1-1.6-20.9-0.8-31.1-0.9c-11.2-0.1-22.3,0-33.5,0h-65.3H74c-21.3,0-43-1.1-64.2,1.3
				c-0.1,0-0.2,0.2-0.1,0.3c21.3,2.7,43.4,1.3,64.8,1.3h65.3h65.3c10.6,0,21.2,0.1,31.8,0s21.5,0.6,32-1
				C269.5,338.6,270,337.7,269.3,337.6z"/>
			<path class="st55" d="M58.7,317.4c-0.3-1.5-0.7-3-0.9-3.9h-0.2c-9.5,0.4-12.8,12.1-12.8,12.1s3.3,2.2,7.2,4.6
				c1.2-1.9,3.3-5.1,4.8-7.1C58.5,320.4,59,319.9,58.7,317.4z"/>
			<path class="st56" d="M60.8,320c4.2,1.9,8.1,4.3,11.6,7.1c1.6,1.4,3,2.9,4.2,4.6c-0.1-2.6-1.3-5.6-4-9.3
				c-4.8-5.5-10.3-8.7-14.8-8.9c0.2,0.9,0.6,2.4,0.9,3.9c0,0.3,0,0.5,0.1,0.7C59.2,319,59.9,319.6,60.8,320z"/>
			<path class="st57" d="M72.4,327.1c-3.6-2.9-7.5-5.2-11.6-7.1c-0.9-0.3-1.6-1-2-1.9c0.1,1.9-0.4,2.5-2,4.9c-1.5,2-3.5,5.2-4.8,7.1
				c3.2,2,6.6,3.8,10.1,5.3c6.2,2.4,12.4,2.1,13.8-0.5c0.4-1,0.7-2.1,0.6-3.3C75.4,330,74,328.4,72.4,327.1z"/>
			<path class="st58" d="M68.6,332.6c0-2.2-0.4-4.4-1.1-6.6c-1.1-0.8-2.3-1.5-3.5-2c-4.2-1.9-8.8,1.9-8.8,1.9l5.6,11.2
				C65.2,335.7,68.5,334.5,68.6,332.6z"/>
			<path class="st55" d="M74,332.9c-1.6-2.7-3.8-5.1-6.4-6.9c0.7,2.1,1,4.4,1.1,6.6c0,0.1,0,0.3-0.1,0.4c1.7,1,3.4,1.9,5.2,2.6
				C74.4,334.9,74.5,333.7,74,332.9z"/>
			<path class="st56" d="M68.5,333c-0.5,1.7-3.6,2.8-7.7,4.1l0.4,0.7c2.5,0.4,5.1,0.3,7.6,0c2.4-0.5,4-1.2,4.8-2.1
				C71.9,334.9,70.2,334,68.5,333z"/>
			<path class="st58" d="M52.9,330.2c-0.9-2.4-2-4.7-3.5-6.8c-0.5,0-0.9,0.1-1.4,0.2c-3,0.9-5.7,2.6-7.6,5.1
				c-2.9,3.7-0.5,5.6,2.1,7.8c1.2,1,2.8,1.6,4.3,1.8c1.4-0.6,2.7-1.4,4-2.3C53.2,334.4,54,333.3,52.9,330.2z"/>
			<path class="st55" d="M65.2,333.8c-1.9-2.5-4.2-4.7-6.8-6.5c-2.6-1.9-6-4-9-3.9c1.4,2.1,2.6,4.4,3.5,6.8c0.7,1.9,0.6,3,0,4
				c1.1-0.5,2.2-0.8,3.4-0.8C59.3,333.2,62.3,333.4,65.2,333.8z"/>
			<path class="st56" d="M65.2,333.8c-3-0.5-6-0.6-9-0.4c-1.2,0-2.3,0.3-3.4,0.8c-0.6,0.7-1.2,1.4-2,1.9c-1.3,0.9-2.6,1.6-4,2.3
				c3.2,0.3,6.5,0.4,9.7,0.2c7.9-0.3,9.8-2,9.3-3.5C65.7,334.6,65.5,334.2,65.2,333.8z"/>
			<path class="st55" d="M242,325.6c-0.2-0.9-0.4-1.8-0.6-2.4h-0.1c-5.9,0.2-7.9,7.4-7.9,7.4s2,1.4,4.4,2.8c0.8-1.2,2-3.1,2.9-4.4
				C241.8,327.4,242.1,327.1,242,325.6z"/>
			<path class="st56" d="M243.2,327.1c2.6,1.1,5,2.6,7.1,4.4c1,0.8,1.8,1.8,2.6,2.8c0-1.6-0.8-3.5-2.5-5.7c-2.9-3.4-6.3-5.3-9.1-5.5
				c0.1,0.5,0.4,1.5,0.6,2.4c0,0.1,0,0.3,0,0.4C242.2,326.5,242.7,326.9,243.2,327.1z"/>
			<path class="st57" d="M250.4,331.5c-2.2-1.8-4.6-3.2-7.1-4.4c-0.5-0.2-1-0.6-1.2-1.1c0.1,1.2-0.3,1.5-1.2,3
				c-0.9,1.2-2.2,3.2-2.9,4.4c2,1.3,4.1,2.3,6.2,3.3c3.8,1.5,7.6,1.3,8.5-0.3c0.3-0.6,0.4-1.3,0.4-2
				C252.2,333.3,251.3,332.3,250.4,331.5z"/>
			<path class="st58" d="M248,334.9c0-1.4-0.2-2.7-0.6-4c-0.7-0.5-1.4-0.9-2.1-1.2c-2.6-1.2-5.4,1.2-5.4,1.2l3.4,6.9
				C246,336.8,248,336.1,248,334.9z"/>
			<path class="st55" d="M251.3,335.1c-1-1.7-2.4-3.1-4-4.2c0.4,1.3,0.6,2.7,0.6,4c0,0.1,0,0.2,0,0.2c1,0.6,2.1,1.2,3.2,1.6
				C251.6,336.3,251.7,335.6,251.3,335.1z"/>
			<path class="st56" d="M248,335.1c-0.3,1-2.2,1.7-4.7,2.5l0.2,0.5c1.6,0.2,3.1,0.2,4.7,0c1.1-0.1,2.2-0.6,3-1.3
				C250.1,336.3,249,335.8,248,335.1z"/>
			<path class="st58" d="M238.4,333.4c-0.5-1.5-1.3-2.9-2.1-4.2c-0.3,0-0.6,0-0.9,0.1c-1.8,0.5-3.5,1.6-4.7,3.1
				c-1.8,2.3-0.3,3.4,1.3,4.8c0.8,0.6,1.7,1,2.7,1.1c0.9-0.4,1.7-0.8,2.4-1.4C238.6,336,239.1,335.4,238.4,333.4z"/>
			<path class="st55" d="M246,335.7c-1.2-1.5-2.6-2.9-4.2-4c-1.6-1.1-3.7-2.4-5.5-2.4c0.9,1.3,1.6,2.7,2.1,4.2
				c0.4,1.2,0.4,1.9,0,2.5c0.6-0.3,1.3-0.5,2.1-0.5C242.3,335.3,244.2,335.4,246,335.7z"/>
			<path class="st56" d="M246,335.7c-1.8-0.3-3.7-0.4-5.5-0.3c-0.7,0-1.4,0.2-2.1,0.5c-0.3,0.4-0.8,0.8-1.2,1.1
				c-0.8,0.5-1.6,1-2.4,1.4c2,0.2,4,0.2,5.9,0.1c4.8-0.2,6-1.2,5.7-2.2C246.3,336.1,246.2,335.9,246,335.7z"/>
			<path class="st58" d="M158,330c-0.7-2.4-1.7-4.8-3-7c-0.5,0-0.9,0-1.4,0.1c-3.1,0.7-5.9,2.2-8,4.5c-3.2,3.5-0.9,5.5,1.5,8
				c1.2,1.1,2.6,1.8,4.2,2.1c1.4-0.5,2.8-1.2,4.1-2C158,334.1,158.8,333.2,158,330z"/>
			<path class="st55" d="M170,334.5c-1.7-2.7-3.8-5-6.3-7c-2.4-2-5.7-4.4-8.7-4.6c1.3,2.2,2.3,4.6,3,7c0.5,2,0.4,3.1-0.3,4
				c1.1-0.4,2.2-0.6,3.4-0.6C164.1,333.4,167.1,333.8,170,334.5z"/>
			<path class="st56" d="M170,334.5c-2.9-0.7-5.9-1.1-8.9-1.1c-1.2-0.1-2.3,0.1-3.4,0.6c-0.6,0.7-1.3,1.3-2.1,1.7
				c-1.3,0.8-2.7,1.5-4.1,2c3.2,0.5,6.4,0.9,9.6,0.9c7.9,0.2,10-1.3,9.6-2.9C170.4,335.3,170.2,334.9,170,334.5z"/>
			<path class="st58" d="M173.6,333.3c-0.5-1.5-1.3-2.9-2.2-4.3c-0.3,0-0.6,0-0.9,0.1c-1.9,0.5-3.5,1.7-4.8,3.2
				c-1.8,2.3-0.3,3.5,1.3,4.9c0.8,0.6,1.7,1,2.7,1.1c0.9-0.4,1.7-0.9,2.5-1.4C173.8,335.9,174.2,335.3,173.6,333.3z"/>
			<path class="st55" d="M181.3,335.6c-1.2-1.6-2.6-2.9-4.2-4.1c-1.6-1.2-3.8-2.5-5.6-2.5c0.9,1.3,1.6,2.8,2.2,4.3
				c0.4,1.2,0.4,1.9,0,2.5c0.7-0.3,1.4-0.5,2.1-0.5C177.6,335.2,179.4,335.3,181.3,335.6z"/>
			<path class="st56" d="M181.3,335.6c-1.9-0.3-3.7-0.4-5.6-0.3c-0.7,0-1.4,0.2-2.1,0.5c-0.4,0.5-0.8,0.8-1.3,1.2
				c-0.8,0.6-1.6,1-2.5,1.4c2,0.2,4,0.2,6.1,0.1c4.9-0.2,6.2-1.2,5.8-2.2C181.6,336.1,181.5,335.8,181.3,335.6z"/>
			<path class="st51" d="M261.2,334c1.3-1.1,2.9-1.7,4.6-1.9c0.1,0,0.2-0.1,0.2-0.1c-1.7-0.9-3.6-1.1-5.5-0.6
				c-0.8,0.3-1.5,0.6-2.2,1.1c0.5-1.1,1.1-2.1,1.8-3.1c0.7-0.8,1.4-1.6,2-2.5v-0.1c0,0-1.6,0.2-1.7,0.2c-2.5,0.8-4.5,2.5-5.8,4.7
				c0.2-0.4-0.4-1.7-0.6-2c-0.5-0.7-1.2-1.2-1.9-1.5c0,0.2,0,0.2,0.2,0.5c0.5,1,0.9,2.2,0.9,3.4c-0.8-1-1.8-1.7-2.9-2.3
				c-0.9-0.3-1.9-0.4-2.9-0.3c-0.9,0.1-1.7,0.3-2.5,0.6c1.1,0,2.2,0.1,3.2,0.4c1.1,0.4,2.1,1.1,3,1.9c-3.1-0.9-6.9,0.7-9,2.9
				c0,0,0,0.1-0.1,0.1c1.9-1.3,4.4-1.7,6.6-0.9c1.3,0.6,2.5,1.4,3.6,2.2c2.2,1.2,4.6,0.6,6.6-0.1c1.2-0.4,2.4-1.5,3.6-1.8
				c0.6-0.1,1.3-0.2,1.9-0.3c0.4,0,1.5-0.3,1.8-0.1C264.9,333.6,262.9,334,261.2,334z"/>
			<path class="st53" d="M252.6,333.9c-0.6-0.8-1.5-1.3-2.5-1.6c-2.6-0.2-5.3,0.6-7.3,2.4c1.8-1.1,3.9-1.5,6-1
				c1.6,0.4,3,1.1,4.2,2.1c0.4,0.4,0.8,0.7,1.2,1.2C253.9,335.8,253.4,334.8,252.6,333.9z"/>
			<path class="st53" d="M254.8,331.6c0,0,0,0.1-0.1,0.2c0.2-0.4-0.4-1.7-0.6-2c-0.5-0.7-1.1-1.2-1.9-1.5c1.3,1.4,2.2,3.1,2.4,4.9
				C254.6,332.7,254.7,332.2,254.8,331.6z"/>
			<path class="st53" d="M258,330.8c-0.7,1.4-1.1,2.9-1.3,4.5c0.4-1,1-2,1.7-2.9c0.5-1,1.1-2,1.8-3c0.7-0.8,1.4-1.6,2-2.5
				C260.4,327.4,258.8,329.4,258,330.8z"/>
			<path class="st53" d="M259.9,335.6c-0.6,0.4-1.1,0.9-1.8,1.3c0.3-0.1,0.5-0.2,0.8-0.3c1.2-0.4,2.4-1.5,3.6-1.8
				c0.6-0.1,1.3-0.2,1.9-0.3c0.4,0,1.5-0.3,1.8-0.1l-0.1,0C264,334,261.8,334.5,259.9,335.6z"/>
			<path class="st53" d="M261,332.6c-1.3,0.6-2.4,1.6-3.1,2.9c0.9-0.5,1.8-0.8,2.7-1.2l0.6-0.3l0,0c1.3-1.1,2.9-1.7,4.6-1.9
				c0.1,0,0.2-0.1,0.2-0.1l-0.1,0C264.3,331.6,262.5,331.8,261,332.6z"/>
			<path class="st53" d="M253.2,332.1c0,0,0,0.1,0,0.1c-0.8-1-1.8-1.7-2.9-2.3c-0.9-0.3-1.9-0.4-2.9-0.3c-0.4,0-0.8,0.1-1.2,0.2
				c2.4,0,4.8,0.9,6.5,2.6c0.3,0.2,0.5,0.5,0.8,0.8C253.4,332.9,253.3,332.5,253.2,332.1z"/>
		</g>
	</g>
</g>
</svg>
