<?xml version="1.0" encoding="utf-8"?>
<!-- Generator: Adobe Illustrator 24.3.0, SVG Export Plug-In . SVG Version: 6.00 Build 0)  -->
<svg version="1.1" id="Layer_1" xmlns="http://www.w3.org/2000/svg" xmlns:xlink="http://www.w3.org/1999/xlink" x="0px" y="0px"
	 viewBox="0 0 882.1 881" style="enable-background:new 0 0 882.1 881;" xml:space="preserve">
<style type="text/css">
	.st0{fill:none;stroke:#FFFFFF;stroke-width:2.12;stroke-miterlimit:10;}
	.st1{fill:#68190C;}
	.st2{fill:#FFFFFF;}
	.st3{fill:#4F3516;}
	.st4{fill:#6C2D0D;}
	.st5{fill:#FAD053;}
	.st6{fill:#D6993F;}
	.st7{fill:#F0BB37;}
	.st8{clip-path:url(#SVGID_6_);}
	.st9{clip-path:url(#SVGID_7_);fill:url(#SVGID_8_);}
	.st10{fill:#394042;}
	.st11{fill:#1E2326;}
	.st12{fill:#B7B157;}
	.st13{fill:#8D4F1E;}
	.st14{clip-path:url(#SVGID_11_);}
	.st15{clip-path:url(#SVGID_14_);fill:url(#SVGID_18_);}
	.st16{fill:#C1C1C1;}
	.st17{fill:#ACABAB;}
	.st18{fill:#9D9B9A;}
	.st19{clip-path:url(#SVGID_22_);}
	.st20{clip-path:url(#SVGID_23_);fill:url(#SVGID_24_);}
	.st21{fill:#7C7528;}
	.st22{fill:#E7BFA7;}
	.st23{fill:#948E39;}
	.st24{fill:#F2D0BA;}
	.st25{fill:#A97443;}
	.st26{fill:#403115;}
	.st27{fill:#4A2A13;}
	.st28{fill:#AE7454;}
	.st29{fill:#EA675D;}
	.st30{fill:#F09296;}
	.st31{fill:#FAC949;}
	.st32{fill:#CE962D;}
	.st33{clip-path:url(#SVGID_27_);}
	.st34{clip-path:url(#SVGID_28_);fill:url(#SVGID_29_);}
	.st35{clip-path:url(#SVGID_32_);}
	.st36{clip-path:url(#SVGID_33_);fill:url(#SVGID_34_);}
	.st37{clip-path:url(#SVGID_37_);}
	.st38{clip-path:url(#SVGID_38_);fill:url(#SVGID_39_);}
	.st39{clip-path:url(#SVGID_42_);}
	.st40{clip-path:url(#SVGID_43_);fill:url(#SVGID_44_);}
	.st41{clip-path:url(#SVGID_47_);}
	.st42{clip-path:url(#SVGID_48_);fill:url(#SVGID_49_);}
	.st43{clip-path:url(#SVGID_52_);}
	.st44{clip-path:url(#SVGID_53_);fill:url(#SVGID_54_);}
	.st45{fill:#A7CE8B;}
	.st46{fill:#78B83A;}
	.st47{fill:#3EA03C;}
	.st48{fill:#007645;}
	.st49{fill:#00693E;}
	.st50{fill:#017333;}
	.st51{opacity:0.3;fill:#72B536;enable-background:new    ;}
	.st52{opacity:0.5;fill:#017333;enable-background:new    ;}
	.st53{fill:#8C5B20;}
	.st54{fill:#696968;}
	.st55{fill:#454545;}
	.st56{fill:#2B2B2B;}
	.st57{fill:#959594;}
</style>
<g>
	<g id="Layer_2_1_">
		<g id="Layer_1-2">
			<circle class="st0" cx="345" cy="541.9" r="289.1"/>
			<path class="st1" d="M347.8,838.4c-162-0.1-293.2-131.5-293.1-293.5c0.1-117.7,70.6-224,179-269.9C382.9,211.9,555,281.8,618,431
				s-6.8,321.3-156,384.4C425.9,830.7,387,838.5,347.8,838.4z"/>
			<path class="st2" d="M347.8,253.6c161.1,0,291.6,130.6,291.6,291.6S508.9,836.8,347.8,836.8S56.2,706.2,56.2,545.2
				S186.8,253.6,347.8,253.6 M347.8,250.3C184.9,250.4,52.9,382.5,53,545.4c0.1,118.4,70.9,225.3,180,271.5
				c150.1,63.2,323.1-7.3,386.3-157.4c63.1-149.9-7-322.6-156.7-386C426.3,258.1,387.3,250.2,347.8,250.3z"/>
			<path class="st2" d="M155.5,420.1c0.2-1.4,0.8-2.7,1.8-3.8c0.9-0.9,2-1.5,3.3-1.7c1.3-0.3,2.6-0.3,3.8,0c1.3,0.2,2.5,0.7,3.6,1.4
				c1,0.6,1.9,1.5,2.5,2.5s0.7,2.2,0.4,3.3c-2.4,10.3-4.6,20.8-6.8,31.4c-2.1,10.6-4,20.8-5.7,30.7c-1.7,9.9-3.2,19.1-4.4,27.8
				c-1.2,8.6-2.1,16.2-2.7,22.6c-0.5,5-0.8,10.1-0.8,15.1c0.1,3.7,0.5,5.5,1.4,5.4c0,0.1,0.5-1.1,1.5-3.6s2.4-5.9,4.1-10.2
				c1.7-4.3,3.7-9.4,6-15.2s4.7-12,7.3-18.7c2.6-6.7,5.2-13.5,7.9-20.7s5.3-14.2,7.9-21.1s4.9-13.6,7.2-20s4.3-12.1,5.9-17.2
				c1.7-5.1,3-9.4,4-12.9s1.4-5.9,1.4-7.2c-0.1-1,0.5-1.5,1.7-1.6c1.5-0.1,2.9,0.1,4.3,0.6c1.7,0.6,3.3,1.3,4.9,2.3
				c1.4,0.8,2.5,2,3.3,3.3c0.1,0.2-0.2,1.9-0.9,4.9c-0.7,3.1-1.7,7.2-3,12.3c-1.3,5.1-2.7,11.1-4.4,18c-1.7,6.8-3.3,14.1-5.1,21.9
				c-1.7,7.8-3.4,15.8-5,24.2c-1.6,8.3-3,16.6-4.2,24.7s-2.1,16-2.7,23.5c-0.6,6.9-0.8,13.8-0.6,20.7c0.1,5.5,0.9,10.9,2.3,16.2
				c1.3,4.5,3.2,7.9,5.9,10c0.9,0.8,1.1,1.5,0.5,2.1c-0.8,0.7-1.9,1.1-3,1.3c-1.6,0.2-3.1,0.2-4.7,0c-1.7-0.2-3.3-0.8-4.6-1.8
				c-2.8-2.1-4.9-4.9-6.1-8.1c-1.6-3.9-2.6-8-3.1-12.2c-0.6-5-0.8-10.1-0.6-15.2c0.2-5.5,0.6-11.2,1.2-17c0.6-5.8,1.5-11.7,2.5-17.6
				c1-5.9,2.1-11.6,3.2-17.1c1.1-5.5,2.3-10.6,3.4-15.3c1.1-4.8,2.1-8.9,2.9-12.5c0.8-3.6,1.5-6.4,1.9-8.4s0.5-3.1,0.3-3.2
				c-1.4,5.1-3.2,10.9-5.3,17.3s-4.5,12.9-6.9,19.7c-2.5,6.8-5,13.5-7.6,20.2s-5,13-7.2,18.8s-4.2,11-6,15.5s-3,7.9-3.8,10.2
				c-0.6,1.7-2,3.1-3.7,3.7c-1.9,0.8-4,1.3-6.1,1.5c-2,0.2-4,0-6-0.5c-1.8-0.5-3-1.3-3.4-2.3c-1.3-3.6-2.2-7.3-2.5-11.1
				c-0.4-4.8-0.5-9.6-0.3-14.4c0.2-5.2,0.7-10.8,1.4-16.6s1.6-11.8,2.6-17.8c1.1-6,2.2-12,3.6-17.9c1.3-5.9,2.7-11.6,4.1-16.9
				c1.4-5.4,2.8-10.4,4.2-14.9c1.4-4.6,2.7-8.5,3.9-11.8c-1.7,3-3.2,6.1-4.4,9.3c-1.8,4.3-3.7,9.4-5.9,15.2c-2.2,5.8-4.5,12.1-7,19
				c-2.5,6.8-5,13.7-7.6,20.6s-5.2,13.7-7.9,20.2c-2.6,6.6-5.2,12.4-7.8,17.7c-2.2,4.5-4.6,8.9-7.4,13.1c-2.3,3.5-4.5,5.7-6.4,6.4
				c-1.9,0.9-3.9,1.4-6,1.5c-1.4,0-2.8-0.1-4.1-0.5c-1.2-0.4-2.2-1-3.1-1.9c1.5-1.3,3.3-3.6,5.4-7.1s4.4-7.7,7-12.7
				s5.3-10.6,8.2-16.9c2.9-6.3,5.9-12.8,8.9-19.6s6-13.7,9-20.7c3-7,5.9-13.8,8.6-20.4s5.3-12.9,7.6-18.7c2.3-5.9,4.4-11,6.1-15.5
				c1.7-4.4,3.1-8,4.1-10.8C154.5,423.3,155.1,421.7,155.5,420.1z"/>
			<path class="st2" d="M243.1,509.8c2-0.1,4,0.3,5.9,0.9c1.4,0.5,2.7,1.3,3.9,2.4c0.9,0.9,1.7,1.9,2.3,3.1c0.5,1.1,0.9,2.2,1.2,3.3
				c1.1-0.3,2.2-0.4,3.4-0.4c1.2-0.1,2.4,0.6,3,1.7c0.5,1.1,0.7,2.4,0.7,3.6c0,1.3-0.2,2.6-0.6,3.9c-0.2,0.9-0.5,1.8-0.8,2.6
				c-0.6,1.2-1.4,3-2.5,5.4s-2.4,5.1-4,8c-0.4,1.8-0.8,3.7-1,5.5c-0.3,1.7-0.2,3.4,0.2,5c0.4,1.5,1.2,2.8,2.5,3.7
				c1.3,1,3.2,1.5,5.9,1.5c2.1-0.1,4.2-0.9,5.8-2.3c2.1-1.7,4-3.5,5.7-5.6c1.9-2.3,3.6-4.8,5.1-7.4c1.6-2.7,3-5.3,4.2-7.7
				s2.2-4.4,3-6.1c0.7-1.6,1.2-2.6,1.3-2.9c0.4-0.8,1.2-1.4,2.1-1.5s1.9,0,2.7,0.4c0.9,0.4,1.6,1.1,2.1,1.9c0.5,0.9,0.6,2,0.1,2.9
				c-0.5,1.1-1.3,2.7-2.3,4.9s-2.3,4.6-3.8,7.2c-1.6,2.8-3.4,5.5-5.3,8.1c-1.9,2.7-4.2,5.1-6.6,7.4c-2.3,2.2-5,4-7.9,5.3
				c-2.8,1.4-5.9,2-9,1.7c-2.6-0.2-5-1.1-7.2-2.5c-2.6-1.6-4.8-3.6-6.6-6.1c-2.4,3-5.3,5.7-8.6,7.9c-3,2-6.4,3.2-10,3.3
				c-2,0.1-3.9-0.1-5.9-0.6c-2.1-0.5-4-1.4-5.7-2.6c-1.9-1.5-3.4-3.3-4.5-5.4c-1.4-2.8-2.1-5.9-2.2-9c-0.2-4.8,0.6-9.5,2.3-14
				c1.7-4.8,4.1-9.3,7.2-13.4c3-4,6.6-7.4,10.8-10.1C233.8,511.3,238.4,509.9,243.1,509.8z M242.5,545.4c0.1-3.3,0.6-6.6,1.4-9.8
				c0.7-2.9,1.8-5.6,3.3-8.1c-0.2,0-0.3-0.2-0.3-0.4c0-0.8,0.1-1.6,0.3-2.5c0.2-1.1,0.2-2.3,0.2-3.4c0-1.1-0.4-2.2-1.1-3.1
				c-0.8-1-2-1.5-3.3-1.5c-1.7-0.1-3.3,0.3-4.8,1.2c-1.7,0.9-3.2,2.1-4.5,3.5c-1.5,1.6-2.9,3.3-4,5.2c-1.2,2-2.3,4.1-3.2,6.2
				c-0.9,2.2-1.6,4.4-2.2,6.6c-0.5,2.1-0.8,4.2-0.8,6.3c-0.1,1.8,0,3.6,0.1,5.4c0.1,1.8,0.5,3.5,1.1,5.2c0.5,1.5,1.4,2.8,2.5,3.9
				c1.2,1,2.8,1.5,4.4,1.3c2.5-0.2,4.8-1.3,6.6-3.1c2-2,3.7-4.3,5-6.8c-0.3-1-0.5-1.9-0.6-2.9C242.5,547.4,242.4,546.4,242.5,545.4z
				"/>
			<path class="st2" d="M282.7,479.5c0.4-0.1,1.5-0.4,3.3-0.8s4.1-0.8,6.9-1.3s6-1,9.6-1.5s7.5-1,11.6-1.5c1.9-3.1,3.5-5.6,4.8-7.4
				c0.7-1.1,1.5-2.2,2.5-3.2c1.1-0.9,2.5-1.5,3.9-1.7c1.4-0.3,2.9-0.3,4.3-0.2c1.1,0.1,2.2,0.4,3.2,1.1c0.7,0.5,0.9,1.4,0.5,2.1
				c0,0,0,0.1-0.1,0.1l-4.3,7.9c4.9-0.4,9.8-0.5,14.6-0.6c4.5,0,9,0.1,13.5,0.6c3.8,0.3,7.5,1,11.1,2.1c2.8,0.7,5.3,2.1,7.4,4
				c0.6,0.5,1,1.2,1,2c0,0.7-0.1,1.4-0.4,2.1c-0.2,0.5-0.5,1-1,1.5c-0.4,0.4-0.6,0.4-0.8,0.1c-0.8-1.2-2.8-2.1-6-2.7
				c-3.9-0.7-7.8-1-11.7-1.1c-4.6-0.1-9.8,0-15.4,0.2s-11.3,0.6-17,1c-1.8,3.4-3.8,7.2-5.8,11.1c-2,4-4.1,8.1-6.1,12.2
				c-2,4.2-4,8.4-6,12.5c-1.9,4.2-3.7,8.1-5.2,11.8s-2.8,7.1-3.9,10.2c-0.9,2.5-1.6,5-2,7.7c-0.1,1.1-0.3,2.4-0.4,3.8
				c-0.1,1.4-0.1,2.7,0.1,4.1c0.1,1.3,0.5,2.5,1.1,3.6c0.5,1,1.5,1.8,2.6,2.1c2,0.6,4.4-0.1,7.2-2.2c3.3-2.5,6.4-5.4,9.1-8.6
				c3.2-3.6,6.5-7.6,9.8-12s6.5-8.6,9.3-12.5c0.4-0.7,1.2-1.2,2-1.2c0.7,0,1.4,0.2,2,0.6c0.6,0.4,1,1,1.2,1.6c0.2,0.7,0,1.4-0.4,2
				c-0.2,0.3-1,1.5-2.3,3.6s-3,4.8-5.1,7.8c-2.1,3.1-4.5,6.3-7.2,9.8c-2.7,3.4-5.7,6.6-8.9,9.5c-3,2.7-6.4,5-10,6.9
				c-3.2,1.7-6.8,2.4-10.4,2.1c-2.2-0.1-4.3-0.8-6.1-2c-1.5-1.1-2.8-2.5-3.6-4.2c-0.9-1.7-1.5-3.6-1.7-5.6c-0.3-2.1-0.4-4.3-0.4-6.4
				c0.2-5.2,1.1-10.4,2.6-15.4c1.7-6,3.8-11.9,6.2-17.6c2.5-6,5.3-12,8.3-17.9s5.9-11.3,8.8-16.2c-3.8,0.4-7.4,0.7-10.6,1.1l-8.6,1
				c-2.5,0.3-4.4,0.5-5.9,0.7c-0.8,0.1-1.6,0.2-2.5,0.4c-0.6,0.2-1.4,0-1.9-0.4c-0.6-0.5-0.9-1.2-1-2c0-0.9,0.3-1.8,0.8-2.6
				C279.7,481,280.9,480.2,282.7,479.5z"/>
			<path class="st2" d="M359.4,509c3.4-0.1,6.1,0.8,8,2.5c1.8,1.7,3.1,3.8,3.8,6.2c1.1,4.8,0.5,9.9-1.9,14.3c-1,1.7-2.5,3.1-4.3,4
				c-1.4,0.7-3,1.1-4.6,1.2c-1.1,0.1-2.2-0.2-3.1-0.9c-0.7-0.6-0.6-1.3,0.2-2.2c1.8-1.7,3.3-3.9,4.2-6.2c0.8-1.8,1.2-3.8,1.2-5.8
				c0-1.5-0.4-2.9-1.3-4.1c-0.6-1-1.8-1.4-2.9-1.1c-2.2,0.7-4.3,1.5-6.2,2.6c-2.8,1.5-5.3,3.5-7.4,5.9c-2.6,2.9-4.7,6.2-6.3,9.8
				c-1.9,4.5-2.8,9.4-2.7,14.3c0,1.3,0.3,2.5,0.6,3.8c0.4,1.6,1.2,3,2.1,4.3c1.1,1.4,2.4,2.6,4,3.5c1.8,1,3.9,1.6,6.1,1.5
				c3.4,0,6.8-0.8,9.8-2.5c3.1-1.7,6-3.8,8.6-6.2c2.7-2.5,5.1-5.2,7.3-8.1c2.2-2.9,4.1-5.7,5.7-8.3s3-4.9,4.1-6.8
				c0.6-1.2,1.4-2.3,2.4-3.3c0.6-0.5,1.4-0.8,2.3-0.8c1.5-0.1,2.9,0.8,3.5,2.2c0.3,0.6,0.3,1.4,0,2.1c-0.8,1.9-1.7,3.8-2.8,5.5
				c-1.6,2.7-3.3,5.4-5.2,7.9c-2.3,3-4.7,6-7.4,8.7c-2.8,2.9-5.8,5.6-9,8s-6.7,4.3-10.3,5.8c-3.6,1.5-7.4,2.2-11.3,2.1
				c-2.1-0.1-4.1-0.3-6.1-0.7c-2.7-0.5-5.2-1.4-7.6-2.7c-2.6-1.4-4.8-3.4-6.6-5.9c-1.9-2.5-2.9-5.9-3.1-10.2
				c-0.1-2.4,0.1-4.9,0.7-7.2c0.7-3,1.7-5.9,3-8.7c1.4-3.1,3.1-6.1,5.1-8.8c2.1-2.9,4.5-5.5,7.2-7.8s5.8-4.2,9.1-5.6
				C351.7,509.8,355.5,509.1,359.4,509z"/>
			<path class="st2" d="M446,453.2c1.2,0,2.3,0.2,3.4,0.6c1.2,0.4,2.2,1.1,3,2.1c0.9,1.1,1.4,2.4,1.6,3.8c0.3,1.8,0.1,3.7-0.4,5.5
				c-2,7.2-4.9,14-8.9,20.4c-4.1,6.7-8.9,13-14.2,18.8c-5.3,5.8-11.1,11.1-17.3,15.8c-5.6,4.4-11.6,8.3-17.8,11.6
				c-1.5,4.6-2.8,9-3.7,12.9c-0.8,3.4-1.4,6.9-1.6,10.4c0.3,0.7,0.7,0.8,1.3,0.2c0.8-0.9,1.5-1.9,2.1-3c0.8-1.4,1.8-3.1,2.9-5.2
				s2.3-4.2,3.6-6.4c1.3-2.2,2.7-4.4,4.2-6.6c1.4-2,3-4,4.8-5.7c1.6-1.6,3.3-2.9,5.3-4c1.7-1,3.6-1.4,5.6-1.3c1.2,0.1,2,1.2,2.5,3.1
				c0.5,2.4,0.7,4.8,0.8,7.3c0.1,2.9,0.2,6.1,0.2,9.4c0,3.1,0.1,6.2,0.3,9.3c0.2,2.4,0.6,4.8,1.4,7.1c0.7,1.9,1.8,2.9,3.4,2.9
				c0.8,0,2-0.5,3.3-1.6c1.7-1.3,3.2-2.8,4.6-4.4c1.7-1.8,3.5-3.9,5.4-6.2s3.7-4.6,5.4-7c1.8-2.4,3.4-4.7,4.9-7s2.8-4.3,3.8-6
				c0.7-1.6,2.5-2.3,4.1-1.6c0.1,0,0.1,0.1,0.2,0.1c0.7,0.4,1.2,1,1.4,1.7c0.2,0.9,0.1,1.8-0.5,2.6c-1.2,2-2.6,4.3-4.1,6.9
				c-1.5,2.6-3.2,5.4-5,8.2s-3.7,5.6-5.7,8.4c-1.9,2.6-4,5.1-6.3,7.4c-2,2-4.3,3.8-6.7,5.2c-2.1,1.3-4.5,2-7,2c-3.9,0-6.9-0.7-9-2.1
				c-2-1.3-3.5-3.1-4.4-5.3s-1.4-4.5-1.4-6.9c0-2.5,0-4.9,0.2-7.1s0.2-4.1,0.2-5.6s-0.5-2.4-1.3-2.6s-1.7,0.2-2.6,1.4
				c-1.1,1.4-2.1,2.9-2.9,4.4c-1.1,1.8-2.2,3.9-3.3,6.1c-1.2,2.2-2.4,4.4-3.7,6.5c-1.2,2-2.6,3.8-4.1,5.5c-1.2,1.4-2.7,2.5-4.4,3.2
				c-0.5,0.1-1,0-1.4-0.1c-0.8-0.2-1.6-0.4-2.3-0.8c-0.8-0.4-1.6-1-2.3-1.7c-0.7-0.7-1.2-1.6-1.3-2.6c-0.6-4.5-0.6-9.1-0.1-13.6
				c0.6-5.6,1.5-11.1,2.8-16.6c1.5-6.1,3.2-12.1,5.4-18c2.2-6.2,4.8-12.2,7.8-18c2.9-5.7,6.2-11.3,9.8-16.6c3.3-5,7.2-9.6,11.5-13.8
				c3.8-3.8,8.1-7,12.8-9.5C436.2,454.8,441,453.4,446,453.2z M442.4,463.8c-2.8,0.3-5.5,1.3-7.9,2.9c-2.9,1.9-5.6,4.2-8,6.8
				c-2.9,3-5.5,6.3-7.8,9.8c-2.5,3.7-5,7.7-7.4,11.9s-4.6,8.6-6.8,13.2c-2.1,4.6-4,9.1-5.7,13.5c4.9-3.3,9.7-6.9,14.4-10.7
				c4.6-3.8,9-8,12.9-12.5c4-4.5,7.5-9.3,10.6-14.4s5.6-10.7,7.4-16.4c0.4-1,0.3-2.1-0.3-3C443.5,464.1,442.9,463.8,442.4,463.8
				L442.4,463.8z"/>
			<path class="st2" d="M484.3,510.2c2.1-0.1,4.2,0.4,6,1.4c1.4,0.8,2.6,1.9,3.5,3.3c0.8,1.2,1.3,2.5,1.5,3.9
				c0.2,1.1,0.3,2.2,0.2,3.3c-0.4,3.8-1.8,7.3-4,10.4c-2.1,2.9-4.6,5.3-7.6,7.4c-2.9,2-6,3.6-9.2,4.8c-2.9,1.1-5.9,2-9,2.5
				c0.1,2.5,0.6,5,1.4,7.4c0.6,1.8,1.5,3.4,2.7,4.8c1.1,1.2,2.4,2.1,3.9,2.5c1.6,0.5,3.3,0.7,4.9,0.5c3-0.2,5.9-1.1,8.6-2.6
				c2.9-1.6,5.6-3.5,8.1-5.7c2.6-2.3,5-4.7,7.2-7.4c2.2-2.6,4.1-5.1,5.8-7.4c1.4-1.9,2.8-3.9,4-6c1-1.7,1.5-2.7,1.7-3.1
				c0.3-1,1-1.8,2-2.3c0.9-0.4,1.9-0.6,2.9-0.4c0.9,0.2,1.7,0.7,2.2,1.5s0.6,2,0.1,3.6c-0.1,0.3-0.7,1.5-1.8,3.4
				c-1.4,2.4-2.9,4.8-4.5,7c-2.2,3-4.5,6-7,8.8c-2.8,3.1-5.9,6-9.2,8.6c-3.5,2.7-7.2,4.9-11.2,6.6c-4.1,1.8-8.5,2.7-13,2.7
				c-2.4-0.1-4.7-0.6-7-1.3c-2.8-0.9-5.3-2.2-7.5-4.1c-2.5-2.1-4.4-4.7-5.7-7.6c-1.5-3.1-2-7-1.5-11.6c0.2-2.1,0.6-4.2,1.2-6.2
				c0.7-2.5,1.6-5,2.7-7.4c1.2-2.7,2.6-5.2,4.2-7.7c1.7-2.5,3.6-4.8,5.9-6.8s5-3.7,7.8-4.9C477.6,510.9,480.9,510.2,484.3,510.2z
				 M481.8,517c-1.5,0.1-3,0.9-4.6,2.4c-1.7,1.7-3.2,3.6-4.5,5.7c-1.5,2.4-2.8,4.9-3.9,7.5c-1.1,2.5-1.9,5.1-2.5,7.8
				c1.9-0.3,3.7-0.8,5.5-1.5c2-0.7,3.8-1.8,5.5-3.1c1.8-1.4,3.4-3.1,4.6-5.1c1.5-2.3,2.5-4.9,3-7.6c0.4-2.2,0.3-3.8-0.4-4.8
				C484,517.4,482.9,516.9,481.8,517z"/>
			<g>
				<path class="st2" d="M239.8,652.8H233l-6.4-17.5l-5.3-16.7l-5.3,16.8l-6.3,17.4h-6.8l-17.5-49.7h8.6l12.3,38.2l12.4-38.2h5
					l12.8,38.2l12-38.2h8.6L239.8,652.8z"/>
				<path class="st2" d="M264.5,638c0.7,5.3,4.9,8.8,11,8.8c3.4,0,7.8-1.3,9.8-3.8l4.6,4.6c-3.5,3.9-9.4,6-14.6,6
					c-11.1,0-18.3-7.3-18.3-18.5c0-10.6,7.2-18.2,17.8-18.2c11,0,18.4,6.9,17.1,21.1H264.5z M285.2,631.9c-0.4-5.6-4.3-8.4-10.1-8.4
					c-5.2,0-9.4,2.9-10.5,8.4H285.2z"/>
				<path class="st2" d="M306.6,603.2v49.6h-7.1v-49.6H306.6z"/>
				<path class="st2" d="M323.9,603.2v49.6h-7.1v-49.6H323.9z"/>
				<path class="st2" d="M385,603.2v49.6h-6.7l-0.4-5.6c-2.7,4.5-7.2,6.2-11.8,6.2c-9.8,0-17.3-6.7-17.3-18.2
					c0-11.9,7.4-18.2,17.2-18.2c4.1,0,9.7,2.1,11.9,6.2V603L385,603.2z M355.9,635.3c0,7,4.7,11.4,10.7,11.4s10.8-4.5,10.8-11.4
					c0-6.7-4.9-11.4-10.8-11.4S356,628.1,355.9,635.3L355.9,635.3z"/>
				<path class="st2" d="M427.6,635.3c0,10.4-7,18.2-17.6,18.2s-17.5-7.8-17.5-18.2s7-18.2,17.5-18.2S427.6,625,427.6,635.3z
					 M399.6,635.3c0,6.2,3.9,11.4,10.4,11.4c6.5,0,10.5-5.1,10.5-11.4s-4.3-11.4-10.5-11.4C403.5,623.9,399.6,629.2,399.6,635.3
					L399.6,635.3z"/>
				<path class="st2" d="M460.8,652.8V634c0-6.1-3.3-10.1-9.2-10.1c-5.6,0-9.5,4.7-9.5,10.5v18.3H435v-35h6.5l0.4,5.2
					c3.2-3.8,7-5.6,11.4-5.6c8.3,0,14.6,6.1,14.6,16.8v18.8L460.8,652.8z"/>
				<path class="st2" d="M482.4,638c0.7,5.3,4.9,8.8,11,8.8c3.4,0,7.8-1.3,9.8-3.8l4.6,4.6c-3.5,3.9-9.4,6-14.6,6
					c-11.1,0-18.3-7.3-18.3-18.5c0-10.6,7.2-18.2,17.8-18.2c11,0,18.4,6.9,17.1,21.1H482.4z M503.1,631.9c-0.4-5.6-4.3-8.4-10.1-8.4
					c-5.2,0-9.4,2.9-10.5,8.4H503.1z"/>
			</g>
			<path class="st2" d="M541.2,510.7c2.1-0.1,4.2,0.2,6.1,1c1.2-3.9,2.6-8.1,4.2-12.4s3.4-8.5,5.3-12.7c1.8-4.1,3.9-8,6.2-11.8
				c2-3.5,4.3-6.7,6.9-9.8c2.1-2.6,4.6-4.8,7.3-6.7c2.2-1.5,4.9-2.4,7.6-2.5c2.8,0,4.8,1,6,3s1.8,4.9,1.9,8.7c0,3.5-0.4,7-1.2,10.4
				c-1,4.6-2.3,9.1-3.8,13.5c-1.6,4.9-3.6,9.9-6,15.3c-2.4,5.4-5,10.6-7.8,15.8s-5.9,10.3-9.3,15.2c-3.2,4.7-6.7,9.2-10.5,13.4
				c0.8,2.7,2.4,5.2,4.6,7c2.1,1.6,4.8,2.3,8.3,1.9c2.5-0.2,4.9-1.2,6.9-2.6c2.3-1.6,4.4-3.6,6.2-5.7c2-2.3,3.7-4.7,5.3-7.3
				s3.1-5.1,4.3-7.4c1.2-2.3,2.2-4.2,3-5.9c0.7-1.6,1.2-2.6,1.4-3c0.6-0.9,1.5-1.4,2.5-1.6c0.9-0.3,1.9-0.2,2.9,0.1
				c0.8,0.3,1.4,0.9,1.7,1.7s0,1.9-0.8,3.2c-1.1,1.8-2.1,3.7-3.1,5.6c-1.1,2.3-2.4,4.8-3.9,7.4c-1.5,2.6-3.1,5.2-4.9,7.8
				c-1.7,2.6-3.8,5-6.1,7.1c-2.2,2.1-4.8,3.8-7.6,5.1c-2.9,1.3-6,2-9.1,1.9c-1.2,0-2.5-0.1-3.7-0.3c-1.6-0.2-3.1-0.7-4.6-1.3
				c-1.8-0.7-3.4-1.6-5-2.8c-1.8-1.3-3.3-2.9-4.5-4.8c-3.6,3.4-7.7,6.2-12,8.4c-3.8,1.9-8.1,2.9-12.4,2.9c-4.2-0.1-7.4-0.8-9.8-2.1
				c-2.2-1.1-4-2.8-5.4-4.8c-1.2-1.8-2-3.8-2.3-5.9c-0.3-1.9-0.5-3.8-0.6-5.6c0-2.1,0.2-4.2,0.6-6.3c1.1-5.9,3.3-11.4,6.6-16.5
				c1.8-2.9,4.1-5.5,6.7-7.8C525.4,514.3,533.1,511.2,541.2,510.7L541.2,510.7z M543.2,530.5c0.3-3.3,0.9-6.6,1.8-9.8
				c-0.8-1-1.9-1.8-3-2.5c-1.1-0.6-2.3-0.9-3.5-0.7c-2.3,0.3-4.5,1-6.5,2.3c-1.9,1.3-3.7,2.9-5.1,4.7c-1.5,1.9-2.7,4-3.7,6.2
				c-1.9,4.2-3.2,8.6-3.9,13.1c-0.3,1.7-0.4,3.4-0.3,5.2c-0.1,2,0.4,4,1.3,5.9c0.7,1.2,1.7,2.3,3,3c1.2,0.6,2.5,0.9,3.8,0.8
				c1.3,0,2.7-0.2,4-0.5c2.3-0.6,4.5-1.6,6.4-3.1c2.4-1.8,4.7-3.9,6.7-6.2c-0.7-2.7-1.1-5.4-1.3-8.1
				C542.7,537.3,542.8,533.9,543.2,530.5z M584.5,465.3c-1.6-1.1-3.5-0.7-5.7,1.1c-2.6,2.4-4.9,5.2-6.7,8.2
				c-2.6,4.3-4.9,8.7-6.9,13.3c-2.3,5.3-4.4,10.8-6.2,16.3c-1.8,5.7-3.3,11.4-4.5,17.2c-1.1,5.3-1.8,10.7-2,16.2
				c3-4.5,5.9-9.4,8.7-14.7c2.9-5.3,5.5-10.6,8-15.8c2.5-5.3,4.7-10.4,6.8-15.3c2-4.9,3.8-9.3,5.1-13.2c1.4-3.9,2.4-7,3-9.4
				C584.6,466.8,584.8,465.5,584.5,465.3z"/>
		</g>
	</g>
</g>
<g>
	<g>
		<path class="st3" d="M784.8,881.7h-39c-7.1-12.3-13.9-32.4-18.5-62.1c-5.5-37.6-8-53.4-8-53.4l76,5.1c0,0-7.3,43.6-9.9,97.9
			C785.4,874.1,785.2,878.3,784.8,881.7z"/>
		<path class="st4" d="M795.3,771.3c0,0-44.9,15-76-5.1C729.5,759.7,782.7,754.9,795.3,771.3z"/>
		<g>
			<path class="st5" d="M599.4,789.5c4.9-7.1,4.3-10.4,4.3-10.4s-15.8,16.3-34.2-0.2c-10.1-8.3-16-8.5-19.3-8.9
				c4.3,5.5,7.4,13,7.4,13s-10.6-9-31-3.9c10.1,6.5,11.7,7.3,11.7,7.3s-37.6,0.2-45.4,10.6c-0.7-9.8,2-12.8,2-12.8s-14,2.9-17.8,6.3
				c3.2-9.4,5.6-10.6,5.6-10.6s-24.5,1.2-33.7-5.1c-0.1-0.1-0.2-0.1-0.2-0.2c5.3,0.7,9.7-5.2,21.9-10c43.5-10.1,86.3-12.3,128.5-2.2
				s38.1,43,38.1,43s-3.4-1.6-6.8-2.4C624.6,796.7,613.5,787.6,599.4,789.5z"/>
			<g>
				<path class="st6" d="M629.7,808.7c1.3,4.7,0,18.8-1.6,40.2c-1.6,21.3,1.6,31.8,1.6,31.8s-1,0.4-2.7,1H511.6
					c1.3-4.3,2.4-7.2,2.4-7.2s-4.5,1.9-9.3,7.2h-0.4c1-9.2,7.1-17.7,7.1-17.7s0,0-8,1.5c2.6-7.2,4.8-2.9,4.8-27.1
					c1.9-33.6-2.4-32.1-2.4-32.1l5.2-5.5l-7.1-4l6.6-7.6c13-2.7,28-2.8,28-2.8s-1.6-0.8-11.7-7.3c20.3-5.1,31,3.9,31,3.9
					s-3.1-7.5-7.4-13c3.2,0.4,9.2,0.6,19.3,8.9c18.4,16.5,34.2,0.2,34.2,0.2s0.5,3.3-4.3,10.4c14.1-1.9,25.2,7.2,31.2,13.6
					c-0.2-0.1-0.4-0.1-0.6-0.1c2.9,4.3,2.9,7.6,2.9,7.6S631.9,808.7,629.7,808.7z"/>
				<path class="st7" d="M504.3,881.7h-61.7c2.6-5.5,4.1-13,3.6-32.5c-0.6-35.5,4.2-56.4,4.2-56.4h-5.1l8.3-5.8l-11.5-2.5l9.6-8
					l-4.8-2.5c0.7,0.3,1.4,0.5,2.1,0.6c0.1,0.1,0.1,0.1,0.2,0.2c9.2,6.3,33.7,5.1,33.7,5.1s-2.3,1.2-5.6,10.6
					c3.8-3.5,17.8-6.3,17.8-6.3s-2.7,3.1-2,12.8c2.8-3.8,9.8-6.3,17.3-7.8l-6.6,7.6l7.1,4l-5.2,5.5c0,0,4.4-1.5,2.4,32.1
					c0,24.2-2.2,19.9-4.8,27.1c8-1.5,8-1.5,8-1.5S505.3,872.6,504.3,881.7z"/>
				<path class="st7" d="M504.7,881.7c4.8-5.3,9.3-7.2,9.3-7.2s-1.1,2.9-2.4,7.2H504.7z"/>
			</g>
			<g>
				<path class="st6" d="M583.9,846c-0.1-0.8-0.2-1.6-0.3-2.4c-0.1-0.8-0.3-1.6-0.4-2.4c-0.3-1.6-0.7-3.2-1.2-4.7
					c-0.1-0.4-0.3-0.8-0.4-1.1c-0.2-0.4-0.3-0.8-0.4-1.1c-0.3-0.8-0.6-1.5-1-2.2s-0.8-1.4-1.3-2.1c-0.2-0.3-0.5-0.7-0.7-1l-0.8-0.9
					l-0.3,1.2c0.5,0,1.1-0.2,1.6-0.1h0.8l0.8,0.1c0.3,0,0.5,0.1,0.8,0.2c0.3,0.1,0.5,0.1,0.8,0.2c0.5,0.2,1,0.4,1.5,0.7
					s1,0.6,1.5,0.9c0.5,0.3,0.9,0.7,1.4,1.1c0.9,0.8,1.7,1.6,2.5,2.6c-0.6-1.1-1.3-2.2-2.1-3.1c-0.4-0.5-0.9-0.9-1.3-1.3
					c-0.5-0.4-1-0.8-1.5-1.1s-1.1-0.6-1.6-0.9c-0.3-0.1-0.6-0.2-0.9-0.3c-0.3-0.1-0.6-0.2-0.9-0.2l-0.9-0.2l-0.9-0.1
					c-0.6-0.1-1.2,0.1-1.8,0.1l-1.4,0.1l1.1,1.2l0.7,0.8c0.2,0.3,0.4,0.6,0.7,0.9c0.4,0.6,0.8,1.2,1.2,1.9c0.7,1.3,1.4,2.7,1.9,4.2
					c0.6,1.5,1.1,2.9,1.6,4.5C583.1,842.9,583.5,844.5,583.9,846z"/>
				<path class="st6" d="M554.1,881.7L554.1,881.7l-1.7-1.6c-0.5-0.5-1-1.1-1.6-1.5l-1.7-1.4c-0.6-0.5-1.2-0.8-1.8-1.3l-0.9-0.6
					c-0.3-0.2-0.6-0.4-0.9-0.6c-0.6-0.4-1.2-0.8-1.9-1.1c-0.6-0.3-1.3-0.7-1.9-0.9c-0.7-0.3-1.3-0.5-2-0.8c0.7,0.1,1.4,0.2,2.1,0.4
					c0.7,0.1,1.4,0.4,2.1,0.6c0.7,0.2,1.3,0.6,2,0.9c0.3,0.2,0.7,0.3,1,0.5l1,0.6c0.6,0.4,1.3,0.7,1.9,1.2l1.8,1.3
					c0.6,0.4,1.1,1,1.7,1.5l0.2,0.2c-0.1-0.3-0.2-0.6-0.3-0.9c-0.1-0.3-0.2-0.6-0.4-0.9c-0.2-0.6-0.5-1.2-0.8-1.9
					c-0.3-0.6-0.6-1.2-0.9-1.8c-0.6-1.2-1.3-2.4-2.1-3.5c-0.7-1.2-1.5-2.3-2.2-3.5c0.9,1,1.8,2,2.6,3.1s1.6,2.2,2.4,3.4
					c0.8,1.1,1.4,2.4,2,3.7c0.3,0.6,0.6,1.3,0.8,2l0.3,1.1l0.3,1.9h-1.1V881.7z"/>
				<path class="st6" d="M483.7,847.6c-0.9-0.4-1.9-0.8-2.9-1.1s-2-0.5-3-0.7s-2-0.2-3.1-0.2c-0.3,0-0.5,0-0.8,0.1
					c-0.3,0-0.5,0.1-0.8,0.1c-0.5,0.1-1,0.3-1.6,0.6l0.8,1c0.4-0.7,0.8-1.5,1.2-2.2c0.2-0.4,0.4-0.7,0.6-1.1c0.2-0.3,0.4-0.7,0.7-1
					c0.5-0.7,1-1.3,1.5-1.9l0.8-0.9l0.9-0.8c0.6-0.5,1.2-0.9,1.9-1.3c0.3-0.2,0.7-0.3,1-0.5c0.3-0.1,0.7-0.3,1.1-0.3
					c0.4-0.1,0.7-0.2,1.1-0.2c0.4-0.1,0.7,0,1.1-0.1c0.8,0,1.5,0.2,2.3,0.3c-0.4-0.1-0.7-0.3-1.1-0.5c-0.4-0.1-0.8-0.2-1.1-0.3
					c-0.4-0.1-0.8-0.2-1.2-0.1c-0.4,0-0.8,0-1.2,0c-0.4,0-0.8,0.1-1.2,0.2c-0.4,0.1-0.8,0.3-1.2,0.4c-0.8,0.3-1.5,0.7-2.2,1.2
					l-1,0.8l-0.9,0.9c-0.6,0.6-1.1,1.3-1.6,2c-0.3,0.3-0.5,0.7-0.7,1.1c-0.2,0.4-0.5,0.7-0.7,1.1c-0.4,0.7-0.8,1.5-1.2,2.3l-1,1.8
					l1.8-0.9c0.4-0.2,0.8-0.4,1.3-0.5c0.2-0.1,0.5-0.1,0.7-0.2c0.2-0.1,0.5-0.1,0.7-0.1c1-0.1,1.9-0.1,2.9-0.1s2,0.2,3,0.3
					C481.7,847.3,482.7,847.4,483.7,847.6z"/>
			</g>
			<g>
				<g>
					<defs>
						<polygon id="SVGID_1_" points="1,1 2,1 1,2 						"/>
					</defs>
					<defs>
						<polygon id="SVGID_4_" points="-1,-1 -2,-1 -1,-2 						"/>
					</defs>
					<clipPath id="SVGID_6_">
						<use xlink:href="#SVGID_1_"  style="overflow:visible;"/>
					</clipPath>
					<clipPath id="SVGID_7_" class="st8">
						<use xlink:href="#SVGID_4_"  style="overflow:visible;"/>
					</clipPath>
					
						<radialGradient id="SVGID_8_" cx="345.5549" cy="-51.9887" r="104.8306" gradientTransform="matrix(-1 0 0 -1.1314 1000.2926 778.8346)" gradientUnits="userSpaceOnUse">
						<stop  offset="2.215490e-03" style="stop-color:#FFFFFF"/>
						<stop  offset="0.1427" style="stop-color:#FCFCFC"/>
						<stop  offset="0.2555" style="stop-color:#F2F2F2"/>
						<stop  offset="0.3586" style="stop-color:#E1E1E1"/>
						<stop  offset="0.456" style="stop-color:#C9C9C9"/>
						<stop  offset="0.5494" style="stop-color:#AAAAAA"/>
						<stop  offset="0.6397" style="stop-color:#858585"/>
						<stop  offset="0.726" style="stop-color:#595959"/>
						<stop  offset="0.7537" style="stop-color:#494949"/>
						<stop  offset="0.8872" style="stop-color:#232323"/>
						<stop  offset="1" style="stop-color:#000000"/>
					</radialGradient>
					<path class="st9" d="M605.5,796.8c0,0,1.5,55.6,4.3,80.1c1.6,9.5-3.4,5-36.9,12.7c-28.5,6.6-18.7-28.6-21.9-64.9
						c-2.8-34.5-3.6-43.8,9.2-35.1c-1.2-10.9-1.6-15.4-1.6-15.4s10.8,8.6,17.6,14.5s23.8-4.6,23.8-4.6s-1,5.1-6.6,9.6
						C591.1,798.1,604.7,790.4,605.5,796.8z"/>
				</g>
			</g>
		</g>
		<g>
			<path class="st10" d="M624,571.8c13.6-5.8,16.8-5.5,16.8-5.5s-2.6-6.5,0.6-6.1c3.2,0.4,5.1,1.1,5.1,1.1l5.4-1.8
				c0,0,2.6,1.6,7.6,3.8C652.6,570.9,635.7,585.9,624,571.8z"/>
			<path class="st10" d="M759.2,567.7c5.4-1.5,10.9-3.2,16.5-5.4c0,0,12.6,11.2,9.7,16.1c-2.9,4.9-6,5.8-5.4,8.9
				c0.5,2.5,2.2,1.9,3.3,19.5C763.2,597.3,759.7,577.1,759.2,567.7z"/>
			<path class="st11" d="M620.1,573.6c1.4-0.6,2.7-1.2,4-1.7c11.7,14.1,28.5-1,35.6-8.6c14.8,6.5,50.6,17.9,99.6,4.4
				c0.5,9.4,4,29.6,24.2,39.2c0.3,4.1,0.5,9.3,0.6,15.7c0.9,33.8-1.6,151.6-1.6,151.6s-28,7.5-50.6-2.7
				c-5-69.2-6.9-145.8-31.2-154.4c-15-4.7-82.5,31.5-88.6,45.9c-19.8-5.4-42.5-10.5-58.5-8.3C559.3,614.5,572.1,597.5,620.1,573.6z"
				/>
		</g>
		<path class="st3" d="M618.2,666.9c0,0-29.4-14.5-64.6-12.3c-5.3,1-6,2.4-4.1,15.4s8.1,65.9,11.7,90.2c4.5,29.9,34.9,40.5,42.5-0.4
			c3.8-28.6,5.7-66.6,9.6-77.4S620.1,669.1,618.2,666.9z"/>
		<path class="st12" d="M749,357c0,0,41.8,7.2,55.4,28.5c-16.2,101.3-20.5,145.7-23,165.5c-3,15-3.5,22.5-40.9,27.5
			c-43.5,5.8-88.2-2.9-96.4-26.1c-8.1-23.1-10.2-67-2.6-107.1c6.8-32.3,3.5-54.8,1-70.7c-7.2-6.9,13.1-16.6,32.7-19
			C695.3,354.6,749,357,749,357z"/>
		<g>
			<g>
				<path class="st13" d="M659.1,719c0,3.6,2.6,6.5,5.8,6.5l0,0c3.2,0,5.8-2.9,5.8-6.5V447c0-3.6-2.6-6.5-5.8-6.5l0,0
					c-3.2,0-5.8,2.9-5.8,6.5V719z"/>
				<g>
					<g>
						<defs>
							<polygon id="SVGID_9_" points="1,1 2,1 1,2 							"/>
						</defs>
						<defs>
							<polygon id="SVGID_10_" points="-1,-1 -2,-1 -1,-2 							"/>
						</defs>
						<clipPath id="SVGID_11_">
							<use xlink:href="#SVGID_9_"  style="overflow:visible;"/>
						</clipPath>
						<clipPath id="SVGID_14_" class="st14">
							<use xlink:href="#SVGID_10_"  style="overflow:visible;"/>
						</clipPath>
						
							<radialGradient id="SVGID_18_" cx="236.4389" cy="174.1644" r="126.1092" gradientTransform="matrix(-1 0 0 -1.1314 1000.2926 778.8346)" gradientUnits="userSpaceOnUse">
							<stop  offset="2.215490e-03" style="stop-color:#FFFFFF"/>
							<stop  offset="0.1427" style="stop-color:#FCFCFC"/>
							<stop  offset="0.2555" style="stop-color:#F2F2F2"/>
							<stop  offset="0.3586" style="stop-color:#E1E1E1"/>
							<stop  offset="0.456" style="stop-color:#C9C9C9"/>
							<stop  offset="0.5494" style="stop-color:#AAAAAA"/>
							<stop  offset="0.6397" style="stop-color:#858585"/>
							<stop  offset="0.726" style="stop-color:#595959"/>
							<stop  offset="0.7537" style="stop-color:#494949"/>
							<stop  offset="0.8872" style="stop-color:#232323"/>
							<stop  offset="1" style="stop-color:#000000"/>
						</radialGradient>
						<path class="st15" d="M665.9,719c0,3.6,1,6.5,2.4,6.5l0,0c1.3,0,2.4-2.9,2.4-6.5V447c0-3.6-1.1-6.5-2.4-6.5l0,0
							c-1.3,0-2.4,2.9-2.4,6.5V719z"/>
					</g>
				</g>
				<path class="st16" d="M651.6,735.8c0,6.6,4.7,12,10.6,12h5.4c5.8,0,10.6-5.4,10.6-12v-6.1c0-6.6-4.7-12-10.6-12h-5.4
					c-5.9,0-10.6,5.4-10.6,12V735.8z"/>
				<path class="st17" d="M655.6,730.1c0,1.9,1.4,3.4,3,3.4c1.7,0,3-1.5,3-3.4s-1.4-3.4-3-3.4C657,726.6,655.6,728.2,655.6,730.1z"
					/>
			</g>
			<g>
				<path class="st18" d="M705.2,881.7h-1.9c-1.7-12-2.7-29.7,0.2-52c5.8-39.1,15.7-63.7-21.1-78.9c-15.8-6.7-52.1-6.1-69.3,16.7
					c9.7-21.8,49.5-23.5,49.5-23.5c60.1,1.4,50.8,41.2,43.8,81.8C702.6,850.4,704.2,869.4,705.2,881.7z"/>
				<g>
					<path class="st18" d="M687.9,788.1c-7.7-0.7-8.6,51.7-9.3,73.8c-0.2,7.5,0,14.2,0.1,19.8h-4.6c-0.7-12.2,0.4-28.5,1.4-45
						c1.7-28.9,3.2-50.6,10-50.9c2.3-0.1,3.6,1.6,4.1,3.9C689.2,788.7,688.6,788.2,687.9,788.1z"/>
					<path class="st18" d="M650.1,859.7c-0.1,8.7,0.4,16.1,0.7,22h-4.5c-1.2-12.9-1.2-30.5-0.9-45.3c0.4-25.1,3.6-49.4,10.9-50.2
						c2.6-0.2,4.2,0.8,5.2,2.2c-0.5-0.4-1.1-0.6-1.8-0.7C651.4,786.3,650.5,836.2,650.1,859.7z"/>
				</g>
				<g>
					<path class="st18" d="M630.3,789.9c-10.9,2.9-8,66.6-5.4,90.4c0,0.5,0.1,0.9,0.1,1.4h-3.5c-1.4-10.3-2.1-25.1-2.3-45
						c-0.4-35.9,4.7-48.9,9.8-49.7c2.5-0.3,3.6,2,4,4.4C632.3,790.3,631.5,789.8,630.3,789.9z"/>
					<path class="st16" d="M703.3,881.7h-8.8c-3.4-15.9-4.1-39.8-3.5-54.2c0.8-18.9,0.9-33.2-1.4-37.9c-0.6-2.2-1.8-4-4.1-3.9
						c-6.8,0.2-8.3,21.9-10,50.9c-1,16.5-2.1,32.8-1.4,45h-9.7c-2.8-17.4-1.7-43.4-1.4-54.9c0.3-16.2,4.3-34.3-1.4-38.3
						c-1-1.4-2.6-2.5-5.2-2.2c-7.2,0.7-10.4,25.1-10.9,50.2c-0.3,14.8-0.3,32.4,0.9,45.3h-8.3c-2.3-11.5-3-28-3-44.8
						c0-24.3,0.8-40.6-2.1-45.5c-0.4-2.5-1.5-4.8-4-4.4c-5.1,0.7-10.2,13.7-9.8,49.7c0.2,19.9,0.9,34.8,2.3,45h-8.2
						c-0.1-0.6-0.2-1.1-0.3-1.7c-2.2-16.7-4.8-76-1.9-104.9c0.3-2.8,1-5.3,2-7.6c17.2-22.7,53.5-23.4,69.3-16.7
						c36.8,15.2,26.9,39.8,21.1,78.9C700.6,852,701.6,869.7,703.3,881.7z"/>
				</g>
			</g>
			<g>
				<g>
					<defs>
						<polygon id="SVGID_20_" points="1,1 2,1 1,2 						"/>
					</defs>
					<defs>
						<polygon id="SVGID_21_" points="-1,-1 -2,-1 -1,-2 						"/>
					</defs>
					<clipPath id="SVGID_22_">
						<use xlink:href="#SVGID_20_"  style="overflow:visible;"/>
					</clipPath>
					<clipPath id="SVGID_23_" class="st19">
						<use xlink:href="#SVGID_21_"  style="overflow:visible;"/>
					</clipPath>
					
						<radialGradient id="SVGID_24_" cx="247.4126" cy="8.7419" r="110.6521" gradientTransform="matrix(-1 0 0 -1.1314 1000.2926 778.8346)" gradientUnits="userSpaceOnUse">
						<stop  offset="2.215490e-03" style="stop-color:#FFFFFF"/>
						<stop  offset="0.1427" style="stop-color:#FCFCFC"/>
						<stop  offset="0.2555" style="stop-color:#F2F2F2"/>
						<stop  offset="0.3586" style="stop-color:#E1E1E1"/>
						<stop  offset="0.456" style="stop-color:#C9C9C9"/>
						<stop  offset="0.5494" style="stop-color:#AAAAAA"/>
						<stop  offset="0.6397" style="stop-color:#858585"/>
						<stop  offset="0.726" style="stop-color:#595959"/>
						<stop  offset="0.7537" style="stop-color:#494949"/>
						<stop  offset="0.8872" style="stop-color:#232323"/>
						<stop  offset="1" style="stop-color:#000000"/>
					</radialGradient>
					<path class="st20" d="M664.5,749.2c0,0,45.7,3.2,42.7,39.8c-2.8,34.5-8.4,49.9-6.1,78.6c1.4,19.1-9.9,12.7-7.5-30.8
						c2.3-43.5,3.3-55.6-9.9-56.3C642,778.4,638.2,746,664.5,749.2z"/>
				</g>
			</g>
		</g>
		<path class="st21" d="M714.6,376.4c0,0-0.8,12.6-2,31.6c-0.5,9.5-1.2,20.6-1.9,32.4c-0.6,11.9-1.3,24.5-2,37.2
			c-0.6,12.7-1.2,25.3-1.8,37.2c-0.5,11.9-1,23-1.5,32.4c-0.4,9.5-0.7,17.4-0.9,23c-0.2,5.5-0.3,8.7-0.3,8.7s0.2-3.2,0.6-8.7
			c0.3-5.5,0.8-13.4,1.4-22.9c0.5-9.5,1.2-20.6,1.9-32.4c0.6-11.9,1.3-24.5,2-37.2c0.6-12.7,1.2-25.3,1.8-37.2
			c0.5-11.9,1-22.9,1.5-32.4C714.1,389,714.6,376.4,714.6,376.4z"/>
		<g>
			<path class="st22" d="M697,338.9l34,2.1c0,0,0.4,0.3,1.2,0.7v9.3c0,0-8.8,11.3-16.4,25.6c-0.4-0.1-0.8-0.2-1.1-0.2
				c-0.7-0.1-1.5,0-2.3,0.1c-4.6-7.9-13.4-23.9-18.5-36.5C694.9,339.6,695.9,339.2,697,338.9z"/>
			<path class="st23" d="M732.2,341.7c3.7,2.3,15.2,9.8,21.3,16.1c-1.5,11-23.7,38.5-24,37.5s-5.1-16.5-13.7-18.7
				c7.6-14.4,16.4-25.6,16.4-25.6V341.7z"/>
			<path class="st23" d="M693.8,340c5,12.6,13.9,28.6,18.5,36.5c-9.4,1.6-22.6,17.1-22.6,17.1l-15.8-37.5
				C673.9,356.1,682.1,344.8,693.8,340z"/>
		</g>
		<path class="st23" d="M804.9,382.9c0,0,19.2,10.8,9.6,51.7c-9.6,40.9-20.8,72.4-34.9,77.1c-14.1,4.7-41.9-3.6-60.1-27.1
			c12.8-43.8,14.1-52.5,14.1-52.5l30.4,13.4C764,445.5,785.1,371.4,804.9,382.9z"/>
		<polygon class="st21" points="735.4,431 719.2,488.2 701.9,478.3 718.8,424.3 		"/>
		<path class="st12" d="M711.1,472.3c0,1.9,1.3,3.4,3,3.4s3-1.5,3-3.4s-1.3-3.4-3-3.4C712.4,468.9,711.1,470.4,711.1,472.3z"/>
		<g>
			<path class="st23" d="M596,421.6c16.2-40.5,47.7-54.5,47.7-54.5s4.5,36.2,3.4,56.9c-0.7,14-6.8,15-6.8,15s-3.5-10.7-7.8-8.3
				c-4.3,2.4-7.4,3.4-6.1,6.2c1.1,2.3,13.4,38.9,16.6,48.6c-30.6,16.3-42.5,23.7-54.4,9C576.4,474.2,579.8,464.1,596,421.6z"/>
			<path class="st21" d="M632.5,430.7c4.3-2.3,4.6,0.6,4.6,0.6s10.9,24.1,17.3,48.2c-4,2.1-7.8,4.1-11.3,5.9
				c-3.3-9.7-15.5-46.3-16.6-48.6C625.2,434.1,628.2,433,632.5,430.7z"/>
		</g>
		<path class="st21" d="M626.5,435.6c0,0-0.4,0-1,0.1s-1.5,0.2-2.6,0.4c-1.1,0.2-2.3,0.5-3.6,0.8s-2.7,0.8-4.1,1.2
			c-1.4,0.5-2.7,1-4,1.5c-0.6,0.2-1.2,0.6-1.8,0.8c-0.6,0.3-1.1,0.6-1.6,0.8c-0.5,0.2-0.9,0.6-1.3,0.8c-0.4,0.2-0.7,0.5-1,0.6
			c-0.5,0.4-0.8,0.6-0.8,0.6s0.3-0.1,1-0.3c0.3-0.1,0.6-0.3,1.1-0.4c0.4-0.1,0.9-0.4,1.4-0.5c1-0.3,2.2-0.8,3.5-1.2
			c1.3-0.4,2.6-0.9,4-1.3c1.4-0.5,2.7-0.9,4-1.4s2.5-0.9,3.5-1.2c1-0.4,1.9-0.7,2.5-0.9C626.1,435.8,626.5,435.6,626.5,435.6z"/>
		<path class="st12" d="M644.7,474.7c0,1.9,1.3,3.4,3,3.4c1.6,0,3-1.5,3-3.4s-1.3-3.4-3-3.4C646,471.3,644.7,472.8,644.7,474.7z"/>
		<path class="st22" d="M648.7,460.5c0,0,9-6,16.1-10.4c6.3,10.4,7.4,9.8,30.6,5.4c-14-24.5-27.2-31.3-40.3-24.5
			c-13.2,6.9-14.2,9-14.2,9L648.7,460.5z"/>
		<path class="st24" d="M717.9,427.2c0,0-19.6-10.4-40.5-15.4c-4.9-14-6.8-16.9-9.4-17.1c-2.6-0.2-0.6,8.7-0.6,8.7s-6.6-6-16.6-6
			c-10,0.2-10,1-10.4,2.9s13,4.1,14.7,7.2c-13-1.2-20.3,2.7-20.7,5.6s13.2,1,18.3,3.9c-13.6,3.6-17.9,6-17.5,9.7
			c0.4,3.6,19-0.5,19-0.5s-13.9,8.7-12.2,12.8c1.7,4.1,15.1-6.5,15.1-6.5s3.6,12.5,16,5.1c13,11.6,32.4,29.4,32.4,29.4L717.9,427.2z
			"/>
		<g>
			<path class="st22" d="M800.2,270.7c0,0,14.9-3.1,16,17.1c-0.4,16.4-21.7,23.9-28.6,11.6C783.8,289.2,800.2,270.7,800.2,270.7z"/>
			<path class="st22" d="M641.5,261.9c0,0-10.2-5.6-16.6,4.2c-6.4,9.8-1.6,30.6,12.6,32.9c9.8,0.7,10.6-9.6,9.8-16.3
				C646.5,276,644.9,264.6,641.5,261.9z"/>
			<path class="st25" d="M857.7,225.7c0,0-111.7,50.5-268-3.1C616.4,204,741.3,164.4,857.7,225.7z"/>
			<g>
				<path class="st3" d="M772.3,232c0,0-13.8-29.5-26.1-46.4c20.2,1.6,39,5.5,51.4,12.5c0,0,21.1,12.7,26.9,43.8
					c-4.2-4.3-7.7-5.8-7.7-5.8s3.2,11.9,1.9,21.3c-5.1-4.7-5.1-4.7-5.1-4.7s-15.3,25-22.7,35.4c0,0-4-39.4-15.5-70
					C773.8,228.2,772.3,232,772.3,232z"/>
				<path class="st3" d="M632.1,225.5c-8.6,3.2-10.9,4.7-10.9,4.7s10.4-20.6,26.8-33.3c5.2-4,18.5-7.5,35.4-9.7
					c-3.5,8.2-10.5,23.8-16.2,33.3c-1-10.1-1-10.1-1-10.1s-8.3,19.9-16.6,37.6c-4.3,9.4-5.4,16.6-5.5,27.6
					c-1.8-9.1-5.6-14.9-10.1-23.6c1-12.4,1.8-15,1.8-15l-10.4,8.5C625.3,245.5,627.9,231.4,632.1,225.5z"/>
				<path class="st24" d="M666.1,210.4c0,0,0,0,1,10.1c5.7-9.6,12.7-25.2,16.2-33.3c18.5-2.4,41.4-3.3,62.8-1.6
					c12.3,17,26.1,46.4,26.1,46.4s1.6-3.8,3.1-13.8c11.5,30.7,15.5,70,15.5,70s-0.1,29.3-11.3,35.8s-62.3,35.4-109.9,4.1
					c-18.2-11.8-23.5-18.3-24.7-46c-0.2-2.4-0.5-4.5-0.9-6.5c0.2-11,1.3-18.2,5.5-27.6C657.8,230.3,666.1,210.4,666.1,210.4z"/>
			</g>
			<path class="st3" d="M745.8,291.6c0,0,14.1,0.7,17.5,9.9c-5.8-1.2-8.5-0.5-8.5-0.5s11.1,10.1,13.2,20.3c-3.6-2.9-4.7-3.1-4.7-3.1
				s3.8,8.9-1.1,18.1c-1.3-6-1.9-7.5-1.9-7.5s-3.4,10.4-17.5,16.4c1.7-5.8,0.2-6.3,0.2-6.3s-1.7,6.3-31.3,9.9
				c-6.4-0.2-22.8-10.8-22.8-10.8s1.1,2.9,2.6,5.3c-18.5-8-28.3-19.3-18.7-34.5c-3.5,0.7-5.1,2.5-5.1,2.5s1.9-11.9,17.3-18.1
				c-8.6-1.5-11.2,1.4-11.2,1.4s1.3-6.9,14.1-10.5c-5.8-2.2-9.3-0.7-9.3-0.7s10.9-12.3,33.3-1.1c16,9.8,14.9,6.3,23.3,4.6
				c8.4-1.7,17.3,0.8,17.3,0.8C747,288.9,745.8,291.6,745.8,291.6z"/>
			<g>
				<path class="st26" d="M750.4,265.3c-0.3,6.8,1.6,12.4,4.3,12.5c2.7,0.2,5.1-5.2,5.5-11.9c0.3-6.8-1.6-12.4-4.3-12.5
					C753.2,253.2,750.7,258.5,750.4,265.3z"/>
				<path class="st2" d="M755.5,259.2c-0.1,2,0.5,3.6,1.2,3.7c0.8,0.1,1.5-1.5,1.6-3.5s-0.5-3.6-1.2-3.7
					C756.3,255.7,755.6,257.2,755.5,259.2z"/>
			</g>
			<g>
				<path class="st26" d="M691.4,255.5c-0.8,6.7,0.8,12.5,3.5,12.9s5.5-4.7,6.2-11.4c0.8-6.7-0.8-12.5-3.5-12.8
					C694.9,243.6,692.2,248.8,691.4,255.5z"/>
				<path class="st2" d="M696.8,249.8c-0.2,2,0.2,3.6,1,3.8c0.8,0.1,1.6-1.4,1.8-3.3c0.2-2-0.2-3.6-1-3.8
					C697.9,246.4,697,247.9,696.8,249.8z"/>
			</g>
			<path class="st27" d="M770,248c0,0,0.1-11.4-23,4c-0.7-3-0.7-3-0.7-3S770.6,208.6,770,248z"/>
			<path class="st27" d="M713.8,242.9c0,0-12.6-16.8-32-14.3c0,0,6.9-16.5,17.8-12.9c9.4,5.4,12,15.6,14.5,22.4
				C715.5,242.6,714.7,243.7,713.8,242.9z"/>
			<path class="st28" d="M729.3,266.3c0.4,0,0.8,0,1.2,0c0.4,0.1,0.8,0.1,1.2,0.1c0.8,0.1,1.6,0.3,2.4,0.6c0.4,0.1,0.8,0.3,1.1,0.4
				c0.4,0.2,0.8,0.3,1.1,0.5c0.4,0.2,0.7,0.4,1,0.7c0.3,0.3,0.7,0.5,0.9,0.8c0.3,0.3,0.6,0.6,0.8,1l0.6,1.1l0.4,1.2
				c0.2,0.4,0.2,0.8,0.3,1.3c0.1,0.4,0.2,0.8,0.2,1.3v1.3c0,0.5-0.1,0.9-0.1,1.3l-0.1,1.3v-0.1c-0.2,0.6-0.4,1.1-0.8,1.6
				c-0.3,0.5-0.7,1-1,1.5c-0.4,0.5-0.8,0.9-1.2,1.3c-0.5,0.4-0.9,0.8-1.4,1.1c-0.5,0.3-1,0.7-1.5,0.9l-0.8,0.4l-0.8,0.3
				c-0.5,0.2-1.1,0.4-1.6,0.6c-0.6,0.2-1.1,0.3-1.7,0.4l-0.9,0.2l-0.9,0.1c-0.6,0-1.2,0.1-1.7,0c-0.6-0.1-1.2,0-1.7-0.2
				c-0.6-0.1-1.1-0.2-1.7-0.3c-0.6-0.2-1.1-0.4-1.7-0.5c-0.6-0.2-1.1-0.4-1.7-0.7c-0.6-0.2-1.1-0.5-1.6-0.8l-1.6-0.9l1.5,1.1
				c0.5,0.4,1,0.7,1.6,1c0.5,0.3,1.1,0.6,1.6,0.8c0.6,0.2,1.1,0.5,1.7,0.7c0.6,0.2,1.2,0.3,1.8,0.5s1.2,0.2,1.8,0.3
				c0.6,0.1,1.2,0.1,1.8,0.1h0.9l0.9-0.1c0.6-0.1,1.2-0.2,1.8-0.3c0.6-0.2,1.2-0.3,1.8-0.6l0.9-0.3l0.8-0.5c0.6-0.3,1.1-0.6,1.6-1
				c0.6-0.3,1-0.8,1.5-1.2c0.5-0.4,0.9-0.9,1.4-1.4c0.4-0.5,0.8-1.1,1.2-1.7s0.6-1.3,0.9-1.9v-0.1v-0.1l0.1-1.4c0-0.5,0.1-1,0.1-1.5
				l-0.1-1.5c0-0.5-0.1-1-0.2-1.5c-0.1-0.5-0.2-1-0.4-1.4l-0.6-1.4c-0.3-0.4-0.5-0.8-0.8-1.2c-0.3-0.4-0.6-0.7-1-1
				c-0.3-0.4-0.7-0.6-1.1-0.8c-0.4-0.3-0.8-0.5-1.1-0.6c-0.4-0.2-0.8-0.4-1.2-0.5s-0.8-0.2-1.2-0.3c-0.8-0.2-1.7-0.3-2.5-0.3
				C731,266.2,730.1,266.2,729.3,266.3z"/>
			<g>
				<path class="st29" d="M732.5,325c-2.6,1.2-6.3,1.8-12.1,1.7c-7.2-0.6-11.5-2.5-15.1-6.7C720.7,316.2,729.1,321.9,732.5,325z"/>
				<path class="st2" d="M719.2,315.3c-11-2.6-17-4.3-21.6-8.7c-1.6-3.6-3.4-7.8-5.5-12.7c19,12.5,36.8,14.6,46.7,14.6
					C736.8,311.8,731.1,318.1,719.2,315.3z"/>
				<path class="st30" d="M719.2,315.3c11.9,2.8,17.5-3.4,19.7-6.8c5.1,0,8.1-0.6,8.1-0.6s-5.3,3.4-8,9c-1.6,3.4-2.8,6.3-6.6,8.1
					c-3.3-3.1-11.7-8.8-27.2-5c-2.6-3.1-4.9-7.5-7.6-13.5C702.3,311,708.2,312.6,719.2,315.3z"/>
			</g>
			<path class="st28" d="M633.2,271.5c-1.8-1.1-4.2,1.1-5.1,2.7c-1.6,2.9-1.9,5.8-1.6,9.2h0.1c0.2-2.5,0.7-4.7,1.9-6.9
				c2.5-5,6.4-0.5,8.1,2.3c0.3,0.5,0.6,1.1,0.8,1.6c0,1.6-0.2,3.2-0.6,4.7c-0.8,3.1-4.3,6.4-7.1,4c0,0-0.1,0,0,0
				c2,2.4,5.3,0.8,6.9-1.3c0.9-1.2,1.6-3,1.8-4.9c1,3.2,1.4,6.8,1.8,10.1c0,0.4,0.5,0.1,0.5-0.2
				C640.7,285.3,639.6,275.5,633.2,271.5z"/>
			<path class="st28" d="M804.9,279.4c2-0.6,3.9,2.1,4.4,3.9c1,3.2,0.7,6.1-0.2,9.3c0,0.1-0.1,0-0.1,0c0.2-2.5,0.2-4.8-0.5-7.2
				c-1.5-5.5-6.2-2.1-8.3,0.3c-0.4,0.4-0.8,0.9-1.1,1.4c-0.3,1.5-0.5,3.2-0.4,4.7c0.2,3.2,3,7.3,6.2,5.7c0,0,0.1,0,0,0
				c-2.4,1.8-5.3-0.6-6.5-2.9c-0.7-1.4-1-3.3-0.8-5.2c-1.6,2.9-2.7,6.3-3.7,9.5c-0.1,0.3-0.5-0.1-0.5-0.3
				C795,291.1,797.9,281.8,804.9,279.4z"/>
			<path class="st31" d="M813.2,165.4c0,0,12.1-28.5,6.7-33.9c-5.4-5.4-47-25.3-99.8-26s-88.9,8.3-94,15.2c-3.5,5.8,8,38.4,8,38.4
				L813.2,165.4z"/>
			<path class="st32" d="M808,181.4l5.3-16c0,0-79.7-16.3-178.9-7.6c3.7,16,3.2,17.8,3.2,17.8L808,181.4z"/>
			<path class="st31" d="M857.7,225.7c0,0-123.8-59.4-268-3.1c0,0,27.4-30.1,48.2-47.9c76-15.1,170,6.6,170,6.6
				S840.2,205.3,857.7,225.7z"/>
		</g>
	</g>
	<g>
		<g>
			<defs>
				<polygon id="SVGID_25_" points="1,1 2,1 1,2 				"/>
			</defs>
			<defs>
				<polygon id="SVGID_26_" points="-1,-1 -2,-1 -1,-2 				"/>
			</defs>
			<clipPath id="SVGID_27_">
				<use xlink:href="#SVGID_25_"  style="overflow:visible;"/>
			</clipPath>
			<clipPath id="SVGID_28_" class="st33">
				<use xlink:href="#SVGID_26_"  style="overflow:visible;"/>
			</clipPath>
			
				<radialGradient id="SVGID_29_" cx="142.5956" cy="609.4734" r="124.815" gradientTransform="matrix(-1 0 0 -1.1314 1000.2926 778.8346)" gradientUnits="userSpaceOnUse">
				<stop  offset="2.215490e-03" style="stop-color:#FFFFFF"/>
				<stop  offset="0.1427" style="stop-color:#FCFCFC"/>
				<stop  offset="0.2555" style="stop-color:#F2F2F2"/>
				<stop  offset="0.3586" style="stop-color:#E1E1E1"/>
				<stop  offset="0.456" style="stop-color:#C9C9C9"/>
				<stop  offset="0.5494" style="stop-color:#AAAAAA"/>
				<stop  offset="0.6397" style="stop-color:#858585"/>
				<stop  offset="0.726" style="stop-color:#595959"/>
				<stop  offset="0.7537" style="stop-color:#494949"/>
				<stop  offset="0.8872" style="stop-color:#232323"/>
				<stop  offset="1" style="stop-color:#000000"/>
			</radialGradient>
			<path class="st34" d="M727.7,108c0,0,86.1,13.9,87.6,29.9s-6.1,21.6-19.1,19.9c-13-1.7-64.3-8.2-64.3-8.2L727.7,108z"/>
		</g>
	</g>
	<g>
		<g>
			<defs>
				<polygon id="SVGID_30_" points="1,1 2,1 1,2 				"/>
			</defs>
			<defs>
				<polygon id="SVGID_31_" points="-1,-1 -2,-1 -1,-2 				"/>
			</defs>
			<clipPath id="SVGID_32_">
				<use xlink:href="#SVGID_30_"  style="overflow:visible;"/>
			</clipPath>
			<clipPath id="SVGID_33_" class="st35">
				<use xlink:href="#SVGID_31_"  style="overflow:visible;"/>
			</clipPath>
			
				<radialGradient id="SVGID_34_" cx="151.9103" cy="510.1165" r="69.3517" gradientTransform="matrix(-1 0 0 -1.1314 1000.2926 778.8346)" gradientUnits="userSpaceOnUse">
				<stop  offset="2.215490e-03" style="stop-color:#FFFFFF"/>
				<stop  offset="0.1427" style="stop-color:#FCFCFC"/>
				<stop  offset="0.2555" style="stop-color:#F2F2F2"/>
				<stop  offset="0.3586" style="stop-color:#E1E1E1"/>
				<stop  offset="0.456" style="stop-color:#C9C9C9"/>
				<stop  offset="0.5494" style="stop-color:#AAAAAA"/>
				<stop  offset="0.6397" style="stop-color:#858585"/>
				<stop  offset="0.726" style="stop-color:#595959"/>
				<stop  offset="0.7537" style="stop-color:#494949"/>
				<stop  offset="0.8872" style="stop-color:#232323"/>
				<stop  offset="1" style="stop-color:#000000"/>
			</radialGradient>
			<path class="st36" d="M783,208.4c0,0,14.8,27.5,13.7,57.7c11-13.3,10.7-25.4,10.7-25.4l9.1,11.6l-4.6-25l9.1,9
				c0,0-5.3-15.5-15.2-24.1C791.8,209.7,783,208.4,783,208.4z"/>
		</g>
	</g>
	<g>
		<g>
			<defs>
				<polygon id="SVGID_35_" points="1,1 2,1 1,2 				"/>
			</defs>
			<defs>
				<polygon id="SVGID_36_" points="-1,-1 -2,-1 -1,-2 				"/>
			</defs>
			<clipPath id="SVGID_37_">
				<use xlink:href="#SVGID_35_"  style="overflow:visible;"/>
			</clipPath>
			<clipPath id="SVGID_38_" class="st37">
				<use xlink:href="#SVGID_36_"  style="overflow:visible;"/>
			</clipPath>
			
				<radialGradient id="SVGID_39_" cx="162.4881" cy="201.2334" r="92.2432" gradientTransform="matrix(-1 0 0 -1.1314 1000.2926 778.8346)" gradientUnits="userSpaceOnUse">
				<stop  offset="2.215490e-03" style="stop-color:#FFFFFF"/>
				<stop  offset="0.1427" style="stop-color:#FCFCFC"/>
				<stop  offset="0.2555" style="stop-color:#F2F2F2"/>
				<stop  offset="0.3586" style="stop-color:#E1E1E1"/>
				<stop  offset="0.456" style="stop-color:#C9C9C9"/>
				<stop  offset="0.5494" style="stop-color:#AAAAAA"/>
				<stop  offset="0.6397" style="stop-color:#858585"/>
				<stop  offset="0.726" style="stop-color:#595959"/>
				<stop  offset="0.7537" style="stop-color:#494949"/>
				<stop  offset="0.8872" style="stop-color:#232323"/>
				<stop  offset="1" style="stop-color:#000000"/>
			</radialGradient>
			<path class="st38" d="M778.5,516.7c0,0,0.2,40.3-8.7,48.2c-8.9,8-37.7,8-37.7,8s20.5-8.7,23-57.2
				C765.9,516.4,767.6,515.9,778.5,516.7z"/>
		</g>
	</g>
	<g>
		<g>
			<defs>
				<polygon id="SVGID_40_" points="1,1 2,1 1,2 				"/>
			</defs>
			<defs>
				<polygon id="SVGID_41_" points="-1,-1 -2,-1 -1,-2 				"/>
			</defs>
			<clipPath id="SVGID_42_">
				<use xlink:href="#SVGID_40_"  style="overflow:visible;"/>
			</clipPath>
			<clipPath id="SVGID_43_" class="st39">
				<use xlink:href="#SVGID_41_"  style="overflow:visible;"/>
			</clipPath>
			
				<radialGradient id="SVGID_44_" cx="157.0355" cy="59.0487" r="122.987" gradientTransform="matrix(-1 0 0 -1.1314 1000.2926 778.8346)" gradientUnits="userSpaceOnUse">
				<stop  offset="2.215490e-03" style="stop-color:#FFFFFF"/>
				<stop  offset="0.1427" style="stop-color:#FCFCFC"/>
				<stop  offset="0.2555" style="stop-color:#F2F2F2"/>
				<stop  offset="0.3586" style="stop-color:#E1E1E1"/>
				<stop  offset="0.456" style="stop-color:#C9C9C9"/>
				<stop  offset="0.5494" style="stop-color:#AAAAAA"/>
				<stop  offset="0.6397" style="stop-color:#858585"/>
				<stop  offset="0.726" style="stop-color:#595959"/>
				<stop  offset="0.7537" style="stop-color:#494949"/>
				<stop  offset="0.8872" style="stop-color:#232323"/>
				<stop  offset="1" style="stop-color:#000000"/>
			</radialGradient>
			<path class="st40" d="M776.1,590.2c0,0,8.3,115,1.5,176.8c-23.9,2.9-23.9,2.9-23.9,2.9l-11.1-175.6L776.1,590.2z"/>
		</g>
	</g>
	<g>
		<g>
			<defs>
				<polygon id="SVGID_45_" points="1,1 2,1 1,2 				"/>
			</defs>
			<defs>
				<polygon id="SVGID_46_" points="-1,-1 -2,-1 -1,-2 				"/>
			</defs>
			<clipPath id="SVGID_47_">
				<use xlink:href="#SVGID_45_"  style="overflow:visible;"/>
			</clipPath>
			<clipPath id="SVGID_48_" class="st41">
				<use xlink:href="#SVGID_46_"  style="overflow:visible;"/>
			</clipPath>
			
				<radialGradient id="SVGID_49_" cx="164.3648" cy="-69.4414" r="91.1574" gradientTransform="matrix(-1 0 0 -1.1314 1000.2926 778.8346)" gradientUnits="userSpaceOnUse">
				<stop  offset="2.215490e-03" style="stop-color:#FFFFFF"/>
				<stop  offset="0.1427" style="stop-color:#FCFCFC"/>
				<stop  offset="0.2555" style="stop-color:#F2F2F2"/>
				<stop  offset="0.3586" style="stop-color:#E1E1E1"/>
				<stop  offset="0.456" style="stop-color:#C9C9C9"/>
				<stop  offset="0.5494" style="stop-color:#AAAAAA"/>
				<stop  offset="0.6397" style="stop-color:#858585"/>
				<stop  offset="0.726" style="stop-color:#595959"/>
				<stop  offset="0.7537" style="stop-color:#494949"/>
				<stop  offset="0.8872" style="stop-color:#232323"/>
				<stop  offset="1" style="stop-color:#000000"/>
			</radialGradient>
			<path class="st42" d="M787.4,782.5c0,0-4.3,46.3-4.7,92.1c1.3,24.6-21.7,27-23-7.7s-1.3-83.9-1.3-83.9L787.4,782.5z"/>
		</g>
	</g>
	<g>
		<g>
			<defs>
				<polygon id="SVGID_50_" points="1,1 2,1 1,2 				"/>
			</defs>
			<defs>
				<polygon id="SVGID_51_" points="-1,-1 -2,-1 -1,-2 				"/>
			</defs>
			<clipPath id="SVGID_52_">
				<use xlink:href="#SVGID_50_"  style="overflow:visible;"/>
			</clipPath>
			<clipPath id="SVGID_53_" class="st43">
				<use xlink:href="#SVGID_51_"  style="overflow:visible;"/>
			</clipPath>
			
				<radialGradient id="SVGID_54_" cx="154.4697" cy="287.5661" r="77.2599" gradientTransform="matrix(-1 0 0 -1.1314 1000.2926 778.8346)" gradientUnits="userSpaceOnUse">
				<stop  offset="2.215490e-03" style="stop-color:#FFFFFF"/>
				<stop  offset="0.1427" style="stop-color:#FCFCFC"/>
				<stop  offset="0.2555" style="stop-color:#F2F2F2"/>
				<stop  offset="0.3586" style="stop-color:#E1E1E1"/>
				<stop  offset="0.456" style="stop-color:#C9C9C9"/>
				<stop  offset="0.5494" style="stop-color:#AAAAAA"/>
				<stop  offset="0.6397" style="stop-color:#858585"/>
				<stop  offset="0.726" style="stop-color:#595959"/>
				<stop  offset="0.7537" style="stop-color:#494949"/>
				<stop  offset="0.8872" style="stop-color:#232323"/>
				<stop  offset="1" style="stop-color:#000000"/>
			</radialGradient>
			<path class="st44" d="M804.9,389.8c0,0,12.1,7.2,5.7,42c-6.4,34.7-20.5,79.6-37.7,75.3C755.7,502.7,781.2,374.6,804.9,389.8z"/>
		</g>
	</g>
</g>
<g>
	<g>
		<path class="st45" d="M421.9,726c-8.6-0.7-16.8-2.5-25.4-3c-8.1-0.6-16.5-0.2-24.6,0.3c-16.7,1.2-33.3,4.9-49.2,9.7
			c-15.6,4.8-30.6,10.8-45.1,18.2c-13.7,6.9-26.9,14.7-38.7,24.2c-13.7,11.2-24.6,25.5-31.8,40.9c-2.9,6.3-5,12.8-6.9,19.4
			c0.6-2.5,1.3-5,2.2-7.5c2.7-7.7,5.8-15.4,9-23c6.2-14.6,13.8-28.8,23.2-42c9.1-12.9,19.7-24.8,32.3-34.9c12.6-9.9,25-19.6,40-26.4
			c6.2-2.8,12.7-5.2,19.2-7.2c3.7-1.2,7.7-2.5,11.5-3.4c2.5-0.6,5.3-1,7.7-2c0.4-0.2,0.4-0.7-0.1-0.5c-3.1,1.2-6.9,1.6-10.2,2.4
			c-4.3,1.1-8.5,2.1-12.7,3.2c-7.4,2.1-14.8,4.6-21.8,7.6c-14.5,6.3-27.6,15.3-39.9,24.7c-12.9,9.9-23.6,21.9-32.7,34.9
			c-9.3,13.1-16.8,27.4-22.1,42.2c-4.3,12.2-7.8,24.6-9.3,37.4c0-2.5,0-5,0-7.5c0.2-2.5,0.4-5,0.5-7.5c0.8-8.1,1.9-16.1,3.3-24
			c2.9-15.9,7-31.5,13.1-46.6c5.9-14.5,13.5-28.1,22.9-41.1c9.5-13.2,20.8-25,33.8-35.5c6.3-5.2,12.9-10.1,20-14.5
			c3.5-2.2,7-4.4,10.7-6.4c4-2.3,8.4-3.9,12.6-5.8c0.2-0.1,0.3-0.5-0.1-0.3c-3.7,1.6-7.5,2.6-11,4.4c-3.7,1.9-7.5,3.9-11.1,5.9
			c-7.2,4-14.1,8.5-20.7,13.4c-13,9.6-24.7,20.7-34.7,33c-9.8,12.2-18.1,25.6-24.4,39.6c-6.5,14.6-11.2,29.6-14.6,45
			c0.2-2.1,0.3-4.2,0.4-6.2c1.4-16.4,2.2-32.9,2.9-49.3c1.5-31.9,4.9-64,12.2-95.3c0.4-1.8,0.9-3.6,1.3-5.3
			c-0.8,2.1-1.6,4.2-2.3,6.2c-2.3,6.3-4.6,12.6-6.4,19.1c-2.7,9.5-4.2,19.3-6.3,28.9c-1.2,8.7-2,17.4-2.9,26.1
			c-1.4,16.3-1.7,32.6-2.7,49c-0.3,4.8-0.5,9.6-0.7,14.5c-0.7-6.2-1.4-12.3-2.3-18.5c-1.2-7.8-2.8-15.5-5-23.1
			c-2.2-7.5-4-15-6.6-22.3c-2.7-7.6-5.5-15-8.8-22.3c-3.2-7.1-7.8-13.8-12.2-20.3c-4.5-6.7-9.4-13.6-15.4-19.1
			c-3.3-3-7.1-5.5-10.8-8.1c-3.6-2.5-6.9-5.3-10.7-7.6c-0.1,0-0.1,0.1-0.1,0.1c6.2,4.7,12,10.4,17.7,15.5
			c5.9,5.3,10.4,12.4,14.6,18.9c2.1,3.3,4.1,6.6,6.1,9.9c2.1,3.5,4.5,6.8,6.1,10.4c3.5,7.2,6.3,14.8,9,22.3
			c2.8,7.7,4.5,15.7,6.9,23.5c2.3,7.6,3.9,15.3,5.2,23c1.3,7.9,2,15.9,3,23.8c1,7.8,2,15.7,2.6,23.6c0.1,0.7,0.1,1.5,0.2,2.2
			c0,2.1,0.1,4.3,0.2,6.5c-0.2-1.2-0.4-2.3-0.6-3.5c-2.9-15.5-7-30.4-13.9-44.9c-6.3-13.5-14-26.9-24.5-38.1
			c-10.2-10.8-23.5-18.2-38.6-22c-2.6-0.7-5.3-1-8-1.2c-1.5-0.2-2.9-0.3-4.5-0.3c-1.4,0-2.8,0.2-4.2-0.2c-0.2-0.1-0.4,0.2-0.2,0.2
			c1.1,0.4,2.2,0.4,3.4,0.5c1.7,0.1,3.4,0.5,5.1,0.8c4.3,0.7,8.4,2.1,12.4,3.7c7.2,2.8,13.8,6.8,19.9,11.3
			c12.7,9.1,21.4,22.6,28.6,35.6c7.8,14,13.8,28.8,17.5,44.3c1.6,6.7,3,13.6,4.3,20.5c-0.1-0.2-0.2-0.3-0.2-0.5
			c-1.2-2.5-2.4-5.2-3.7-7.7c-0.4-1.2-0.9-2.5-1.2-3.8c-2-7-5.6-13.8-9.4-20.1c-3.6-6.2-8.2-12-13.4-17.2
			c-5.3-5.3-11.3-9.4-17.3-13.9c-6-4.6-13.1-7.6-20.6-9.4c-7.6-1.9-15.5-2.3-23.3-1.8c-7.8,0.6-15.6,3.9-22.5,7
			c-18.6,8.5-34.3,23.2-45.7,39.1c-5.8,8.1-9.9,17.3-13,26.6c-1.5,4.5-2.9,9-3.7,13.7c-0.9,4.8-1.4,9.8-2.6,14.5
			c-0.1,0.2,0.4,0.2,0.4,0c2.2-7.2,3.1-14.7,5.5-21.9c2.6-7.6,5.9-14.6,9.7-21.7c7.2-13.6,18.8-25.6,31.3-35.3
			c6.1-4.8,13-8.8,20.4-11.9c7.7-3.3,15.5-5.8,24-5.8c8.3-0.1,16.4,1.2,24.1,3.9c7.5,2.7,13.5,7.4,19.9,11.7
			c6.6,4.5,12.6,9.9,17.6,15.9c4.7,5.7,8.4,11.8,11.8,18.2c-4.5-5.1-10.2-8.7-16.6-11.6c-7.1-3.3-15.1-4.4-23-4.8
			c-3.5-0.2-6.7-0.5-10.1-0.1c-4.2,0.6-8.3,1.5-12.3,2.6c-14.9,4.3-27.5,13.9-37.1,25.1C71.8,824,67.2,832,64,840.7
			c-0.2,0.5,0.5,0.4,0.7,0.1c3-7.1,7.1-13.8,12.2-19.9c5.1-6.1,11.1-10.8,17.6-15.5c6.6-4.9,13.6-8.5,21.7-10.7
			c3.7-1.1,7.6-1.7,11.4-2.3c3.9-0.6,8.1,0.2,12,0.3c4,0.1,8.3,1.3,12.1,2.1c3.9,0.9,8.2,2.7,11.7,4.6c7.1,3.8,12.6,9.7,16.5,16.3
			c2.5,4.1,4.8,8.5,6.9,12.9c0.4,1.3,0.9,2.7,1.2,4c0.7,2.6,1.2,5.3,1.8,8c-2.4-6.2-5.5-12.2-10.9-16.8c-2.8-2.4-5-4.9-8.3-7
			c-3.2-2-6.7-3.5-10.3-4.8c-3.6-1.2-7.2-1.8-10.9-2.6c-4-0.9-8.1-1.4-12.3-1.5c-7.5-0.1-15.8,2.6-22.1,6.2
			c-6.5,3.7-11.8,8.6-16.2,14.4c-4.4,5.8-7.5,12.2-10.5,18.6c-3.3,7.1-5.9,14-7.4,21.5c-1.5,7.4-3,14.8-2.4,22.3
			c1.9-9.1,3.7-18.2,6.4-27.1c3.5-11.6,8.1-23.1,15.9-32.9c3.7-4.6,7.8-9,13.1-12.1c4.7-2.8,10.1-4.6,15.6-5.3
			c9.2-1.2,18.6,0.5,27.1,3.8c3.8,1.1,7.6,2.4,11.2,4.3c3.4,1.7,5.8,4.7,8.6,7.1c2.7,2.2,4.7,4.8,6.6,7.7c1.5,1.8,2.9,3.8,4,5.8
			c1.6,2.7,2.9,5.4,4,8.2c0.2,1.6,0.4,3.3,0.4,4.9h6.5c2.3-3.9,4.4-8.1,6.7-11.8c2-3.3,4-6.5,6.5-9.4c2.6-3,5.6-5.7,8.5-8.4
			c11.5-11,25.3-18.9,40.7-24.5c13.7-5,28.8-7.7,43.5-7.5c7.4,0.1,14.8,1.2,21.9,3c7.2,2,13.8,5.3,20.7,8.1c5.2,2.2,10.4,5.3,14.4,9
			c2.2,2.1,4.1,4.7,5.8,7.1c1.5,2.2,3.5,4.1,4.6,6.5c0.1,0.2,0.6-0.1,0.5-0.3c-0.9-2.9-2.8-5.3-4-8.1c-1.5-3.2-3.2-6.3-5.5-9.1
			c-2.1-2.5-5.3-4.4-8-6.3c-3.1-2.2-6.8-3.6-10.3-5.3c-6.7-3-12.9-5.9-20.1-7.6c-7-1.6-14.3-2.3-21.5-2.4c-14.6-0.2-29,2.6-42.7,7.4
			c-15.1,5.3-29.5,13.1-40.9,23.7c-6.2,5.8-11.7,12.2-15.4,19.6c-1.4,2.9-2.9,5.8-4.2,8.8c2.2-7.1,5.2-14.1,7.8-21.1
			c5.4-14,14-27.5,24.6-38.8c10.2-10.9,23.6-19.6,36.8-27.1c13.9-7.9,28.6-14.8,43.7-20.5c17-6.4,35-11.3,53.2-13.9
			c9.4-1.3,19-1.8,28.4-1.8C403.1,724.7,412.4,725.8,421.9,726C421.9,726.1,422.1,726,421.9,726z"/>
		<path class="st46" d="M370.8,788.4c-1.2-0.8-1.8-2.1-3-3c-1.3-1-2.6-2.1-4-3c-3.2-2.1-7-3.3-10.8-4.3c-7.8-2.1-16.1-2.1-24.1-2
			c-15.6,0.2-30.8,3.1-45.3,8.1c-14.7,5.1-28.9,12.4-40.7,22c-6.1,5-12.3,10.4-17.5,16.3c-5.1,5.9-10.4,12.4-14.1,19.1
			c-3.7,7.1-7.6,14.2-10.7,21.6c-0.3,0.2-0.4,0.4-0.7,0.7c0.1-0.5,0.2-0.9,0.2-1.4c0.5-3.8,1.2-7.6,2-11.3c0.8-3.6,1.6-7.2,2.4-10.8
			c2.8-6.9,6.1-13.6,9.2-20.4c3.2-7,6.8-13.4,11.6-19.6c4.7-6.1,10.5-11.5,16.3-16.8c11.8-10.6,25-20.2,39.5-27.6
			c7.4-3.8,15.3-6.9,23.1-10.2c8.2-3.5,17-5.8,25.7-7.8c4-1,8.1-1.7,12.2-2.4c0.4-0.1,0.5-0.7,0.1-0.7c-8.6,1-16.9,2.7-25.3,4.7
			c-3.7,0.9-7.5,1.8-11.1,3c-4.2,1.4-8.2,3.1-12.4,4.4c-15.5,4.8-29.7,12.9-42.4,22.2c-12.9,9.4-24.1,20.4-33.7,32.8
			c-1,1.3-2,2.7-2.9,4.1c0.1-0.2,0.2-0.5,0.3-0.7c2.4-7.6,5.3-14.6,9.4-21.6c3.9-6.7,7.8-13.5,12.3-20c4.5-6.5,9.4-12.6,14.5-18.6
			c5-6,11.4-11.2,17.6-16.1c6.2-4.9,13-9.3,20-13.2c6.1-3.5,12.5-6.8,19.1-9.5c6.5-2.7,13.4-5.5,20.4-6.8c0.2,0,0.4-0.4,0.1-0.4
			c-7.8,1.2-15.3,4.1-22.5,6.7c-7.6,2.8-14.9,6.5-21.9,10.3c-13.9,7.4-26.5,16.7-37.1,27.8c-10.9,11.5-19.2,24.8-27.1,38.1
			c-4.1,6.9-7.2,13.8-9.7,21.3c-2.3,7.3-5,14.6-6.9,22c-1.1,3.9-2,8-2.7,12c-0.8,2.1-1.5,4.2-2.2,6.3c-0.2,0.7-0.4,1.3-0.5,1.9
			c-0.1-2.6-0.4-5.3-0.6-7.8c0.2-4.3,0.4-8.5,0.8-12.7c1.6-16.2,4.5-32.2,7.4-48.2c1.3-7.5,2.7-15.1,4.9-22.4
			c2.1-7.3,5.3-14.5,8.4-21.5c3.1-7,6.5-13.9,10.7-20.4c4.2-6.5,9.2-12.7,14.2-18.6c4.1-4.8,8.5-9.2,13.1-13.5
			c4.5-4.3,9.9-7.9,14.6-12.1c0.4-0.3-0.1-0.7-0.4-0.4c-6.3,5.2-13.1,9.8-19.4,15c-6,4.8-11.4,10.2-16.6,15.8
			c-10.8,11.8-19.6,24.6-26.5,38.7c-3.4,7.1-6.3,14.3-8.5,21.8c-2.1,7.6-3.4,15.3-4.8,23c-1,5.5-2,11.1-2.8,16.7
			c-1.5-13.3-3.3-26.6-4.8-40c-1.9-16.2-3.1-32.5-5.4-48.6c-2.3-15.7-3.9-31.7-5-47.6c-0.6-8.2-1.2-16.3-2.1-24.6
			c0-0.3-0.5,0-0.5,0.2c0.8,16.1,0.8,32.2,1.9,48.3c1.1,16.2,2.9,32.4,4.3,48.6c1.4,16.3,3.3,32.5,5.3,48.6
			c1.4,11.3,2.8,22.6,4.2,33.8c-0.1,0.8-0.2,1.6-0.2,2.4c-2.5-13.5-5.8-26.9-9.4-40.1c-4.2-15.2-9.7-30-17.1-44.1
			c-7-13.4-15.8-25.7-25.5-37.6c-7.8-9.4-18.4-17-28.9-23.6c-10.3-6.5-22.6-10.2-34.7-12.6c-0.1,0-0.2,0.2-0.1,0.2
			c8,2.1,15.7,4.9,23,8.5c7.6,3.7,14.3,8.6,20.7,13.8c6.2,4.9,12.4,10.1,17.4,16.2c5,6.2,9.5,12.7,14.1,19.1
			c9.2,12.8,15.6,27.2,21.2,41.6c1.2,3.2,2.4,6.4,3.5,9.6c-4.9-11.2-10.6-22-17.9-32c-8.6-11.8-19.1-23.5-31.2-32.4
			c-9.4-6.8-20-12.6-31.4-15.9c-5.5-1.6-11.4-2.3-17.2-2.5c-2.9-0.1-6-0.2-8.9-0.1c-1.2,0.1-2.3,0.3-3.4,0.7
			c-1.5,0.3-3.1,1.3-4.6,1.3c-0.1,0-0.2,0.2-0.1,0.2c1.4,0.2,2.5-0.3,3.9-0.5c1.8-0.2,3.7-0.2,5.5-0.1c4.5,0.5,8.8,0.7,13.2,1.6
			c8.2,1.6,15.4,4.9,22.8,8.5c14.3,7.1,26.2,17.5,36.3,29c10.6,11.9,18.9,24.8,26,38.7c7.4,14.5,14.2,30.2,17.6,45.9
			c0.4,1.6,0.6,3,1,4.6c0.5,2.8,1.1,5.6,1.6,8.4c-2-7.3-3.8-14.6-6.3-21.7c-2.5-7.1-6.1-13.6-10.3-19.8
			c-16-23.7-41.5-43.1-72.4-46.4c-9.6-1-19.8-1-29.5,0.1c-4.9,0.6-9.8,1.5-14.5,2.8c-3.6,1-7,2-9.7,4.4c0,0,0,0.1,0,0
			c2.9-2.4,6.7-3,10.4-3.7c4.4-0.9,8.9-1.3,13.4-1.5c8.2-0.4,16.5,0,24.7,0.8c15.8,1.6,30.6,7.3,43.5,16
			c12.5,8.4,22.8,19.8,30.9,31.8c7.3,10.8,11.5,22.8,15.1,34.9c-0.4-0.7-0.7-1.4-1.1-2.1c-7.3-13.6-15.7-26.5-27.6-37.1
			c-11.3-10-24.4-17.1-39.9-19.8c-15.4-2.7-30.6-0.4-45,5.3c-16.7,6.7-30.2,18.6-41,32c-5.6,7-10.4,14.6-14.6,22.4
			c-2.2,4.2-4.3,8.4-6,12.8c-1.7,4.3-2.4,8.8-3.6,13.2c0,0.1,0.1,0.1,0.2,0c1.2-3.5,2.2-7,3.4-10.5c1.3-4,3.6-8,5.5-11.7
			c3.5-6.5,7.5-12.7,11.8-18.7c8.5-11.6,18.6-22.2,31.2-30.2c13.2-8.3,29.5-13.1,45.5-12.7c16.1,0.3,31.9,6.2,44.1,15.8
			c6.4,5,12.4,10.6,17.6,16.8c5.5,6.4,10,13.6,14.2,20.9c1.1,1.9,2.1,3.8,3.1,5.8c-0.2-0.2-0.4-0.6-0.5-0.8
			c-4.2-5.9-9-12.1-14.7-16.8c-5.5-4.7-11.9-8.4-19-10.9c-7.2-2.6-14.8-4.1-22.5-4.2c-8.2-0.1-16.7,0-24.5,2.1
			c-15.3,4-28.7,12.5-38.4,24.2c-6.9,8.2-12.2,17.6-16.4,27.2c-2.2,5.1-4.1,10.3-5.5,15.5c-1.3,4.8-2.8,9.9-2.6,14.8
			c0,0.1,0.2,0,0.2-0.1c0.3-3.8,1.5-7.5,2.6-11.2c1.1-3.9,2.5-7.6,4-11.3c3-7.3,6.5-14.5,10.8-21.3c4.1-6.5,8.8-12.7,14.6-18.1
			c5.6-5.2,13.2-9.4,20.5-12.2c7.8-3,16.6-4,24.9-4c8.2,0,15.9,0.2,23.9,2.2c7.4,1.9,14.5,4.9,20.7,9.2c6.4,4.5,11.4,9.9,16.4,15.8
			c4.5,5.3,7.8,11.4,10.7,17.5c-1.1-1.3-2.1-2.7-3.1-4c-2.2-3-5.1-5.5-7.7-8.3c-2.5-2.6-5.2-4.8-8.4-6.6c-1.6-0.9-3.3-1.6-5-2.2
			c-2-0.7-3.7-2.1-5.7-3c-6.9-3-16-2.1-23.4-1.5c-15.2,1.5-29.8,8.5-39.6,19.6c-5.1,5.8-8.7,12.4-12.2,19
			c-3.6,6.7-6.7,13.4-8.6,20.7c-1.2,4.2-2.7,8.3-2.8,12.7c0,0.1,0.2,0.1,0.2,0c0.3-3.5,1.4-6.8,2.6-10c1.2-3.5,2.4-6.9,3.9-10.3
			c3-7,7.3-13.8,11.6-20.1c4.1-6,8.9-12.1,15-16.5c6.1-4.5,13.8-8.1,21.5-9.8c7.9-1.7,16.5-2.2,24.6-1.3c4.1,0.4,7.4,2,11.1,3.5
			c1.7,0.7,3.6,1.1,5.2,1.8c2.3,1,4.3,2.3,6.1,3.9c5.7,5.1,11,10.8,15.1,17.1c2.1,3.2,3.6,7.1,4.6,10.8c0.1,0.3,0.2,0.7,0.3,1
			c0,0.2,0,0.2,0,0.4c0.1,1.4,0.2,2.7,0.4,4.1c0.1,0.7,0.4,1.5,0.4,2.3c-0.4-0.9-0.7-2-1.1-2.9c-0.7-1.9-2-3.4-3.4-4.8
			c-2.9-2.9-6.8-4.8-10.5-6.4c-4.2-1.9-8.5-3.5-13-4.7c-4.6-1.2-9.5-1.2-14.3-0.5c-8.8,1.2-18.1,5-25.5,9.6
			c-7.2,4.4-13.1,10.4-16.7,17.7c-0.4,0.9,1,0.9,1.3,0.2c4-6.5,9.9-11.5,16.8-15.4c7.4-4.1,15.9-7.5,24.5-8.7
			c9.2-1.3,18.2,1.7,26.5,5c3.7,1.5,7.3,3.2,10.2,5.7c2,1.6,2.9,4.8,4.9,6.6c0,0.5,0.3,0.8,0.6,0.9c0,0.2,0.2,0.4,0.4,0.4
			c0.1,0.2,0.1,0.3,0.1,0.5c0.1,0.2,0.2,0.3,0.4,0.3c0,0.3,0,0.7,0,1c0,0.2,0,0.4,0.1,0.6c-0.2,0.5-0.4,1-0.4,1.5
			c-0.4,1.5,1.7,1.1,2.3,0.5c1.3-1.2,2.7-2.4,4.1-3.5c0.4,0.1,1-0.2,1.3-0.6c0.3-0.4,0.5-0.9,0.9-1.3c1.5-1.4,3-2.7,4.5-4.1
			c4-3.7,8.6-6.6,13.2-9.5c9.1-5.8,20.7-9.4,31.4-11.5c23.3-4.6,49.8-3.5,71.3,6.2c0.3,0.1,0.6-0.3,0.4-0.5c-4.8-3-9.4-5.5-14.9-7.2
			c-5.7-1.8-11.8-3.1-17.7-4c-12.9-1.9-26.5-1.4-39.4,0.8c-11.8,2.1-24,6.4-33.9,12.7c-2.7,1.7-5.3,3.4-7.8,5.3
			c1.3-2.3,2.7-4.5,4.2-6.7c4.4-6.6,8.4-13.3,13.2-19.6c9.4-12.3,21.9-23.1,35.8-31c26.9-15.4,60.9-23.1,92.5-18.4
			c3.5,0.5,6.8,1.4,10,2.7c1.3,0.6,2.5,1.3,3.7,2c1.3,0.7,2.1,1.7,3.5,2.4C370.7,788.7,370.9,788.5,370.8,788.4z M195.2,863.8
			c0.4-0.1,0.9-0.4,1.1-0.8c0-0.1,0.1-0.1,0.1-0.2c-0.1,0.6-0.2,1.2-0.2,1.8c-0.1,0.9-0.1,2-0.1,3c-0.2,0.2-0.4,0.3-0.5,0.6
			C195.7,866.8,195.4,865.2,195.2,863.8z"/>
		<path class="st47" d="M331,848.5c-5.3-4.8-12.1-9.3-19-12.2c-7-3-15-4.8-22.7-5.2c-8.1-0.4-15.9,0.5-23.8,2.1
			c-18.5,3.6-38.8,11.1-53.3,23.3c1.2-1.7,2.4-3.5,3.7-5.2c7.4-9.8,16.7-18,27-25.1c10.3-7.1,22.6-11.7,34.6-16
			c6.6-2.4,13.4-4.4,20.3-5.8c3.2-0.6,6.5-0.8,9.8-1.3c2.6-0.3,5.4-0.1,7.8-1c0.3-0.1,0.4-0.7,0-0.6c-1.5,0.4-3,0.2-4.5,0.1
			s-3.2,0.1-4.7,0.2c-3.3,0.1-6.7,0.2-10,0.7c-6.9,0.9-13.5,2.7-20,4.8c-12.5,3.9-25.2,8.2-36,15.4c-11,7.3-20.8,15.9-28.6,26
			c-1.8,2.3-3.4,4.7-5,7.1c1.2-3.5,2.4-6.8,3.9-10.2c2.5-5.7,4.4-11.5,6.7-17.3c2.5-6.1,6.1-11.7,9.6-17.4
			c6.9-11.2,15.5-21,26.9-28.6c5.4-3.5,11.2-6.4,17.4-8.6c3.3-1.2,6.6-2.2,10.1-3c3.9-1,7.8-1.2,11.9-1.2c0.3,0,0.5-0.5,0.2-0.5
			c-3.5-0.1-6.7-0.2-10.1,0.3c-3.5,0.5-6.9,1.3-10.2,2.3c-6.4,1.8-12.6,4.2-18.4,7.3c-12.7,6.7-23.3,16.5-31.1,27.7
			c-4.1,5.8-7.9,11.6-11.1,17.8c-3.3,6.3-4.9,13.1-7.8,19.6c0.1-0.5,0.2-1,0.3-1.5c2-12.3,5.7-24.2,9.5-36.1
			c3.8-11.7,8.3-23.6,14.5-34.4c2.9-5,6.6-9.6,10.6-14c4.3-4.6,8.8-9.1,14.3-12.4c0.2-0.1,0.2-0.5-0.1-0.3
			c-5.4,2.6-10,6.4-14.5,10.2c-4.6,3.9-8.7,8.3-12.4,13.1c-7.8,10.4-12.6,22.9-16.7,34.9c-3.1,8.9-6,17.8-8.1,26.9
			c1.6-10.9,4-21.9,6.9-32.5c3.6-13.1,7.3-26.5,12.8-38.9c2.8-6.3,6.4-12.4,10.4-18.2c3.7-5.3,8-10.2,12-15.3
			c0.2-0.2-0.2-0.4-0.4-0.2c-4.2,4.8-8.6,9.2-12.6,14.2c-4.3,5.5-8.2,11.5-11.4,17.7c-6.6,12.7-10.8,26.1-14.8,39.6
			c-2.8,9.2-5,18.5-6.7,27.9c0-2.4,0-4.8,0-7.1c-0.3-16.2,0.7-32.5,3-48.6c2.2-15.8,5.4-31.5,11.6-46.3c5.7-13.7,13-27,22.8-38.6
			c8.2-9.6,18.7-18.2,30.3-24c0.4-0.2,0.4-0.7-0.1-0.6c-28.4,12.1-48,37.4-59.2,63.7c-6.3,14.8-9.4,30.3-11.8,45.9v-0.1
			c-0.4-7.7-1.1-15.4-1.1-23.1c0-7-0.5-14-0.6-20.9c0-3.6,0.4-7.2,0.5-10.8c0.2-3.5,1.2-6.9,1.2-10.4c0-0.2-0.3-0.1-0.3,0.1
			c-0.4,3.2-1.5,6.4-2,9.6c-0.6,3.7-1.2,7.4-1.6,11.1c-0.8,7.4-1,14.9-1.4,22.3c-0.9,14.9-0.2,29.8,0.3,44.8
			c0.2,6.8,0.8,13.6,1.2,20.5c-0.9-4.7-1.9-9.4-2.9-14c-1.7-7.5-3.2-15-5.5-22.3c-2.4-7.6-4.5-15.2-6.9-22.8
			c-2.2-7.1-4.5-14.2-7.4-21c-2.9-6.6-5.6-13.6-10.2-19.4c-0.1-0.1-0.3,0-0.2,0.2c1.9,3.1,2.9,6.2,4.1,9.6c1.1,3.5,2.5,6.8,3.7,10.2
			c2.8,7.5,4.9,15.1,7.1,22.7c2.1,7.3,4.2,14.6,6.2,22c2,7.5,3.1,15.1,4.8,22.6c2.9,12.7,4.6,25.4,6.2,38.1c-0.9-3-1.8-5.9-2.9-8.9
			c-2.7-7.1-5.1-14.2-8.9-20.9c-7.5-13-19.5-24.7-32.3-33.4c-6.3-4.3-12.9-8-20.1-10.8c-7.3-2.9-15.3-4.5-23.1-5.8
			c-6.5-1.1-13.1-1.9-19.7-1.2c-3.1,0.4-6.3,0.8-9.4,1.6c-1.2,0.3-2.3,0.7-3.5,1.2c-0.8,0.3-1.6,0.4-2.4,0.7
			c-1.1,0.4-0.8,0.7-2.1,1.1c-0.1,0-0.2,0.2,0,0.2c3.3-0.7,6.2-2.2,9.6-2.7c4.2-0.6,8.6-0.7,12.9-0.4c8.2,0.7,16.6,3.2,24.5,5.3
			c15.7,4.2,29.3,12.5,41,22.8c6.1,5.4,11.8,11.3,16.5,17.8c4.4,6.2,7.8,12.9,10.6,19.9c4.9,12.2,9.2,24.6,11.4,37.5
			c0,0.2,0,0.5,0,0.7c-0.9-4.8-2-9.7-3.4-14.4c-3.2-11.9-8.5-22.7-16.6-32.5c-7.3-8.9-16.9-16.8-28.2-20.9
			c-12.9-4.8-26.5-3.9-39.9-2.4c-0.1,0-0.1,0.2,0,0.2c13.1-0.4,25.9-0.4,37.7,5.7c10.2,5.3,18.9,12.4,25.9,20.9
			c4.3,5.1,7.5,10.6,10.3,16.3c-1.3-1.6-2.7-3.1-4.1-4.6c-5.2-5.3-11.7-8.6-18.4-11.9c-14.3-7-31.4-6-46.1-1.2
			c-14.4,4.8-25,15.4-33.1,26.9c-3.6,5-6.5,10.4-8.5,16.1c-0.2,0.6,0.6,0.4,0.8,0.1c3.1-7.2,7.5-13.6,12.3-20
			c4.7-6.2,11-11.9,18.2-15.6c14.2-7.3,32-9.2,47.4-4.5c7.4,2.2,15,6.2,20.7,11c5.4,4.7,9.6,10.8,13.1,16.8
			c-11-9.9-26.2-14.2-41.2-14.7c-8-0.2-15.7,0.2-23.3,2.4c-7.5,2.1-14.5,5.3-20.8,9.7c-11.9,8.4-21,19.6-26.7,32.4
			c-1.8,3.9-2.9,8-3.5,12.2c-0.1,0.4,0.5,0.2,0.5-0.1c3.1-14.1,13-27.2,25.1-36.1c11.9-8.8,26.1-13.9,41.3-13.9
			c7.7,0,15.3,0.5,22.6,2.7c7.1,2.2,13.2,5.1,19,9.4c5.6,4.3,9.9,9.4,14.1,14.8c0.6,0.8,1.2,1.7,1.8,2.6c0,0.1,0.1,0.2,0.1,0.2
			c1.2,3.1,1.8,6.3,2.4,9.5c0.1,1.2,0.1,2.4,0.1,3.5h7c0.3-0.2,0.5-0.6,0.6-0.8c0.4-1.4,0.7-2.7,1.1-4.1c2-3.8,4.1-7.6,6.9-10.8
			c4.5-5.1,9.4-9.6,15.1-13.4c12.7-8.4,27.3-13.3,42.5-16.3c3.6-0.7,7.1-1.3,10.7-1.8c3.6-0.5,7.3-0.2,11-0.2
			c7.3,0.1,14.3,1.5,21.2,3.5c6.8,2.1,13.4,5.5,19.2,9.3c6.1,3.9,12.2,9.9,14,16.8c0.1,0.2,0.4,0,0.4-0.2
			C340.3,859,335.9,853,331,848.5z"/>
		<path class="st48" d="M295.1,836.8c-2.3-0.2-4.5-0.6-6.8-0.6c-2.6,0-5.1,0.2-7.7,0.5c-6.1,0.6-12.2,1.2-18.2,2.5
			c-5.2,1.2-10,2.4-15,4.2c-5.3,2-10.2,4.5-15,7.2c-9,5.1-17.5,11.3-24.5,18.5c-2.8,2.8-5.3,5.8-7.3,9.1c0.4-4.6,1.2-9.1,2.3-13.6
			c2.4-10.3,6.3-20.5,11.2-29.9c4.7-9.1,11.8-17.3,19.7-24.3c4-3.5,8.5-6.6,13.1-9.4c4.4-2.6,9.2-4.7,13.5-7.6
			c0.3-0.2,0.1-0.5-0.2-0.3c-4.6,2.6-9.8,4.4-14.5,6.7c-4.8,2.5-9.2,5.3-13.3,8.6c-8.5,6.9-16,15.4-21.4,24.6
			c-5.3,9.1-9.4,19.3-12.3,29.3c0-1.7-0.1-3.5,0.3-5.1c2.3-11.7,2-23.8,3.7-35.7c0.9-6.1,2.9-12.1,4.1-18.1
			c1.2-5.8,2.2-11.7,3.7-17.5c1.4-5.9,3.4-11.7,5.5-17.5c1.2-3,2.5-5.8,3.9-8.6c1.2-2.5,2.9-4.8,3.9-7.2c0.1-0.2-0.3-0.2-0.4-0.1
			c-1.2,2.1-2.9,4.1-4.2,6.2c-1.6,2.5-3.1,5.2-4.5,7.8c-2.9,5.8-5.4,11.7-7.6,17.8c-2.1,6-3.6,12-5.1,18.2
			c-1.6,6.3-3.7,12.7-4.8,19.1c-2,11.8-1.4,23.8-3.1,35.7c0,0.3-0.1,0.6-0.1,0.9c-0.5-6.2-1.3-12.4-2-18.6
			c-0.8-7.4-1.5-14.9-2.4-22.3c-0.9-7.3-2.4-14.5-3-21.9c-0.6-7.2-1.9-14.2-3.7-21.3c-0.8-3.1-1.8-6.2-2.8-9.4
			c-1.2-3.7-3.2-7.1-4.3-10.9c-0.1-0.2-0.4,0-0.4,0.2c1,6.8,3.5,13.4,4.9,20.1c1.4,6.9,2.2,13.8,2.6,20.8c0.5,10.6,2,21.2,3.3,31.7
			c-2.6-9-5.6-18-9.4-26.7c-3.1-7.1-6.7-14-10.8-20.6c-4.2-6.8-9.5-12.8-14.7-19c-9.9-11.8-22.5-22.4-37.5-28.1
			c-3.7-1.4-7.3-2.5-11.1-3.3c-0.3-0.1-0.6,0.3-0.3,0.5c15.9,4.9,28.4,15,39.6,26.4c5.9,6.1,11.4,12.7,16.5,19.4
			c4.8,6.3,8.6,13.4,11.9,20.4c6.9,14.2,11.5,29.2,15.1,44.4c1.8,7.6,3.5,15.1,4.2,22.8c-1.2-4.6-2.6-9.1-3.9-13.6
			c-2.2-7.1-4.7-13.9-8.2-20.5c-3.6-6.8-8.3-13.2-13-19.4c-8.9-11.7-19.4-21.6-33.1-28.6c-7.2-3.7-14.3-7-22.3-9.1
			c-3.6-0.9-7.1-1.4-10.8-1.3c-4,0.2-7.8,1.3-11.8,1.6c-0.2,0-0.3,0.2-0.1,0.3c3.4,0.2,6.8-0.3,10.2-0.2c4,0.2,7.6,1.6,11.3,2.9
			c7.2,2.6,13.8,6.5,20.5,10.2c6.3,3.5,12.2,7.7,17.6,12.4c5.5,4.9,10.2,10.8,14.6,16.6c4.4,5.7,8.6,11.6,12.1,17.7
			c3.7,6.5,6.2,13.3,8.5,20.3c2,6.3,4,12.7,5.4,19.1c-2.2-6.4-5.4-12.7-8.6-18.7c-7-13.4-16.4-25.2-28.4-35.2
			c-11.6-9.6-29.8-12.6-44.8-10.5c-4.2,0.6-8.2,1.7-12.3,2.6c-4.2,1-8.3,2.1-12.4,3.5c-7.3,2.5-13.9,6.9-19.6,11.7
			c-5.5,4.5-10.4,9.8-14.9,15.3c-4.8,5.8-7,12.8-9.7,19.7c-0.1,0.2,0.2,0.1,0.2,0c1.9-3.8,3.6-7.7,5.5-11.4c1.9-3.5,4.5-6.6,7.4-9.4
			c5.3-5.3,11-10.2,17.5-14.2c6.9-4.2,14.2-7.2,22.2-9.2c8.3-2.1,16.8-3.9,25.6-3.6c8.1,0.2,16.7,2.4,23.9,5.8
			c6.9,3.4,12.6,8.8,18,13.8c5.9,5.3,11.3,11.1,15.6,17.7c2.8,4.3,5.5,8.8,7.8,13.4c-1.1-1.2-2.1-2.4-3.3-3.5
			c-3.9-3.9-8.8-6.8-13.9-9.1c-5.2-2.4-11.4-4.5-17.2-4.4c-6.2,0-11.9,0.2-18,2c-5.7,1.6-11,4.2-15.9,7.4
			c-9.6,6.2-16.3,16.6-19.8,26.8c-0.1,0.2,0.2,0.2,0.3,0c4.3-9.5,11.5-19.1,21.3-24.3c9.5-5.1,20.9-7.5,32-6.3
			c10.7,1.2,20.6,5.8,28.3,12.7c7.1,6.2,15.4,16.8,15.8,26.4c0,0.3,0,0.6,0,0.9h10.5c8.2-18,26.1-31.1,44.3-40.1
			c5.9-3,12.1-5.4,18.4-7.5c5.5-1.8,11-3.4,16.8-4.5c2.6-0.5,5.1-1,7.7-1.4c2.7-0.4,5.2-0.2,7.8-0.2
			C295.1,837.1,295.3,836.8,295.1,836.8z"/>
	</g>
	<path class="st49" d="M281.7,866.3c-8.2-2.5-16.5-4.9-25.1-4.8c-8.7,0.2-17.5,1.6-25.7,3.9c-8.1,2.3-16.1,5.6-22.9,10.4
		c-3.3,2.3-6.2,5-9,7.9c0,0,0,0-0.1,0.1c2-6.2,4.5-12.2,8-17.7c4.5-7,10.6-13.1,17.6-18.2c6.9-5.1,14.7-9,22.9-12.2
		c9.6-3.7,20.5-7.1,31.1-6.9c0.2,0,0.4-0.3,0.2-0.4c-10.2-1.1-21.3,1.3-30.8,4.5c-9.2,3-17.8,7-25.7,12.2
		c-7.8,5.3-14.8,12.3-19.8,20c-2.5,3.9-4.6,8.2-6,12.6c-0.2-3-0.4-6-0.7-9c-0.7-9.3-0.9-18.6-0.7-28c0.2-9.3,1-18.5,1.3-27.7
		c0.2-4.6,0.4-9.2,0.8-13.8c0.2-2.1,0.4-4.3,0.5-6.4c0.2-1.8,0.6-3.6,0.5-5.4c0-0.2-0.3,0-0.3,0.1c-0.3,1.9-1,3.7-1.3,5.5
		c-0.4,2.2-0.9,4.4-1.4,6.6c-1,4.7-1.9,9.4-2.5,14.1c-1.1,9.1-2,18.2-2,27.4c0.1,9.1,0.6,18.2,1.2,27.3c0.4,5.9,1.2,11.8,1.6,17.8
		c-0.8-2.1-1.5-4.1-2.4-6.1c-1.8-4.1-4.4-7.6-6.8-11.4c-4.7-7.4-10.7-13.9-17.2-20c-6.4-6-13.3-11.3-21.2-15.4
		c-3.9-2.1-8.1-3.8-12.6-4.5c-3.5-0.6-8.2-0.8-11.4,0.5c-0.2,0.1-0.4,0.4-0.1,0.5c3.7,0.7,7.5,0.6,11.1,1.6c4.2,1.2,8.1,3,11.8,5.1
		c7.6,4.3,13.9,9.9,20,15.8c4.8,4.5,9.2,9.3,12.9,14.5c-6.1-6.1-13.7-10.5-21.8-13.8c-10-4-20.5-5.9-31.3-4.5
		c-5.3,0.7-10.8,2.2-15.9,3.8c-4.7,1.5-8.6,3.8-12.1,7.1c-0.1,0.1,0,0.2,0.1,0.2c7.4-6,18.1-7.6,27.5-8.7c10.6-1.2,21,1.5,30.6,5.3
		c8.2,3.4,15.6,8.1,21.5,14.4c3.4,3.5,6.4,7.5,9.3,11.4c1,1.4,1.8,2.9,2.6,4.4c0.4,1,0.7,1.9,1.1,2.9c0.2,0.6,0.4,1.2,0.5,1.9h7.8
		c7.8-11.6,20.6-18.6,34.5-22.6c7.6-2.2,15.5-3.5,23.3-4.1c8.6-0.6,17.2,1.2,25.6,3.1C281.6,867.4,282.3,866.5,281.7,866.3z"/>
</g>
<g>
	<g>
		<path class="st45" d="M480.7,795.2c-3.9-0.4-7.7-1.2-11.6-1.5c-3.7-0.3-7.6-0.1-11.3,0.2c-7.6,0.6-15.3,2.4-22.6,4.8
			c-7.2,2.4-14.1,5.4-20.7,9c-6.3,3.4-12.3,7.3-17.7,12.1c-6.3,5.5-11.3,12.6-14.6,20.3c-1.3,3.1-2.3,6.4-3.2,9.6
			c0.3-1.2,0.6-2.5,1-3.7c1.2-3.8,2.7-7.7,4.1-11.4c2.9-7.3,6.3-14.3,10.6-20.9c4.2-6.4,9-12.3,14.8-17.3
			c5.7-4.9,11.5-9.7,18.3-13.1c2.8-1.4,5.8-2.6,8.8-3.6c1.7-0.6,3.5-1.3,5.3-1.7c1.1-0.3,2.4-0.5,3.5-1c0.1-0.1,0.2-0.3,0-0.3
			c-1.4,0.6-3.2,0.8-4.7,1.2c-1.9,0.5-3.9,1-5.8,1.6c-3.4,1-6.8,2.3-10,3.8c-6.6,3.1-12.7,7.6-18.3,12.3c-5.9,4.9-10.8,10.9-15,17.3
			c-4.2,6.5-7.7,13.6-10.1,21c-2,6-3.5,12.3-4.2,18.6c0-1.2,0-2.5,0-3.7c0.1-1.2,0.1-2.5,0.3-3.7c0.4-4,0.9-8,1.5-11.9
			c1.3-7.9,3.2-15.6,6-23.2c2.7-7.2,6.2-14,10.5-20.4c4.4-6.6,9.6-12.4,15.5-17.6c2.9-2.6,5.9-5,9.1-7.2c1.6-1.1,3.2-2.2,4.9-3.2
			c1.9-1.1,3.8-1.9,5.8-2.9c0.1,0,0.1-0.2,0-0.2c-1.7,0.8-3.4,1.3-5,2.2c-1.7,0.9-3.4,1.9-5.1,3c-3.3,2-6.5,4.2-9.5,6.7
			c-5.9,4.8-11.3,10.3-15.9,16.4c-4.5,6.1-8.3,12.7-11.2,19.7c-3,7.2-5.1,14.7-6.7,22.4c0.1-1,0.1-2.1,0.2-3.1
			c0.6-8.2,1-16.3,1.4-24.5c0.7-15.9,2.3-31.8,5.6-47.3c0.2-0.9,0.4-1.8,0.6-2.7c-0.4,1-0.7,2.1-1.1,3.1c-1,3.1-2.1,6.3-3,9.5
			c-1.2,4.7-1.9,9.6-2.9,14.4c-0.5,4.3-1,8.7-1.3,13c-0.6,8.1-0.8,16.2-1.2,24.3c-0.1,2.4-0.2,4.8-0.3,7.2c-0.3-3.1-0.6-6.1-1.1-9.2
			c-0.5-3.9-1.2-7.7-2.3-11.5c-1-3.7-1.8-7.4-3-11.1c-1.2-3.8-2.5-7.5-4-11.1c-1.5-3.5-3.6-6.9-5.6-10.1c-2.1-3.3-4.3-6.7-7.1-9.5
			c-1.5-1.5-3.3-2.7-5-4.1c-1.6-1.3-3.2-2.7-4.9-3.8c0,0-0.1,0,0,0c2.9,2.3,5.5,5.1,8.1,7.7c2.7,2.7,4.8,6.2,6.7,9.4
			c1,1.6,1.9,3.3,2.8,4.9c1,1.7,2,3.4,2.8,5.2c1.6,3.6,2.9,7.3,4.1,11.1c1.2,3.9,2.1,7.8,3.2,11.7c1.1,3.8,1.8,7.6,2.4,11.4
			c0.6,3.9,0.9,7.9,1.4,11.9c0.5,3.9,0.9,7.8,1.2,11.7c0,0.4,0,0.7,0.1,1.1c0,1.1,0,2.1,0.1,3.2c-0.1-0.6-0.2-1.1-0.3-1.7
			c-1.3-7.7-3.2-15.1-6.3-22.3c-2.9-6.7-6.4-13.4-11.2-18.9c-4.7-5.4-10.8-9.1-17.7-10.9c-1.2-0.3-2.4-0.5-3.7-0.6
			c-0.7-0.1-1.4-0.1-2-0.2c-0.7,0-1.3,0.1-1.9-0.1c-0.1,0-0.2,0.1-0.1,0.1c0.5,0.2,1,0.2,1.5,0.3c0.8,0,1.5,0.3,2.3,0.4
			c2,0.4,3.9,1.1,5.7,1.8c3.3,1.4,6.3,3.4,9.1,5.6c5.8,4.5,9.8,11.2,13.1,17.7c3.6,7,6.3,14.3,8,22c0.7,3.4,1.4,6.7,2,10.2
			c0-0.1-0.1-0.2-0.1-0.2c-0.6-1.3-1.1-2.6-1.7-3.8c-0.2-0.6-0.4-1.2-0.6-1.9c-1-3.5-2.6-6.8-4.3-10c-1.7-3.1-3.7-6-6.1-8.5
			c-2.4-2.6-5.2-4.7-7.9-6.9c-2.7-2.3-6-3.7-9.4-4.7c-3.5-0.9-7.1-1.2-10.7-0.9s-7.2,1.9-10.3,3.5c-8.5,4.2-15.7,11.5-20.9,19.4
			c-2.7,4-4.5,8.6-6,13.2c-0.7,2.2-1.3,4.5-1.7,6.8c-0.4,2.4-0.6,4.9-1.2,7.2c0,0.1,0.2,0.1,0.2,0c1-3.6,1.4-7.3,2.6-10.9
			c1.2-3.7,2.7-7.3,4.4-10.8c3.3-6.7,8.6-12.7,14.3-17.6c2.8-2.4,6-4.4,9.3-5.9c3.5-1.6,7.1-2.9,11-2.9c3.8,0,7.5,0.6,11,2
			c3.4,1.3,6.2,3.7,9.1,5.9c3,2.3,5.7,4.9,8,7.9c2.2,2.8,3.8,5.9,5.4,9c-2.1-2.5-4.7-4.3-7.6-5.8c-3.3-1.6-6.9-2.2-10.5-2.4
			c-1.6-0.1-3-0.3-4.6,0c-1.9,0.3-3.8,0.7-5.6,1.3c-6.8,2.1-12.6,6.9-17,12.5c-2.8,3.5-4.9,7.6-6.3,11.8c-0.1,0.3,0.3,0.2,0.3,0
			c1.4-3.6,3.3-6.9,5.6-9.9c2.3-3,5.1-5.3,8-7.7c3-2.4,6.2-4.2,10-5.3c1.7-0.5,3.5-0.9,5.2-1.1c1.8-0.3,3.7,0.1,5.5,0.1
			s3.8,0.6,5.6,1.1c1.8,0.5,3.7,1.3,5.3,2.3c3.3,1.9,5.8,4.8,7.6,8.1c1.1,2,2.2,4.2,3.1,6.4c0.2,0.7,0.4,1.3,0.6,2
			c0.3,1.3,0.6,2.6,0.8,4c-1.1-3.1-2.5-6-5-8.3c-1.3-1.2-2.3-2.5-3.8-3.5s-3.1-1.8-4.7-2.4c-1.6-0.6-3.3-0.9-5-1.3
			c-1.9-0.4-3.7-0.7-5.6-0.7c-3.4,0-7.2,1.3-10.1,3.1c-3,1.8-5.4,4.3-7.4,7.1s-3.4,6.1-4.8,9.3c-1.5,3.5-2.7,6.9-3.4,10.7
			c-0.7,3.7-1.4,7.4-1.1,11.1c0.9-4.5,1.7-9,3-13.5c1.6-5.7,3.7-11.5,7.3-16.3c1.7-2.3,3.6-4.5,6-6c2.2-1.4,4.6-2.3,7.1-2.6
			c4.2-0.6,8.5,0.2,12.4,1.9c1.8,0.5,3.5,1.2,5.1,2.1c1.5,0.9,2.7,2.3,3.9,3.5c1.2,1.1,2.2,2.4,3,3.8c0.7,0.9,1.3,1.9,1.8,2.9
			c0.7,1.3,1.3,2.7,1.8,4.1c0.1,0.8,0.1,1.6,0.2,2.4h3c1-2,2-4,3-5.9c0.9-1.6,1.8-3.2,3-4.7s2.6-2.8,3.9-4.2
			c5.3-5.5,11.6-9.4,18.7-12.2c6.3-2.5,13.2-3.9,19.9-3.7c3.4,0.1,6.8,0.6,10.1,1.5c3.3,1,6.3,2.6,9.5,4c2.4,1.1,4.8,2.6,6.6,4.5
			c1,1,1.9,2.3,2.7,3.6c0.7,1.1,1.6,2,2.1,3.2c0.1,0.1,0.3,0,0.2-0.1c-0.4-1.4-1.2-2.6-1.8-4c-0.7-1.6-1.5-3.2-2.5-4.5
			c-1-1.2-2.4-2.2-3.7-3.1c-1.4-1.1-3.1-1.8-4.7-2.6c-3.1-1.5-5.9-2.9-9.2-3.8c-3.2-0.8-6.5-1.1-9.8-1.2c-6.7-0.1-13.3,1.3-19.6,3.7
			c-6.9,2.6-13.5,6.5-18.8,11.8c-2.8,2.9-5.4,6-7.1,9.7c-0.7,1.4-1.3,2.9-1.9,4.3c1-3.5,2.4-7,3.6-10.5c2.5-6.9,6.4-13.7,11.3-19.3
			c4.7-5.4,10.8-9.7,16.9-13.5c6.4-3.9,13.1-7.4,20-10.2c7.8-3.2,16-5.6,24.4-6.9c4.3-0.7,8.7-0.9,13-0.9
			C472.1,794.7,476.4,795.2,480.7,795.2C480.8,795.3,480.8,795.2,480.7,795.2z"/>
		<path class="st46" d="M457.3,826.2c-0.5-0.4-0.8-1-1.4-1.5s-1.2-1-1.8-1.5c-1.5-1-3.2-1.6-4.9-2.1c-3.6-1.1-7.4-1-11.1-1
			c-7.1,0.1-14.1,1.5-20.8,4c-6.8,2.5-13.2,6.2-18.7,10.9c-2.8,2.5-5.7,5.2-8,8.1c-2.3,2.9-4.8,6.2-6.4,9.5
			c-1.7,3.5-3.5,7.1-4.9,10.8c-0.1,0.1-0.2,0.2-0.3,0.3c0-0.2,0.1-0.5,0.1-0.7c0.3-1.9,0.5-3.8,0.9-5.6s0.7-3.6,1.1-5.4
			c1.3-3.4,2.8-6.8,4.2-10.1c1.5-3.5,3.1-6.7,5.3-9.7c2.2-3,4.8-5.7,7.5-8.3c5.4-5.3,11.5-10,18.1-13.7c3.4-1.9,7-3.4,10.6-5
			c3.8-1.7,7.8-2.8,11.8-3.9c1.9-0.5,3.7-0.9,5.6-1.2c0.2,0,0.3-0.3,0-0.3c-3.9,0.5-7.8,1.3-11.6,2.3c-1.7,0.4-3.4,0.9-5.1,1.5
			c-1.9,0.7-3.7,1.6-5.7,2.2c-7.1,2.4-13.6,6.4-19.4,11c-5.9,4.7-11.1,10.1-15.4,16.3c-0.5,0.7-0.9,1.3-1.3,2c0-0.1,0.1-0.2,0.1-0.4
			c1.1-3.8,2.5-7.3,4.3-10.7c1.8-3.3,3.6-6.7,5.6-9.9s4.3-6.2,6.6-9.3c2.3-3,5.2-5.6,8.1-8c2.8-2.5,6-4.6,9.2-6.6
			c2.8-1.7,5.7-3.4,8.7-4.7s6.1-2.7,9.4-3.4c0.1,0,0.2-0.2,0-0.2c-3.5,0.6-7,2-10.3,3.4c-3.5,1.4-6.8,3.2-10,5.1
			c-6.4,3.7-12.1,8.3-17,13.8c-5,5.7-8.8,12.3-12.4,18.9c-1.9,3.4-3.3,6.8-4.4,10.6c-1.1,3.6-2.3,7.3-3.2,10.9c-0.5,2-0.9,4-1.2,6
			c-0.4,1-0.7,2.1-1,3.1c-0.1,0.3-0.2,0.6-0.3,1c0-1.3-0.2-2.6-0.3-3.9c0.1-2.1,0.2-4.2,0.4-6.3c0.7-8,2-16,3.4-24
			c0.6-3.7,1.2-7.5,2.2-11.1s2.4-7.2,3.8-10.7s3-6.9,4.9-10.1c1.9-3.2,4.2-6.3,6.5-9.2c1.9-2.4,3.9-4.6,6-6.7c2.1-2.1,4.5-3.9,6.7-6
			c0.2-0.2,0-0.4-0.2-0.2c-2.9,2.6-6,4.9-8.9,7.4c-2.7,2.4-5.2,5.1-7.6,7.9c-4.9,5.9-9,12.2-12.1,19.2c-1.6,3.5-2.9,7.1-3.9,10.8
			c-1,3.8-1.6,7.6-2.2,11.4c-0.5,2.8-0.9,5.5-1.3,8.3c-0.7-6.6-1.5-13.2-2.2-19.9c-0.9-8-1.4-16.1-2.5-24.1
			c-1-7.8-1.8-15.8-2.3-23.6c-0.3-4.1-0.6-8.1-1-12.2c0-0.2-0.3,0-0.3,0.1c0.4,8,0.4,16,0.9,24c0.5,8.1,1.3,16.1,2,24.1
			c0.6,8.1,1.5,16.1,2.4,24.2c0.7,5.6,1.3,11.2,1.9,16.8c0,0.4-0.1,0.8-0.1,1.2c-1.1-6.7-2.6-13.4-4.3-19.9
			c-1.9-7.5-4.5-14.9-7.8-21.9c-3.2-6.7-7.2-12.8-11.7-18.7c-3.5-4.7-8.4-8.4-13.2-11.7c-4.7-3.2-10.4-5.1-15.9-6.2
			c0,0-0.1,0.1,0,0.1c3.7,1,7.2,2.5,10.5,4.2c3.5,1.8,6.5,4.3,9.5,6.8c2.8,2.5,5.7,5,8,8c2.3,3.1,4.4,6.3,6.5,9.5
			c4.2,6.4,7.1,13.5,9.7,20.7c0.6,1.6,1.1,3.2,1.6,4.8c-2.3-5.5-4.9-11-8.2-15.9c-3.9-5.9-8.7-11.7-14.3-16.1
			c-4.3-3.4-9.2-6.2-14.4-7.9c-2.5-0.8-5.2-1.1-7.9-1.2c-1.3,0-2.7-0.1-4.1,0c-0.5,0-1.1,0.2-1.6,0.3c-0.7,0.2-1.4,0.7-2.1,0.7
			c0,0-0.1,0.1,0,0.1c0.6,0.1,1.2-0.2,1.8-0.3c0.8-0.1,1.7-0.1,2.5,0c2,0.2,4.1,0.3,6,0.8c3.7,0.8,7.1,2.5,10.4,4.3
			c6.5,3.5,12,8.7,16.7,14.4c4.8,5.9,8.7,12.3,11.9,19.2c3.4,7.2,6.5,15,8,22.8c0.1,0.8,0.3,1.5,0.5,2.3c0.3,1.4,0.5,2.8,0.7,4.2
			c-0.9-3.6-1.7-7.3-2.9-10.8c-1.1-3.5-2.8-6.7-4.7-9.8c-7.4-11.8-19-21.4-33.2-23.1c-4.4-0.5-9.1-0.5-13.5,0.1
			c-2.3,0.3-4.5,0.7-6.7,1.4c-1.6,0.5-3.2,1-4.5,2.2l0,0c1.4-1.2,3.1-1.5,4.8-1.8c2-0.4,4.1-0.6,6.1-0.8c3.8-0.2,7.6,0,11.3,0.4
			c7.2,0.8,14.1,3.7,19.9,7.9c5.7,4.2,10.5,9.8,14.2,15.8c3.4,5.4,5.3,11.3,6.9,17.4c-0.2-0.4-0.3-0.7-0.5-1.1
			c-3.4-6.8-7.2-13.2-12.7-18.4c-5.2-5-11.2-8.5-18.3-9.9c-7-1.4-14.1-0.2-20.6,2.6c-7.7,3.4-13.8,9.2-18.8,15.9
			c-2.6,3.5-4.8,7.3-6.7,11.1c-1,2.1-1.9,4.2-2.7,6.4c-0.8,2.1-1.1,4.4-1.6,6.6h0.1c0.5-1.7,1-3.5,1.5-5.2c0.6-2,1.6-3.9,2.5-5.8
			c1.6-3.2,3.4-6.3,5.4-9.3c3.9-5.8,8.5-11,14.3-15c6-4.1,13.5-6.5,20.8-6.3c7.4,0.2,14.6,3.1,20.2,7.8c2.9,2.5,5.7,5.3,8,8.3
			c2.5,3.2,4.6,6.8,6.5,10.4c0.5,0.9,1,1.9,1.4,2.8c-0.1-0.1-0.2-0.3-0.2-0.4c-1.9-3-4.1-6-6.7-8.4c-2.5-2.3-5.5-4.2-8.7-5.4
			c-3.3-1.3-6.8-2-10.3-2.1c-3.7,0-7.6,0-11.2,1c-7,2-13.1,6.2-17.6,12c-3.2,4.1-5.6,8.7-7.5,13.5c-1,2.5-1.9,5.1-2.5,7.7
			c-0.6,2.4-1.3,4.9-1.2,7.4h0.1c0.1-1.9,0.7-3.7,1.2-5.5c0.5-1.9,1.1-3.8,1.8-5.6c1.4-3.6,3-7.2,4.9-10.6c1.9-3.2,4.1-6.3,6.7-9
			c2.6-2.6,6-4.7,9.4-6.1c3.6-1.5,7.6-2,11.4-2s7.3,0.1,10.9,1.1c3.4,0.9,6.6,2.4,9.5,4.6c2.9,2.2,5.2,4.9,7.5,7.8
			c2,2.6,3.6,5.7,4.9,8.7c-0.5-0.7-1-1.3-1.4-2c-1-1.5-2.3-2.7-3.5-4.1c-1.1-1.3-2.4-2.4-3.8-3.3c-0.7-0.4-1.5-0.8-2.3-1.1
			c-0.9-0.4-1.7-1-2.6-1.5c-3.2-1.5-7.4-1.1-10.7-0.7c-7,0.7-13.7,4.3-18.1,9.7c-2.3,2.9-4,6.2-5.6,9.4c-1.6,3.4-3.1,6.6-4,10.3
			c-0.5,2.1-1.2,4.1-1.3,6.3c0,0.1,0.1,0,0.1,0c0.1-1.7,0.6-3.4,1.2-5c0.6-1.7,1.1-3.4,1.8-5.1c1.4-3.5,3.3-6.8,5.3-10
			c1.9-3,4.1-6,6.9-8.2s6.3-4.1,9.8-4.9c3.6-0.8,7.6-1.1,11.3-0.7c1.9,0.2,3.4,1,5.1,1.8c0.8,0.4,1.6,0.5,2.4,0.9
			c1.1,0.5,1.9,1.2,2.8,2c2.6,2.5,5.1,5.3,7,8.5c1,1.6,1.6,3.5,2.1,5.3c0,0.2,0.1,0.3,0.1,0.5c0,0.1,0,0.1,0,0.2
			c0,0.7,0.1,1.4,0.2,2c0,0.3,0.2,0.7,0.2,1.1c-0.2-0.5-0.3-1-0.5-1.4c-0.3-0.9-0.9-1.7-1.6-2.4c-1.3-1.4-3.1-2.4-4.8-3.2
			c-1.9-0.9-3.9-1.7-6-2.3s-4.4-0.6-6.5-0.2c-4.1,0.6-8.3,2.5-11.7,4.8c-3.3,2.2-6,5.2-7.7,8.8c-0.2,0.4,0.4,0.5,0.6,0.1
			c1.8-3.2,4.5-5.7,7.7-7.6c3.4-2,7.3-3.7,11.2-4.3c4.2-0.7,8.3,0.8,12.1,2.5c1.7,0.7,3.3,1.6,4.7,2.8c0.9,0.8,1.3,2.4,2.2,3.3
			c0,0.3,0.1,0.4,0.3,0.4c0,0.1,0.1,0.2,0.2,0.2c0,0.1,0,0.2,0.1,0.3c0,0.1,0.1,0.2,0.1,0.2c0,0.2,0,0.3,0,0.5c0,0.1,0,0.2,0,0.3
			c-0.1,0.2-0.2,0.5-0.2,0.7c-0.1,0.7,0.8,0.5,1.1,0.2c0.6-0.6,1.2-1.2,1.9-1.8c0.2,0,0.5-0.1,0.6-0.3s0.3-0.4,0.4-0.7
			c0.7-0.7,1.4-1.4,2.1-2c1.8-1.8,3.9-3.3,6-4.7c4.2-2.9,9.5-4.7,14.4-5.7c10.6-2.3,22.8-1.7,32.7,3.1c0.1,0.1,0.3-0.2,0.2-0.2
			c-2.2-1.5-4.3-2.7-6.8-3.6c-2.6-0.9-5.4-1.6-8.1-2c-5.9-0.9-12.1-0.7-18,0.4c-5.4,1-11,3.2-15.5,6.3c-1.2,0.8-2.4,1.7-3.6,2.6
			c0.6-1.1,1.2-2.3,1.9-3.4c2-3.3,3.8-6.6,6-9.8c4.3-6.1,10.1-11.5,16.4-15.4c12.3-7.7,27.9-11.5,42.4-9.1c1.6,0.3,3.1,0.7,4.6,1.3
			c0.6,0.3,1.1,0.7,1.7,1s1,0.9,1.6,1.2C457.3,826.4,457.4,826.3,457.3,826.2z M376.9,863.7c0.2-0.1,0.4-0.2,0.5-0.4v-0.1
			c0,0.3-0.1,0.6-0.1,0.9c0,0.5,0,1,0,1.5c-0.1,0.1-0.2,0.2-0.2,0.3C377.1,865.2,376.9,864.4,376.9,863.7z"/>
		<path class="st47" d="M439.1,856.1c-2.5-2.4-5.6-4.6-8.7-6.1c-3.2-1.5-6.8-2.4-10.4-2.6c-3.7-0.2-7.3,0.2-10.9,1
			c-8.5,1.8-17.8,5.5-24.4,11.6c0.5-0.9,1.1-1.7,1.7-2.6c3.4-4.9,7.6-8.9,12.4-12.5c4.7-3.6,10.4-5.8,15.8-7.9
			c3-1.2,6.1-2.2,9.3-2.8c1.5-0.3,3-0.4,4.5-0.6c1.2-0.2,2.5,0,3.6-0.5c0.1,0,0.2-0.3,0-0.3c-0.7,0.2-1.4,0.1-2.1,0
			s-1.5,0.1-2.2,0.1c-1.5,0.1-3.1,0.1-4.6,0.4c-3.1,0.5-6.2,1.3-9.2,2.4c-5.7,2-11.5,4.1-16.5,7.6c-5,3.6-9.5,7.9-13.1,12.9
			c-0.8,1.1-1.6,2.3-2.3,3.5c0.5-1.7,1.1-3.4,1.8-5.1c1.2-2.8,2-5.7,3.1-8.6c1.1-3,2.8-5.9,4.4-8.6c3.2-5.5,7.1-10.4,12.3-14.2
			c2.5-1.8,5.2-3.2,8-4.3c1.5-0.6,3-1.1,4.6-1.5c1.8-0.5,3.6-0.6,5.5-0.6c0.1,0,0.2-0.2,0.1-0.2c-1.6,0-3.1-0.1-4.6,0.1
			c-1.6,0.2-3.2,0.7-4.7,1.1c-2.9,0.9-5.8,2.1-8.5,3.6c-5.8,3.3-10.6,8.2-14.3,13.8c-1.9,2.9-3.6,5.8-5.1,8.9
			c-1.5,3.1-2.3,6.5-3.6,9.7c0-0.2,0.1-0.5,0.1-0.7c0.9-6.1,2.6-12.1,4.4-18c1.8-5.8,3.8-11.7,6.7-17.1c1.3-2.5,3-4.8,4.8-6.9
			c1.9-2.3,4-4.5,6.6-6.2c0.1-0.1,0.1-0.2-0.1-0.2c-2.5,1.3-4.6,3.2-6.6,5.1c-2.1,2-4,4.1-5.7,6.5c-3.6,5.2-5.8,11.4-7.7,17.4
			c-1.4,4.4-2.7,8.9-3.7,13.4c0.7-5.4,1.8-10.8,3.1-16.1c1.6-6.5,3.4-13.1,5.9-19.4c1.3-3.2,2.9-6.2,4.8-9c1.7-2.7,3.7-5.1,5.5-7.6
			c0.1-0.1-0.1-0.2-0.1-0.1c-1.9,2.4-4,4.6-5.8,7.1c-2,2.8-3.8,5.7-5.2,8.8c-3,6.3-4.9,13-6.8,19.7c-1.3,4.6-2.3,9.2-3.1,13.8
			c0-1.2,0-2.4,0-3.6c-0.1-8,0.3-16.2,1.4-24.1c1-7.8,2.5-15.6,5.3-23c2.6-6.8,6-13.4,10.5-19.2c3.7-4.8,8.6-9,13.9-11.9
			c0.1-0.1,0.2-0.4,0-0.3c-13,6-22,18.6-27.1,31.6c-2.9,7.3-4.3,15.1-5.4,22.8l0,0c-0.2-3.8-0.5-7.6-0.5-11.5
			c0-3.5-0.3-6.9-0.3-10.4c0-1.8,0.2-3.6,0.2-5.4c0.1-1.7,0.5-3.4,0.5-5.1c0-0.1-0.1,0-0.1,0c-0.1,1.6-0.7,3.2-0.9,4.8
			c-0.3,1.8-0.6,3.7-0.8,5.5c-0.4,3.7-0.5,7.4-0.7,11c-0.4,7.4-0.1,14.8,0.1,22.2c0.1,3.4,0.4,6.8,0.6,10.2c-0.4-2.3-0.8-4.7-1.3-7
			c-0.8-3.7-1.5-7.4-2.5-11.1c-1.1-3.8-2.1-7.5-3.1-11.3c-1-3.5-2-7.1-3.4-10.5c-1.3-3.3-2.6-6.8-4.7-9.6c0,0-0.1,0-0.1,0.1
			c0.8,1.5,1.4,3.1,1.9,4.8s1.1,3.4,1.7,5.1c1.3,3.7,2.2,7.5,3.3,11.3c1,3.6,1.9,7.3,2.9,10.9c0.9,3.7,1.4,7.5,2.2,11.2
			c1.3,6.3,2.1,12.6,2.8,19c-0.4-1.5-0.8-3-1.3-4.4c-1.2-3.5-2.3-7.1-4.1-10.4c-3.4-6.5-8.9-12.3-14.8-16.6c-2.9-2.1-5.9-4-9.2-5.4
			c-3.4-1.4-7-2.2-10.6-2.9c-3-0.5-6-1-9-0.6c-1.4,0.2-2.9,0.4-4.3,0.8c-0.6,0.1-1,0.4-1.6,0.6c-0.4,0.2-0.7,0.2-1.1,0.4
			c-0.5,0.2-0.3,0.3-1,0.5c-0.1,0-0.1,0.1,0,0.1c1.5-0.4,2.9-1.1,4.4-1.3c1.9-0.3,4-0.4,5.9-0.2c3.8,0.4,7.6,1.6,11.2,2.6
			c7.2,2.1,13.4,6.2,18.8,11.3c2.8,2.7,5.4,5.6,7.6,8.9c2,3.1,3.6,6.4,4.9,9.9c2.2,6.1,4.2,12.2,5.2,18.6c0,0.1,0,0.2,0,0.3
			c-0.4-2.4-1-4.8-1.5-7.1c-1.5-5.9-3.9-11.3-7.6-16.1c-3.3-4.4-7.7-8.3-12.9-10.4c-5.9-2.4-12.1-1.9-18.3-1.2c0,0-0.1,0.1,0,0.1
			c6-0.2,11.9-0.2,17.3,2.8c4.6,2.6,8.6,6.2,11.9,10.4c1.9,2.5,3.4,5.3,4.7,8.1c-0.6-0.8-1.2-1.6-1.9-2.3c-2.4-2.6-5.3-4.3-8.4-5.9
			c-6.6-3.5-14.4-3-21.1-0.6c-6.6,2.4-11.5,7.6-15.2,13.4c-1.6,2.5-3,5.2-3.9,8c-0.1,0.3,0.3,0.2,0.3,0c1.4-3.6,3.4-6.8,5.6-9.9
			c2.1-3.1,5.1-5.9,8.3-7.8c6.5-3.6,14.7-4.6,21.7-2.3c3.4,1.1,6.9,3.1,9.5,5.5c2.5,2.3,4.4,5.4,6,8.3c-5-5-12-7.1-18.9-7.3
			c-3.7-0.1-7.2,0.1-10.7,1.2c-3.4,1.1-6.7,2.6-9.5,4.8c-5.5,4.2-9.6,9.7-12.2,16.1c-0.8,2-1.3,4-1.6,6.1c0,0.2,0.2,0.1,0.3-0.1
			c1.4-7,6-13.5,11.5-17.9s11.9-6.9,19-6.9c3.5,0,7,0.2,10.4,1.4c3.3,1.1,6,2.5,8.7,4.7c2.6,2.1,4.5,4.6,6.4,7.4
			c0.3,0.4,0.6,0.8,0.8,1.3v0.1c0.5,1.6,0.8,3.1,1.1,4.7c0,0.6,0,1.2,0.1,1.8h3.2c0.1-0.1,0.3-0.3,0.3-0.4c0.2-0.7,0.3-1.4,0.5-2
			c0.9-1.9,1.9-3.8,3.2-5.3c2-2.5,4.3-4.8,7-6.7c5.8-4.2,12.5-6.6,19.5-8.1c1.6-0.4,3.2-0.7,4.9-0.9c1.6-0.2,3.4-0.1,5-0.1
			c3.4,0,6.5,0.7,9.7,1.7c3.1,1,6.1,2.8,8.8,4.6c2.8,2,5.6,4.9,6.4,8.3c0,0.1,0.2,0,0.2-0.1C443.4,861.3,441.3,858.3,439.1,856.1z"
			/>
		<path class="st48" d="M422.6,850.3c-1-0.1-2-0.3-3.1-0.3c-1.2,0-2.3,0.1-3.5,0.2c-2.8,0.3-5.6,0.6-8.3,1.3
			c-2.4,0.6-4.6,1.2-6.8,2.1c-2.4,1-4.7,2.3-6.9,3.6c-4.1,2.5-8,5.6-11.2,9.2c-1.3,1.4-2.4,2.9-3.4,4.5c0.2-2.3,0.6-4.5,1.1-6.8
			c1.1-5.1,2.9-10.1,5.1-14.8c2.2-4.5,5.4-8.6,9-12.1c1.8-1.7,3.9-3.3,6-4.7c2-1.3,4.2-2.3,6.2-3.7c0.1-0.1,0.1-0.2-0.1-0.2
			c-2.1,1.3-4.5,2.1-6.7,3.3s-4.2,2.6-6.1,4.3c-3.9,3.4-7.3,7.6-9.8,12.2c-2.4,4.5-4.3,9.6-5.6,14.6c0-0.9,0-1.7,0.1-2.5
			c1.1-5.8,0.9-11.9,1.7-17.7c0.4-3,1.3-6,1.9-9c0.5-2.9,1-5.8,1.7-8.7s1.5-5.8,2.5-8.7c0.5-1.5,1.2-2.9,1.8-4.3
			c0.6-1.2,1.3-2.4,1.8-3.6c0.1-0.1-0.1-0.1-0.2,0c-0.5,1.1-1.3,2.1-1.9,3.1c-0.7,1.3-1.4,2.6-2.1,3.9c-1.4,2.9-2.5,5.8-3.5,8.8
			s-1.6,6-2.3,9c-0.7,3.2-1.7,6.3-2.2,9.5c-0.9,5.9-0.7,11.8-1.4,17.7c0,0.1,0,0.3,0,0.4c-0.3-3.1-0.6-6.2-0.9-9.3
			c-0.4-3.7-0.7-7.4-1.1-11.1c-0.4-3.6-1.1-7.2-1.4-10.9c-0.3-3.6-0.8-7.1-1.7-10.6c-0.4-1.6-0.8-3.1-1.3-4.6
			c-0.6-1.8-1.5-3.6-2-5.4c0-0.1-0.2,0-0.2,0.1c0.5,3.4,1.6,6.7,2.3,10c0.7,3.4,1,6.8,1.2,10.3c0.3,5.3,0.9,10.5,1.5,15.8
			c-1.2-4.5-2.6-9-4.3-13.3c-1.4-3.5-3.1-7-4.9-10.3c-1.9-3.4-4.4-6.4-6.7-9.4c-4.5-5.9-10.3-11.1-17.2-14c-1.7-0.7-3.4-1.2-5.1-1.6
			c-0.1,0-0.3,0.2-0.1,0.2c7.3,2.4,13,7.5,18.1,13.1c2.7,3,5.2,6.3,7.5,9.6c2.2,3.1,3.9,6.7,5.5,10.1c3.2,7.1,5.3,14.5,6.9,22.1
			c0.8,3.8,1.6,7.5,1.9,11.4c-0.5-2.3-1.2-4.5-1.8-6.7c-1-3.5-2.2-6.9-3.8-10.2c-1.6-3.4-3.8-6.6-6-9.6c-4.1-5.8-8.9-10.8-15.1-14.2
			c-3.3-1.8-6.6-3.5-10.2-4.5c-1.6-0.5-3.3-0.7-4.9-0.6c-1.8,0.1-3.6,0.6-5.4,0.8c-0.1,0-0.1,0.1,0,0.1c1.6,0.1,3.1-0.2,4.7-0.1
			c1.8,0.1,3.5,0.8,5.2,1.4c3.3,1.3,6.3,3.2,9.4,5.1c2.9,1.7,5.6,3.8,8,6.2c2.5,2.5,4.7,5.4,6.7,8.2s4,5.7,5.5,8.8
			c1.7,3.2,2.8,6.6,3.9,10.1c0.9,3.1,1.8,6.3,2.5,9.5c-1-3.2-2.5-6.3-4-9.3c-3.2-6.6-7.5-12.5-13-17.5c-5.3-4.8-13.6-6.3-20.5-5.2
			c-1.9,0.3-3.8,0.8-5.6,1.3c-1.9,0.5-3.8,1-5.7,1.7c-3.3,1.3-6.4,3.4-9,5.8c-2.5,2.3-4.8,4.9-6.8,7.6c-2.2,3-3.2,6.4-4.5,9.9
			c0,0.1,0.1,0.1,0.1,0c0.8-1.9,1.6-3.8,2.5-5.7c0.9-1.7,2.1-3.3,3.4-4.7c2.4-2.7,5-5.1,8-7c3.2-2.1,6.5-3.6,10.2-4.6
			c3.8-1.1,7.7-1.9,11.7-1.8c3.7,0.1,7.6,1.2,10.9,2.9c3.2,1.7,5.7,4.4,8.3,6.8c2.7,2.7,5.2,5.5,7.2,8.8c1.3,2.1,2.5,4.4,3.6,6.7
			c-0.5-0.6-1-1.2-1.5-1.7c-1.8-1.9-4-3.4-6.4-4.5c-2.4-1.2-5.2-2.2-7.9-2.2c-2.9,0-5.5,0.1-8.2,1c-2.6,0.8-5,2.1-7.3,3.7
			c-4.4,3.1-7.5,8.3-9.1,13.3c0,0.1,0.1,0.1,0.1,0c2-4.7,5.3-9.5,9.8-12.1c4.4-2.5,9.6-3.7,14.6-3.2c4.9,0.6,9.4,2.9,13,6.3
			c3.3,3.1,7.1,8.4,7.2,13.1c0,0.1,0,0.3,0,0.4h4.8c3.7-9,12-15.4,20.3-19.9c2.7-1.5,5.6-2.7,8.5-3.7c2.5-0.9,5.1-1.7,7.7-2.2
			c1.2-0.3,2.3-0.5,3.5-0.7s2.4-0.1,3.6-0.1C422.6,850.5,422.7,850.3,422.6,850.3z"/>
	</g>
	<path class="st49" d="M416.5,865c-3.8-1.2-7.5-2.4-11.5-2.4c-4,0.1-8,0.8-11.8,1.9c-3.7,1.1-7.4,2.8-10.5,5.1
		c-1.5,1.1-2.9,2.5-4.1,3.9l0,0c0.9-3.1,2-6.1,3.7-8.8c2.1-3.5,4.9-6.5,8-9c3.2-2.5,6.7-4.5,10.5-6.1c4.4-1.8,9.4-3.6,14.2-3.4
		c0.1,0,0.2-0.2,0.1-0.2c-4.7-0.5-9.8,0.6-14.1,2.2c-4.2,1.5-8.2,3.5-11.8,6.1c-3.6,2.6-6.8,6.1-9.1,9.9c-1.2,1.9-2.1,4.1-2.7,6.2
		c-0.1-1.5-0.2-3-0.3-4.5c-0.3-4.6-0.4-9.3-0.3-13.9c0.1-4.6,0.4-9.2,0.6-13.8c0.1-2.3,0.2-4.6,0.4-6.9c0.1-1.1,0.2-2.1,0.2-3.2
		c0.1-0.9,0.3-1.8,0.3-2.7c0-0.1-0.1,0-0.1,0c-0.1,0.9-0.4,1.8-0.6,2.8c-0.2,1.1-0.4,2.2-0.6,3.3c-0.5,2.3-0.9,4.7-1.1,7
		c-0.5,4.5-0.9,9-0.9,13.6c0,4.5,0.3,9,0.5,13.6c0.2,2.9,0.6,5.9,0.7,8.8c-0.4-1-0.7-2-1.1-3c-0.8-2.1-2-3.8-3.1-5.7
		c-2.2-3.7-4.9-6.9-7.9-9.9c-2.9-3-6.1-5.6-9.7-7.7c-1.8-1-3.7-1.9-5.7-2.3c-1.6-0.3-3.7-0.4-5.2,0.3c-0.1,0-0.2,0.2,0,0.2
		c1.7,0.4,3.4,0.3,5.1,0.8c1.9,0.6,3.7,1.5,5.4,2.5c3.5,2.1,6.4,4.9,9.2,7.8c2.2,2.3,4.2,4.6,5.9,7.2c-2.8-3-6.3-5.2-10-6.9
		c-4.6-2-9.4-2.9-14.3-2.2c-2.5,0.3-4.9,1.1-7.3,1.9c-2.2,0.8-4,1.9-5.6,3.6v0.1c3.4-3,8.3-3.8,12.6-4.3c4.8-0.6,9.6,0.7,14,2.7
		c3.8,1.7,7.1,4,9.9,7.1c1.6,1.8,2.9,3.7,4.2,5.7c0.5,0.7,0.8,1.4,1.2,2.2c0.2,0.5,0.3,0.9,0.5,1.4c0.1,0.3,0.2,0.6,0.2,0.9h3.6
		c3.6-5.7,9.4-9.2,15.8-11.2c3.5-1.1,7.1-1.8,10.7-2c4-0.3,7.9,0.6,11.7,1.6C416.4,865.5,416.8,865.1,416.5,865z"/>
</g>
<g>
	<g>
		<path class="st50" d="M306.5,877c0.8-10.8,1.7-21.6,3.2-32.3c0.3-4.3,0.6-8.5,1.1-12.7c1.1-9.8,2.8-19.6,5.3-29.1
			c1.2-4.8,2.7-9.5,4.6-14.1c0.3-0.7,0.7-1.5,1-2.2c-1.2,1.5-2.3,2.9-3.4,4.5c-9.8,15.5-17.3,32.2-18.9,50.9c-0.1,0.9-1.4,0.9-1.4,0
			c0-16.3,1.3-32.6,3.5-48.7c1-7.5,2.1-15,3.8-22.4c0.6-2.8,1.3-5.6,2.3-8.2c-4.4,7.2-6.6,16.1-9.3,23.9
			c-3.7,10.6-6.2,21.4-7.9,32.5c-1,7-1.6,14.1-1.8,21.2c-1.4-8.3-2.7-16.5-3.7-24.8c-1.6-12.6-2.6-25.2-3.8-37.9
			c-1.9-10.5-3.9-21-5.3-31.6c-0.3,0.3-0.5,0.6-0.6,0.9c-4.6,20.8-3.7,41.6-2.2,62.7c0.1,1,0.2,1.9,0.2,2.9
			c-4.2-15.2-10-29.8-17.9-43.3c-2.1-2.6-4.3-5.2-6.3-7.9c-2.2-2.9-5.9-8.6-10-11.1c1.1,2.6,2.7,5.2,4,7.6
			c2.7,4.9,4.7,10.3,6.9,15.4c3.6,8.7,6.8,17.8,9.8,26.8c-2.9-2.7-6-5.2-9-7.7c-2.7-2.2-6.7-5.2-10.3-6.4c1.2,1.6,2.4,3.2,3.4,4.9
			c2.2,3.8,3.9,7.9,5.5,12.1c0.5,0.9,0.9,1.9,1.3,2.9c3.6,8.6,6.1,17.6,8.4,26.6c2.1,8,3.3,16.1,4.1,24.3
			c-3.2-10.6-7.9-20.7-13.9-29.2c-5.7-8.1-13-13.9-22.1-17.6c-4.9-2-13.2-5.4-19.4-5.5c4.3,2.4,8.3,5.5,12.1,8.6
			c6.3,5.1,11.8,11.2,16,18.1c8.2,13.5,14.7,30.2,15.1,46.3h55.6V877z"/>
		<g>
			<path class="st51" d="M248.3,857.2c-1.5-8.5-4.6-17-9-24.5c-4.1-7-9.3-13.7-15.7-18.6c-3.1-2.4-6.4-4.3-9.8-6
				c2,1.5,4,3.1,5.9,4.6c6.3,5.1,11.8,11.2,16,18.1c5.8,9.5,10.7,20.7,13.3,32C248.9,860.9,248.7,859,248.3,857.2z"/>
			<path class="st51" d="M243.7,790.6c2.2,3.8,3.9,7.9,5.5,12.1c0.5,0.9,0.9,1.9,1.3,2.9c3.6,8.6,6.1,17.6,8.4,26.6
				c1.9,7.4,3.1,14.8,3.9,22.4c0.1-0.7,0.1-1.5,0.1-2.2c0.2-4.2-0.1-8.4-0.5-12.5c-0.9-8-2.3-16.1-4.6-23.8
				c-3.1-10.1-7.2-21.9-15.3-29.4c-0.8-0.4-1.5-0.7-2.3-1C241.6,787.2,242.7,788.8,243.7,790.6z"/>
			<path class="st51" d="M240,752.4c0.9,1.8,2,3.6,2.9,5.3c2.7,4.9,4.7,10.3,6.9,15.4c3.4,8.2,6.4,16.7,9.3,25.2
				c0.7,0.8,1.3,1.7,2,2.6C258.3,783.6,250.5,766.4,240,752.4z"/>
			<path class="st51" d="M288.4,839.5c0.3,6.1,1.1,12.2,3.1,17.8c-1.2-16,0.3-32.1,2.6-48c1.2-8.4,2.9-16.7,5.3-24.9
				c1.4-4.5,2.9-8.9,4.2-13.5c-2,5.1-3.6,10.6-5.3,15.6c-3.7,10.6-6.2,21.4-7.9,32.5c-1,7-1.6,14.1-1.8,21.2
				C288.5,840,288.4,839.8,288.4,839.5z"/>
			<path class="st51" d="M302.3,858.8c0.2-13.7,1.2-27.1,4.8-40.4c2.8-10.5,6.4-21.7,13.8-30.1c0.3-0.6,0.5-1.2,0.8-1.7
				c-1.2,1.5-2.3,2.9-3.4,4.5c-9.5,15-16.8,31.1-18.7,49.1C299.7,846.4,300.8,852.6,302.3,858.8z"/>
			<path class="st51" d="M273.1,811.4c0.2,1.2,0.4,2.3,0.5,3.5c-0.8-22.7,1.9-45.5,1.6-68.2c0,0.1-0.1,0.1-0.1,0.2
				c-4.6,20.8-3.7,41.6-2.2,62.7C272.9,810.1,273,810.7,273.1,811.4z"/>
		</g>
		<g>
			<path class="st52" d="M269.2,819c-2.6-7-5.8-13.7-10.2-19.7c-2.7-2.5-5.6-4.9-8.4-7.2c-2.4-2-5.9-4.5-9.1-5.9l0,0
				c5.8,3.2,10.4,9.3,14,14.5c5.6,8,10.2,17.1,13.7,26.2c3.2,8.5,5.2,17.3,6.9,26.2C274.8,841.5,272.2,830.1,269.2,819z"/>
			<path class="st52" d="M271.5,806.9c-4-13.2-9.3-26-16.3-37.8c-2.1-2.6-4.3-5.2-6.3-7.9c-2.1-2.8-5.7-8.3-9.7-11
				c10.3,13,17,28.4,22.8,43.8c4.2,11.2,8.6,22.4,12.1,33.9C273.6,820.9,272.9,813.8,271.5,806.9z"/>
			<path class="st52" d="M282.2,812.7c1.6,11.3,3.2,22.6,5.7,33.7c0.3,1.4,0.6,2.7,1,4.1c-0.6-5.9-1.2-11.8-1.6-17.8
				c-0.9-5.8-1.8-11.5-2.5-17.3c-1.6-12.6-2.6-25.2-3.8-37.9c-1.4-7.9-2.8-15.7-4.1-23.6C277.5,773.6,279.5,793.3,282.2,812.7z"/>
			<path class="st52" d="M295.5,820.1c-0.4,5.4-0.5,10.8-0.6,16.2c0.6,8.9,1.7,17.7,3,26.5c-0.2-6.8-0.1-13.6,0.3-20.4
				c-0.2-0.1-0.3-0.3-0.3-0.5c0-16.3,1.3-32.6,3.5-48.7c1-7.5,2.1-15,3.8-22.4c0.6-2.6,1.3-5.2,2.1-7.8
				C299.2,780.8,296.8,800.8,295.5,820.1z"/>
			<path class="st52" d="M308.8,831.4c-1.3,12.6-1.6,25.2-1.7,37.8c0.7-8.2,1.4-16.3,2.6-24.5c0.3-4.3,0.6-8.5,1.1-12.7
				c1.1-9.8,2.8-19.6,5.3-29.1c1.2-4.8,2.7-9.5,4.6-14.1c0.2-0.4,0.3-0.8,0.5-1.1c-1.3,1.6-2.4,3.3-3.5,5.1
				C311.5,804.2,310.1,818.8,308.8,831.4z"/>
			<path class="st52" d="M222.7,808.4c3.6,2.2,7,4.8,10.2,7.5c6.6,5.8,12.4,12.5,17.2,19.9c8.1,12.6,13.2,26.7,16.4,41.3h0.1
				c-0.6-5.6-1.7-11.1-2.8-16.5c-0.5-2.7-1.2-5.3-1.9-7.9c-3.1-9.2-7.4-17.9-12.6-25.4c-5.7-8.1-13-13.9-22.1-17.6
				c-2-0.8-4.7-1.9-7.5-2.9C220.7,807.2,221.7,807.8,222.7,808.4z"/>
		</g>
	</g>
	<g>
		<path class="st50" d="M727.6,880.1c0.8-6.5,1.5-12.9,2.7-19.3c0.3-2.5,0.6-5.1,1-7.6c0.9-5.8,2.2-11.6,3.9-17.3
			c0.9-2.8,1.9-5.6,3.1-8.3c0.2-0.4,0.4-0.9,0.7-1.3c-0.7,0.8-1.5,1.7-2.2,2.6c-6.2,9-11.2,18.8-12.6,30c-0.1,0.5-0.8,0.5-0.8,0
			c0.4-9.7,1.6-19.5,3.3-29.1c0.8-4.4,1.6-9,2.8-13.3c0.5-1.6,0.9-3.3,1.6-4.9c-2.8,4.2-4.4,9.5-6.2,14.1
			c-2.5,6.2-4.3,12.7-5.5,19.3c-0.8,4.2-1.3,8.4-1.6,12.6c-0.6-5-1.2-10-1.6-15c-0.6-7.6-0.9-15.2-1.3-22.8
			c-0.8-6.4-1.8-12.7-2.4-19.1c-0.2,0.1-0.3,0.3-0.4,0.5c-3.3,12.3-3.3,24.8-2.9,37.5c0,0.6,0,1.2,0.1,1.7
			c-2.1-9.2-5.2-18.1-9.6-26.4c-1.2-1.6-2.4-3.2-3.5-4.9c-1.2-1.8-3.3-5.3-5.7-6.9c0.6,1.6,1.5,3.2,2.2,4.6c1.5,3,2.5,6.3,3.7,9.4
			c2,5.3,3.6,10.8,5.2,16.3c-1.6-1.7-3.4-3.3-5.2-4.9c-1.6-1.4-3.9-3.3-6-4.1c0.7,1,1.3,2,1.9,3c1.2,2.4,2.1,4.9,3,7.4
			c0.3,0.6,0.5,1.2,0.7,1.8c1.9,5.2,3.2,10.7,4.3,16.2c1,4.8,1.6,9.7,1.8,14.7c-1.7-6.4-4.2-12.6-7.5-17.8c-3.2-5-7.4-8.6-12.7-11.1
			c-2.9-1.3-7.7-3.6-11.4-3.8c2.5,1.5,4.8,3.5,7,5.4c3.6,3.2,6.7,7,9.1,11.2c4.5,8.3,8,18.5,7.8,28.1L727.6,880.1z"/>
		<g>
			<path class="st51" d="M693.5,866.8c-0.7-5.2-2.3-10.3-4.7-14.9c-2.2-4.3-5.2-8.4-8.9-11.6c-1.8-1.5-3.7-2.8-5.7-3.8
				c1.2,0.9,2.3,1.9,3.4,2.9c3.6,3.2,6.7,7,9.1,11.2c3.2,5.9,5.8,12.6,7.1,19.5C693.7,869,693.6,867.9,693.5,866.8z"/>
			<path class="st51" d="M692.4,826.7c1.2,2.4,2.1,4.9,3,7.4c0.3,0.6,0.5,1.2,0.7,1.8c1.9,5.2,3.2,10.7,4.3,16.2
				c1,4.5,1.5,9,1.8,13.5c0.1-0.4,0.1-0.9,0.1-1.3c0.2-2.5,0.2-5,0-7.5c-0.3-4.8-0.9-9.7-2.2-14.4c-1.6-6.1-3.8-13.3-8.3-18
				c-0.4-0.3-0.9-0.5-1.3-0.7C691.2,824.7,691.9,825.7,692.4,826.7z"/>
			<path class="st51" d="M691.2,803.8c0.5,1.1,1.1,2.2,1.6,3.2c1.5,3,2.5,6.3,3.7,9.4c1.8,5,3.4,10.2,4.9,15.3
				c0.4,0.5,0.8,1.1,1.1,1.6C701.3,822.9,697.1,812.5,691.2,803.8z"/>
			<path class="st51" d="M717.8,857.2c0,3.7,0.4,7.3,1.4,10.7c-0.3-9.6,1-19.2,2.7-28.7c0.9-5,2.1-9.9,3.8-14.8
				c0.9-2.7,2-5.3,2.8-7.9c-1.3,3-2.4,6.2-3.6,9.2c-2.5,6.2-4.3,12.7-5.5,19.3c-0.8,4.2-1.3,8.4-1.6,12.6
				C717.8,857.5,717.8,857.4,717.8,857.2z"/>
			<path class="st51" d="M725.6,869.1c0.5-8.2,1.4-16.2,3.9-24.1c2-6.2,4.4-12.9,9-17.7c0.2-0.3,0.3-0.7,0.5-1
				c-0.7,0.8-1.5,1.7-2.2,2.6c-6,8.7-10.8,18.2-12.4,28.9C724.3,861.6,724.8,865.4,725.6,869.1z"/>
			<path class="st51" d="M709.3,840c0.1,0.7,0.2,1.4,0.2,2.1c0.1-13.6,2.3-27.2,2.7-40.8c0,0,0,0.1-0.1,0.1
				c-3.3,12.3-3.3,24.8-2.9,37.5C709.3,839.2,709.3,839.6,709.3,840z"/>
		</g>
		<g>
			<path class="st52" d="M706.9,844.4c-1.3-4.3-3.1-8.3-5.5-12.1c-1.5-1.6-3.2-3.1-4.8-4.5c-1.4-1.2-3.4-2.9-5.3-3.8l0,0
				c3.4,2.1,5.9,5.9,8,9.1c3.1,4.9,5.7,10.5,7.5,16c1.7,5.2,2.6,10.5,3.4,15.8C709.6,858.1,708.4,851.2,706.9,844.4z"/>
			<path class="st52" d="M708.5,837.2c-2.1-8-4.9-15.8-8.8-23.1c-1.2-1.6-2.4-3.2-3.5-4.9c-1.2-1.8-3.2-5.1-5.5-6.8
				c5.8,8.1,9.4,17.4,12.4,26.8c2.2,6.8,4.5,13.7,6.4,20.6C709.4,845.7,709.2,841.4,708.5,837.2z"/>
			<path class="st52" d="M714.8,841c0.6,6.8,1.3,13.6,2.5,20.3c0.1,0.8,0.3,1.6,0.5,2.5c-0.2-3.5-0.4-7.1-0.5-10.7
				c-0.4-3.5-0.8-6.9-1.1-10.4c-0.6-7.6-0.9-15.2-1.3-22.8c-0.6-4.7-1.3-9.5-1.9-14.2C712.9,817.5,713.7,829.3,714.8,841z"/>
			<path class="st52" d="M722.5,845.7c-0.4,3.2-0.6,6.5-0.8,9.7c0.1,5.3,0.6,10.7,1.1,16c0.1-4.1,0.3-8.1,0.7-12.2
				c-0.1-0.1-0.2-0.2-0.1-0.3c0.4-9.7,1.6-19.5,3.3-29.1c0.8-4.4,1.6-9,2.8-13.3c0.4-1.5,0.9-3.1,1.5-4.6
				C725.7,822.3,723.8,834.3,722.5,845.7z"/>
			<path class="st52" d="M730.1,852.8c-1.1,7.5-1.6,15-2,22.6c0.6-4.9,1.3-9.7,2.2-14.6c0.3-2.5,0.6-5.1,1-7.6
				c0.9-5.8,2.2-11.6,3.9-17.3c0.9-2.8,1.9-5.6,3.1-8.3c0.1-0.2,0.2-0.4,0.3-0.7c-0.8,0.9-1.5,1.9-2.2,3
				C732.4,836.7,731.2,845.3,730.1,852.8z"/>
			<path class="st52" d="M679.4,836.9c2.1,1.4,4.1,3,5.9,4.8c3.8,3.6,7.1,7.8,9.7,12.3c4.5,7.8,7.2,16.3,8.7,25.1h0.1
				c-0.2-3.3-0.7-6.7-1.2-9.9c-0.2-1.6-0.6-3.2-0.9-4.8c-1.6-5.6-4-10.9-6.9-15.5c-3.2-5-7.4-8.6-12.7-11.1
				c-1.2-0.6-2.7-1.3-4.4-1.9C678.3,836.2,678.9,836.5,679.4,836.9z"/>
		</g>
	</g>
	<g>
		<path class="st50" d="M509.2,867.5c4.7-4.3,13.1-7.4,18.5-7.5c0.4,0,0.7-0.1,1.1-0.3c-6.8-3.7-14.4-4.4-22-2.6
			c-3.2,1.1-6.2,2.6-8.9,4.5c2.1-4.3,4.5-8.5,7.4-12.4c2.5-3.4,6-6.4,8-10.1c0.1-0.1,0.1-0.2,0.1-0.3c0,0-6.4,0.8-6.9,0.9
			c-8.8,2.4-19.6,10.6-23.4,19c0.7-1.5-1.7-6.8-2.6-8.2c-1.8-2.9-4.7-4.7-7.8-5.9c-0.1,0.7,0.1,0.9,0.8,2.1
			c2.1,3.8,3.4,8.9,3.7,13.6c-3.9-4.2-7.2-7.1-11.8-9.2c-3.8-0.9-7.5-1.6-11.7-1.1c-3,0.4-6.8,1-10.1,2.3c4.4,0.4,8.5,0.2,13.1,1.6
			c2.9,0.9,8.5,4,11.9,7.6c-12.5-3.5-27.9,2.8-36.2,11.7c-0.1,0.1-0.2,0.2-0.2,0.4c8.3-4.9,17-7.1,26.7-3.5c5.6,2.1,9.6,6,14.7,8.8
			c8.8,4.8,18.4,2.5,26.7-0.6c4.9-1.8,9.6-6.2,14.7-7.1c2.6-0.4,5.2-0.8,7.8-1.1c1.6-0.2,6.1-1.4,7.4-0.6
			C524.1,866.1,516,867.5,509.2,867.5z"/>
		<g>
			<path class="st52" d="M474.7,867.3c-2.9-3.3-6.2-5.4-9.9-6.5c-10.2-1.3-21.7,3-29.4,9.5c7.1-4.4,16.3-6,24.3-4.1
				c6.2,1.5,12.2,4.4,17.1,8.5c1.7,1.5,3.4,3,5,4.7C479.9,875.1,477.9,870.9,474.7,867.3z"/>
			<path class="st52" d="M483.4,858c-0.1,0.2-0.2,0.4-0.3,0.7c0.7-1.5-1.7-6.8-2.6-8.2c-1.7-2.9-4.7-4.7-7.8-5.9
				c5.6,5.5,8.4,12.4,9.9,19.9C482.8,862.2,483,860.1,483.4,858z"/>
			<path class="st52" d="M496.3,854.8c-2.9,5.6-4.7,11.7-5.2,18c1.9-4.3,4.1-8.3,7-11.7c2-4.2,4.4-8.2,7.1-11.9
				c2.5-3.4,5.8-6.3,7.9-9.9C506.2,840.9,499.4,848.9,496.3,854.8z"/>
			<path class="st52" d="M504.1,874.3c-2.4,1.6-4.7,3.5-7.1,5.1c1.1-0.3,2.1-0.7,3.1-1.1c4.9-1.8,9.6-6.2,14.7-7.1
				c2.6-0.4,5.2-0.8,7.8-1.1c1.6-0.2,6.1-1.4,7.4-0.6c-0.1-0.1-0.3-0.1-0.4-0.2C520.5,868.4,512,868.9,504.1,874.3z"/>
			<path class="st52" d="M508.7,861.8c-4.9,2.7-10.2,6.4-12.6,11.7c3.5-1.8,7.3-3.1,10.9-4.8c0.8-0.4,1.5-0.8,2.3-1.2h-0.1
				c4.7-4.3,13.1-7.4,18.5-7.5c0.4,0,0.7-0.1,1.1-0.3c-0.1-0.1-0.3-0.1-0.4-0.2C521.8,857.9,514.6,858.5,508.7,861.8z"/>
			<path class="st52" d="M477.1,859.8c0,0.1,0,0.3,0,0.4c-3.9-4.2-7.2-7.1-11.8-9.2c-3.8-0.9-7.5-1.6-11.7-1.1
				c-1.5,0.2-3.2,0.4-5,0.8c9.6-0.5,18.9,4.1,26.3,10.6c1.1,1,2.1,2,3,3.1C477.7,862.9,477.5,861.4,477.1,859.8z"/>
		</g>
	</g>
	<g>
		<g>
			<path class="st53" d="M797.5,877.8c-22.1-3.5-45.8-1.8-68.2-2c-24.4-0.3-48.9,0-73.4,0c-47.7,0-95.4,0-143,0.1
				c-47.7,0-95.3,0.1-143,0.1c-46.7,0-94.1-2.5-140.5,2.9c-0.2,0-0.5,0.5-0.1,0.6c46.7,5.9,95,2.9,142,2.9c47.7,0,95.3,0,143,0.1
				c47.7,0,95.3,0.1,143,0.1c23.2,0,46.5,0.3,69.7,0c23-0.3,47.1,1.3,70-2.1C797.9,880.2,799,878.1,797.5,877.8z"/>
			<g>
				<g>
					<g>
						<path class="st54" d="M336.3,833.7c-0.7-3.3-1.5-6.6-2-8.5c-0.1,0-0.2,0-0.4,0c-20.9,0.8-28.1,26.4-28.1,26.4s7.1,4.8,15.8,10
							c2.7-4.2,7.2-11.2,10.4-15.6C335.9,840.2,336.9,839.2,336.3,833.7z"/>
						<g>
							<path class="st55" d="M340.8,839.3c5.4,2.2,17.8,9,25.5,15.6c4.5,3.9,7.5,7.7,9.1,10.1c-0.1-5.8-3-12.3-8.8-20.3
								c-10.5-12.1-22.6-19-32.3-19.5c0.5,1.9,1.3,5.2,2,8.5c0.1,0.6,0.1,1.1,0.1,1.6C337.2,836.7,338.5,838.3,340.8,839.3z"/>
							<path class="st56" d="M366.3,854.9c-7.6-6.6-20.1-13.4-25.5-15.6c-2.3-1-3.6-2.6-4.4-4.1c0.2,4.2-1,5.6-4.4,10.8
								c-3.2,4.4-7.7,11.3-10.4,15.6c7.4,4.5,16,9.3,22.2,11.7c13.5,5.2,27.1,4.5,30.1-1.2c1-2.3,1.4-4.6,1.4-7.2
								C373.8,862.6,370.8,858.8,366.3,854.9z"/>
						</g>
					</g>
					<g>
						<path class="st57" d="M358,866.9c0.3-4.6-1.5-11.4-2.3-14.4c-2.4-1.7-5-3.3-7.7-4.4c-9.3-4.2-19.3,4.1-19.3,4.1l12.3,24.5
							C350.6,873.8,357.8,871,358,866.9z"/>
						<g>
							<path class="st54" d="M369.8,867.6c-2.1-4-7.4-10.3-14.1-15.1c0.9,3.1,2.6,9.9,2.3,14.4c0,0.3-0.1,0.6-0.2,0.9
								c2.1,1.2,7.2,4.1,11.3,5.8C370.7,871.9,370.9,869.9,369.8,867.6z"/>
							<path class="st55" d="M357.8,867.8c-1.1,3.7-7.9,6.2-16.8,8.9l0.8,1.6c0,0,7.6,1.3,16.7-0.1c5.2-1.1,8.8-2.6,10.6-4.6
								C365,871.9,359.9,869,357.8,867.8z"/>
						</g>
					</g>
					<g>
						<path class="st57" d="M323.7,861.7c-2.9-7.7-6.3-13.1-7.6-14.9c-1.1,0-2.1,0.1-3.1,0.4c-10.6,2.8-16.7,11.1-16.7,11.1
							c-6.4,8.1-1.1,12.2,4.6,17.2c2.5,2.2,5.5,3.3,9.5,4c1.9-0.8,5.3-2.5,8.8-5C324.3,870.8,326,868.6,323.7,861.7z"/>
						<g>
							<path class="st54" d="M350.6,869.7c-2.8-4.1-9.1-10.4-14.8-14.2c-5.6-4.1-13.2-8.7-19.7-8.6c1.3,1.8,4.7,7.2,7.6,14.9
								c1.4,4.2,1.4,6.6-0.1,8.8c1.8-0.9,4.2-1.7,7.4-1.8C337.8,868.4,346.1,868.7,350.6,869.7z"/>
							<path class="st55" d="M350.6,869.7c-4.5-1-12.8-1.3-19.7-1c-3.2,0.1-5.6,0.9-7.4,1.8c-0.9,1.4-2.4,2.6-4.4,4
								c-3.4,2.5-6.8,4.1-8.8,5c5,0.7,11.6,0.7,21.2,0.5c17.3-0.7,21.5-4.4,20.4-7.7C351.8,871.6,351.3,870.7,350.6,869.7z"/>
						</g>
					</g>
				</g>
				<g>
					<g>
						<path class="st54" d="M737.6,851.6c-0.4-2-0.9-4-1.2-5.2c-0.1,0-0.1,0-0.2,0c-12.8,0.5-17.3,16.2-17.3,16.2s4.4,2.9,9.7,6.2
							c1.7-2.6,4.4-6.9,6.4-9.6C737.4,855.6,738,855,737.6,851.6z"/>
						<g>
							<path class="st55" d="M740.4,855c3.3,1.4,11,5.5,15.6,9.6c2.8,2.4,4.6,4.7,5.6,6.2c-0.1-3.5-1.8-7.6-5.4-12.5
								c-6.4-7.5-13.9-11.7-19.8-12c0.3,1.2,0.8,3.2,1.2,5.2c0,0.3,0.1,0.7,0.1,1C738.2,853.5,739,854.4,740.4,855z"/>
							<path class="st56" d="M756.1,864.6c-4.7-4.1-12.3-8.2-15.6-9.6c-1.4-0.6-2.2-1.6-2.7-2.5c0.1,2.6-0.6,3.4-2.7,6.6
								c-2,2.7-4.7,7-6.4,9.6c4.6,2.8,9.8,5.7,13.7,7.2c8.3,3.2,16.6,2.8,18.5-0.7c0.6-1.4,0.9-2.8,0.9-4.4
								C760.7,869.3,758.8,867,756.1,864.6z"/>
						</g>
					</g>
					<g>
						<path class="st57" d="M750.9,872c0.2-2.8-0.9-7-1.4-8.9c-1.5-1.1-3.1-2-4.7-2.7c-5.7-2.6-11.9,2.5-11.9,2.5l7.6,15.1
							C746.4,876.2,750.8,874.5,750.9,872z"/>
						<g>
							<path class="st54" d="M758.2,872.4c-1.3-2.5-4.6-6.3-8.7-9.3c0.5,1.9,1.6,6.1,1.4,8.9c0,0.2,0,0.4-0.1,0.6
								c1.3,0.7,4.4,2.5,6.9,3.6C758.7,875.1,758.9,873.8,758.2,872.4z"/>
							<path class="st55" d="M750.9,872.5c-0.7,2.2-4.9,3.8-10.3,5.5l0.5,1c0,0,4.7,0.8,10.3-0.1c3.2-0.7,5.4-1.6,6.5-2.8
								C755.3,875.1,752.1,873.3,750.9,872.5z"/>
						</g>
					</g>
					<g>
						<path class="st57" d="M729.9,868.8c-1.8-4.7-3.9-8-4.7-9.2c-0.7,0-1.3,0.1-1.9,0.3c-6.5,1.7-10.3,6.8-10.3,6.8
							c-3.9,5-0.7,7.5,2.8,10.5c1.6,1.3,3.4,2.1,5.9,2.4c1.2-0.5,3.3-1.5,5.4-3C730.3,874.4,731.3,873,729.9,868.8z"/>
						<g>
							<path class="st54" d="M746.4,873.7c-1.7-2.5-5.6-6.4-9.1-8.7c-3.4-2.5-8.1-5.3-12.1-5.3c0.8,1.1,2.9,4.4,4.7,9.2
								c0.9,2.6,0.8,4.1,0,5.4c1.1-0.5,2.6-1,4.5-1.1C738.5,872.9,743.7,873.1,746.4,873.7z"/>
							<path class="st55" d="M746.4,873.7c-2.8-0.6-7.9-0.8-12.1-0.6c-1.9,0.1-3.4,0.6-4.5,1.1c-0.6,0.8-1.5,1.6-2.7,2.5
								c-2.1,1.5-4.2,2.5-5.4,3c3,0.5,7.1,0.4,13,0.3c10.6-0.4,13.2-2.7,12.5-4.8C747.2,874.9,746.8,874.3,746.4,873.7z"/>
						</g>
					</g>
				</g>
				<g>
					<g>
						<path class="st57" d="M553.7,861.2c-2.3-7.9-5.4-13.5-6.5-15.4c-1.1-0.1-2.1,0-3.1,0.2c-10.7,2-17.5,9.9-17.5,9.9
							c-7,7.6-2,12.1,3.4,17.5c2.4,2.3,5.2,3.7,9.2,4.6c2-0.7,5.5-2.1,9.1-4.3C553.7,870.3,555.6,868.2,553.7,861.2z"/>
						<g>
							<path class="st54" d="M580,871.1c-2.6-4.3-8.3-11-13.8-15.3c-5.3-4.4-12.5-9.6-19-10c1.1,1.9,4.2,7.5,6.5,15.4
								c1.1,4.3,0.9,6.7-0.7,8.7c1.8-0.8,4.3-1.4,7.5-1.3C567.4,868.9,575.6,869.7,580,871.1z"/>
							<path class="st55" d="M580,871.1c-4.4-1.3-12.7-2.2-19.5-2.4c-3.2-0.1-5.6,0.5-7.5,1.3c-1,1.3-2.6,2.4-4.7,3.7
								c-3.6,2.2-7.1,3.6-9.1,4.3c4.9,1.1,11.5,1.5,21.1,2c17.3,0.6,21.8-2.8,20.9-6.3C581.1,873.1,580.7,872.2,580,871.1z"/>
						</g>
					</g>
				</g>
				<g>
					<g>
						<path class="st57" d="M587.9,868.6c-1.8-4.8-4-8.2-4.7-9.3c-0.7,0-1.3,0.1-1.9,0.3c-6.6,1.8-10.5,7-10.5,7
							c-4,5.1-0.7,7.7,2.9,10.7c1.6,1.4,3.4,2.1,6,2.5c1.2-0.5,3.3-1.6,5.5-3.1C588.3,874.3,589.4,872.9,587.9,868.6z"/>
						<g>
							<path class="st54" d="M604.8,873.6c-1.8-2.6-5.7-6.5-9.3-8.9c-3.5-2.5-8.3-5.4-12.3-5.4c0.8,1.1,2.9,4.5,4.7,9.3
								c0.9,2.6,0.9,4.2,0,5.5c1.1-0.6,2.6-1,4.6-1.1C596.7,872.8,601.9,872.9,604.8,873.6z"/>
							<path class="st55" d="M604.8,873.6c-2.8-0.6-8-0.8-12.3-0.6c-2,0.1-3.5,0.6-4.6,1.1c-0.6,0.9-1.5,1.6-2.8,2.5
								c-2.1,1.5-4.3,2.6-5.5,3.1c3.1,0.5,7.3,0.4,13.3,0.3c10.8-0.4,13.5-2.7,12.8-4.8C605.5,874.8,605.2,874.2,604.8,873.6z"/>
						</g>
					</g>
				</g>
			</g>
		</g>
		<g>
			<path class="st50" d="M779.7,870c2.5-2.3,7.1-4,10-4.1c0.2,0,0.4-0.1,0.6-0.2c-3.7-2-7.8-2.4-11.9-1.4c-1.7,0.6-3.3,1.4-4.8,2.5
				c1.1-2.3,2.5-4.6,4-6.7c1.4-1.9,3.2-3.5,4.3-5.5c0-0.1,0-0.1,0.1-0.2c0,0-3.5,0.4-3.8,0.5c-4.8,1.3-10.6,5.7-12.7,10.3
				c0.4-0.8-0.9-3.7-1.4-4.5c-1-1.6-2.6-2.5-4.2-3.2c0,0.4,0.1,0.5,0.4,1.1c1.1,2.1,1.9,4.8,2,7.4c-2.1-2.3-3.9-3.8-6.4-5
				c-2-0.5-4-0.9-6.3-0.6c-1.6,0.2-3.7,0.5-5.5,1.2c2.4,0.2,4.6,0.1,7.1,0.9c1.6,0.5,4.6,2.2,6.5,4.1c-6.8-1.9-15.2,1.5-19.6,6.4
				c-0.1,0.1-0.1,0.1-0.1,0.2c4.5-2.6,9.2-3.8,14.5-1.9c3.1,1.1,5.2,3.3,8,4.8c4.8,2.6,10,1.3,14.5-0.3c2.6-1,5.2-3.4,8-3.8
				c1.4-0.2,2.8-0.4,4.2-0.6c0.9-0.1,3.3-0.7,4-0.3C787.8,869.2,783.4,870,779.7,870z"/>
			<g>
				<path class="st52" d="M761,869.9c-1.6-1.8-3.4-2.9-5.4-3.5c-5.6-0.7-11.8,1.6-16,5.2c3.9-2.4,8.8-3.3,13.2-2.2
					c3.4,0.8,6.6,2.4,9.3,4.6c0.9,0.8,1.9,1.6,2.7,2.5C763.9,874.1,762.8,871.8,761,869.9z"/>
				<path class="st52" d="M765.8,864.8c-0.1,0.1-0.1,0.2-0.2,0.4c0.4-0.8-0.9-3.7-1.4-4.5c-0.9-1.6-2.6-2.5-4.2-3.2
					c3,3,4.5,6.7,5.4,10.8C765.4,867.1,765.5,866,765.8,864.8z"/>
				<path class="st52" d="M772.8,863.1c-1.6,3.1-2.5,6.3-2.8,9.7c1-2.3,2.2-4.5,3.8-6.4c1.1-2.3,2.4-4.4,3.9-6.5
					c1.3-1.8,3.2-3.4,4.3-5.4C778.1,855.6,774.4,859.9,772.8,863.1z"/>
				<path class="st52" d="M776.9,873.6c-1.3,0.9-2.5,1.9-3.8,2.8c0.6-0.2,1.1-0.4,1.7-0.6c2.6-1,5.2-3.4,8-3.8
					c1.4-0.2,2.8-0.4,4.2-0.6c0.9-0.1,3.3-0.7,4-0.3c-0.1,0-0.2-0.1-0.2-0.1C785.9,870.4,781.3,870.7,776.9,873.6z"/>
				<path class="st52" d="M779.5,866.9c-2.7,1.5-5.5,3.5-6.8,6.3c1.9-1,4-1.7,5.9-2.6c0.4-0.2,0.8-0.4,1.3-0.7c0,0,0,0-0.1,0
					c2.5-2.3,7.1-4,10-4.1c0.2,0,0.4-0.1,0.6-0.2c-0.1,0-0.1-0.1-0.2-0.1C786.6,864.8,782.7,865.1,779.5,866.9z"/>
				<path class="st52" d="M762.3,865.8c0,0.1,0,0.1,0,0.2c-2.1-2.3-3.9-3.8-6.4-5c-2-0.5-4-0.9-6.3-0.6c-0.8,0.1-1.8,0.2-2.7,0.4
					c5.2-0.2,10.3,2.2,14.3,5.8c0.6,0.5,1.1,1.1,1.7,1.7C762.7,867.5,762.5,866.7,762.3,865.8z"/>
			</g>
		</g>
	</g>
</g>
</svg>
