<?xml version="1.0" encoding="utf-8"?>
<!-- Generator: Adobe Illustrator 24.3.0, SVG Export Plug-In . SVG Version: 6.00 Build 0)  -->
<svg version="1.1" id="Layer_1" xmlns="http://www.w3.org/2000/svg" xmlns:xlink="http://www.w3.org/1999/xlink" x="0px" y="0px"
	 viewBox="0 0 882.1 881" style="enable-background:new 0 0 882.1 881;" xml:space="preserve">
<style type="text/css">
	.st0{fill:none;stroke:#FFFFFF;stroke-width:2.12;stroke-miterlimit:10;}
	.st1{fill:#773419;}
	.st2{fill:#FFFFFF;}
	.st3{fill:#CFD1D2;}
	.st4{fill:#59595B;}
	.st5{fill:#E5E5E6;}
	.st6{fill:#919395;}
	.st7{fill:#D3616A;}
	.st8{fill:#B5495B;}
	.st9{fill:#F0F1F1;}
	.st10{fill:#4674B7;}
</style>
<g>
	<g id="Layer_2_1_">
		<g id="Layer_1-2">
			<circle class="st0" cx="363.4" cy="496.8" r="296"/>
			<path class="st1" d="M366.3,800.4C200.4,800.3,66,665.7,66.1,499.8c0.1-120.6,72.3-229.4,183.3-276.4
				c152.8-64.6,329,7,393.6,159.8s-7,329-159.8,393.6C446.2,792.5,406.4,800.5,366.3,800.4z"/>
			<path class="st2" d="M366.3,201.5c164.9,0,298.6,133.7,298.6,298.6S531.2,798.7,366.3,798.7S67.6,665,67.6,500.1
				S201.3,201.5,366.3,201.5 M366.3,198.1c-166.8,0.1-302,135.4-301.9,302.2c0.1,121.3,72.7,230.7,184.3,278
				c153.8,64.7,330.9-7.4,395.6-161.2c64.6-153.5-7.2-330.3-160.5-395.3C446.6,206.1,406.7,198,366.3,198.1z"/>
			<path class="st2" d="M295.6,287h2.3c1.8,0,3.7,0.2,5.5,0.4c2.4,0.3,4.8,0.8,7.2,1.5c2.7,0.7,5.3,1.8,7.7,3.1
				c2.5,1.4,4.8,3.2,6.8,5.3c2.1,2.3,3.7,5.1,4.5,8.1c1,3.8,1.4,7.7,1,11.6c-0.3,4.5-1.7,9.7-4,15.7c-1.9,5.1-4.4,9.9-7.4,14.4
				c-2.7,3.9-5.7,7.6-9.1,10.9c-3,3-6.2,5.6-9.8,7.8c-3,2-6.2,3.7-9.6,5.1c-2.7,1.2-5.5,2.2-8.4,2.9c-2.1,0.5-4.2,0.9-6.4,1
				c-4,0.3-7.9-0.2-11.7-1.3c-2.8-0.9-5.4-2.4-7.6-4.4c-1.9-1.8-3.3-3.9-4.3-6.3c-0.9-2.2-1.5-4.5-1.8-6.9c-1.6,0.1-3.2,0.2-4.8,0.2
				c-1.6,0-3.2-0.1-4.7-0.3c-4.8-0.4-9.4-1.6-13.7-3.7c-3.9-2-7.6-4.2-11.2-6.7c-4.1,6.1-7.7,12.6-10.7,19.4
				c-2.8,6.2-4.8,12.6-6.1,19.3c-1.2,5.9-1.4,11.9-0.7,17.8c0.6,5.3,2.5,10.5,5.5,14.9c3.2,4.5,7.6,8.1,12.6,10.4
				c5.4,2.7,12.2,4.2,20.4,4.5c5.6,0.3,11.2-0.4,16.5-2c9.4-2.9,17.8-8.2,24.5-15.4c2.9-3,5.5-6.3,7.8-9.8c1.9-2.7,3.4-5.7,4.7-8.7
				c0.8-1.8,1.4-3.8,1.7-5.8c-0.1-1.1,0.3-2.2,1-3.1c0.5-0.7,1.3-1.2,2.2-1.4c0.8-0.1,1.7,0.1,2.3,0.7c0.8,0.7,1.4,1.7,1.5,2.7
				c0.4-0.3,0.6-0.1,0.5,0.6c-0.1,0.4-0.2,2.3-0.4,5.7c-0.2,3.4-0.5,7.9-1,13.3c-0.5,5.4-1.3,11.6-2.2,18.6
				c-1,7.3-2.4,14.5-4.2,21.6c3.8,1.5,7.4,3.4,10.7,5.7c2.6,1.8,5,3.8,7.2,6c1.6,1.6,3.1,3.4,4.4,5.3c1.1,1.6,1.8,2.7,2.4,3.5
				c0.8,1,1.2,2.3,1.1,3.6c0,1-0.3,2-0.9,2.9c-0.5,0.7-1.2,1.2-2,1.3c-0.8,0.1-1.5-0.3-2.1-1.3c-0.4-0.6-1.1-1.7-2.1-3.1
				c-1.2-1.8-2.6-3.5-4.2-5c-2.1-2.1-4.3-4-6.7-5.8c-3-2.2-6.3-4-9.7-5.5c-1.6,5.7-3.5,11.3-5.6,16.9c-2.1,5.5-4.6,10.9-7.4,16
				c-2.7,5-5.9,9.7-9.5,14.1c-3.5,4.3-7.5,8.1-11.9,11.3c-9.3,6.8-20.6,10.4-32.1,10.2c-7.5,0-13.9-1-19.2-3.1
				c-4.8-1.8-9.1-4.5-12.8-8.1c-3.1-3-5.4-6.7-6.8-10.8c-1.3-3.7-1.7-7.6-1.4-11.5c0.4-6.1,2.2-12.1,5.3-17.4
				c2.8-4.8,6.4-9.1,10.6-12.8c4.1-3.5,8.7-6.5,13.6-8.8c4.6-2.2,9.4-4.1,14.3-5.5c4.2-1.3,8.5-2.2,12.8-2.9c3.9-0.6,6.9-0.9,9.1-1
				c6.2-0.3,12.3-0.2,18.5,0.3c5,0.5,9.9,1.3,14.7,2.5c1.5-6.1,2.7-11.8,3.7-17.2c0.9-5.4,1.7-10.2,2.3-14.4c-2.8,3.5-5.8,6.8-9,9.9
				c-3.6,3.4-7.7,6.4-12,8.8c-4.8,2.7-9.9,4.7-15.3,6.1c-6.1,1.5-12.4,2.2-18.7,1.9c-9.4-0.4-17.4-2.2-23.9-5.4
				c-6.2-2.9-11.5-7.2-15.6-12.6c-3.9-5.3-6.6-11.5-7.8-18c-1.3-7.1-1.5-14.3-0.5-21.5c1.1-7.9,3.2-15.7,6.2-23.1
				c3.3-8.1,7.5-15.7,12.6-22.8c-2-1.1-4-2-6.1-2.7c-2.1-0.6-4.3-0.9-6.5-0.6c-4,0.3-8,1-11.8,2.1c-2.6,0.8-5.1,1.8-7.5,3
				c-1.6,0.8-3.1,1.8-4.5,2.9c-0.8,0.7-1.8,1.3-2.9,1.6c-1.6,0.3-2.7,0.1-3.4-0.6c-0.7-0.7-0.8-2.1-0.5-4.2c0.1-1.1,0.9-2.3,2.3-3.7
				c1.8-1.7,3.9-3.1,6.1-4.2c3.2-1.6,6.6-2.7,10.1-3.5c4.7-1.1,9.4-1.7,14.2-1.8c2.8-0.1,5.6,0.2,8.2,1.1c2.7,0.9,5.4,2,7.9,3.2
				c5-5.9,10.5-11.4,16.4-16.4c12.6-10.5,27.4-18.2,43.2-22.6C277.9,288.7,286.7,287.3,295.6,287z M224,515.6c5-0.2,10-1.2,14.6-3
				c4.4-1.7,8.5-4.1,12.2-7.1c3.8-3,7.1-6.5,10-10.4c3-4,5.7-8.3,8-12.7c2.4-4.6,4.5-9.3,6.3-14.2c1.8-4.9,3.5-9.9,4.9-14.8
				c-4.6-1.1-9.3-1.9-14-2.2c-5.8-0.4-11.6-0.3-17.4,0.2c-6.6,0.5-13.1,1.7-19.5,3.7c-5,1.6-9.8,3.7-14.3,6.5c-3.6,2.2-7,4.9-9.9,8
				c-2.4,2.6-4.4,5.4-6.1,8.4c-1.4,2.4-2.5,5-3.2,7.6c-0.5,1.9-0.9,3.8-1,5.7c-0.2,3.9,0.6,7.7,2.3,11.2c1.6,3.1,3.9,5.7,6.8,7.7
				c2.9,2,6.1,3.5,9.5,4.3C216.9,515.3,220.5,515.7,224,515.6z M292.4,296.8c-6.7,0-13.4,1.1-19.8,3.1c-6.5,2.1-12.8,5-18.7,8.6
				c-6.1,3.7-11.8,8-17.1,12.8c-5.4,4.9-10.3,10.2-14.8,15.8c2.1,1.3,4.3,2.6,6.5,3.9c2.2,1.2,4.5,2.4,6.9,3.4
				c2.3,1,4.8,1.8,7.2,2.5c2.5,0.7,5.1,1.1,7.8,1.3c0.1-1.1,0.3-2,0.4-2.7c0.1-0.5,0.2-1,0.4-1.6c1.3-4,3.4-7.6,6-10.8
				c2.4-3,5.3-5.6,8.5-7.7c2.7-1.8,5.8-3.2,9-4c3-0.7,5.4-0.5,7.3,0.4c1.9,0.9,3,2.7,3.4,5.2c0.4,2.6-0.5,6.1-2.7,10.6
				c-2.3,4.8-5.9,8.8-10.4,11.6c-4.6,2.8-9.6,4.8-14.9,5.8c0.2,1.6,0.7,3.2,1.5,4.6c0.9,1.5,2.1,2.8,3.6,3.7c2,1.2,4.1,1.9,6.4,2.2
				c3.2,0.5,6.5,0.5,9.8,0.1c2.1-0.2,4.1-0.8,6-1.7c2.4-1.1,4.8-2.4,7-3.9c2.6-1.7,5.1-3.6,7.4-5.5c2.5-2.1,4.9-4.3,7.1-6.7
				c2.2-2.3,4.2-4.8,6-7.4c1.7-2.4,3.2-5,4.3-7.8c1.9-4.2,3.2-8.5,4-13c0.5-3.1,0.5-6.4,0-9.5c-0.4-2.4-1.4-4.6-2.9-6.4
				c-1.4-1.6-3.1-3-4.9-4c-1.9-1-3.9-1.7-5.9-2.1c-2-0.4-4-0.7-6-0.8c-1.9-0.1-3.6-0.1-5.1-0.1C294,296.8,293,296.8,292.4,296.8z
				 M259.8,341.9c-0.4,0.7-0.8,1.5-1,2.3c-0.3,1-0.7,2.2-1,3.5c3.4-0.8,6.6-2.3,9.5-4.2c3.4-2.4,6.3-5.4,8.6-8.8
				c1.8-2.5,2.3-4.2,1.6-5.2s-2-1.2-4-0.7c-2,0.5-4.2,1.9-6.8,4C263.8,335.4,261.5,338.5,259.8,341.9z"/>
			<path class="st2" d="M346.8,382.7c1.9-0.1,3.8,0.3,5.6,0.9c1.4,0.5,2.6,1.3,3.7,2.2c0.9,0.8,1.6,1.8,2.2,2.9c0.5,1,0.9,2,1.2,3.1
				c1.1-0.3,2.2-0.4,3.2-0.4c1.2-0.1,2.3,0.6,2.9,1.6c0.5,1.1,0.7,2.2,0.7,3.4c0,1.2-0.2,2.5-0.6,3.7c-0.2,0.9-0.5,1.7-0.8,2.5
				c-0.6,1.1-1.3,2.8-2.3,5.1c-1,2.3-2.3,4.8-3.9,7.5c-0.4,1.7-0.7,3.5-1,5.2c-0.3,1.6-0.2,3.2,0.2,4.7c0.4,1.4,1.2,2.6,2.4,3.5
				c1.2,0.9,3.1,1.4,5.7,1.4c2.1-0.1,4-0.8,5.6-2.1c2-1.6,3.9-3.4,5.5-5.3c1.8-2.2,3.5-4.6,4.9-7c1.5-2.6,2.9-5,4.1-7.2
				c1.2-2.3,2.1-4.2,2.9-5.7c0.7-1.6,1.1-2.5,1.3-2.8c0.4-0.8,1.1-1.3,2-1.4c0.9-0.1,1.8,0,2.6,0.4c0.8,0.4,1.5,1,2,1.8
				c0.5,0.8,0.5,1.9,0.1,2.7l-2.1,4.6c-1,2.1-2.2,4.3-3.7,6.8c-1.5,2.5-3.2,5-5.1,7.6c-1.9,2.5-4,4.9-6.4,7c-2.3,2-4.8,3.7-7.5,5
				c-2.7,1.3-5.7,1.9-8.7,1.7c-2.5-0.2-4.8-1-6.9-2.3c-2.5-1.5-4.6-3.4-6.3-5.7c-2.4,2.9-5.1,5.4-8.2,7.4c-2.9,1.9-6.2,3-9.7,3.1
				c-1.9,0.1-3.8-0.1-5.6-0.6c-2-0.4-3.9-1.3-5.5-2.5c-1.8-1.4-3.3-3.1-4.3-5.1c-1.3-2.6-2-5.5-2.1-8.5c-0.2-4.5,0.6-9,2.2-13.3
				c1.6-4.6,4-8.8,6.9-12.7c2.9-3.8,6.4-7,10.4-9.5C338,384.1,342.3,382.7,346.8,382.7z M346.2,416.3c0.1-3.1,0.6-6.2,1.3-9.3
				c0.7-2.7,1.7-5.3,3.1-7.7c-0.2,0-0.3-0.2-0.3-0.4c0-0.8,0.1-1.5,0.3-2.3c0.2-1.1,0.2-2.2,0.2-3.2c0-1-0.4-2.1-1-2.9
				c-0.8-0.9-1.9-1.4-3.1-1.4c-1.6-0.1-3.2,0.3-4.6,1.1c-1.6,0.9-3.1,2-4.3,3.3c-1.5,1.5-2.8,3.1-3.9,4.9c-1.2,1.9-2.2,3.8-3.1,5.9
				c-0.8,2-1.5,4.1-2.1,6.2c-0.5,1.9-0.8,3.9-0.8,5.9c-0.1,1.7,0,3.4,0.1,5.1c0.1,1.7,0.5,3.4,1.1,4.9c0.5,1.4,1.3,2.6,2.4,3.6
				c1.2,1,2.7,1.4,4.2,1.2c2.4-0.2,4.6-1.3,6.4-2.9c1.9-1.9,3.6-4,4.8-6.4c-0.3-0.9-0.5-1.8-0.6-2.8
				C346.2,418.2,346.1,417.3,346.2,416.3L346.2,416.3z"/>
			<path class="st2" d="M392.5,389.7c1-0.3,2-0.6,3.1-0.7c1.2-0.2,2.5-0.3,3.7-0.4c1.1-0.1,2.2,0,3.4,0.2c0.8,0.1,1.5,0.4,2.1,0.9
				c0.4,0.4,0.4,1-0.2,1.8c-1.2,1.8-2.1,3.7-2.9,5.6c-1,2.6-1.9,5.3-2.6,7.9c-0.8,2.9-1.5,5.8-2.1,8.8c-0.6,3-1.1,5.8-1.4,8.3
				c-0.3,2.1-0.4,4.2-0.3,6.4c0.1,1.7,0.4,2.7,1,2.9c0.8,0.4,2.2-0.2,4.1-1.8c2.3-2.1,4.5-4.4,6.5-6.8c2.4-2.9,5-6.3,7.7-10.2
				s5.3-8,7.7-12.2c0.7-1.2,1.9-2,3.3-2.2c1.6-0.4,3.2-0.6,4.8-0.5c1.4,0,2.8,0.4,4,1c0.9,0.3,1.3,1.3,0.9,2.2
				c0,0.1-0.1,0.2-0.1,0.2c-0.5,1.1-0.8,2.2-1.1,3.3c-0.4,1.7-0.7,3.4-0.9,5.2c-0.2,1.9-0.4,3.9-0.5,6c-0.1,1.9,0,3.9,0.3,5.8
				c0.2,1.5,0.6,3.1,1.3,4.4c0.5,1.1,1.5,1.9,2.7,2.1c0.6,0.1,1.9-0.5,3.8-1.8c2.4-1.8,4.5-3.8,6.5-6c2.8-3.1,5.3-6.5,7.5-10
				c2.8-4.4,5.1-9.1,7-14c0.1-0.3,0.6-0.6,1.4-0.7c0.9-0.1,1.9-0.2,2.8-0.3c1.2,0,2.3,0,3.5,0.2c1.1,0.1,2.2,0.4,3.2,0.7
				c0.8,0.2,1.5,0.7,2.1,1.3c0.4,0.5,0.5,1.3,0.2,1.9c-0.8,1.6-1.5,3.2-2,4.9c-0.7,2.1-1.5,4.5-2.1,7c-0.7,2.5-1.2,5.1-1.6,7.6
				c-0.4,2.3-0.5,4.7-0.3,7c0.1,1.8,0.7,3.6,1.7,5.1c0.9,1.3,2.4,1.9,4.4,1.7c2.4-0.1,5.2-1.1,8.3-3c3.4-2.2,6.5-4.7,9.4-7.5
				c3.3-3.2,6.3-6.5,9.1-10.1c2.8-3.5,5.4-7.1,7.7-10.9c0.4-0.6,1-1,1.7-1.1c0.7-0.1,1.5-0.1,2.2,0.2c0.7,0.2,1.3,0.6,1.7,1.1
				c0.4,0.5,0.5,1.1,0.2,1.7c-2.5,4.6-5.4,9-8.7,13.2c-3.3,4.3-7,8.2-11,11.9c-3.6,3.3-7.7,6.2-12,8.5c-3.6,2-7.6,3-11.7,2.9
				c-2.6,0-5.2-0.6-7.5-1.7c-1.9-0.9-3.5-2.2-4.9-3.7c-1.2-1.4-2.2-2.9-2.8-4.6c-0.6-1.5-1.1-3-1.4-4.5c-0.2-1.1-0.4-2.3-0.4-3.4
				v-1.5c-0.1,0.1-0.4,0.7-1,1.6c-0.6,0.9-1.4,2.1-2.4,3.4c-1,1.3-2.2,2.8-3.6,4.2c-1.4,1.5-2.9,2.9-4.6,4.2
				c-1.6,1.3-3.4,2.3-5.3,3.2c-1.8,0.8-3.8,1.3-5.9,1.2c-2.2,0.1-4.3-0.4-6.2-1.5c-1.5-0.9-2.8-2.2-3.7-3.6
				c-0.9-1.5-1.6-3.1-1.9-4.8c-0.3-1.6-0.5-3.2-0.6-4.8c-0.1-1.3,0-2.5,0.1-3.8c0.1-1,0.2-1.6,0.2-1.7c-0.1,0.2-0.5,0.9-1.2,2.2
				c-0.9,1.5-1.8,3-2.9,4.3c-1.4,1.8-2.9,3.6-4.5,5.3c-1.8,1.9-3.8,3.6-5.9,5c-2.2,1.5-4.7,2.6-7.2,3.3c-2.7,0.7-5.6,0.8-8.4,0.2
				c-2.1-0.3-4.1-1.4-5.4-3.1c-1.3-1.7-2.2-3.7-2.5-5.8c-0.4-2.5-0.5-5-0.2-7.5c0.3-2.8,0.7-5.6,1.4-8.3c0.6-2.8,1.4-5.6,2.3-8.2
				c0.9-2.7,1.7-5,2.5-7.1c0.8-2.1,1.7-4.4,2.9-6.9C391.2,390.2,391.8,389.8,392.5,389.7z"/>
			<path class="st2" d="M535.1,383.1c2-0.1,4,0.4,5.8,1.3c1.4,0.7,2.5,1.8,3.4,3.1c0.7,1.1,1.3,2.4,1.5,3.7c0.2,1,0.3,2.1,0.2,3.1
				c-0.4,3.6-1.7,7-3.8,9.8c-2,2.7-4.5,5.1-7.3,7c-2.8,1.9-5.7,3.4-8.9,4.5c-2.8,1-5.8,1.8-8.7,2.4c0.1,2.4,0.6,4.7,1.3,6.9
				c0.6,1.7,1.4,3.2,2.6,4.5c1,1.1,2.3,1.9,3.8,2.4c1.5,0.5,3.1,0.6,4.7,0.5c2.9-0.2,5.7-1.1,8.2-2.5c2.8-1.5,5.4-3.4,7.8-5.4
				c2.5-2.1,4.8-4.5,6.9-7c2.1-2.5,4-4.8,5.6-7c1.4-1.8,2.7-3.7,3.9-5.6c0.9-1.6,1.5-2.6,1.6-2.9c0.3-1,1-1.7,1.9-2.1
				c0.8-0.4,1.8-0.6,2.7-0.4c0.9,0.2,1.6,0.7,2.1,1.5c0.5,0.8,0.5,1.9,0.1,3.4c-0.1,0.3-0.7,1.4-1.7,3.2c-1.3,2.3-2.8,4.5-4.3,6.6
				c-2.1,2.9-4.3,5.7-6.8,8.3c-2.7,3-5.7,5.7-8.9,8.1c-3.3,2.5-7,4.6-10.8,6.2c-4,1.7-8.2,2.6-12.5,2.6c-2.3-0.1-4.5-0.5-6.7-1.1
				c-2.7-0.8-5.1-2.1-7.3-3.9c-2.4-2-4.3-4.4-5.5-7.2c-1.4-3-1.9-6.6-1.4-10.9c0.2-2,0.6-4,1.1-5.9c0.7-2.4,1.5-4.8,2.6-7
				c1.2-2.5,2.5-4.9,4.1-7.2c1.6-2.4,3.5-4.6,5.7-6.4c2.3-1.9,4.8-3.5,7.5-4.6C528.6,383.7,531.8,383.1,535.1,383.1z M532.6,389.5
				c-1.7,0.2-3.3,1-4.4,2.2c-1.7,1.6-3.1,3.4-4.3,5.4c-1.4,2.3-2.7,4.6-3.7,7.1c-1,2.4-1.9,4.8-2.4,7.3c1.8-0.3,3.6-0.8,5.3-1.4
				c4-1.4,7.4-4.1,9.7-7.7c1.4-2.2,2.4-4.6,2.8-7.2c0.4-2.1,0.3-3.6-0.4-4.5C534.8,389.9,533.7,389.4,532.6,389.5L532.6,389.5z"/>
			<path class="st2" d="M362.9,458c5.1-0.1,10.2,0.7,15,2.5c4,1.5,7.6,3.9,10.7,6.8c2.9,2.9,5.3,6.4,7,10.2c1.8,4,3,8.2,3.8,12.5
				c0.8,4.6,1.2,9.2,1.3,13.8c0.1,4.7-0.1,9.5-0.6,14.2c-0.4,4.7-1,9.1-1.8,13.4c-0.8,4.3-1.5,8.2-2.4,11.7c-0.8,3.5-1.6,6.5-2.3,9
				c-0.7,2.5-1.3,4.2-1.7,5.2c-3.4,9.2-7.5,18.1-12.3,26.5c-3.9,6.8-8.4,13.2-13.5,19.1c3.6-0.2,7.2-1,10.5-2.4
				c3.5-1.4,6.9-3.1,10.1-5.2c3.2-2,6.2-4.3,9.1-6.8c2.8-2.5,5.3-4.8,7.5-7.1c2-2,3.8-4.1,5.6-6.3c1.1-1.4,2.1-2.8,3-4.3
				c0.6-1.2,1.6-2.2,2.9-2.8c0.9-0.5,2-0.6,2.9-0.4c0.9,0.2,1.6,0.9,1.9,1.7c0.4,1,0.3,2.2-0.2,3.2c-0.8,1.5-1.7,3-2.7,4.4
				c-1.7,2.5-3.6,4.9-5.6,7.2c-2.6,3-5.4,5.9-8.3,8.6c-3.4,3.1-7,5.9-10.8,8.4c-4.1,2.7-8.5,5-13.1,6.8c-4.8,2-9.9,3.2-15.1,3.7
				c-2.2,0.2-4.4,0.3-6.6,0.3c-3.9,3.5-8.2,6.6-12.8,9.2c-3.8,2.1-7.8,3.9-11.9,5.3c-5.8,2-11.8,2.9-17.9,2.9
				c-5.5-0.1-11-1-16.2-2.9c-4.1-1.5-7.9-3.8-11.2-6.7c-2.9-2.7-5.3-5.9-7.1-9.5c-1.7-3.6-2.9-7.4-3.6-11.3c-0.7-4.1-1-8.2-0.8-12.3
				c0.1-4.1,0.5-8.2,1.1-12.3c0.6-3.8,1.4-7.6,2.4-11.3c1-3.5,1.9-6.6,2.9-9.3c1.7-4.6,3.6-9.1,5.7-13.4c2-4.2,4.2-8.1,6.4-11.8
				c0.6-5.1,1.6-10.2,3.1-15.2c1.5-5.5,3.5-10.8,6-15.9c2.5-5.3,5.6-10.4,9.2-15.1c3.7-4.8,8-9.1,12.9-12.7
				c5.1-3.8,10.7-6.7,16.7-8.8C348.7,459,355.8,457.9,362.9,458z M342.9,610.3c-6.1-1.7-11.8-4.4-17-8c-5.2-3.6-9.9-8-13.9-12.9
				c-4.1-5.1-7.6-10.6-10.4-16.5c-2.8-5.9-5-12.2-6.3-18.7l-0.8,2.9c-2.1,6.5-3.6,13.1-4.6,19.9c-0.7,5.1-0.9,10.2-0.6,15.3
				c0.3,3.9,1.1,7.7,2.5,11.3c1.1,2.9,2.7,5.5,4.6,7.9c1.6,2,3.5,3.8,5.7,5.1c1.9,1.2,3.8,2.2,5.9,3c1.7,0.6,3.4,1.1,5.1,1.3
				c1.1,0.2,2.3,0.3,3.4,0.3c4.7,0,9.4-1,13.7-3C334.8,616.2,339,613.5,342.9,610.3z M303.7,538.2c0.4,4.2,1.1,8.4,2.1,12.6
				c1,4.5,2.3,8.9,4,13.2c1.7,4.4,3.8,8.7,6.2,12.8c2.5,4.1,5.4,7.9,8.8,11.3c3.5,3.5,7.4,6.4,11.7,8.8c4.6,2.6,9.6,4.4,14.8,5.3
				c3.3-3.6,6.4-7.4,9.3-11.4c2.9-4,5.4-7.9,7.7-11.8c2.2-3.9,4.2-7.5,5.7-10.9c1.4-2.9,2.5-5.9,3.5-8.9c2.9-9,5.2-18.2,7.1-27.5
				c1.4-7.2,2.4-14.5,2.8-21.8c0.3-5.6,0.1-11.2-0.7-16.7c-0.6-4.2-1.7-8.3-3.4-12.2c-1.2-3-3-5.9-5.1-8.4c-1.7-2-3.7-3.7-5.9-5.1
				c-1.8-1.2-3.8-2-5.9-2.5c-1.6-0.4-3.3-0.6-5-0.5c-6.8,0.4-13.4,2.1-19.5,5.1c-5.6,2.8-10.7,6.4-15.1,10.7c-4.3,4.2-8,9-11.1,14.3
				c-2.9,5-5.4,10.2-7.4,15.6c3.3-3.7,6.9-7.2,10.8-10.3c3.5-2.9,6.7-5.3,9.6-7.2c2.9-2,5.3-3.5,7.4-4.6c2-1.1,3.4-1.9,4.2-2.4
				c1-0.7,2.3-0.8,3.4-0.2c1,0.6,1.9,1.6,2.4,2.7c0.5,1.2,0.7,2.4,0.6,3.7c-0.1,1.3-0.9,2.4-2.1,3c-5.2,2.9-10.2,6.2-14.9,9.8
				c-4,3.1-7.9,6.4-11.5,9.9c-3.1,3-5.9,6.2-8.5,9.6c-2.2,2.9-4.2,6-6,9.1C303.5,534.8,303.5,536.5,303.7,538.2L303.7,538.2z"/>
			<path class="st2" d="M410.7,559.5c1-1,2.3-1.7,3.8-2c1.6-0.4,3.2-0.6,4.9-0.5c1.3,0,2.5,0.3,3.7,0.8c0.9,0.5,1,1.1,0.3,1.9
				c-1.6,2-2.9,4.2-3.9,6.6c-1.2,2.9-2.2,5.9-2.8,9c-0.8,3.2-1.3,6.5-1.5,9.8c-0.3,3-0.2,6,0.2,8.9c0.2,2.3,1,4.5,2.1,6.5
				c0.9,1.6,2.6,2.5,4.4,2.4c2-0.1,4-0.7,5.6-1.9c1.8-1.3,3.5-2.8,4.8-4.6c1.5-1.9,2.9-3.9,4-6c1.2-2.2,2.3-4.2,3.3-6.1
				c-0.6-0.9-1.1-1.9-1.6-2.9c-0.4-1-0.7-2.1-0.8-3.1c-0.3-1.7-0.4-3.5-0.3-5.2c0.1-1.8,0.4-3.5,1-5.2c0.5-1.6,1.3-3,2.3-4.3
				c1-1.2,2.3-2.1,3.9-2.7c1.4-0.6,2.9-0.4,4.2,0.4c1.3,0.8,2.3,2,3,3.4c0.8,1.6,1.4,3.3,1.7,5c0.3,1.7,0.4,3.5,0.2,5.2
				c-0.3,1.7-0.6,3.2-0.8,4.7c-0.3,1.5-0.7,2.9-1.1,4.3c2.1,1.6,4.7,2.4,7.3,2.3c2.5-0.1,5-0.8,7.2-2.1c2.3-1.3,4.3-3.1,5.9-5.3
				c1.6-2.1,2.7-4.6,3.2-7.2c0.1-0.9,0.7-1.7,1.5-2c0.8-0.4,1.6-0.5,2.5-0.5c0.9,0,1.7,0.3,2.4,0.7c0.7,0.3,1.2,0.9,1.3,1.7
				c0.3,1.3-0.1,3.2-1.1,5.5c-1.1,2.6-2.7,5-4.7,7c-2.4,2.5-5.3,4.5-8.4,5.9c-3.7,1.7-7.8,2.6-11.9,2.5c-2.7,0-5.4-0.5-7.9-1.5
				c-2.5,5.5-6.5,10.3-11.4,13.8c-4.8,3.3-10.6,5.1-16.4,5c-3,0.1-6-0.7-8.6-2.3c-2.6-1.6-4.7-3.8-6.3-6.4c-1.7-2.8-3-6-3.6-9.2
				c-0.7-3.5-1-7.2-0.6-10.8c0.4-3.9,1.3-7.7,2.8-11.2C405.8,566.1,408,562.6,410.7,559.5z"/>
			<path class="st2" d="M500.5,554.6c2-0.1,4,0.4,5.8,1.3c1.4,0.7,2.5,1.8,3.4,3.1c0.7,1.1,1.3,2.4,1.5,3.7c0.2,1,0.3,2.1,0.2,3.1
				c-0.4,3.6-1.7,7-3.8,9.8c-2,2.7-4.5,5.1-7.3,7c-2.8,1.9-5.7,3.4-8.9,4.5c-2.8,1-5.7,1.8-8.7,2.4c0.1,2.4,0.6,4.7,1.3,6.9
				c0.5,1.7,1.4,3.2,2.6,4.5c1,1.1,2.3,1.9,3.8,2.4c1.5,0.5,3.1,0.6,4.7,0.5c2.9-0.2,5.7-1.1,8.2-2.5c2.8-1.5,5.4-3.4,7.8-5.5
				c2.5-2.1,4.8-4.5,6.9-7c2.1-2.5,4-4.8,5.6-7c1.4-1.8,2.7-3.7,3.9-5.6c0.9-1.6,1.5-2.6,1.6-2.9c0.3-1,1-1.7,1.9-2.1
				c0.9-0.4,1.8-0.6,2.7-0.4c0.9,0.2,1.6,0.7,2.1,1.4c0.5,0.8,0.5,1.9,0.1,3.4c-0.1,0.3-0.7,1.4-1.7,3.2c-1.3,2.3-2.8,4.5-4.3,6.7
				c-2.1,2.9-4.4,5.6-6.8,8.3c-2.7,3-5.7,5.7-8.9,8.1c-3.3,2.5-7,4.6-10.8,6.2c-4,1.7-8.2,2.5-12.5,2.6c-2.3-0.1-4.5-0.4-6.7-1.1
				c-2.7-0.8-5.1-2.1-7.3-3.9c-2.4-2-4.3-4.4-5.5-7.2c-1.4-3-1.9-6.6-1.4-10.9c0.2-2,0.6-4,1.1-5.9c0.7-2.4,1.5-4.8,2.6-7
				c1.2-2.5,2.5-4.9,4.1-7.2c1.6-2.4,3.5-4.6,5.7-6.5c2.3-1.9,4.8-3.5,7.5-4.6C494,555.2,497.2,554.6,500.5,554.6z M498.1,561
				c-1.7,0.2-3.3,1-4.4,2.2c-1.7,1.6-3.1,3.4-4.3,5.4c-1.4,2.3-2.7,4.6-3.7,7.1c-1.1,2.4-1.8,4.8-2.4,7.3c1.8-0.3,3.6-0.8,5.3-1.4
				c1.9-0.7,3.7-1.7,5.3-2.9c1.7-1.3,3.2-3,4.4-4.8c1.4-2.2,2.4-4.6,2.8-7.2c0.4-2.1,0.3-3.6-0.4-4.5
				C500.2,561.4,499.1,560.9,498.1,561L498.1,561z"/>
			<path class="st2" d="M530.2,550.5c3.8-0.6,6.6,0.1,8.4,2.1c1.8,2,2.6,4.8,2.2,8.6c-0.1,2-0.5,4-1.1,5.9c-0.5,1.6-1.2,3.2-2.1,4.6
				c1.5-0.4,3-0.8,4.4-1.4c1.5-0.6,2.8-1,4-1.5c1.2-0.5,2.3-0.9,3.2-1.2c0.6-0.3,1.3-0.5,1.9-0.7c0.9-0.1,1.7,0.4,2.2,1.1
				c0.8,0.9,1.4,2,1.9,3.1c0.5,1.1,0.9,2.2,1.2,3.4c0.2,1.1,0.3,1.8,0.1,2c-2.8,3.7-5.3,7.6-7.5,11.6c-1.5,2.7-2.7,5.5-3.6,8.4
				c-0.6,1.8-0.9,3.8-0.8,5.7c0.1,1.3,0.4,2.5,1.1,3.5c0.5,0.8,1.2,1.4,2,1.8c0.7,0.3,1.4,0.5,2.1,0.5c2.3,0,4.6-0.7,6.6-2.1
				c2.4-1.6,4.7-3.5,6.8-5.6c2.3-2.3,4.4-4.9,6.4-7.5c2-2.7,3.8-5.3,5.4-7.8c1.6-2.5,2.8-4.7,3.9-6.6c0.7-1.3,1.3-2.6,1.8-3.9
				c0.1-0.6,0.5-1.1,1.1-1.4c0.5-0.3,1-0.4,1.6-0.3c0.6,0.1,1.1,0.4,1.6,0.8c0.5,0.5,0.9,1.2,1.1,1.9c0.2,0.7-0.2,2.3-1.3,4.7
				c-1.4,2.9-2.9,5.7-4.6,8.4c-2.2,3.4-4.6,6.7-7.1,9.9c-2.7,3.3-5.6,6.4-8.8,9.2c-3,2.6-6.3,4.8-9.8,6.5c-3.1,1.6-6.6,2.2-10.1,1.7
				c-3.2-0.4-6.1-1.9-8.2-4.2c-2-2.4-3.3-5.4-3.5-8.5c-0.3-3.8,0.3-7.6,1.6-11.1c1.7-4.5,4.1-8.6,7.3-12.1c0.1-0.2,0.2-0.5,0.3-0.8
				c0.1-0.3,0-0.6-0.1-0.8c-0.1-0.2-0.4-0.4-0.7-0.4c-0.5,0.1-1,0.3-1.4,0.7c-0.8,0.5-1.6,0.9-2.4,1.1c-1.4,0.4-2.8,0.7-4.2,0.8
				c-1.6,0.1-3.3,0.1-4.9-0.1c-1.7-0.2-3.3-0.8-4.8-1.7c-1.6-1-2.8-2.5-3.7-4.1c-1.1-2.2-1.7-4.6-1.7-7.1c0-1.6,0.2-3.2,0.6-4.7
				c0.5-1.9,1.2-3.8,2.2-5.5c1-1.7,2.4-3.3,3.9-4.6C526.1,551.6,528.1,550.8,530.2,550.5z M525.7,571c0.4,0.8,1.1,1.4,2,1.7
				c1-1.4,1.8-2.9,2.5-4.4c0.9-2.1,1.5-4.3,1.8-6.5c0.3-2.1,0.1-3.5-0.8-4.2c-0.8-0.7-2,0-3.5,2c-0.9,1.2-1.6,2.5-2.2,3.9
				c-0.4,1-0.6,2.1-0.7,3.2c0,0.8,0,1.7,0.3,2.5C525.2,569.9,525.4,570.5,525.7,571z"/>
			<path class="st2" d="M200.3,658.2h-20.4v-7.9h50.8v7.9h-20.4v47.1h-10.1L200.3,658.2z"/>
			<path class="st2" d="M248.7,655.2c0,6.7-11.4,6.7-11.4,0S248.7,648.6,248.7,655.2z M238.4,666.4v38.9h9.2v-38.9H238.4z"/>
			<path class="st2" d="M289.9,705.3V684c0-5.7-3.7-10.5-10.2-10.5c-5.6-0.2-10.4,4.2-10.6,9.8c0,0.2,0,0.5,0,0.7v21.3H260v-38.8
				h8.5l0.6,5.2c2.5-4.2,7.6-5.8,12.3-5.8c5.6,0,11.3,2,13.8,7.8c3.6-5.7,9.1-7.7,15-7.7c12.1,0,18.6,6.7,18.6,17.9v21.4h-9.2v-21.4
				c0-5.7-3.2-10.3-9.7-10.3s-10.7,4.7-10.7,10.5v21.3H289.9z"/>
			<path class="st2" d="M347.4,688.9c0.8,5.9,6.3,9.7,14.3,9.7c4.4,0,10.1-1.5,12.7-4.2l6,5.1c-4.5,4.4-12.1,6.6-18.8,6.6
				c-14.4,0-23.6-8.1-23.6-20.5c0-11.7,9.3-20.2,23-20.2c14.1,0,23.7,7.6,22,23.4L347.4,688.9z M374.2,682.1
				c-0.5-6.1-5.6-9.3-13-9.3c-6.7,0-12.2,3.2-13.6,9.3H374.2z"/>
			<path class="st2" d="M457,686c0,11.5-9,20.1-22.8,20.1s-22.6-8.6-22.6-20.1s9-20.2,22.6-20.2S457,674.6,457,686z M420.9,686
				c0,6.9,5,12.6,13.4,12.6c8.4,0,13.5-5.7,13.5-12.6c0-6.9-5.5-12.7-13.5-12.7C425.9,673.2,420.9,679.1,420.9,686L420.9,686z"/>
			<path class="st2" d="M475.2,666.6v20.7c0,6.6,4.3,11.2,11.9,11.2c7.2,0,12.2-5.3,12.2-11.7v-20.1h9.2v38.8h-8.3l-0.5-5.7
				c-3.9,4.2-9.4,6.5-15.1,6.3c-10.8,0-18.5-6.8-18.5-18.5v-20.8H475.2z"/>
			<path class="st2" d="M535,655.4v11.2h12.8v7h-12.9v18.5c0,4.1,2,6.4,6.3,6.4c1.9-0.1,3.8-0.5,5.6-1.3l2.7,6.9
				c-2.8,1.1-5.8,1.7-8.8,1.7c-9.5,0.2-14.9-4.6-14.9-13.7v-18.5h-8.4v-7h8.4v-10.3L535,655.4z"/>
		</g>
	</g>
</g>
<g id="XMLID_76_">
	<g id="XMLID_56_">
		
			<rect id="XMLID_376_" x="620.9" y="119.1" transform="matrix(0.2266 -0.974 0.974 0.2266 370.7825 720.2333)" class="st3" width="35.9" height="15.1"/>
		<path id="XMLID_375_" class="st3" d="M620.1,93.5L620.1,93.5c1.3-5.4,6.7-8.8,12.1-7.6l30.6,7.1c5.4,1.3,8.8,6.7,7.6,12.1l0,0
			c-1.3,5.4-6.7,8.8-12.1,7.6l-30.6-7.1C622.2,104.3,618.8,98.9,620.1,93.5z"/>
		<g id="XMLID_127_">
			<polygon class="st4" points="620.3,396.6 606.2,395.2 631.2,155.3 783.2,343.2 772.2,352.1 641.7,190.7 			"/>
		</g>
		
			<rect id="XMLID_126_" x="602.7" y="115.1" transform="matrix(0.6225 -0.7827 0.7827 0.6225 126.2922 527.835)" class="st5" width="15.1" height="35.9"/>
		<path id="XMLID_125_" class="st5" d="M572.2,135.8L572.2,135.8c-4.4-3.5-5.1-9.8-1.6-14.2l19.6-24.6c3.5-4.4,9.8-5.1,14.2-1.6l0,0
			c4.4,3.5,5.1,9.8,1.6,14.2l-19.6,24.6C582.9,138.5,576.6,139.2,572.2,135.8z"/>
		
			<rect id="XMLID_373_" x="615.8" y="105.4" transform="matrix(0.9595 -0.2817 0.2817 0.9595 -10.298 180.7275)" class="st6" width="15.1" height="41.5"/>
		<path id="XMLID_374_" class="st6" d="M590.9,107.3L590.9,107.3c-1.6-5.4,1.5-11,6.9-12.5l30.2-8.9c5.4-1.6,11,1.5,12.5,6.9l0,0
			c1.6,5.4-1.5,11-6.9,12.5l-30.2,8.9C598.1,115.7,592.5,112.7,590.9,107.3z"/>
		<ellipse id="XMLID_371_" class="st7" cx="659.7" cy="250" rx="122.6" ry="122.6"/>
		<ellipse id="XMLID_120_" class="st8" cx="659.7" cy="250" rx="122.6" ry="122.6"/>
		<ellipse id="XMLID_119_" class="st7" cx="659.7" cy="250" rx="117.1" ry="117.1"/>
		<path id="XMLID_118_" class="st2" d="M715.1,169.4c-23.4-16-53.5-21.8-82.9-13.2c-51.8,15.2-81.4,69.5-66.2,121.3
			c4.7,16.1,13.2,30,24.2,41.2c24.5,24.7,61.4,35.6,97.1,25.1c51.8-15.2,81.4-69.5,66.2-121.3C746.9,200,733,181.7,715.1,169.4z"/>
		<path id="XMLID_117_" class="st9" d="M715.1,169.4c11,11.1,19.5,25.1,24.2,41.2c15.2,51.8-14.5,106.1-66.2,121.3
			c-29.3,8.6-59.5,2.8-82.9-13.2c24.5,24.7,61.4,35.6,97.1,25.1c51.8-15.2,81.4-69.5,66.2-121.3C746.9,200,733,181.7,715.1,169.4z"
			/>
		<path id="XMLID_116_" class="st8" d="M774.2,160.3c15.1-26.8,5.4-60.8-21.6-76c-27-15.2-61.1-5.8-76.1,21L774.2,160.3z"/>
		<path id="XMLID_115_" class="st7" d="M760.5,151.9c13-23.1,4.6-52.4-18.6-65.5c-23.3-13.1-52.6-5-65.6,18.1L760.5,151.9z"/>
		<path id="XMLID_114_" class="st8" d="M513.6,237.5c-27.1-14.4-37.4-48.3-22.9-75.6c14.5-27.4,48.3-37.9,75.4-23.5L513.6,237.5z"/>
		<path id="XMLID_113_" class="st7" d="M520.8,223.8c-23.4-12.4-32.2-41.6-19.7-65.2s41.6-32.7,65-20.2L520.8,223.8z"/>
		<g id="XMLID_112_">
			<polygon class="st4" points="654.4,258.9 635.8,195.6 649.4,191.6 664,241.4 703.9,229.7 707.8,243.2 			"/>
		</g>
		
			<ellipse id="XMLID_111_" transform="matrix(1 -1.433743e-03 1.433743e-03 1 -0.3577 0.9462)" class="st7" cx="659.8" cy="250" rx="13.5" ry="13.5"/>
		<path id="XMLID_110_" class="st4" d="M591,270.2c1.1,3.7-1,7.5-4.7,8.6c-3.7,1.1-7.5-1-8.6-4.7c-1.1-3.7,1-7.5,4.7-8.6
			C586.1,264.4,589.9,266.5,591,270.2z"/>
		
			<ellipse id="XMLID_109_" transform="matrix(5.616712e-03 -1 1 5.616712e-03 506.4823 963.5156)" class="st4" cx="737.7" cy="227.1" rx="6.9" ry="6.9"/>
		<path id="XMLID_108_" class="st4" d="M640.5,179.6c-3.7,1.1-7.5-1-8.6-4.7c-1.1-3.7,1-7.5,4.7-8.6c3.7-1.1,7.5,1,8.6,4.7
			C646.3,174.6,644.2,178.5,640.5,179.6z"/>
		<path id="XMLID_96_" class="st4" d="M685.5,333c-3.7,1.1-7.5-1-8.6-4.7c-1.1-3.7,1-7.5,4.7-8.6c3.7-1.1,7.5,1,8.6,4.7
			C691.3,328,689.2,331.9,685.5,333z"/>
		<path id="XMLID_91_" class="st3" d="M778.9,178.4c1.9,2,3.7,4.3,5.4,6.5c1.7,2.3,3.2,4.6,4.7,7c2.9,4.8,5.5,9.8,7.8,15
			c2.3,5.2,4.2,10.5,5.7,16c0.4,1.4,0.8,2.7,1.1,4.1l1,4.2c0.5,2.8,1.1,5.6,1.4,8.5l0.3,2.1c0.1,0.7,0.1,1.4,0.2,2.1
			c0.1,1.4,0.3,2.8,0.4,4.3l0.1,4.3c0,1.4,0,2.9,0,4.3c-0.2,5.7-0.7,11.5-1.9,17.1l-0.4,2.1c-0.1,0.7-0.4,1.4-0.5,2.1
			c-0.4,1.4-0.7,2.8-1.1,4.1c-0.4,1.4-0.9,2.7-1.4,4.1l-0.7,2l-0.8,2c-0.6,1.3-1.1,2.6-1.7,3.9c-0.7,1.3-1.3,2.5-2,3.8
			c-0.3,0.6-0.7,1.2-1,1.9l-1.1,1.8c-0.8,1.2-1.5,2.4-2.3,3.5c0.3-1.4,0.7-2.7,1-4.1l0.5-2l0.5-2c0.3-1.4,0.6-2.7,0.9-4l0.8-4l0.4-2
			l0.3-2l0.6-4c0.2-2.7,0.7-5.3,0.8-8c0.2-2.7,0.3-5.3,0.4-8c0-1.3,0-2.7,0-4l0-2l-0.1-2c-0.1-1.3-0.1-2.7-0.2-4l-0.3-4
			c-0.1-1.3-0.3-2.7-0.4-4c-0.1-0.7-0.1-1.3-0.2-2l-0.3-2c-0.3-2.7-0.8-5.3-1.2-7.9l-0.7-4l-0.8-3.9c-1.2-5.2-2.5-10.5-4-15.7
			C786.8,199.1,783.1,188.8,778.9,178.4z"/>
		<path id="XMLID_83_" class="st3" d="M812.4,187.9c1.5,1.3,2.8,2.9,4.1,4.4c1.3,1.5,2.5,3.2,3.6,4.8c2.2,3.3,4.2,6.8,5.9,10.5
			c1.7,3.6,3.1,7.4,4.3,11.3c1.2,3.9,2,7.9,2.6,11.9c0.5,4,0.8,8.1,0.6,12.2c-0.2,4.1-0.6,8.2-1.6,12.2c-0.2,1-0.5,2-0.8,3
			c-0.3,1-0.6,2-0.9,2.9c-0.4,1-0.7,1.9-1.1,2.9l-0.6,1.4l-0.6,1.4c-0.5,0.9-0.9,1.8-1.3,2.7c-0.5,0.9-1,1.8-1.5,2.6
			c-0.3,0.4-0.5,0.9-0.8,1.3l-0.9,1.2c-0.6,0.8-1.2,1.6-1.8,2.4c0.7-4,1.5-7.7,2-11.5l0.2-1.4l0.1-1.4l0.3-2.8
			c0.1-1.9,0.3-3.7,0.3-5.6c0.2-3.7,0.1-7.4,0-11.1c-0.2-3.7-0.5-7.4-1-11c-0.9-7.3-2.6-14.6-4.5-21.9
			C817.2,202.8,814.9,195.5,812.4,187.9z"/>
		<path id="XMLID_78_" class="st3" d="M516.5,255.4c2.1,11,4.5,21.7,7.6,32.1c1.5,5.2,3.2,10.3,5.1,15.4l1.4,3.8l1.5,3.7
			c1.1,2.5,2.1,4.9,3.3,7.3l0.8,1.8c0.3,0.6,0.6,1.2,0.9,1.8c0.6,1.2,1.2,2.4,1.8,3.6l1.9,3.5c0.6,1.2,1.4,2.3,2,3.5l1,1.7l1.1,1.7
			c0.7,1.1,1.4,2.3,2.2,3.4c1.5,2.2,3,4.4,4.7,6.5c1.6,2.2,3.3,4.2,5,6.3l2.7,3l1.3,1.5l1.4,1.5l2.8,3c1,1,2,1.9,3,2.9l1.5,1.5
			l1.5,1.4c1,1,2.1,1.9,3.1,2.9c-1.3-0.5-2.6-1.1-3.9-1.7l-1.9-0.9c-0.6-0.3-1.2-0.7-1.9-1c-1.2-0.7-2.5-1.4-3.7-2.1
			c-1.2-0.8-2.4-1.6-3.5-2.4l-1.8-1.2l-1.7-1.3c-1.1-0.9-2.2-1.8-3.3-2.7c-1.1-0.9-2.1-1.9-3.2-2.9c-0.5-0.5-1.1-1-1.6-1.5l-1.5-1.5
			c-4-4.1-7.6-8.6-10.8-13.3c-0.8-1.2-1.6-2.4-2.3-3.6l-2.2-3.7c-0.7-1.2-1.3-2.5-2-3.8c-0.3-0.6-0.7-1.3-1-1.9l-0.9-1.9
			c-1.2-2.6-2.3-5.2-3.4-7.9l-1.4-4c-0.5-1.3-0.9-2.7-1.3-4.1c-1.6-5.5-2.9-11-3.8-16.6c-0.9-5.6-1.4-11.2-1.5-16.9
			c0-2.8,0-5.6,0.2-8.4C515.7,261,516,258.2,516.5,255.4z"/>
		<path id="XMLID_62_" class="st3" d="M493.5,281.6c2,7.7,4.1,15.1,6.4,22.3c2.4,7.2,4.9,14.2,8.1,20.9c1.6,3.3,3.2,6.6,5.1,9.8
			c1.8,3.2,3.8,6.3,6,9.4c1,1.6,2.2,3,3.3,4.5l1.8,2.2l0.9,1.1l0.9,1.1c2.4,3,5.2,5.7,7.9,8.6c-1-0.3-1.9-0.7-2.8-1l-1.4-0.6
			c-0.5-0.2-0.9-0.4-1.4-0.6c-0.9-0.4-1.8-0.9-2.7-1.4c-0.9-0.5-1.7-1-2.6-1.6l-1.3-0.8l-1.2-0.9c-0.8-0.6-1.6-1.2-2.5-1.8
			c-0.8-0.6-1.6-1.3-2.3-2c-0.8-0.7-1.5-1.4-2.2-2.1c-3-2.8-5.6-6-7.9-9.4c-2.4-3.4-4.4-6.9-6.1-10.6c-3.5-7.4-5.7-15.3-6.8-23.2
			c-0.5-4-0.8-8-0.7-12c0.1-2,0.2-4,0.4-6C492.6,285.5,493,283.5,493.5,281.6z"/>
		<polygon id="XMLID_61_" class="st10" points="664,16.8 664.4,55.8 674.8,49.3 682.4,73.6 682.9,34.7 671.8,41.5 		"/>
		<polygon id="XMLID_59_" class="st10" points="734.6,21.2 704.2,45.5 715.8,49.7 701.3,70.7 732.3,47.1 720.1,42.5 		"/>
		<polygon id="XMLID_58_" class="st10" points="481.1,103.6 512.5,126.7 513.5,114.5 537.6,123 506.7,99.2 505.5,112.2 		"/>
		<polygon id="XMLID_57_" class="st10" points="527,49.7 528.2,88.6 538.5,81.9 546.6,106.1 546.3,67.1 535.3,74.2 		"/>
	</g>
	<polygon id="XMLID_55_" class="st10" points="841.8,90.7 813.5,117.5 825.4,120.7 812.7,142.8 841.6,116.7 829.1,113.2 	"/>
	<polygon id="XMLID_54_" class="st10" points="886.7,145.5 848.2,139.8 852.9,151 827.7,154.8 866.1,161.4 861.1,149.3 	"/>
	<polygon id="XMLID_53_" class="st10" points="422.5,213.8 460.8,221.1 452.6,230.1 475.2,241.9 436.7,235.6 445.4,225.8 	"/>
	<polygon id="XMLID_52_" class="st10" points="414.4,284.2 443.7,258.5 445.8,270.6 469,260.1 440.3,286.4 437.9,273.6 	"/>
</g>
</svg>
