<?xml version="1.0" encoding="utf-8"?>
<!-- Generator: Adobe Illustrator 24.3.0, SVG Export Plug-In . SVG Version: 6.00 Build 0)  -->
<svg version="1.1" id="Layer_1" xmlns="http://www.w3.org/2000/svg" xmlns:xlink="http://www.w3.org/1999/xlink" x="0px" y="0px"
	 viewBox="0 0 882.1 881" style="enable-background:new 0 0 882.1 881;" xml:space="preserve">
<style type="text/css">
	.st0{fill:#079992;}
	.st1{fill:#FBDF3C;}
	.st2{fill:#D12424;}
	.st3{fill:#2D0601;}
	.st4{fill:none;stroke:#D12424;stroke-width:3;stroke-miterlimit:10;}
	.st5{opacity:0.47;fill:#FFDF99;}
	.st6{fill:#FFF597;}
	.st7{filter:url(#Adobe_OpacityMaskFilter);}
	.st8{filter:url(#Adobe_OpacityMaskFilter_1_);}
	.st9{mask:url(#SVGID_1_);fill:url(#SVGID_2_);}
	.st10{fill:url(#SVGID_3_);}
	.st11{fill:#EFAB7D;}
	.st12{fill:#7C5949;}
	.st13{filter:url(#Adobe_OpacityMaskFilter_2_);}
	.st14{filter:url(#Adobe_OpacityMaskFilter_3_);}
	.st15{mask:url(#SVGID_4_);fill:url(#SVGID_5_);}
	.st16{fill:url(#SVGID_6_);}
	.st17{filter:url(#Adobe_OpacityMaskFilter_4_);}
	.st18{filter:url(#Adobe_OpacityMaskFilter_5_);}
	.st19{mask:url(#SVGID_7_);fill:url(#SVGID_8_);}
	.st20{fill:url(#SVGID_9_);}
	.st21{filter:url(#Adobe_OpacityMaskFilter_6_);}
	.st22{filter:url(#Adobe_OpacityMaskFilter_7_);}
	.st23{mask:url(#SVGID_10_);fill:url(#SVGID_11_);}
	.st24{fill:url(#SVGID_12_);}
	.st25{fill:#EAA36F;}
	.st26{fill:#DB5276;}
	.st27{fill:#FFFAE4;}
	.st28{fill:#F78197;}
	.st29{fill:#A86233;}
	.st30{fill:#F9D93A;}
	.st31{opacity:0.57;fill:url(#SVGID_13_);}
	.st32{fill:#E0A780;}
	.st33{fill:#FFF0E3;}
	.st34{fill:#1C0500;}
	.st35{fill:#6AB9CE;}
	.st36{fill:#2B271D;}
	.st37{fill:#FFFDFA;}
	.st38{fill:#BF7C4F;}
	.st39{fill:url(#SVGID_14_);}
	.st40{fill:url(#SVGID_15_);}
	.st41{fill:url(#SVGID_16_);}
	.st42{opacity:0.57;fill:#C68659;}
	.st43{opacity:0.13;fill:#FFF0E3;}
	.st44{filter:url(#Adobe_OpacityMaskFilter_8_);}
	.st45{filter:url(#Adobe_OpacityMaskFilter_9_);}
	.st46{mask:url(#SVGID_17_);fill:url(#SVGID_18_);}
	.st47{opacity:0.37;fill:url(#SVGID_19_);}
	.st48{filter:url(#Adobe_OpacityMaskFilter_10_);}
	.st49{filter:url(#Adobe_OpacityMaskFilter_11_);}
	.st50{mask:url(#SVGID_20_);fill:url(#SVGID_21_);}
	.st51{opacity:0.37;fill:url(#SVGID_22_);}
	.st52{fill:#AD645C;}
	.st53{fill:#F2D7D6;}
</style>
<g>
	<g>
		<path class="st0" d="M617,322H420.7c-8-37.5-38.3-65.3-74.5-65.3c-36.2,0-66.5,27.9-74.5,65.3H75.4c-21.1,0-38.3,19.2-38.3,42.6
			v232c0,23.4,17.2,42.6,38.3,42.6h211.3v87.4l60.8-36.7l58.1,36.7v-87.4H617c21.1,0,38.3-19.2,38.3-42.6v-232
			C655.3,341.2,638.1,322,617,322z"/>
		<polygon class="st1" points="396.4,718.4 338.3,681.7 277.5,718.4 277.5,510 396.4,510 		"/>
		<ellipse class="st1" cx="337" cy="333.8" rx="76.6" ry="85.2"/>
		<path class="st2" d="M588,631.1H85.9c-31.9,0-58-26.1-58-58V372c0-31.9,26.1-58,58-58H588c31.9,0,58,26.1,58,58v201.1
			C646,605,619.9,631.1,588,631.1z"/>
		<ellipse class="st1" cx="76.1" cy="342.6" rx="13.2" ry="14.7"/>
		<g>
			<ellipse class="st1" cx="49.7" cy="372.5" rx="13.2" ry="14.7"/>
			<ellipse class="st1" cx="49.7" cy="423.9" rx="13.2" ry="14.7"/>
			<ellipse class="st1" cx="49.7" cy="475.2" rx="13.2" ry="14.7"/>
			<ellipse class="st1" cx="49.7" cy="526.6" rx="13.2" ry="14.7"/>
			<ellipse class="st1" cx="49.7" cy="575.1" rx="13.2" ry="14.7"/>
		</g>
		<ellipse class="st1" cx="123.6" cy="342.6" rx="13.2" ry="14.7"/>
		<ellipse class="st1" cx="171.2" cy="342.6" rx="13.2" ry="14.7"/>
		<ellipse class="st1" cx="218.7" cy="342.6" rx="13.2" ry="14.7"/>
		<ellipse class="st1" cx="266.3" cy="342.6" rx="13.2" ry="14.7"/>
		<ellipse class="st1" cx="313.8" cy="342.6" rx="13.2" ry="14.7"/>
		<ellipse class="st1" cx="361.4" cy="342.6" rx="13.2" ry="14.7"/>
		<ellipse class="st1" cx="408.9" cy="342.6" rx="13.2" ry="14.7"/>
		<ellipse class="st1" cx="456.5" cy="342.6" rx="13.2" ry="14.7"/>
		<ellipse class="st1" cx="504.1" cy="342.6" rx="13.2" ry="14.7"/>
		<ellipse class="st1" cx="551.6" cy="342.6" rx="13.2" ry="14.7"/>
		<ellipse class="st1" cx="599.2" cy="342.6" rx="13.2" ry="14.7"/>
		<ellipse class="st1" cx="76.1" cy="603.9" rx="13.2" ry="14.7"/>
		<ellipse class="st1" cx="123.6" cy="603.9" rx="13.2" ry="14.7"/>
		<ellipse class="st1" cx="171.2" cy="603.9" rx="13.2" ry="14.7"/>
		<ellipse class="st1" cx="218.7" cy="603.9" rx="13.2" ry="14.7"/>
		<ellipse class="st1" cx="266.3" cy="603.9" rx="13.2" ry="14.7"/>
		<ellipse class="st1" cx="313.8" cy="603.9" rx="13.2" ry="14.7"/>
		<ellipse class="st1" cx="361.4" cy="603.9" rx="13.2" ry="14.7"/>
		<ellipse class="st1" cx="408.9" cy="603.9" rx="13.2" ry="14.7"/>
		<ellipse class="st1" cx="456.5" cy="603.9" rx="13.2" ry="14.7"/>
		<ellipse class="st1" cx="504.1" cy="603.9" rx="13.2" ry="14.7"/>
		<ellipse class="st1" cx="551.6" cy="603.9" rx="13.2" ry="14.7"/>
		<ellipse class="st1" cx="599.2" cy="603.9" rx="13.2" ry="14.7"/>
		<path class="st3" d="M74.1,567.7V377.3c0-6.6,5.4-12,12-12h501.7c6.6,0,12,5.4,12,12v190.3c0,6.6-5.4,12-12,12H86.1
			C79.5,579.7,74.1,574.3,74.1,567.7z"/>
		<g>
			<path class="st1" d="M126.4,429.3h15.3l11.8,53.3l14.6-53.3H181l14.8,53.3l11.7-53.3h15.3l-18.4,83.5h-14.9l-15-54l-14.8,54
				h-14.8L126.4,429.3z"/>
			<path class="st1" d="M233.8,429.3h15.4v83.5h-15.4V429.3z"/>
			<path class="st1" d="M266.8,429.3h14.9l35,54.9v-54.9h15.5v83.5h-15L282.3,458v54.7h-15.5V429.3z"/>
			<path class="st1" d="M350.9,429.3h14.9l35,54.9v-54.9h15.5v83.5h-15L366.5,458v54.7h-15.5V429.3z"/>
			<path class="st1" d="M435,429.3h44.6v15.5h-29.2v15.1h29.2v15.3h-29.2v22h29.2v15.6H435V429.3z"/>
			<path class="st1" d="M495.2,429.3h16.5c9,0,15.4,0.8,19.3,2.5c3.8,1.6,6.9,4.4,9.2,8.2c2.3,3.8,3.5,8.3,3.5,13.6
				c0,5.5-1.3,10.1-3.9,13.8c-2.6,3.7-6.5,6.5-11.6,8.4l19.4,37.1h-17l-18.4-35.3h-1.4v35.3h-15.5V429.3z M510.7,461.9h4.9
				c4.9,0,8.3-0.7,10.2-2c1.9-1.3,2.8-3.5,2.8-6.6c0-1.8-0.5-3.4-1.4-4.8c-0.9-1.3-2.2-2.3-3.7-2.9c-1.5-0.6-4.4-0.9-8.5-0.9h-4.3
				V461.9z"/>
		</g>
		<polygon class="st2" points="335.5,260.2 340.7,271.9 352.3,273.8 343.9,282.9 345.9,295.8 335.5,289.7 325.1,295.8 327,282.9 
			318.6,273.8 330.3,271.9 		"/>
		<polygon class="st4" points="373.9,288.3 376.9,295 383.6,296.1 378.7,301.3 379.9,308.7 373.9,305.2 367.9,308.7 369.1,301.3 
			364.2,296.1 370.9,295 		"/>
		<polygon class="st4" points="295.3,288.3 298.3,295 305,296.1 300.2,301.3 301.3,308.7 295.3,305.2 289.4,308.7 290.5,301.3 
			285.7,296.1 292.4,295 		"/>
		<rect x="336.3" y="637.7" class="st2" width="4" height="38.2"/>
		<rect x="367.3" y="637.7" class="st2" width="4" height="51.4"/>
		<rect x="301.3" y="637.7" class="st2" width="4" height="51.4"/>
	</g>
	<path class="st1" d="M531.9,202.3c0-1.1-3.7-2-8.6-2.1c-0.2-5.5-1-9.6-1.9-9.6c-1,0-1.8,4.1-1.9,9.6c-4.9,0.2-8.6,1.1-8.6,2.1
		c0,1.1,3.7,2,8.6,2.1c0.2,5.5,1,9.6,1.9,9.6c1,0,1.8-4.1,1.9-9.6C528.2,204.3,531.9,203.4,531.9,202.3z"/>
	<path class="st1" d="M512.3,252.6c0-0.8-2.9-1.5-6.8-1.7c-0.1-4.3-0.8-7.5-1.5-7.5c-0.8,0-1.4,3.2-1.5,7.5
		c-3.9,0.1-6.8,0.8-6.8,1.7s2.9,1.5,6.8,1.7c0.1,4.3,0.8,7.5,1.5,7.5c0.8,0,1.4-3.2,1.5-7.5C509.4,254.2,512.3,253.5,512.3,252.6z"
		/>
	<path class="st1" d="M458.9,278.5c0-0.8-2.9-1.5-6.8-1.7c-0.1-4.3-0.8-7.5-1.5-7.5c-0.8,0-1.4,3.2-1.5,7.5
		c-3.9,0.1-6.8,0.8-6.8,1.7c0,0.8,2.9,1.5,6.8,1.7c0.1,4.3,0.8,7.5,1.5,7.5c0.8,0,1.4-3.2,1.5-7.5C456,280,458.9,279.3,458.9,278.5z
		"/>
	<path class="st1" d="M459.1,213.6c0-0.8-2.9-1.5-6.8-1.7c-0.1-4.3-0.8-7.5-1.5-7.5c-0.8,0-1.4,3.2-1.5,7.5
		c-3.9,0.1-6.8,0.8-6.8,1.7c0,0.8,2.9,1.5,6.8,1.7c0.1,4.3,0.8,7.5,1.5,7.5c0.8,0,1.4-3.2,1.5-7.5
		C456.2,215.1,459.1,214.4,459.1,213.6z"/>
	<path class="st1" d="M580.6,179.8c0-0.8-2.9-1.5-6.8-1.7c-0.1-4.3-0.8-7.5-1.5-7.5c-0.8,0-1.4,3.2-1.5,7.5
		c-3.9,0.1-6.8,0.8-6.8,1.7c0,0.8,2.9,1.5,6.8,1.7c0.1,4.3,0.8,7.5,1.5,7.5c0.8,0,1.4-3.2,1.5-7.5
		C577.7,181.4,580.6,180.7,580.6,179.8z"/>
	<path class="st1" d="M505.3,151.9c0-0.8-2.9-1.5-6.8-1.7c-0.1-4.3-0.8-7.5-1.5-7.5c-0.8,0-1.4,3.2-1.5,7.5
		c-3.9,0.1-6.8,0.8-6.8,1.7c0,0.8,2.9,1.5,6.8,1.7c0.1,4.3,0.8,7.5,1.5,7.5c0.8,0,1.4-3.2,1.5-7.5
		C502.4,153.5,505.3,152.8,505.3,151.9z"/>
	<path class="st1" d="M582.3,226.4c0-0.5-1.8-0.9-4.1-1c-0.1-2.6-0.5-4.5-0.9-4.5c-0.5,0-0.8,1.9-0.9,4.5c-2.3,0.1-4.1,0.5-4.1,1
		c0,0.5,1.8,0.9,4.1,1c0.1,2.6,0.5,4.5,0.9,4.5c0.5,0,0.8-1.9,0.9-4.5C580.6,227.3,582.3,226.9,582.3,226.4z"/>
	<path class="st1" d="M475.8,248.2c0-0.5-1.8-0.9-4.1-1c-0.1-2.6-0.5-4.5-0.9-4.5s-0.8,1.9-0.9,4.5c-2.3,0.1-4.1,0.5-4.1,1
		s1.8,0.9,4.1,1c0.1,2.6,0.5,4.5,0.9,4.5s0.8-1.9,0.9-4.5C474.1,249.1,475.8,248.7,475.8,248.2z"/>
	<path class="st1" d="M399.1,213.8c0-0.5-1.8-0.9-4.1-1c-0.1-2.6-0.5-4.5-0.9-4.5c-0.5,0-0.8,1.9-0.9,4.5c-2.3,0.1-4.1,0.5-4.1,1
		c0,0.5,1.8,0.9,4.1,1c0.1,2.6,0.5,4.5,0.9,4.5c0.5,0,0.8-1.9,0.9-4.5C397.3,214.7,399.1,214.3,399.1,213.8z"/>
	<path class="st1" d="M444.3,156.2c0-0.5-1.8-0.9-4.1-1c-0.1-2.6-0.5-4.5-0.9-4.5s-0.8,1.9-0.9,4.5c-2.3,0.1-4.1,0.5-4.1,1
		c0,0.5,1.8,0.9,4.1,1c0.1,2.6,0.5,4.5,0.9,4.5s0.8-1.9,0.9-4.5C442.6,157.2,444.3,156.7,444.3,156.2z"/>
	<path class="st1" d="M543.2,161.5c0-0.5-1.8-0.9-4.1-1c-0.1-2.6-0.5-4.5-0.9-4.5c-0.5,0-0.8,1.9-0.9,4.5c-2.3,0.1-4.1,0.5-4.1,1
		s1.8,0.9,4.1,1c0.1,2.6,0.5,4.5,0.9,4.5c0.5,0,0.8-1.9,0.9-4.5C541.4,162.5,543.2,162,543.2,161.5z"/>
	<path class="st1" d="M604.4,259.4c0-0.5-1.8-0.9-4.1-1c-0.1-2.6-0.5-4.5-0.9-4.5s-0.8,1.9-0.9,4.5c-2.3,0.1-4.1,0.5-4.1,1
		c0,0.5,1.8,0.9,4.1,1c0.1,2.6,0.5,4.5,0.9,4.5s0.8-1.9,0.9-4.5C602.7,260.3,604.4,259.9,604.4,259.4z"/>
	<path class="st1" d="M493.5,192.4c0-0.5-1.8-0.9-4.1-1c-0.1-2.6-0.5-4.5-0.9-4.5c-0.5,0-0.8,1.9-0.9,4.5c-2.3,0.1-4.1,0.5-4.1,1
		s1.8,0.9,4.1,1c0.1,2.6,0.5,4.5,0.9,4.5c0.5,0,0.8-1.9,0.9-4.5C491.7,193.3,493.5,192.9,493.5,192.4z"/>
	<path class="st1" d="M196.1,750.4c0-1.1-3.7-2-8.6-2.1c-0.2-5.5-1-9.6-1.9-9.6s-1.8,4.1-1.9,9.6c-4.9,0.2-8.6,1.1-8.6,2.1
		c0,1.1,3.7,2,8.6,2.1c0.2,5.5,1,9.6,1.9,9.6s1.8-4.1,1.9-9.6C192.3,752.4,196.1,751.5,196.1,750.4z"/>
	<path class="st1" d="M123.2,761.7c0-0.8-2.9-1.5-6.8-1.7c-0.1-4.3-0.8-7.5-1.5-7.5c-0.8,0-1.4,3.2-1.5,7.5
		c-3.9,0.1-6.8,0.8-6.8,1.7s2.9,1.5,6.8,1.7c0.1,4.3,0.8,7.5,1.5,7.5c0.8,0,1.4-3.2,1.5-7.5C120.3,763.2,123.2,762.5,123.2,761.7z"
		/>
	<path class="st1" d="M244.8,727.9c0-0.8-2.9-1.5-6.8-1.7c-0.1-4.3-0.8-7.5-1.5-7.5c-0.8,0-1.4,3.2-1.5,7.5
		c-3.9,0.1-6.8,0.8-6.8,1.7c0,0.8,2.9,1.5,6.8,1.7c0.1,4.3,0.8,7.5,1.5,7.5c0.8,0,1.4-3.2,1.5-7.5
		C241.9,729.5,244.8,728.8,244.8,727.9z"/>
	<path class="st1" d="M169.5,700c0-0.8-2.9-1.5-6.8-1.7c-0.1-4.3-0.8-7.5-1.5-7.5c-0.8,0-1.4,3.2-1.5,7.5c-3.9,0.1-6.8,0.8-6.8,1.7
		c0,0.8,2.9,1.5,6.8,1.7c0.1,4.3,0.8,7.5,1.5,7.5c0.8,0,1.4-3.2,1.5-7.5C166.6,701.6,169.5,700.9,169.5,700z"/>
	<path class="st1" d="M63.2,761.8c0-0.5-1.8-0.9-4.1-1c-0.1-2.6-0.5-4.5-0.9-4.5c-0.5,0-0.8,1.9-0.9,4.5c-2.3,0.1-4.1,0.5-4.1,1
		s1.8,0.9,4.1,1c0.1,2.6,0.5,4.5,0.9,4.5c0.5,0,0.8-1.9,0.9-4.5C61.5,762.8,63.2,762.3,63.2,761.8z"/>
	<path class="st1" d="M108.5,704.3c0-0.5-1.8-0.9-4.1-1c-0.1-2.6-0.5-4.5-0.9-4.5s-0.8,1.9-0.9,4.5c-2.3,0.1-4.1,0.5-4.1,1
		s1.8,0.9,4.1,1c0.1,2.6,0.5,4.5,0.9,4.5s0.8-1.9,0.9-4.5C106.8,705.3,108.5,704.8,108.5,704.3z"/>
	<path class="st1" d="M207.3,709.6c0-0.5-1.8-0.9-4.1-1c-0.1-2.6-0.5-4.5-0.9-4.5c-0.5,0-0.8,1.9-0.9,4.5c-2.3,0.1-4.1,0.5-4.1,1
		s1.8,0.9,4.1,1c0.1,2.6,0.5,4.5,0.9,4.5c0.5,0,0.8-1.9,0.9-4.5C205.6,710.6,207.3,710.1,207.3,709.6z"/>
	<path class="st1" d="M157.6,740.5c0-0.5-1.8-0.9-4.1-1c-0.1-2.6-0.5-4.5-0.9-4.5c-0.5,0-0.8,1.9-0.9,4.5c-2.3,0.1-4.1,0.5-4.1,1
		c0,0.5,1.8,0.9,4.1,1c0.1,2.6,0.5,4.5,0.9,4.5c0.5,0,0.8-1.9,0.9-4.5C155.9,741.4,157.6,741,157.6,740.5z"/>
	<path class="st1" d="M734.7,663.3c0-1.1-3.7-2-8.6-2.1c-0.2-5.5-1-9.6-1.9-9.6c-1,0-1.8,4.1-1.9,9.6c-4.9,0.2-8.6,1.1-8.6,2.1
		c0,1.1,3.7,2,8.6,2.1c0.2,5.5,1,9.6,1.9,9.6c1,0,1.8-4.1,1.9-9.6C731,665.2,734.7,664.3,734.7,663.3z"/>
	<path class="st1" d="M661.9,674.6c0-0.8-2.9-1.5-6.8-1.7c-0.1-4.3-0.8-7.5-1.5-7.5c-0.8,0-1.4,3.2-1.5,7.5
		c-3.9,0.1-6.8,0.8-6.8,1.7s2.9,1.5,6.8,1.7c0.1,4.3,0.8,7.5,1.5,7.5c0.8,0,1.4-3.2,1.5-7.5C659,676.1,661.9,675.4,661.9,674.6z"/>
	<path class="st1" d="M783.4,640.8c0-0.8-2.9-1.5-6.8-1.7c-0.1-4.3-0.8-7.5-1.5-7.5c-0.8,0-1.4,3.2-1.5,7.5
		c-3.9,0.1-6.8,0.8-6.8,1.7c0,0.8,2.9,1.5,6.8,1.7c0.1,4.3,0.8,7.5,1.5,7.5c0.8,0,1.4-3.2,1.5-7.5
		C780.5,642.3,783.4,641.6,783.4,640.8z"/>
	<path class="st1" d="M708.1,612.9c0-0.8-2.9-1.5-6.8-1.7c-0.1-4.3-0.8-7.5-1.5-7.5c-0.8,0-1.4,3.2-1.5,7.5
		c-3.9,0.1-6.8,0.8-6.8,1.7c0,0.8,2.9,1.5,6.8,1.7c0.1,4.3,0.8,7.5,1.5,7.5c0.8,0,1.4-3.2,1.5-7.5
		C705.2,614.4,708.1,613.7,708.1,612.9z"/>
	<path class="st1" d="M601.9,674.7c0-0.5-1.8-0.9-4.1-1c-0.1-2.6-0.5-4.5-0.9-4.5c-0.5,0-0.8,1.9-0.9,4.5c-2.3,0.1-4.1,0.5-4.1,1
		c0,0.5,1.8,0.9,4.1,1c0.1,2.6,0.5,4.5,0.9,4.5c0.5,0,0.8-1.9,0.9-4.5C600.1,675.6,601.9,675.2,601.9,674.7z"/>
	<path class="st1" d="M647.1,617.2c0-0.5-1.8-0.9-4.1-1c-0.1-2.6-0.5-4.5-0.9-4.5s-0.8,1.9-0.9,4.5c-2.3,0.1-4.1,0.5-4.1,1
		s1.8,0.9,4.1,1c0.1,2.6,0.5,4.5,0.9,4.5s0.8-1.9,0.9-4.5C645.4,618.1,647.1,617.7,647.1,617.2z"/>
	<path class="st1" d="M746,622.5c0-0.5-1.8-0.9-4.1-1c-0.1-2.6-0.5-4.5-0.9-4.5c-0.5,0-0.8,1.9-0.9,4.5c-2.3,0.1-4.1,0.5-4.1,1
		s1.8,0.9,4.1,1c0.1,2.6,0.5,4.5,0.9,4.5c0.5,0,0.8-1.9,0.9-4.5C744.2,623.4,746,623,746,622.5z"/>
	<path class="st1" d="M696.3,653.3c0-0.5-1.8-0.9-4.1-1c-0.1-2.6-0.5-4.5-0.9-4.5c-0.5,0-0.8,1.9-0.9,4.5c-2.3,0.1-4.1,0.5-4.1,1
		c0,0.5,1.8,0.9,4.1,1c0.1,2.6,0.5,4.5,0.9,4.5c0.5,0,0.8-1.9,0.9-4.5C694.5,654.3,696.3,653.8,696.3,653.3z"/>
	<g>
		<ellipse class="st5" cx="550.9" cy="283.9" rx="31.7" ry="35.2"/>
		<ellipse class="st6" cx="550.9" cy="283.9" rx="20.8" ry="23.1"/>
		<g>
			<defs>
				<filter id="Adobe_OpacityMaskFilter" filterUnits="userSpaceOnUse" x="575.6" y="239.6" width="150.9" height="121.3">
					<feFlood  style="flood-color:white;flood-opacity:1" result="back"/>
					<feBlend  in="SourceGraphic" in2="back" mode="normal"/>
				</filter>
			</defs>
			<mask maskUnits="userSpaceOnUse" x="575.6" y="239.6" width="150.9" height="121.3" id="SVGID_1_">
				<g class="st7">
					<defs>
						<filter id="Adobe_OpacityMaskFilter_1_" filterUnits="userSpaceOnUse" x="575.6" y="239.6" width="150.9" height="121.3">
							<feFlood  style="flood-color:white;flood-opacity:1" result="back"/>
							<feBlend  in="SourceGraphic" in2="back" mode="normal"/>
						</filter>
					</defs>
					<mask maskUnits="userSpaceOnUse" x="575.6" y="239.6" width="150.9" height="121.3" id="SVGID_1_">
						<g class="st8">
						</g>
					</mask>
					
						<linearGradient id="SVGID_2_" gradientUnits="userSpaceOnUse" x1="-449.2232" y1="-1231.6271" x2="-590.5623" y2="-1075.7578" gradientTransform="matrix(0.7645 -0.4595 0.5786 0.7983 1718.4375 968.9118)">
						<stop  offset="0" style="stop-color:#000000"/>
						<stop  offset="8.794017e-02" style="stop-color:#070707"/>
						<stop  offset="0.2153" style="stop-color:#1A1A1A"/>
						<stop  offset="0.3666" style="stop-color:#3A3A3A"/>
						<stop  offset="0.5364" style="stop-color:#666666"/>
						<stop  offset="0.7215" style="stop-color:#9E9E9E"/>
						<stop  offset="0.9166" style="stop-color:#E2E2E2"/>
						<stop  offset="0.9949" style="stop-color:#FFFFFF"/>
					</linearGradient>
					<path class="st9" d="M675,359.9c-33.9-1.2-81.2-26.9-96-62.2c-7.6-18-2.5-50.3,18.1-57c16-5.2,35.7,8.7,47.9,18.5
						c16.3,13.2,24.3,31.2,38,46.2c14,15.3,30.5,26.1,43.5,42.2C713.7,365.2,693.6,360.5,675,359.9z"/>
				</g>
			</mask>
			
				<linearGradient id="SVGID_3_" gradientUnits="userSpaceOnUse" x1="-449.2232" y1="-1231.6271" x2="-590.5623" y2="-1075.7578" gradientTransform="matrix(0.7645 -0.4595 0.5786 0.7983 1718.4375 968.9118)">
				<stop  offset="0" style="stop-color:#FFFFFF"/>
				<stop  offset="0.9949" style="stop-color:#FFFFFF"/>
			</linearGradient>
			<path class="st10" d="M675,359.9c-33.9-1.2-81.2-26.9-96-62.2c-7.6-18-2.5-50.3,18.1-57c16-5.2,35.7,8.7,47.9,18.5
				c16.3,13.2,24.3,31.2,38,46.2c14,15.3,30.5,26.1,43.5,42.2C713.7,365.2,693.6,360.5,675,359.9z"/>
			<path class="st11" d="M648,257.7c-12.3-8.5-7.1,23.9,8.2,15.9C657,267.2,655.4,257.2,648,257.7z"/>
			<path class="st11" d="M705.6,244.4c8.3-13.2,15.1,18.8-1.9,18.3C700.7,257.2,698.6,247.2,705.6,244.4z"/>
			<path class="st12" d="M651.8,205.9c-25.8-24.7,12.9-57,36.8-38.2c9.9,7.8,9.2,27.7,0.1,37C678.3,215.2,661.4,215,651.8,205.9z"/>
			<path class="st12" d="M658,282.4c-20.5-28.2-32.5-53.2-18.5-73.9c13.5-20,53.3-30.2,64.8-4.6c4.6,10.3,3.4,12.7,5.5,23.7
				c2,10.2-4.1,35.5-8.7,45C691.5,292.2,668.1,296.3,658,282.4z"/>
			<defs>
				<filter id="Adobe_OpacityMaskFilter_2_" filterUnits="userSpaceOnUse" x="703.4" y="344.8" width="139.3" height="140.1">
					<feFlood  style="flood-color:white;flood-opacity:1" result="back"/>
					<feBlend  in="SourceGraphic" in2="back" mode="normal"/>
				</filter>
			</defs>
			<mask maskUnits="userSpaceOnUse" x="703.4" y="344.8" width="139.3" height="140.1" id="SVGID_4_">
				<g class="st13">
					<defs>
						<filter id="Adobe_OpacityMaskFilter_3_" filterUnits="userSpaceOnUse" x="703.4" y="344.8" width="139.3" height="140.1">
							<feFlood  style="flood-color:white;flood-opacity:1" result="back"/>
							<feBlend  in="SourceGraphic" in2="back" mode="normal"/>
						</filter>
					</defs>
					<mask maskUnits="userSpaceOnUse" x="703.4" y="344.8" width="139.3" height="140.1" id="SVGID_4_">
						<g class="st14">
						</g>
					</mask>
					
						<linearGradient id="SVGID_5_" gradientUnits="userSpaceOnUse" x1="840.9478" y1="-22.8545" x2="749.3173" y2="74.5028" gradientTransform="matrix(1.1269 -0.2332 0.2428 1.1736 -116.6063 554.4155)">
						<stop  offset="0" style="stop-color:#000000"/>
						<stop  offset="8.794017e-02" style="stop-color:#070707"/>
						<stop  offset="0.2153" style="stop-color:#1A1A1A"/>
						<stop  offset="0.3666" style="stop-color:#3A3A3A"/>
						<stop  offset="0.5364" style="stop-color:#666666"/>
						<stop  offset="0.7215" style="stop-color:#9E9E9E"/>
						<stop  offset="0.9166" style="stop-color:#E2E2E2"/>
						<stop  offset="0.9949" style="stop-color:#FFFFFF"/>
					</linearGradient>
					<path class="st15" d="M738.2,344.8c0,0,107.3,48.4,104.4,88.5s-20.2,52.5-68,51.6c-47.8-1-71.2-93.8-71.2-93.8L738.2,344.8z"/>
				</g>
			</mask>
			
				<linearGradient id="SVGID_6_" gradientUnits="userSpaceOnUse" x1="840.9478" y1="-22.8545" x2="749.3173" y2="74.5028" gradientTransform="matrix(1.1269 -0.2332 0.2428 1.1736 -116.6063 554.4155)">
				<stop  offset="0" style="stop-color:#FFFFFF"/>
				<stop  offset="0.9949" style="stop-color:#FFFFFF"/>
			</linearGradient>
			<path class="st16" d="M738.2,344.8c0,0,107.3,48.4,104.4,88.5s-20.2,52.5-68,51.6c-47.8-1-71.2-93.8-71.2-93.8L738.2,344.8z"/>
			<defs>
				<filter id="Adobe_OpacityMaskFilter_4_" filterUnits="userSpaceOnUse" x="625.7" y="364.2" width="116.5" height="150.8">
					<feFlood  style="flood-color:white;flood-opacity:1" result="back"/>
					<feBlend  in="SourceGraphic" in2="back" mode="normal"/>
				</filter>
			</defs>
			<mask maskUnits="userSpaceOnUse" x="625.7" y="364.2" width="116.5" height="150.8" id="SVGID_7_">
				<g class="st17">
					<defs>
						<filter id="Adobe_OpacityMaskFilter_5_" filterUnits="userSpaceOnUse" x="625.7" y="364.2" width="116.5" height="150.8">
							<feFlood  style="flood-color:white;flood-opacity:1" result="back"/>
							<feBlend  in="SourceGraphic" in2="back" mode="normal"/>
						</filter>
					</defs>
					<mask maskUnits="userSpaceOnUse" x="625.7" y="364.2" width="116.5" height="150.8" id="SVGID_7_">
						<g class="st18">
						</g>
					</mask>
					
						<linearGradient id="SVGID_8_" gradientUnits="userSpaceOnUse" x1="6901.6206" y1="16.7428" x2="6813.6729" y2="110.1874" gradientTransform="matrix(-1.1246 0.2327 0.2303 1.1132 8358.624 -1239.4579)">
						<stop  offset="0" style="stop-color:#000000"/>
						<stop  offset="8.794017e-02" style="stop-color:#070707"/>
						<stop  offset="0.2153" style="stop-color:#1A1A1A"/>
						<stop  offset="0.3666" style="stop-color:#3A3A3A"/>
						<stop  offset="0.5364" style="stop-color:#666666"/>
						<stop  offset="0.7215" style="stop-color:#9E9E9E"/>
						<stop  offset="0.9166" style="stop-color:#E2E2E2"/>
						<stop  offset="0.9949" style="stop-color:#FFFFFF"/>
					</linearGradient>
					<path class="st19" d="M693,364.2c0,0-81.7,88.1-65.1,121.7s36.8,37,80.3,15.6c43.5-21.4,32.8-112,32.8-112L693,364.2z"/>
				</g>
			</mask>
			
				<linearGradient id="SVGID_9_" gradientUnits="userSpaceOnUse" x1="6901.6206" y1="16.7428" x2="6813.6729" y2="110.1874" gradientTransform="matrix(-1.1246 0.2327 0.2303 1.1132 8358.624 -1239.4579)">
				<stop  offset="0" style="stop-color:#FFFFFF"/>
				<stop  offset="0.9949" style="stop-color:#FFFFFF"/>
			</linearGradient>
			<path class="st20" d="M693,364.2c0,0-81.7,88.1-65.1,121.7s36.8,37,80.3,15.6c43.5-21.4,32.8-112,32.8-112L693,364.2z"/>
			<defs>
				<filter id="Adobe_OpacityMaskFilter_6_" filterUnits="userSpaceOnUse" x="702" y="194.4" width="129.5" height="175">
					<feFlood  style="flood-color:white;flood-opacity:1" result="back"/>
					<feBlend  in="SourceGraphic" in2="back" mode="normal"/>
				</filter>
			</defs>
			<mask maskUnits="userSpaceOnUse" x="702" y="194.4" width="129.5" height="175" id="SVGID_10_">
				<g class="st21">
					<defs>
						<filter id="Adobe_OpacityMaskFilter_7_" filterUnits="userSpaceOnUse" x="702" y="194.4" width="129.5" height="175">
							<feFlood  style="flood-color:white;flood-opacity:1" result="back"/>
							<feBlend  in="SourceGraphic" in2="back" mode="normal"/>
						</filter>
					</defs>
					<mask maskUnits="userSpaceOnUse" x="702" y="194.4" width="129.5" height="175" id="SVGID_10_">
						<g class="st22">
						</g>
					</mask>
					
						<linearGradient id="SVGID_11_" gradientUnits="userSpaceOnUse" x1="601.3007" y1="-93.524" x2="656.9873" y2="114.1719" gradientTransform="matrix(0.9793 -0.2026 0.2026 0.9793 140.9701 378.3735)">
						<stop  offset="0" style="stop-color:#000000"/>
						<stop  offset="8.794017e-02" style="stop-color:#070707"/>
						<stop  offset="0.2153" style="stop-color:#1A1A1A"/>
						<stop  offset="0.3666" style="stop-color:#3A3A3A"/>
						<stop  offset="0.5364" style="stop-color:#666666"/>
						<stop  offset="0.7215" style="stop-color:#9E9E9E"/>
						<stop  offset="0.9166" style="stop-color:#E2E2E2"/>
						<stop  offset="0.9949" style="stop-color:#FFFFFF"/>
					</linearGradient>
					<path class="st23" d="M702,316.2c0,0,54.9-97.1,76-113.4c36.9-28.5,68.5,20.2,46,68.3c-22.5,48.1-101.3,98.2-101.3,98.2
						L702,316.2z"/>
				</g>
			</mask>
			
				<linearGradient id="SVGID_12_" gradientUnits="userSpaceOnUse" x1="601.3007" y1="-93.524" x2="656.9873" y2="114.1719" gradientTransform="matrix(0.9793 -0.2026 0.2026 0.9793 140.9701 378.3735)">
				<stop  offset="0" style="stop-color:#FFFFFF"/>
				<stop  offset="0.9949" style="stop-color:#FFFFFF"/>
			</linearGradient>
			<path class="st24" d="M702,316.2c0,0,54.9-97.1,76-113.4c36.9-28.5,68.5,20.2,46,68.3c-22.5,48.1-101.3,98.2-101.3,98.2
				L702,316.2z"/>
			<path class="st25" d="M659.8,306.7l-22.5,68.7c-1.4,4.3-5.6,6.6-9.5,5.2l-48-16.7c0,0-0.9-12.5-10-23.1
				c-9.1-10.6-10.6,19.9-10.6,19.9l3.7,15.8c0,0,2.8,3.3,7.7,3c4.9-0.3,8.6-3.6,8.6-3.6l62.9,31.3c1.6,0.8,3.4,0.2,4.4-1.3l21.4-33
				L659.8,306.7z"/>
			<path class="st25" d="M670,276.5c0,0,6.6,20-7,31.8l33.1,28.2l10.8-41.6c0,0-17-7-20.4-21.4L670,276.5z"/>
			<path class="st25" d="M663.2,306l43.8-11.1l14,51.8l-6.7,33.3c0,0-52.2-19-53.5-21.9C659.6,355.3,663.2,306,663.2,306z"/>
			<path class="st26" d="M765.4,449.3c0,0,16.7,26.8,14.3,51.9c-2.5,25.2-4.8,28.1,0,42.1c4.7,14,11.5,27.5,12.1,30.5
				c0.6,3-0.3-1.5-7.5,1.7c-7.2,3.3-21.9,5-26.4,11.6c-4.5,6.6-64.9,11.8-64.9,11.8l2-58.4l14.1-42.9l29.8-39.4L765.4,449.3z"/>
			<path class="st27" d="M856,597.3c0,0,10.4,20.6,14.5,21c4.1,0.4,10.4-1.3,7.3-15.3c-3.1-14-14.1-31-14.1-31s1.9-9.4-6.3-10.2
				c-8.2-0.8-14.1,8.2-14.1,8.2l6.3,14.8L856,597.3z"/>
			<path class="st27" d="M738.9,638.1c0,0,3.1,44.5,8.5,56.9c5.4,12.4,17.7,5.5,17.7,5.5s6.4-3.4,5.4-13.1c-1-9.7-10.5-39-23.3-51.1
				L738.9,638.1z"/>
			<path class="st25" d="M699.1,461c3.6,27.6,12.6,84.6,20.9,111c6.1,19.5,16.2,40.6,18.2,61.3c1.1,12.1,2.9,24.1,5.2,36
				c1.5,7.7,8.5,30.8,19.8,20.8c3-2.7,0.7-16.5-2.1-25.3S747,631.5,747,631.5c-4-29-6.3-58.4-10.7-87.3c-0.7-4.5-9.9-76.9-13-77.6
				L699.1,461z"/>
			<path class="st25" d="M768.6,541.6c0,0,11.6-1.4,34,3.5c22.4,4.9,49.7,21.7,49.7,21.7s13,12.9,18.6,25.3
				c5.5,12.5,2,19.8-3.5,18.8c-5.5-1-13.9-21.3-17.8-26.5c-3.9-5.1-8.2-5.5-14.2-10.9c-6.1-5.3-64-12.4-74.3-12.4
				s-9.1-8.9-13.1-16.5c-4.2-8.1-49.3-78-49.3-78l23.7-22.2L768.6,541.6z"/>
			<path class="st28" d="M756,423.7c-3.6-11.9-12.6-21.7-19-37c-6.4-15.2-1.5-15.6-2-29.8s-2.5-9.8-9.2-22.5
				c-6.7-12.8-14.8-41.1-14.8-41.1l-9.5-1c0,0-14.3,46.1-29.5,44.9c-7.1-0.6-3.3-36.5-3.3-36.5l-8.9,6c0,0-6.1,36.4-6.2,51.5
				c0,15.1,15.7,26.6,20.8,31c5.1,4.4,15.3,13.2,16.4,15.3c1.1,2.1-7,15.6-7.7,22.9c-0.8,7.3,4,18.5-1.7,26.2
				c-5.7,7.7-7,23.9-3.8,33.5c3.2,9.6,10.9,23.7,5,38.6c-5.8,14.9-1.4,42.5-0.2,52.5c1.2,10.1,9.2,22.5,9.2,22.5s0,0,0.1-0.1l0,0.1
				c18.9-9.9,22.7-27.4,29.6-40.1c6.9-12.7,3.1-14.2,17.9-30.3c14.8-16.1,9.1-35.4,9.1-35.4c3.2-5.4,7.6-8.6,12.1-10.5
				c9.6,2.7,17.2,4.2,19.2-2.5C781.5,475.9,759.7,435.6,756,423.7z"/>
			<g>
				<path class="st25" d="M747.4,461.3c-0.4-1.5-0.7-2.5-0.7-2.5S746.3,459.7,747.4,461.3z"/>
				<path class="st25" d="M762.8,451.3c-11.4-9.6-14.2-9.3-14.2-9.3s-8.2-118.6-15.2-133.8c-7-15.2-23.3-14.5-23.3-14.5l14.4,91.7
					l16.7,67.9c0,0-2.5,23.5,4.4,23.5c5.3,0,3.2-10.5,1.9-15.4c-1.1-1.6-0.7-2.5-0.7-2.5s0.3,1,0.7,2.5c0.8,1.2,2.5,2.7,5.7,4.5
					c7.7,4.3,5.9,17.1,12.8,16.9c3.1-0.1,3.8-2.2,3.8-4.9c-0.4-3.5-1.3-10.4-1.3-11.3c0-1.3-0.9-3.5-0.9-3.5s3.4,4,6.1,4.7
					C783.7,470,774.2,460.9,762.8,451.3z"/>
			</g>
			<polygon class="st29" points="549.7,289.3 583.2,426.4 586.2,425.5 552.7,288.4 			"/>
			<path class="st11" d="M563.7,336c2.3,3.1,16.6,19.5,2,14.6c3.2,4,8.7,9.5,10.9,15.4c-1.9,2.1-2.4,4.3-5.3,5.4
				c9.5,9-8.8,13.3-13.9,6.8c-1.3-1.7-3.1-9.6-4.5-12.5c-1.3-2.6-9.1-7-1.6-9.9C547.9,344.9,555.5,324.8,563.7,336z"/>
			<path class="st11" d="M645.3,249c3.4,18.4,2.7,31.1,18.4,39.4c13.3,7,22,5.8,32.3-6.9c10.6-13,11.3-25.2,9.7-42
				c-1.4-14.8-8.8-36.5-23.9-41.5c-11.6-3.9-21.1,2.6-30.6,9.9C635.7,219.9,642.3,232.8,645.3,249z"/>
			<polygon class="st30" points="547,274.9 552.7,281.6 560.9,280.2 556.9,288.3 560.6,296.6 552.4,294.8 546.5,301.3 545.5,292.1 
				538.1,287.9 545.6,284 			"/>
			<g>
				
					<linearGradient id="SVGID_13_" gradientUnits="userSpaceOnUse" x1="542.0112" y1="-11.5792" x2="549.179" y2="-11.5792" gradientTransform="matrix(0.9793 -0.2026 0.2026 0.9793 140.9701 378.3735)">
					<stop  offset="0" style="stop-color:#F9BF98"/>
					<stop  offset="1" style="stop-color:#EFAD81"/>
				</linearGradient>
				<path class="st31" d="M666.6,243.6c0,0,12,1.8,11,26.1c0,0-3.2-1.3-4.5-0.1C671.7,270.8,677.7,260.8,666.6,243.6z"/>
				<g>
					<g>
						<path class="st32" d="M681.3,249.1c0,0,1.4-11.4,15.3-13.7c0,0,0.9,3.4-1.3,7.4C693.3,246.3,681.3,249.1,681.3,249.1z"/>
						<path class="st33" d="M681.3,249.1c0,0,2-2.9,2.9-4.6c0.9-1.6,7.8-6.5,11.1-1.7C695.3,242.8,691.8,250.6,681.3,249.1z"/>
						<path class="st34" d="M695.3,242.8c0,0,1.9-2.9,1.1-4.9c0,0-0.3,2.6-1.7,3.5c0,0,0.8-2.7,0.1-3.8c0,0-0.4,2.5-1.2,2.5
							c0,0,0.3-1.1-0.4-2.3c0,0,0.1,1.5-1.7,2.1c0,0,2,0.5,2.2,1c0.3,0.5,1.4,1.2,1.4,1.2L695.3,242.8z"/>
						<path class="st35" d="M689.3,248.1c1.7-0.6,2.7-2.7,2.1-4.6c-0.4-1.2-1.3-2.1-2.3-2.4c-1.5,0.5-2.9,1.4-3.9,2.2
							c-0.3,0.8-0.3,1.6-0.1,2.5C685.7,247.7,687.5,248.8,689.3,248.1z"/>
						<path class="st36" d="M690.3,243.6c0.4,1.3-0.3,2.7-1.4,3.1c-1.2,0.4-2.4-0.3-2.8-1.6c-0.4-1.3,0.3-2.7,1.4-3.1
							C688.6,241.6,689.9,242.3,690.3,243.6z"/>
						<path class="st34" d="M681.3,249.1c0,0,3.3-6,6.3-7.3c3-1.2,5.6-1.8,7.7,1c0,0-0.6-3.5-3.7-2.9S684.9,241.4,681.3,249.1z"/>
						<path class="st37" d="M686.9,243.6c0.1,0.5-0.1,1-0.5,1.1s-0.9-0.1-1-0.6c-0.1-0.5,0.1-1,0.5-1.1S686.8,243.1,686.9,243.6z"/>
						<path class="st37" d="M690.8,245.4c0.1,0.5-0.1,1-0.5,1.1c-0.4,0.2-0.9-0.1-1-0.6c-0.1-0.5,0.1-1,0.5-1.1
							S690.7,245,690.8,245.4z"/>
					</g>
					<path class="st38" d="M681.3,249.1c0.1,0.1,3.2-9.9,15.1-11.9C696.3,237.1,684.8,236.4,681.3,249.1z"/>
					<path class="st32" d="M681.3,249.1c0,0,11.1,5,15.2-5.7C696.5,243.3,694.2,255.2,681.3,249.1z"/>
					
						<linearGradient id="SVGID_14_" gradientUnits="userSpaceOnUse" x1="557.3452" y1="-26.8079" x2="566.4668" y2="-30.9887" gradientTransform="matrix(0.9793 -0.2026 0.2026 0.9793 140.9701 378.3735)">
						<stop  offset="4.284920e-03" style="stop-color:#59440D"/>
						<stop  offset="1" style="stop-color:#7F5E40"/>
					</linearGradient>
					<path class="st39" d="M679.1,237.2l13.5-8.7l7.8,0.4l-7.2,2.5c0,0-9.6,8-13.1,8.7C678.5,240.4,677.7,238,679.1,237.2z"/>
				</g>
				<g>
					<g>
						<path class="st32" d="M668.9,251.9c0,0-5.3-9.8-19-5.8c0,0,0.3,3.5,3.8,6.2C656.9,254.7,668.9,251.9,668.9,251.9z"/>
						<path class="st33" d="M668.9,251.9c0,0-2.8-1.8-4.3-2.9c-1.4-1.1-9.5-2.5-10.8,3.3C653.8,252.3,659.8,257.9,668.9,251.9z"/>
						<path class="st34" d="M653.8,252.3c0,0-2.8-1.8-2.8-4c0,0,1.2,2.3,2.8,2.4c0,0-1.7-2.1-1.4-3.4c0,0,1.3,2.1,2,1.7
							c0,0-0.7-0.8-0.5-2.3c0,0,0.5,1.4,2.3,1.2c0,0-1.6,1.4-1.7,1.9c-0.1,0.5-0.9,1.7-0.9,1.7L653.8,252.3z"/>
						<path class="st35" d="M661.2,254.6c-1.8,0.2-3.4-1.3-3.6-3.3c-0.1-1.3,0.4-2.5,1.3-3.2c1.6-0.2,3.2,0,4.4,0.3
							c0.5,0.6,0.9,1.4,0.9,2.2C664.4,252.6,663,254.4,661.2,254.6z"/>
						<path class="st36" d="M658.7,250.8c0.1,1.4,1.2,2.3,2.4,2.2c1.2-0.1,2.1-1.3,2-2.7c-0.1-1.4-1.2-2.3-2.4-2.2
							S658.6,249.5,658.7,250.8z"/>
						<path class="st34" d="M668.9,251.9c0,0-5.2-4.1-8.4-3.9c-3.2,0.2-5.8,0.8-6.7,4.3c0,0-0.7-3.5,2.3-4.3
							C659.2,247.2,662.9,246.5,668.9,251.9z"/>
						<path class="st37" d="M661.8,249.4c0,0.5,0.4,0.8,0.9,0.8c0.4,0,0.8-0.5,0.7-1c0-0.5-0.4-0.8-0.9-0.8
							C662,248.5,661.7,248.9,661.8,249.4z"/>
						<path class="st37" d="M658.9,252.8c0,0.5,0.4,0.8,0.9,0.8s0.8-0.5,0.7-1c0-0.5-0.4-0.8-0.9-0.8
							C659.1,251.9,658.8,252.3,658.9,252.8z"/>
					</g>
					<path class="st38" d="M668.9,251.9c-0.1,0.2-6.5-7.6-18.1-4.3C650.8,247.6,661.2,241.9,668.9,251.9z"/>
					<path class="st32" d="M668.9,251.9c0,0-8.4,9.5-16,1.5C652.9,253.4,659.3,263.3,668.9,251.9z"/>
					
						<linearGradient id="SVGID_15_" gradientUnits="userSpaceOnUse" x1="-2685.4622" y1="-25.5455" x2="-2676.5813" y2="-29.6158" gradientTransform="matrix(-0.9793 0.2026 0.2026 0.9793 -1959.4335 812.2843)">
						<stop  offset="4.284920e-03" style="stop-color:#59440D"/>
						<stop  offset="1" style="stop-color:#7F5E40"/>
					</linearGradient>
					<path class="st40" d="M666.6,240l-15.5-2l-7,3.8l7.5-0.9c0,0,11.7,3.1,15.2,2.2C668.4,242.7,668.2,240.2,666.6,240z"/>
				</g>
				<g>
					
						<linearGradient id="SVGID_16_" gradientUnits="userSpaceOnUse" x1="590.1942" y1="-99.11" x2="603.4974" y2="-99.11" gradientTransform="matrix(0.9905 -0.1375 0.1375 0.9905 101.9873 450.3218)">
						<stop  offset="0" style="stop-color:#F9BF98"/>
						<stop  offset="1" style="stop-color:#EFAD81"/>
					</linearGradient>
					<path class="st41" d="M680.9,269.1c-1,0.7-2.3,0.9-3.4,0.5c-1.5-0.5-3.5-0.9-4.3-0.2c-1.4,1.2,1.8,3.3,6.4,2.8
						c3.2-0.4,5.3-2.7,6.2-3.9c0.4-0.5,0-1.3-0.6-1.3C684.4,267.1,683,267.6,680.9,269.1z"/>
					<path class="st42" d="M678.8,271.9c-0.1,0.2-1.2,0.1-2.6-0.3c-1.4-0.4-2.5-0.9-2.4-1.2s1.2-0.1,2.6,0.3
						C677.7,271.1,678.8,271.6,678.8,271.9z"/>
					<path class="st42" d="M680.8,271.6c-0.1-0.2,0.6-1.2,1.7-2.3c1.1-1.1,2.1-1.8,2.2-1.6c0.1,0.2-0.6,1.2-1.7,2.3
						C681.9,271,680.9,271.8,680.8,271.6z"/>
				</g>
				<path class="st43" d="M674.2,250.3c0,0,3.9,5,3.3,19.4c0,0,1.6,0.6,2.9-0.2C680.4,269.5,680.5,258.9,674.2,250.3z"/>
				<defs>
					<filter id="Adobe_OpacityMaskFilter_8_" filterUnits="userSpaceOnUse" x="682.1" y="248.8" width="20.8" height="19.8">
						<feFlood  style="flood-color:white;flood-opacity:1" result="back"/>
						<feBlend  in="SourceGraphic" in2="back" mode="normal"/>
					</filter>
				</defs>
				<mask maskUnits="userSpaceOnUse" x="682.1" y="248.8" width="20.8" height="19.8" id="SVGID_17_">
					<g class="st44">
						<defs>
							<filter id="Adobe_OpacityMaskFilter_9_" filterUnits="userSpaceOnUse" x="682.1" y="248.8" width="20.8" height="19.8">
								<feFlood  style="flood-color:white;flood-opacity:1" result="back"/>
								<feBlend  in="SourceGraphic" in2="back" mode="normal"/>
							</filter>
						</defs>
						<mask maskUnits="userSpaceOnUse" x="682.1" y="248.8" width="20.8" height="19.8" id="SVGID_17_">
							<g class="st45">
							</g>
						</mask>
						
							<radialGradient id="SVGID_18_" cx="622.6581" cy="1033.4248" r="16.949" gradientTransform="matrix(0.5619 -0.3858 0.2444 0.4398 90.0294 44.4939)" gradientUnits="userSpaceOnUse">
							<stop  offset="2.590880e-03" style="stop-color:#FFFFFF"/>
							<stop  offset="1" style="stop-color:#000000"/>
						</radialGradient>
						<path class="st46" d="M702,252.2c2.3,4.1-0.1,10.4-5.4,14c-5.3,3.6-11.4,3.2-13.7-0.9c-2.3-4.1,0.1-10.4,5.4-14
							C693.6,247.7,699.7,248.1,702,252.2z"/>
					</g>
				</mask>
				
					<radialGradient id="SVGID_19_" cx="622.6581" cy="1033.4248" r="16.949" gradientTransform="matrix(0.5619 -0.3858 0.2444 0.4398 90.0294 44.4939)" gradientUnits="userSpaceOnUse">
					<stop  offset="2.590880e-03" style="stop-color:#EF8381"/>
					<stop  offset="1" style="stop-color:#F9BF98"/>
				</radialGradient>
				<path class="st47" d="M702,252.2c2.3,4.1-0.1,10.4-5.4,14c-5.3,3.6-11.4,3.2-13.7-0.9c-2.3-4.1,0.1-10.4,5.4-14
					C693.6,247.7,699.7,248.1,702,252.2z"/>
				<defs>
					<filter id="Adobe_OpacityMaskFilter_10_" filterUnits="userSpaceOnUse" x="647.3" y="255.2" width="21.7" height="18.5">
						<feFlood  style="flood-color:white;flood-opacity:1" result="back"/>
						<feBlend  in="SourceGraphic" in2="back" mode="normal"/>
					</filter>
				</defs>
				<mask maskUnits="userSpaceOnUse" x="647.3" y="255.2" width="21.7" height="18.5" id="SVGID_20_">
					<g class="st48">
						<defs>
							<filter id="Adobe_OpacityMaskFilter_11_" filterUnits="userSpaceOnUse" x="647.3" y="255.2" width="21.7" height="18.5">
								<feFlood  style="flood-color:white;flood-opacity:1" result="back"/>
								<feBlend  in="SourceGraphic" in2="back" mode="normal"/>
							</filter>
						</defs>
						<mask maskUnits="userSpaceOnUse" x="647.3" y="255.2" width="21.7" height="18.5" id="SVGID_20_">
							<g class="st49">
							</g>
						</mask>
						
							<radialGradient id="SVGID_21_" cx="981.8946" cy="-1441.2139" r="16.948" gradientTransform="matrix(0.6219 0.2472 -0.1567 0.4868 -178.2587 723.2047)" gradientUnits="userSpaceOnUse">
							<stop  offset="2.590880e-03" style="stop-color:#FFFFFF"/>
							<stop  offset="1" style="stop-color:#000000"/>
						</radialGradient>
						<path class="st50" d="M668.7,268.6c-1.5,4.6-7.4,6.4-13.2,4.1c-5.8-2.3-9.4-7.9-7.9-12.4c1.5-4.6,7.4-6.4,13.2-4.1
							C666.6,258.5,670.2,264.1,668.7,268.6z"/>
					</g>
				</mask>
				
					<radialGradient id="SVGID_22_" cx="981.8946" cy="-1441.2139" r="16.948" gradientTransform="matrix(0.6219 0.2472 -0.1567 0.4868 -178.2587 723.2047)" gradientUnits="userSpaceOnUse">
					<stop  offset="2.590880e-03" style="stop-color:#EF8381"/>
					<stop  offset="1" style="stop-color:#F9BF98"/>
				</radialGradient>
				<path class="st51" d="M668.7,268.6c-1.5,4.6-7.4,6.4-13.2,4.1c-5.8-2.3-9.4-7.9-7.9-12.4c1.5-4.6,7.4-6.4,13.2-4.1
					C666.6,258.5,670.2,264.1,668.7,268.6z"/>
			</g>
			<path class="st12" d="M684.2,215.4c-2.3,4.8-3,11.4-6.7,15.8c-3.7,4.4-10.9,7.3-15.4,10.4c-10.3,7.1-10.9,13.6-16,25.1
				c0.4-10.3-2.2-11.1-6.2-19.3c-3.2-6.5-3.3-14.2-3-21.2c0.7-18.8,6.3-26,23.1-30.3c6.6-1.7,13-1,18.6-1.3
				c6.6-0.4,16.6-3.3,21.3,3.1c4.5,6.3,10.4,40.2,7,47.3c-0.7-9.6-16.3-19.6-21.5-27.8C684.4,217.2,685,215.4,684.2,215.4z"/>
			<path class="st52" d="M669.6,278.8c0,0,14.8,0.8,21-5.4c0,0-0.9,11.7-9.3,12.5C672.9,286.6,669.6,278.8,669.6,278.8z"/>
			<path class="st53" d="M679.4,280.9c3.4-0.8,7.8-2.1,9.8-5.1c0.4-0.6,0.7-1.3,0.8-1.8c-5.3,4.6-15.5,4.9-19.1,4.9l0,0
				c0.1,0.6,0.5,1.1,1,1.3C673.6,280.6,676.9,281.5,679.4,280.9z"/>
		</g>
	</g>
</g>
</svg>
